<svg xmlns="http://www.w3.org/2000/svg" width="153" height="12" viewBox="0 0 153 12" fill="none">
  <path fill-rule="evenodd" clip-rule="evenodd" d="M96.818 10.7625V10.8762H101.34V0.1467H96.818V0.2605C97.737 1.646 98.279 3.2532 98.383 4.9229C98.505 6.8913 98.011 8.849 96.971 10.5243C96.921 10.6045 96.87 10.6839 96.818 10.7625ZM4.6355 0.827999C4.764 0.601199 4.9015 0.380399 5.0475 0.165899V0.1467H0.5V10.8762H5.0475V10.8569C4.9364 10.6937 4.8302 10.5267 4.7291 10.3563C3.8758 8.917 3.4177 7.2779 3.4013 5.6047C3.3849 3.9316 3.8106 2.2838 4.6355 0.827999ZM39.1684 3.6883H36.2178C36.0393 2.9548 35.4198 2.5357 34.5063 2.5357C33.0363 2.5357 32.1963 3.6307 32.1963 5.4905C32.1963 7.3766 32.9733 8.4872 34.4853 8.4872C35.7926 8.4872 36.4541 7.89 36.4803 6.9574H34.5273V4.8828H39.2944V6.3707C39.2944 9.3045 37.2783 11.0229 34.4643 11.0229C31.3248 11.0229 29.1933 8.9273 29.1933 5.5324C29.1933 1.9909 31.5453 0 34.4433 0C36.9844 0 38.9426 1.5351 39.1684 3.6883ZM21.2018 0.1467H18.2827V5.7629H18.1987L14.3767 0.1467H11.8987V10.8762H14.8177V5.239H14.8807L18.7657 10.8762H21.2018V0.1467ZM47.3082 10.8762H50.2272V7.3347H51.2352L53.1253 10.8762H56.2963L54.1123 6.8736C55.2568 6.3235 55.9393 5.281 55.9393 3.7931C55.9393 1.5089 54.338 0.1467 51.9492 0.1467H47.3082V10.8762ZM50.2272 5.0714V2.4728H51.2563C52.28 2.4728 52.8943 2.871 52.8943 3.7931C52.8943 4.7099 52.28 5.0714 51.2563 5.0714H50.2272ZM67.6924 8.8225L67.0729 10.8762H63.9229L67.4719 0.1467H71.4619L75.0109 10.8762H71.8609L71.2414 8.8225H67.6924ZM69.4249 3.1015L68.3539 6.6431H70.5799L69.5089 3.1015H69.4249ZM85.506 10.8762C88.782 10.8762 90.861 8.8644 90.861 5.5115C90.861 2.1585 88.782 0.1467 85.464 0.1467H81.369V10.8762H85.506ZM84.288 8.4034V2.6195H85.317C86.997 2.6195 87.921 3.2692 87.921 5.5115C87.921 7.7538 86.997 8.4034 85.401 8.4034H84.288ZM109.819 10.8762H117.547V8.5292H112.738V6.685H117.169V4.3379H112.738V2.4938H117.568V0.1467H109.819V10.8762ZM132.496 0.1467H135.415V10.8762H132.979L129.094 5.239H129.031V10.8762H126.112V0.1467H128.59L132.412 5.7629H132.496V0.1467ZM143.155 2.4938H146.389V10.8762H149.266V2.4938H152.5V0.1467H143.155V2.4938Z" fill="white"/>
</svg>