<?xml version="1.0" encoding="UTF-8" standalone="no"?>
<svg
   width="570.37109"
   height="570.38281"
   viewBox="0 0 570.37109 570.38281"
   version="1.1"
   id="svg988"
   sodipodi:docname="snail-logo.svg"
   inkscape:version="1.1.2 (b8e25be8, 2022-02-05)"
   xmlns:inkscape="http://www.inkscape.org/namespaces/inkscape"
   xmlns:sodipodi="http://sodipodi.sourceforge.net/DTD/sodipodi-0.dtd"
   xmlns="http://www.w3.org/2000/svg"
   xmlns:svg="http://www.w3.org/2000/svg">
  <sodipodi:namedview
     id="namedview990"
     pagecolor="#ffffff"
     bordercolor="#666666"
     borderopacity="1.0"
     inkscape:pageshadow="2"
     inkscape:pageopacity="0.0"
     inkscape:pagecheckerboard="0"
     showgrid="false"
     fit-margin-top="0"
     fit-margin-left="0"
     fit-margin-right="0"
     fit-margin-bottom="0"
     inkscape:zoom="0.3105"
     inkscape:cx="-149.75845"
     inkscape:cy="835.74879"
     inkscape:window-width="1312"
     inkscape:window-height="847"
     inkscape:window-x="0"
     inkscape:window-y="25"
     inkscape:window-maximized="0"
     inkscape:current-layer="svg988" />
  <defs
     id="defs976">
    <clipPath
       id="clip-0" />
    <clipPath
       id="clip-1">
      <path
         clip-rule="nonzero"
         d="m 585.17187,1236.8203 c -37.07031,0 -72.15234,-8.5195 -103.39453,-23.6992 9.78907,-0.7305 19.58594,-1.9492 29.35938,-3.6719 64.05078,-11.3086 142.09765,-39.1094 186.85547,-106.5781 29.23828,-44.0898 58.60547,-126.72266 28.63672,-154.44141 -2.45704,-2.26953 -5.35157,-4.19922 -8.54688,-5.78907 2.33203,-8.1289 5.54688,-17.83984 10.00391,-28.51953 3.59375,-8.60937 7.28125,-16.13281 10.54687,-22.3125 1.78906,-3.38672 5.07813,-5.63672 8.83594,-6.38672 0.0391,-0.0117 0.0742,-0.0234 0.10937,-0.0312 4.01172,-0.85156 6.97266,-4.44921 7.00782,-8.55078 0.0469,-5.89062 -5.45703,-10.1914 -11.19141,-8.67968 -3.85547,1.03125 -6.58203,4.6289 -6.54297,8.62109 0.008,1.00781 0.1836,1.98047 0.4961,2.86719 1.28125,3.65234 0.94531,7.66015 -1.20704,10.87109 -6.24218,9.30859 -14.11328,21.53906 -22.19531,34.85156 -1.0625,1.75 -2.09375,3.45703 -3.09375,5.12891 -1.95312,3.26172 -4.77344,5.80859 -8.0625,7.44922 -5.73828,-0.85938 -11.74609,-0.89844 -17.57422,-0.0703 -3.23437,-1.64063 -6.00781,-4.16797 -7.93359,-7.37891 -0.99609,-1.67188 -2.02734,-3.37891 -3.09375,-5.12891 -8.07422,-13.30078 -15.94531,-25.53125 -22.18359,-34.83203 -2.15625,-3.21875 -2.4961,-7.23828 -1.21875,-10.89062 0.3125,-0.89844 0.48828,-1.85938 0.49609,-2.87891 0.0352,-3.98828 -2.69531,-7.58984 -6.55078,-8.60937 -6.57031,-1.73047 -12.83985,4.17968 -10.78516,11.37109 0.86328,3.00781 3.44922,5.20703 6.51953,5.83984 0.0977,0.0274 0.1875,0.0508 0.28907,0.0586 3.78125,0.67968 7.02343,3.10937 8.8125,6.51172 3.25,6.16015 6.91015,13.6289 10.48046,22.17968 4.41407,10.5586 7.60157,20.17969 9.92579,28.25782 -2.39454,1.14062 -4.66407,2.47265 -6.75782,4 -31.52343,23.14062 -6.32812,78.72269 -46.02343,147.28129 -6.4961,11.2187 -12.96875,19.75 -17.36329,25.1406 -9.54687,9.3281 -19.09375,18.668 -28.64453,28.0078 23.60157,-26.3281 35.78907,-51.3867 42.21875,-67.7969 2.92188,-7.4609 7.10547,-18.3398 9.84766,-33.4531 4.16016,-22.918 3.71875,-45.67969 -2.17969,-68.02735 -7.86328,-29.82031 -22.23437,-56.12109 -44.82422,-77.73047 -15.82422,-15.14062 -33.73047,-26.92969 -54.04687,-34.65234 -26.60156,-10.09766 -54.22266,-13.88672 -82.46875,-8.75 -11.67188,2.12109 -23.4961,4.67968 -34.50391,8.95312 -6.41406,2.48828 -12.57812,5.29688 -18.49609,8.42969 -1.01563,0.53906 -2.01172,1.09766 -3.01172,1.66016 41.75,-67.38282 116.35937,-112.26172 201.45312,-112.26172 130.79297,0 236.82422,106.03125 236.82422,236.82031 0,130.7891 -106.03125,236.8203 -236.82422,236.8203 z m 0.0156,-522.01171 C 427.68359,714.80859 300,842.48828 300,1000 c 0,54.6914 15.39453,105.7695 42.08594,149.1719 25.99218,4.707 62.125,8.2187 97.97656,1.0664 19.26562,-3.8399 32.14453,-9.5195 36.71875,-11.6094 25.77344,-11.8086 47.05469,-29.5703 61.78906,-54.0898 13.26172,-22.0586 18.57813,-46.25 14.67578,-71.8204 -4.93359,-32.32808 -19.99218,-58.9687 -48.19922,-76.43745 -18.55468,-11.5 -39.05078,-14.55078 -60.74609,-9.51953 -14.875,3.44922 -27.53125,10.25781 -38.11719,20.41015 -2.02343,1.92969 -3.98047,3.97657 -5.85156,6.15625 -13.83984,16.13282 -17.90234,34.79297 -13.13281,55.48048 3.66797,15.9023 11.89844,28.8125 25.53906,37.7617 11.89453,7.8086 25.01172,9.918 39.08203,6.8711 14.04297,-3.0508 24.65235,-10.7226 32.27735,-22.6406 6.05859,-9.4727 7.42187,-20.1211 4.86328,-30.7227 -2.8086,-11.60935 -8.5,-21.61716 -19.37891,-28.29685 -9.17578,-5.63281 -18.63281,-6.33203 -28.57031,-4.08984 -4.59375,1.02734 -8.94141,3.16015 -13.38281,4.78906 6.90234,-7.35938 15.78906,-11.37891 25.82421,-12.08203 20.03907,-1.38672 34.80079,7.77343 45.44922,24.3125 9.85157,15.28906 11.39063,31.80076 6.51172,48.94926 -3.84765,13.5195 -12.09375,24.4609 -22.92187,33.1211 -16.84375,13.457 -36.29297,18.8906 -57.71485,16.0468 -27.92968,-3.6875 -47.92187,-19.2695 -62.49218,-42.6679 -1.59766,-2.5704 -3.04297,-5.1719 -4.35547,-7.8008 -4.94141,-9.9297 -7.86328,-20.3086 -9,-31.0508 -0.77344,-7.32813 -0.72657,-14.82032 0.10547,-22.44923 1.50781,-13.80078 5.61718,-26.1875 11.9414,-37.35937 6.54297,-11.55078 15.45703,-21.78906 26.34375,-30.91016 13.41406,-11.23047 28.78125,-18.96875 45.48438,-23.32031 21.87109,-5.69922 43.9414,-5.48047 65.78515,1.37109 12.80469,4.01954 24.21875,9.67969 34.39453,16.80079 0,0 25.66016,17.70703 41.33204,46.86718 27.99609,52.08981 14.19531,130.42971 -30.52344,178.55081 -21.14063,22.7422 -43.97266,33.1211 -63.3086,41.6797 -38.92578,17.2226 -75.83203,21.6797 -104.04296,21.7695 52.0664,55.9102 126.32421,90.8828 208.74609,90.8828 157.50391,0 285.1875,-127.6914 285.1875,-285.1914 0,-157.51172 -127.68359,-285.19141 -285.1875,-285.19141 z m 0,0"
         id="path561" />
    </clipPath>
    <clipPath
       id="clip-2">
      <path
         clip-rule="nonzero"
         d="m 585.17187,1236.8203 c -37.07031,0 -72.15234,-8.5195 -103.39453,-23.6992 9.78907,-0.7305 19.58594,-1.9492 29.35938,-3.6719 64.05078,-11.3086 142.09765,-39.1094 186.85547,-106.5781 29.23828,-44.0898 58.60547,-126.72266 28.63672,-154.44141 -2.45704,-2.26953 -5.35157,-4.19922 -8.54688,-5.78907 2.33203,-8.1289 5.54688,-17.83984 10.00391,-28.51953 3.59375,-8.60937 7.28125,-16.13281 10.54687,-22.3125 1.78906,-3.38672 5.07813,-5.63672 8.83594,-6.38672 0.0391,-0.0117 0.0742,-0.0234 0.10937,-0.0312 4.01172,-0.85156 6.97266,-4.44921 7.00782,-8.55078 0.0469,-5.89062 -5.45703,-10.1914 -11.19141,-8.67968 -3.85547,1.03125 -6.58203,4.6289 -6.54297,8.62109 0.008,1.00781 0.1836,1.98047 0.4961,2.86719 1.28125,3.65234 0.94531,7.66015 -1.20704,10.87109 -6.24218,9.30859 -14.11328,21.53906 -22.19531,34.85156 -1.0625,1.75 -2.09375,3.45703 -3.09375,5.12891 -1.95312,3.26172 -4.77344,5.80859 -8.0625,7.44922 -5.73828,-0.85938 -11.74609,-0.89844 -17.57422,-0.0703 -3.23437,-1.64063 -6.00781,-4.16797 -7.93359,-7.37891 -0.99609,-1.67188 -2.02734,-3.37891 -3.09375,-5.12891 -8.07422,-13.30078 -15.94531,-25.53125 -22.18359,-34.83203 -2.15625,-3.21875 -2.4961,-7.23828 -1.21875,-10.89062 0.3125,-0.89844 0.48828,-1.85938 0.49609,-2.87891 0.0352,-3.98828 -2.69531,-7.58984 -6.55078,-8.60937 -6.57031,-1.73047 -12.83985,4.17968 -10.78516,11.37109 0.86328,3.00781 3.44922,5.20703 6.51953,5.83984 0.0977,0.0274 0.1875,0.0508 0.28907,0.0586 3.78125,0.67968 7.02343,3.10937 8.8125,6.51172 3.25,6.16015 6.91015,13.6289 10.48046,22.17968 4.41407,10.5586 7.60157,20.17969 9.92579,28.25782 -2.39454,1.14062 -4.66407,2.47265 -6.75782,4 -31.52343,23.14062 -6.32812,78.72269 -46.02343,147.28129 -6.4961,11.2187 -12.96875,19.75 -17.36329,25.1406 -9.54687,9.3281 -19.09375,18.668 -28.64453,28.0078 23.60157,-26.3281 35.78907,-51.3867 42.21875,-67.7969 2.92188,-7.4609 7.10547,-18.3398 9.84766,-33.4531 4.16016,-22.918 3.71875,-45.67969 -2.17969,-68.02735 -7.86328,-29.82031 -22.23437,-56.12109 -44.82422,-77.73047 -15.82422,-15.14062 -33.73047,-26.92969 -54.04687,-34.65234 -26.60156,-10.09766 -54.22266,-13.88672 -82.46875,-8.75 -11.67188,2.12109 -23.4961,4.67968 -34.50391,8.95312 -6.41406,2.48828 -12.57812,5.29688 -18.49609,8.42969 -1.01563,0.53906 -2.01172,1.09766 -3.01172,1.66016 41.75,-67.38282 116.35937,-112.26172 201.45312,-112.26172 130.79297,0 236.82422,106.03125 236.82422,236.82031 0,130.7891 -106.03125,236.8203 -236.82422,236.8203 z m 0.0156,-522.01171 C 427.68359,714.80859 300,842.48828 300,1000 c 0,54.6914 15.39453,105.7695 42.08594,149.1719 25.99218,4.707 62.125,8.2187 97.97656,1.0664 19.26562,-3.8399 32.14453,-9.5195 36.71875,-11.6094 25.77344,-11.8086 47.05469,-29.5703 61.78906,-54.0898 13.26172,-22.0586 18.57813,-46.25 14.67578,-71.8204 -4.93359,-32.32808 -19.99218,-58.9687 -48.19922,-76.43745 -18.55468,-11.5 -39.05078,-14.55078 -60.74609,-9.51953 -14.875,3.44922 -27.53125,10.25781 -38.11719,20.41015 -2.02343,1.92969 -3.98047,3.97657 -5.85156,6.15625 -13.83984,16.13282 -17.90234,34.79297 -13.13281,55.48048 3.66797,15.9023 11.89844,28.8125 25.53906,37.7617 11.89453,7.8086 25.01172,9.918 39.08203,6.8711 14.04297,-3.0508 24.65235,-10.7226 32.27735,-22.6406 6.05859,-9.4727 7.42187,-20.1211 4.86328,-30.7227 -2.8086,-11.60935 -8.5,-21.61716 -19.37891,-28.29685 -9.17578,-5.63281 -18.63281,-6.33203 -28.57031,-4.08984 -4.59375,1.02734 -8.94141,3.16015 -13.38281,4.78906 6.90234,-7.35938 15.78906,-11.37891 25.82421,-12.08203 20.03907,-1.38672 34.80079,7.77343 45.44922,24.3125 9.85157,15.28906 11.39063,31.80076 6.51172,48.94926 -3.84765,13.5195 -12.09375,24.4609 -22.92187,33.1211 -16.84375,13.457 -36.29297,18.8906 -57.71485,16.0468 -27.92968,-3.6875 -47.92187,-19.2695 -62.49218,-42.6679 -1.59766,-2.5704 -3.04297,-5.1719 -4.35547,-7.8008 -4.94141,-9.9297 -7.86328,-20.3086 -9,-31.0508 -0.77344,-7.32813 -0.72657,-14.82032 0.10547,-22.44923 1.50781,-13.80078 5.61718,-26.1875 11.9414,-37.35937 6.54297,-11.55078 15.45703,-21.78906 26.34375,-30.91016 13.41406,-11.23047 28.78125,-18.96875 45.48438,-23.32031 21.87109,-5.69922 43.9414,-5.48047 65.78515,1.37109 12.80469,4.01954 24.21875,9.67969 34.39453,16.80079 0,0 25.66016,17.70703 41.33204,46.86718 27.99609,52.08981 14.19531,130.42971 -30.52344,178.55081 -21.14063,22.7422 -43.97266,33.1211 -63.3086,41.6797 -38.92578,17.2226 -75.83203,21.6797 -104.04296,21.7695 52.0664,55.9102 126.32421,90.8828 208.74609,90.8828 157.50391,0 285.1875,-127.6914 285.1875,-285.1914 0,-157.51172 -127.68359,-285.19141 -285.1875,-285.19141"
         id="path564" />
    </clipPath>
    <linearGradient
       id="linear-pattern-0"
       gradientUnits="userSpaceOnUse"
       x1="0.241023"
       y1="0"
       x2="0.71066499"
       y2="0"
       gradientTransform="matrix(260.311,-1392.83,1392.83,260.311,461.319,1662.77)">
      <stop
         offset="0"
         stop-color="rgb(18.984985%, 14.860535%, 12.867737%)"
         stop-opacity="1"
         id="stop567" />
      <stop
         offset="0.00390625"
         stop-color="rgb(19.013977%, 14.862061%, 12.849426%)"
         stop-opacity="1"
         id="stop569" />
      <stop
         offset="0.0078125"
         stop-color="rgb(19.044495%, 14.863586%, 12.831116%)"
         stop-opacity="1"
         id="stop571" />
      <stop
         offset="0.0117187"
         stop-color="rgb(19.075012%, 14.865112%, 12.812805%)"
         stop-opacity="1"
         id="stop573" />
      <stop
         offset="0.015625"
         stop-color="rgb(19.104004%, 14.865112%, 12.794495%)"
         stop-opacity="1"
         id="stop575" />
      <stop
         offset="0.0195313"
         stop-color="rgb(19.134521%, 14.866638%, 12.776184%)"
         stop-opacity="1"
         id="stop577" />
      <stop
         offset="0.0234375"
         stop-color="rgb(19.161987%, 14.866638%, 12.756348%)"
         stop-opacity="1"
         id="stop579" />
      <stop
         offset="0.0273437"
         stop-color="rgb(19.192505%, 14.866638%, 12.738037%)"
         stop-opacity="1"
         id="stop581" />
      <stop
         offset="0.03125"
         stop-color="rgb(19.219971%, 14.866638%, 12.718201%)"
         stop-opacity="1"
         id="stop583" />
      <stop
         offset="0.0351563"
         stop-color="rgb(19.247437%, 14.865112%, 12.698364%)"
         stop-opacity="1"
         id="stop585" />
      <stop
         offset="0.0390625"
         stop-color="rgb(19.274902%, 14.863586%, 12.677002%)"
         stop-opacity="1"
         id="stop587" />
      <stop
         offset="0.0429687"
         stop-color="rgb(19.303894%, 14.863586%, 12.657166%)"
         stop-opacity="1"
         id="stop589" />
      <stop
         offset="0.046875"
         stop-color="rgb(19.33136%, 14.860535%, 12.637329%)"
         stop-opacity="1"
         id="stop591" />
      <stop
         offset="0.0507812"
         stop-color="rgb(19.358826%, 14.859009%, 12.617493%)"
         stop-opacity="1"
         id="stop593" />
      <stop
         offset="0.0546875"
         stop-color="rgb(19.384766%, 14.857483%, 12.59613%)"
         stop-opacity="1"
         id="stop595" />
      <stop
         offset="0.0585938"
         stop-color="rgb(19.412231%, 14.854431%, 12.574768%)"
         stop-opacity="1"
         id="stop597" />
      <stop
         offset="0.0625"
         stop-color="rgb(19.438171%, 14.851379%, 12.553406%)"
         stop-opacity="1"
         id="stop599" />
      <stop
         offset="0.0664062"
         stop-color="rgb(19.464111%, 14.848328%, 12.532043%)"
         stop-opacity="1"
         id="stop601" />
      <stop
         offset="0.0703125"
         stop-color="rgb(19.490051%, 14.84375%, 12.510681%)"
         stop-opacity="1"
         id="stop603" />
      <stop
         offset="0.0742188"
         stop-color="rgb(19.515991%, 14.840698%, 12.489319%)"
         stop-opacity="1"
         id="stop605" />
      <stop
         offset="0.078125"
         stop-color="rgb(19.540405%, 14.836121%, 12.466431%)"
         stop-opacity="1"
         id="stop607" />
      <stop
         offset="0.0820312"
         stop-color="rgb(19.566345%, 14.833069%, 12.445068%)"
         stop-opacity="1"
         id="stop609" />
      <stop
         offset="0.0859375"
         stop-color="rgb(19.590759%, 14.826965%, 12.42218%)"
         stop-opacity="1"
         id="stop611" />
      <stop
         offset="0.0898437"
         stop-color="rgb(19.616699%, 14.822388%, 12.400818%)"
         stop-opacity="1"
         id="stop613" />
      <stop
         offset="0.09375"
         stop-color="rgb(19.639587%, 14.81781%, 12.37793%)"
         stop-opacity="1"
         id="stop615" />
      <stop
         offset="0.0976563"
         stop-color="rgb(19.664001%, 14.811707%, 12.355042%)"
         stop-opacity="1"
         id="stop617" />
      <stop
         offset="0.101562"
         stop-color="rgb(19.68689%, 14.805603%, 12.330627%)"
         stop-opacity="1"
         id="stop619" />
      <stop
         offset="0.105469"
         stop-color="rgb(19.711304%, 14.7995%, 12.307739%)"
         stop-opacity="1"
         id="stop621" />
      <stop
         offset="0.109375"
         stop-color="rgb(19.734192%, 14.79187%, 12.284851%)"
         stop-opacity="1"
         id="stop623" />
      <stop
         offset="0.113281"
         stop-color="rgb(19.75708%, 14.785767%, 12.261963%)"
         stop-opacity="1"
         id="stop625" />
      <stop
         offset="0.117187"
         stop-color="rgb(19.779968%, 14.778137%, 12.237549%)"
         stop-opacity="1"
         id="stop627" />
      <stop
         offset="0.121094"
         stop-color="rgb(19.802856%, 14.772034%, 12.214661%)"
         stop-opacity="1"
         id="stop629" />
      <stop
         offset="0.125"
         stop-color="rgb(19.825745%, 14.762878%, 12.190247%)"
         stop-opacity="1"
         id="stop631" />
      <stop
         offset="0.128906"
         stop-color="rgb(19.847107%, 14.755249%, 12.165833%)"
         stop-opacity="1"
         id="stop633" />
      <stop
         offset="0.132812"
         stop-color="rgb(19.868469%, 14.746094%, 12.141418%)"
         stop-opacity="1"
         id="stop635" />
      <stop
         offset="0.136719"
         stop-color="rgb(19.889832%, 14.738464%, 12.117004%)"
         stop-opacity="1"
         id="stop637" />
      <stop
         offset="0.140625"
         stop-color="rgb(19.911194%, 14.729309%, 12.09259%)"
         stop-opacity="1"
         id="stop639" />
      <stop
         offset="0.144531"
         stop-color="rgb(19.932556%, 14.720154%, 12.068176%)"
         stop-opacity="1"
         id="stop641" />
      <stop
         offset="0.148437"
         stop-color="rgb(19.952393%, 14.710999%, 12.042236%)"
         stop-opacity="1"
         id="stop643" />
      <stop
         offset="0.152344"
         stop-color="rgb(19.973755%, 14.701843%, 12.017822%)"
         stop-opacity="1"
         id="stop645" />
      <stop
         offset="0.15625"
         stop-color="rgb(19.993591%, 14.691162%, 11.991882%)"
         stop-opacity="1"
         id="stop647" />
      <stop
         offset="0.160156"
         stop-color="rgb(20.013428%, 14.682007%, 11.967468%)"
         stop-opacity="1"
         id="stop649" />
      <stop
         offset="0.164062"
         stop-color="rgb(20.033264%, 14.6698%, 11.941528%)"
         stop-opacity="1"
         id="stop651" />
      <stop
         offset="0.167969"
         stop-color="rgb(20.053101%, 14.660645%, 11.915588%)"
         stop-opacity="1"
         id="stop653" />
      <stop
         offset="0.171875"
         stop-color="rgb(20.071411%, 14.648438%, 11.889648%)"
         stop-opacity="1"
         id="stop655" />
      <stop
         offset="0.175781"
         stop-color="rgb(20.091248%, 14.637756%, 11.865234%)"
         stop-opacity="1"
         id="stop657" />
      <stop
         offset="0.179687"
         stop-color="rgb(20.109558%, 14.625549%, 11.839294%)"
         stop-opacity="1"
         id="stop659" />
      <stop
         offset="0.183594"
         stop-color="rgb(20.129395%, 14.614868%, 11.813354%)"
         stop-opacity="1"
         id="stop661" />
      <stop
         offset="0.1875"
         stop-color="rgb(20.147705%, 14.602661%, 11.785889%)"
         stop-opacity="1"
         id="stop663" />
      <stop
         offset="0.191406"
         stop-color="rgb(20.16449%, 14.590454%, 11.759949%)"
         stop-opacity="1"
         id="stop665" />
      <stop
         offset="0.195312"
         stop-color="rgb(20.1828%, 14.576721%, 11.734009%)"
         stop-opacity="1"
         id="stop667" />
      <stop
         offset="0.199219"
         stop-color="rgb(20.201111%, 14.564514%, 11.708069%)"
         stop-opacity="1"
         id="stop669" />
      <stop
         offset="0.203125"
         stop-color="rgb(20.217896%, 14.550781%, 11.680603%)"
         stop-opacity="1"
         id="stop671" />
      <stop
         offset="0.207031"
         stop-color="rgb(20.23468%, 14.538574%, 11.654663%)"
         stop-opacity="1"
         id="stop673" />
      <stop
         offset="0.210937"
         stop-color="rgb(20.251465%, 14.523315%, 11.627197%)"
         stop-opacity="1"
         id="stop675" />
      <stop
         offset="0.214844"
         stop-color="rgb(20.269775%, 14.511108%, 11.601257%)"
         stop-opacity="1"
         id="stop677" />
      <stop
         offset="0.21875"
         stop-color="rgb(20.285034%, 14.49585%, 11.573792%)"
         stop-opacity="1"
         id="stop679" />
      <stop
         offset="0.222656"
         stop-color="rgb(20.301819%, 14.482117%, 11.546326%)"
         stop-opacity="1"
         id="stop681" />
      <stop
         offset="0.226562"
         stop-color="rgb(20.317078%, 14.466858%, 11.51886%)"
         stop-opacity="1"
         id="stop683" />
      <stop
         offset="0.230469"
         stop-color="rgb(20.332336%, 14.451599%, 11.491394%)"
         stop-opacity="1"
         id="stop685" />
      <stop
         offset="0.234375"
         stop-color="rgb(20.347595%, 14.43634%, 11.463928%)"
         stop-opacity="1"
         id="stop687" />
      <stop
         offset="0.238281"
         stop-color="rgb(20.36438%, 14.421082%, 11.436462%)"
         stop-opacity="1"
         id="stop689" />
      <stop
         offset="0.242187"
         stop-color="rgb(20.378113%, 14.405823%, 11.408997%)"
         stop-opacity="1"
         id="stop691" />
      <stop
         offset="0.246094"
         stop-color="rgb(20.394897%, 14.390564%, 11.381531%)"
         stop-opacity="1"
         id="stop693" />
      <stop
         offset="0.25"
         stop-color="rgb(20.40863%, 14.373779%, 11.354065%)"
         stop-opacity="1"
         id="stop695" />
      <stop
         offset="0.253906"
         stop-color="rgb(20.422363%, 14.356995%, 11.326599%)"
         stop-opacity="1"
         id="stop697" />
      <stop
         offset="0.257812"
         stop-color="rgb(20.436096%, 14.34021%, 11.299133%)"
         stop-opacity="1"
         id="stop699" />
      <stop
         offset="0.261719"
         stop-color="rgb(20.451355%, 14.323425%, 11.270142%)"
         stop-opacity="1"
         id="stop701" />
      <stop
         offset="0.265625"
         stop-color="rgb(20.463562%, 14.306641%, 11.242676%)"
         stop-opacity="1"
         id="stop703" />
      <stop
         offset="0.269531"
         stop-color="rgb(20.478821%, 14.289856%, 11.21521%)"
         stop-opacity="1"
         id="stop705" />
      <stop
         offset="0.273437"
         stop-color="rgb(20.491028%, 14.271545%, 11.186218%)"
         stop-opacity="1"
         id="stop707" />
      <stop
         offset="0.277344"
         stop-color="rgb(20.504761%, 14.254761%, 11.158752%)"
         stop-opacity="1"
         id="stop709" />
      <stop
         offset="0.28125"
         stop-color="rgb(20.516968%, 14.23645%, 11.129761%)"
         stop-opacity="1"
         id="stop711" />
      <stop
         offset="0.285156"
         stop-color="rgb(20.530701%, 14.21814%, 11.102295%)"
         stop-opacity="1"
         id="stop713" />
      <stop
         offset="0.289062"
         stop-color="rgb(20.541382%, 14.199829%, 11.073303%)"
         stop-opacity="1"
         id="stop715" />
      <stop
         offset="0.292969"
         stop-color="rgb(20.553589%, 14.181519%, 11.045837%)"
         stop-opacity="1"
         id="stop717" />
      <stop
         offset="0.296875"
         stop-color="rgb(20.565796%, 14.161682%, 11.016846%)"
         stop-opacity="1"
         id="stop719" />
      <stop
         offset="0.300781"
         stop-color="rgb(20.578003%, 14.143372%, 10.987854%)"
         stop-opacity="1"
         id="stop721" />
      <stop
         offset="0.304687"
         stop-color="rgb(20.588684%, 14.123535%, 10.960388%)"
         stop-opacity="1"
         id="stop723" />
      <stop
         offset="0.308594"
         stop-color="rgb(20.600891%, 14.103699%, 10.931396%)"
         stop-opacity="1"
         id="stop725" />
      <stop
         offset="0.3125"
         stop-color="rgb(20.611572%, 14.083862%, 10.902405%)"
         stop-opacity="1"
         id="stop727" />
      <stop
         offset="0.316406"
         stop-color="rgb(20.623779%, 14.064026%, 10.874939%)"
         stop-opacity="1"
         id="stop729" />
      <stop
         offset="0.320312"
         stop-color="rgb(20.632935%, 14.044189%, 10.845947%)"
         stop-opacity="1"
         id="stop731" />
      <stop
         offset="0.324219"
         stop-color="rgb(20.643616%, 14.022827%, 10.816956%)"
         stop-opacity="1"
         id="stop733" />
      <stop
         offset="0.328125"
         stop-color="rgb(20.654297%, 14.002991%, 10.787964%)"
         stop-opacity="1"
         id="stop735" />
      <stop
         offset="0.332031"
         stop-color="rgb(20.664978%, 13.981628%, 10.758972%)"
         stop-opacity="1"
         id="stop737" />
      <stop
         offset="0.335937"
         stop-color="rgb(20.674133%, 13.960266%, 10.72998%)"
         stop-opacity="1"
         id="stop739" />
      <stop
         offset="0.339844"
         stop-color="rgb(20.684814%, 13.94043%, 10.700989%)"
         stop-opacity="1"
         id="stop741" />
      <stop
         offset="0.34375"
         stop-color="rgb(20.69397%, 13.917542%, 10.671997%)"
         stop-opacity="1"
         id="stop743" />
      <stop
         offset="0.347656"
         stop-color="rgb(20.703125%, 13.896179%, 10.643005%)"
         stop-opacity="1"
         id="stop745" />
      <stop
         offset="0.351562"
         stop-color="rgb(20.71228%, 13.874817%, 10.614014%)"
         stop-opacity="1"
         id="stop747" />
      <stop
         offset="0.355469"
         stop-color="rgb(20.71991%, 13.851929%, 10.585022%)"
         stop-opacity="1"
         id="stop749" />
      <stop
         offset="0.359375"
         stop-color="rgb(20.729065%, 13.830566%, 10.55603%)"
         stop-opacity="1"
         id="stop751" />
      <stop
         offset="0.363281"
         stop-color="rgb(20.73822%, 13.807678%, 10.527039%)"
         stop-opacity="1"
         id="stop753" />
      <stop
         offset="0.367187"
         stop-color="rgb(20.74585%, 13.78479%, 10.498047%)"
         stop-opacity="1"
         id="stop755" />
      <stop
         offset="0.371094"
         stop-color="rgb(20.753479%, 13.761902%, 10.469055%)"
         stop-opacity="1"
         id="stop757" />
      <stop
         offset="0.375"
         stop-color="rgb(20.761108%, 13.739014%, 10.440063%)"
         stop-opacity="1"
         id="stop759" />
      <stop
         offset="0.378906"
         stop-color="rgb(20.770264%, 13.716125%, 10.411072%)"
         stop-opacity="1"
         id="stop761" />
      <stop
         offset="0.382812"
         stop-color="rgb(20.776367%, 13.691711%, 10.38208%)"
         stop-opacity="1"
         id="stop763" />
      <stop
         offset="0.386719"
         stop-color="rgb(20.783997%, 13.668823%, 10.353088%)"
         stop-opacity="1"
         id="stop765" />
      <stop
         offset="0.390625"
         stop-color="rgb(20.791626%, 13.644409%, 10.322571%)"
         stop-opacity="1"
         id="stop767" />
      <stop
         offset="0.394531"
         stop-color="rgb(20.799255%, 13.621521%, 10.295105%)"
         stop-opacity="1"
         id="stop769" />
      <stop
         offset="0.398437"
         stop-color="rgb(20.805359%, 13.597107%, 10.264587%)"
         stop-opacity="1"
         id="stop771" />
      <stop
         offset="0.402344"
         stop-color="rgb(20.811462%, 13.572693%, 10.235596%)"
         stop-opacity="1"
         id="stop773" />
      <stop
         offset="0.40625"
         stop-color="rgb(20.817566%, 13.548279%, 10.206604%)"
         stop-opacity="1"
         id="stop775" />
      <stop
         offset="0.410156"
         stop-color="rgb(20.825195%, 13.523865%, 10.177612%)"
         stop-opacity="1"
         id="stop777" />
      <stop
         offset="0.414062"
         stop-color="rgb(20.829773%, 13.497925%, 10.148621%)"
         stop-opacity="1"
         id="stop779" />
      <stop
         offset="0.417969"
         stop-color="rgb(20.835876%, 13.471985%, 10.119629%)"
         stop-opacity="1"
         id="stop781" />
      <stop
         offset="0.421875"
         stop-color="rgb(20.840454%, 13.447571%, 10.090637%)"
         stop-opacity="1"
         id="stop783" />
      <stop
         offset="0.425781"
         stop-color="rgb(20.846558%, 13.421631%, 10.061646%)"
         stop-opacity="1"
         id="stop785" />
      <stop
         offset="0.429687"
         stop-color="rgb(20.852661%, 13.395691%, 10.031128%)"
         stop-opacity="1"
         id="stop787" />
      <stop
         offset="0.433594"
         stop-color="rgb(20.857239%, 13.371277%, 10.003662%)"
         stop-opacity="1"
         id="stop789" />
      <stop
         offset="0.4375"
         stop-color="rgb(20.861816%, 13.343811%, 9.973145%)"
         stop-opacity="1"
         id="stop791" />
      <stop
         offset="0.441406"
         stop-color="rgb(20.86792%, 13.317871%, 9.944153%)"
         stop-opacity="1"
         id="stop793" />
      <stop
         offset="0.445312"
         stop-color="rgb(20.870972%, 13.291931%, 9.915161%)"
         stop-opacity="1"
         id="stop795" />
      <stop
         offset="0.449219"
         stop-color="rgb(20.875549%, 13.264465%, 9.886169%)"
         stop-opacity="1"
         id="stop797" />
      <stop
         offset="0.453125"
         stop-color="rgb(20.878601%, 13.238525%, 9.857178%)"
         stop-opacity="1"
         id="stop799" />
      <stop
         offset="0.457031"
         stop-color="rgb(20.884705%, 13.21106%, 9.828186%)"
         stop-opacity="1"
         id="stop801" />
      <stop
         offset="0.460938"
         stop-color="rgb(20.887756%, 13.183594%, 9.799194%)"
         stop-opacity="1"
         id="stop803" />
      <stop
         offset="0.464844"
         stop-color="rgb(20.890808%, 13.157654%, 9.770203%)"
         stop-opacity="1"
         id="stop805" />
      <stop
         offset="0.46875"
         stop-color="rgb(20.89386%, 13.130188%, 9.741211%)"
         stop-opacity="1"
         id="stop807" />
      <stop
         offset="0.472656"
         stop-color="rgb(20.898438%, 13.102722%, 9.712219%)"
         stop-opacity="1"
         id="stop809" />
      <stop
         offset="0.476563"
         stop-color="rgb(20.901489%, 13.07373%, 9.683228%)"
         stop-opacity="1"
         id="stop811" />
      <stop
         offset="0.480469"
         stop-color="rgb(20.904541%, 13.046265%, 9.654236%)"
         stop-opacity="1"
         id="stop813" />
      <stop
         offset="0.484375"
         stop-color="rgb(20.907593%, 13.018799%, 9.625244%)"
         stop-opacity="1"
         id="stop815" />
      <stop
         offset="0.488281"
         stop-color="rgb(20.909119%, 12.989807%, 9.596252%)"
         stop-opacity="1"
         id="stop817" />
      <stop
         offset="0.492188"
         stop-color="rgb(20.91217%, 12.960815%, 9.567261%)"
         stop-opacity="1"
         id="stop819" />
      <stop
         offset="0.496094"
         stop-color="rgb(20.913696%, 12.93335%, 9.539795%)"
         stop-opacity="1"
         id="stop821" />
      <stop
         offset="0.5"
         stop-color="rgb(20.915222%, 12.904358%, 9.510803%)"
         stop-opacity="1"
         id="stop823" />
      <stop
         offset="0.503906"
         stop-color="rgb(20.918274%, 12.875366%, 9.481812%)"
         stop-opacity="1"
         id="stop825" />
      <stop
         offset="0.507812"
         stop-color="rgb(20.9198%, 12.846375%, 9.45282%)"
         stop-opacity="1"
         id="stop827" />
      <stop
         offset="0.511719"
         stop-color="rgb(20.922852%, 12.817383%, 9.425354%)"
         stop-opacity="1"
         id="stop829" />
      <stop
         offset="0.515625"
         stop-color="rgb(20.922852%, 12.788391%, 9.396362%)"
         stop-opacity="1"
         id="stop831" />
      <stop
         offset="0.519531"
         stop-color="rgb(20.924377%, 12.759399%, 9.367371%)"
         stop-opacity="1"
         id="stop833" />
      <stop
         offset="0.523438"
         stop-color="rgb(20.924377%, 12.728882%, 9.338379%)"
         stop-opacity="1"
         id="stop835" />
      <stop
         offset="0.527344"
         stop-color="rgb(20.927429%, 12.69989%, 9.310913%)"
         stop-opacity="1"
         id="stop837" />
      <stop
         offset="0.53125"
         stop-color="rgb(20.927429%, 12.669373%, 9.281921%)"
         stop-opacity="1"
         id="stop839" />
      <stop
         offset="0.535156"
         stop-color="rgb(20.928955%, 12.640381%, 9.25293%)"
         stop-opacity="1"
         id="stop841" />
      <stop
         offset="0.539062"
         stop-color="rgb(20.928955%, 12.609863%, 9.225464%)"
         stop-opacity="1"
         id="stop843" />
      <stop
         offset="0.542969"
         stop-color="rgb(20.930481%, 12.579346%, 9.196472%)"
         stop-opacity="1"
         id="stop845" />
      <stop
         offset="0.546875"
         stop-color="rgb(20.928955%, 12.548828%, 9.169006%)"
         stop-opacity="1"
         id="stop847" />
      <stop
         offset="0.550781"
         stop-color="rgb(20.928955%, 12.518311%, 9.140015%)"
         stop-opacity="1"
         id="stop849" />
      <stop
         offset="0.554688"
         stop-color="rgb(20.928955%, 12.486267%, 9.111023%)"
         stop-opacity="1"
         id="stop851" />
      <stop
         offset="0.558594"
         stop-color="rgb(20.928955%, 12.45575%, 9.083557%)"
         stop-opacity="1"
         id="stop853" />
      <stop
         offset="0.5625"
         stop-color="rgb(20.928955%, 12.425232%, 9.056091%)"
         stop-opacity="1"
         id="stop855" />
      <stop
         offset="0.566406"
         stop-color="rgb(20.928955%, 12.394714%, 9.028625%)"
         stop-opacity="1"
         id="stop857" />
      <stop
         offset="0.570313"
         stop-color="rgb(20.927429%, 12.362671%, 8.999634%)"
         stop-opacity="1"
         id="stop859" />
      <stop
         offset="0.574219"
         stop-color="rgb(20.927429%, 12.332153%, 8.972168%)"
         stop-opacity="1"
         id="stop861" />
      <stop
         offset="0.578125"
         stop-color="rgb(20.925903%, 12.30011%, 8.943176%)"
         stop-opacity="1"
         id="stop863" />
      <stop
         offset="0.582031"
         stop-color="rgb(20.927429%, 12.269592%, 8.917236%)"
         stop-opacity="1"
         id="stop865" />
      <stop
         offset="0.585938"
         stop-color="rgb(20.927429%, 12.239075%, 8.891296%)"
         stop-opacity="1"
         id="stop867" />
      <stop
         offset="0.59375"
         stop-color="rgb(21.006775%, 12.289429%, 8.920288%)"
         stop-opacity="1"
         id="stop869" />
      <stop
         offset="0.601562"
         stop-color="rgb(21.165466%, 12.390137%, 8.978271%)"
         stop-opacity="1"
         id="stop871" />
      <stop
         offset="0.609375"
         stop-color="rgb(21.325684%, 12.490845%, 9.036255%)"
         stop-opacity="1"
         id="stop873" />
      <stop
         offset="0.617188"
         stop-color="rgb(21.485901%, 12.593079%, 9.092712%)"
         stop-opacity="1"
         id="stop875" />
      <stop
         offset="0.625"
         stop-color="rgb(21.646118%, 12.693787%, 9.150696%)"
         stop-opacity="1"
         id="stop877" />
      <stop
         offset="0.632812"
         stop-color="rgb(21.806335%, 12.794495%, 9.207153%)"
         stop-opacity="1"
         id="stop879" />
      <stop
         offset="0.640625"
         stop-color="rgb(21.968079%, 12.896729%, 9.263611%)"
         stop-opacity="1"
         id="stop881" />
      <stop
         offset="0.648438"
         stop-color="rgb(22.129822%, 12.997437%, 9.320068%)"
         stop-opacity="1"
         id="stop883" />
      <stop
         offset="0.65625"
         stop-color="rgb(22.290039%, 13.09967%, 9.376526%)"
         stop-opacity="1"
         id="stop885" />
      <stop
         offset="0.664063"
         stop-color="rgb(22.453308%, 13.200378%, 9.432983%)"
         stop-opacity="1"
         id="stop887" />
      <stop
         offset="0.671875"
         stop-color="rgb(22.615051%, 13.302612%, 9.487915%)"
         stop-opacity="1"
         id="stop889" />
      <stop
         offset="0.679687"
         stop-color="rgb(22.776794%, 13.404846%, 9.544373%)"
         stop-opacity="1"
         id="stop891" />
      <stop
         offset="0.6875"
         stop-color="rgb(22.940063%, 13.50708%, 9.599304%)"
         stop-opacity="1"
         id="stop893" />
      <stop
         offset="0.695313"
         stop-color="rgb(23.103333%, 13.609314%, 9.654236%)"
         stop-opacity="1"
         id="stop895" />
      <stop
         offset="0.703125"
         stop-color="rgb(23.266602%, 13.713074%, 9.707642%)"
         stop-opacity="1"
         id="stop897" />
      <stop
         offset="0.710938"
         stop-color="rgb(23.429871%, 13.815308%, 9.762573%)"
         stop-opacity="1"
         id="stop899" />
      <stop
         offset="0.71875"
         stop-color="rgb(23.594666%, 13.917542%, 9.815979%)"
         stop-opacity="1"
         id="stop901" />
      <stop
         offset="0.726562"
         stop-color="rgb(23.757935%, 14.021301%, 9.869385%)"
         stop-opacity="1"
         id="stop903" />
      <stop
         offset="0.734375"
         stop-color="rgb(23.922729%, 14.125061%, 9.922791%)"
         stop-opacity="1"
         id="stop905" />
      <stop
         offset="0.742188"
         stop-color="rgb(24.087524%, 14.227295%, 9.976196%)"
         stop-opacity="1"
         id="stop907" />
      <stop
         offset="0.75"
         stop-color="rgb(24.252319%, 14.331055%, 10.029602%)"
         stop-opacity="1"
         id="stop909" />
      <stop
         offset="0.757812"
         stop-color="rgb(24.41864%, 14.434814%, 10.081482%)"
         stop-opacity="1"
         id="stop911" />
      <stop
         offset="0.765625"
         stop-color="rgb(24.583435%, 14.538574%, 10.133362%)"
         stop-opacity="1"
         id="stop913" />
      <stop
         offset="0.773438"
         stop-color="rgb(24.749756%, 14.642334%, 10.186768%)"
         stop-opacity="1"
         id="stop915" />
      <stop
         offset="0.78125"
         stop-color="rgb(24.917603%, 14.74762%, 10.238647%)"
         stop-opacity="1"
         id="stop917" />
      <stop
         offset="0.789063"
         stop-color="rgb(25.083923%, 14.851379%, 10.289001%)"
         stop-opacity="1"
         id="stop919" />
      <stop
         offset="0.796875"
         stop-color="rgb(25.250244%, 14.955139%, 10.340881%)"
         stop-opacity="1"
         id="stop921" />
      <stop
         offset="0.804687"
         stop-color="rgb(25.418091%, 15.060425%, 10.391235%)"
         stop-opacity="1"
         id="stop923" />
      <stop
         offset="0.8125"
         stop-color="rgb(25.585938%, 15.16571%, 10.441589%)"
         stop-opacity="1"
         id="stop925" />
      <stop
         offset="0.820313"
         stop-color="rgb(25.753784%, 15.26947%, 10.491943%)"
         stop-opacity="1"
         id="stop927" />
      <stop
         offset="0.828125"
         stop-color="rgb(25.921631%, 15.374756%, 10.542297%)"
         stop-opacity="1"
         id="stop929" />
      <stop
         offset="0.835938"
         stop-color="rgb(26.089478%, 15.480042%, 10.591125%)"
         stop-opacity="1"
         id="stop931" />
      <stop
         offset="0.84375"
         stop-color="rgb(26.25885%, 15.585327%, 10.641479%)"
         stop-opacity="1"
         id="stop933" />
      <stop
         offset="0.851562"
         stop-color="rgb(26.426697%, 15.690613%, 10.690308%)"
         stop-opacity="1"
         id="stop935" />
      <stop
         offset="0.859375"
         stop-color="rgb(26.596069%, 15.797424%, 10.739136%)"
         stop-opacity="1"
         id="stop937" />
      <stop
         offset="0.867188"
         stop-color="rgb(26.766968%, 15.90271%, 10.787964%)"
         stop-opacity="1"
         id="stop939" />
      <stop
         offset="0.875"
         stop-color="rgb(26.93634%, 16.007996%, 10.836792%)"
         stop-opacity="1"
         id="stop941" />
      <stop
         offset="0.882812"
         stop-color="rgb(27.107239%, 16.114807%, 10.884094%)"
         stop-opacity="1"
         id="stop943" />
      <stop
         offset="0.890625"
         stop-color="rgb(27.276611%, 16.221619%, 10.931396%)"
         stop-opacity="1"
         id="stop945" />
      <stop
         offset="0.898438"
         stop-color="rgb(27.44751%, 16.326904%, 10.978699%)"
         stop-opacity="1"
         id="stop947" />
      <stop
         offset="0.90625"
         stop-color="rgb(27.618408%, 16.433716%, 11.026001%)"
         stop-opacity="1"
         id="stop949" />
      <stop
         offset="0.914062"
         stop-color="rgb(27.790833%, 16.540527%, 11.073303%)"
         stop-opacity="1"
         id="stop951" />
      <stop
         offset="0.921875"
         stop-color="rgb(27.961731%, 16.647339%, 11.11908%)"
         stop-opacity="1"
         id="stop953" />
      <stop
         offset="0.929687"
         stop-color="rgb(28.134155%, 16.75415%, 11.166382%)"
         stop-opacity="1"
         id="stop955" />
      <stop
         offset="0.9375"
         stop-color="rgb(28.30658%, 16.862488%, 11.212158%)"
         stop-opacity="1"
         id="stop957" />
      <stop
         offset="0.945313"
         stop-color="rgb(28.479004%, 16.969299%, 11.257935%)"
         stop-opacity="1"
         id="stop959" />
      <stop
         offset="0.953125"
         stop-color="rgb(28.652954%, 17.076111%, 11.302185%)"
         stop-opacity="1"
         id="stop961" />
      <stop
         offset="0.960938"
         stop-color="rgb(28.825378%, 17.184448%, 11.347961%)"
         stop-opacity="1"
         id="stop963" />
      <stop
         offset="0.96875"
         stop-color="rgb(28.999329%, 17.292786%, 11.392212%)"
         stop-opacity="1"
         id="stop965" />
      <stop
         offset="0.976562"
         stop-color="rgb(29.173279%, 17.399597%, 11.437988%)"
         stop-opacity="1"
         id="stop967" />
      <stop
         offset="0.984375"
         stop-color="rgb(29.347229%, 17.507935%, 11.482239%)"
         stop-opacity="1"
         id="stop969" />
      <stop
         offset="0.992188"
         stop-color="rgb(29.521179%, 17.616272%, 11.524963%)"
         stop-opacity="1"
         id="stop971" />
      <stop
         offset="1"
         stop-color="rgb(29.696655%, 17.724609%, 11.569214%)"
         stop-opacity="1"
         id="stop973" />
    </linearGradient>
  </defs>
  <g
     clip-path="url(#clip-0)"
     id="g984"
     transform="translate(-5.6353472,-3.0533605)">
    <g
       clip-path="url(#clip-1)"
       id="g982">
      <g
         clip-path="url(#clip-2)"
         id="g980">
        <path
           fill-rule="nonzero"
           fill="url(#linear-pattern-0)"
           d="m 196.99609,1265.9414 654.12891,122.25 122.25,-654.13281 -654.125,-122.25 z m 0,0"
           id="path978"
           style="fill:url(#linear-pattern-0)" />
      </g>
    </g>
  </g>
  <path
     fill-rule="nonzero"
     fill="#276087"
     fill-opacity="1"
     d="M 285.17969,547.74219 C 216,547.74219 153,520.83203 106.05078,476.95313 c 3.99219,0.33984 8.08984,0.60937 12.30859,0.79687 4.58203,0.20313 9.05078,0.29297 13.40235,0.29297 42.09765,33.52734 95.41797,53.57031 153.41797,53.57031 136.10156,0 246.42968,-110.32031 246.42968,-246.42187 0,-136.10157 -110.32812,-246.421878 -246.42968,-246.421878 -136.08985,0 -246.417971,110.320308 -246.417971,246.421878 0,47.25 13.300781,91.39843 36.359375,128.89843 22.460939,4.0625 53.691406,7.10157 84.660156,0.92188 16.64844,-3.32031 27.78125,-8.21875 31.73047,-10.03906 22.26953,-10.20313 40.66015,-25.54297 53.39062,-46.73047 11.45703,-19.07031 16.0586,-39.96094 12.67969,-62.0625 -4.26172,-27.92969 -17.26953,-50.94922 -41.64063,-66.04688 -16.03906,-9.9414 -33.75,-12.57031 -52.5,-8.22265 -12.85156,2.98047 -23.78125,8.85937 -32.92968,17.63281 -1.75,1.66797 -3.44141,3.4375 -5.0625,5.32031 -11.94922,13.9375 -15.46875,30.06641 -11.33985,47.9375 3.17188,13.74219 10.28125,24.90235 22.0625,32.62891 10.27735,6.75 21.6211,8.57031 33.76953,5.9414 12.14063,-2.64062 21.30079,-9.25781 27.89063,-19.57031 5.23828,-8.17969 6.41797,-17.3789 4.19922,-26.53906 -2.42188,-10.03906 -7.33985,-18.67969 -16.73828,-24.46094 -7.9336,-4.85937 -16.10157,-5.46875 -24.69141,-3.53125 -3.96875,0.89063 -7.71875,2.73047 -11.55859,4.14063 5.96875,-6.35938 13.63672,-9.82813 22.30859,-10.42969 17.32031,-1.19922 30.07031,6.71094 39.26953,20.99219 8.51953,13.21875 9.85156,27.48828 5.62891,42.29687 -3.32031,11.69141 -10.44922,21.14063 -19.80078,28.6211 -14.5586,11.64062 -31.35938,16.32031 -49.86719,13.87109 -24.14063,-3.19141 -41.41016,-16.64844 -53.999998,-36.87109 -1.382813,-2.21875 -2.632813,-4.46875 -3.769532,-6.73829 -4.269531,-8.58203 -6.792968,-17.55078 -7.769531,-26.83203 -0.671875,-6.32812 -0.632813,-12.80859 0.08984,-19.39843 1.296875,-11.92188 4.847656,-22.62891 10.316406,-32.28125 5.652348,-9.98047 13.351565,-18.82813 22.761725,-26.71094 11.58984,-9.69922 24.87109,-16.38672 39.30078,-20.14844 18.89843,-4.92969 37.96875,-4.73828 56.84765,1.19141 11.0625,3.46875 20.92188,8.35937 29.72266,14.50781 0,0 22.16797,15.3125 35.71094,40.5 24.1875,45.01172 12.25781,112.71094 -26.38282,154.28125 -18.25781,19.66016 -37.98828,28.62109 -54.69921,36.01953 -17.89844,7.92188 -35.3086,12.71094 -51.35938,15.48047 -13.80859,1.80859 -28.78125,2.53125 -44.710937,1.50781 -6.320314,-0.40625 -12.390627,-1.0664 -18.191408,-1.90625 -36.148437,-45 -57.816406,-102.10156 -57.816406,-164.17187 0,-144.76953 117.777341,-262.550785 262.546881,-262.550785 144.76953,0 262.55078,117.781255 262.55078,262.550785 0,144.76953 -117.78125,262.55078 -262.55078,262.55078 z M 407.40234,240.63281 c -2.12109,-1.97265 -4.62109,-3.63281 -7.38281,-5.01172 2.01172,-7.01953 4.79297,-15.41015 8.64062,-24.64062 3.10157,-7.42969 6.28907,-13.92969 9.10938,-19.26953 1.55078,-2.92969 4.39062,-4.87891 7.64062,-5.53125 0.0312,-0.008 0.0625,-0.008 0.0899,-0.0195 3.47265,-0.73047 6.03125,-3.84766 6.0625,-7.39063 0.0391,-5.08984 -4.72266,-8.80859 -9.67188,-7.5 -3.33984,0.89063 -5.6914,4 -5.66015,7.45313 0.0117,0.86718 0.16015,1.70703 0.42968,2.48047 1.10938,3.14843 0.82032,6.61718 -1.03906,9.38671 -5.39062,8.04297 -12.19922,18.6211 -19.17969,30.11329 -0.92187,1.51953 -1.80859,3 -2.67187,4.4375 -1.6875,2.8125 -4.12891,5.01953 -6.96875,6.42968 -4.96094,-0.73828 -10.14844,-0.76953 -15.19141,-0.0586 -2.78906,-1.41016 -5.1875,-3.60156 -6.84765,-6.37109 -0.85938,-1.4375 -1.75,-2.91797 -2.67188,-4.4375 -6.98047,-11.49219 -13.77734,-22.0625 -19.16797,-30.08985 -1.85937,-2.78125 -2.16015,-6.26172 -1.05078,-9.41015 0.26953,-0.78125 0.42188,-1.61329 0.42188,-2.49219 0.0273,-3.44141 -2.32032,-6.5586 -5.66016,-7.44141 -5.67187,-1.5 -11.08984,3.61328 -9.32031,9.82031 0.75,2.60157 2.98828,4.51172 5.63672,5.0625 0.082,0.008 0.16015,0.0273 0.25,0.0508 3.26172,0.57812 6.0625,2.67968 7.61328,5.61718 2.80859,5.32032 5.96875,11.78125 9.05859,19.16016 3.8086,9.13281 6.57031,17.44141 8.57031,24.42187 -2.05859,0.98047 -4.03125,2.12891 -5.83203,3.46094 -27.23828,20 -5.46875,68.01953 -39.76953,127.25781 -5.61719,9.69922 -11.20703,17.0586 -15.00781,21.71875 -8.25,8.07032 -16.5,16.14063 -24.75,24.21094 20.39844,-22.75781 30.92969,-44.41015 36.48047,-58.58984 2.52734,-6.44141 6.13672,-15.83985 8.50781,-28.89844 3.60156,-19.80078 3.21094,-39.47266 -1.87891,-58.78125 -6.80078,-25.78125 -19.21093,-48.48828 -38.73046,-67.16797 -13.67969,-13.08203 -29.14844,-23.27344 -46.69922,-29.9414 -22.99219,-8.71875 -46.85938,-12 -71.26172,-7.5586 -10.08985,1.82813 -20.30078,4.03906 -29.82031,7.72656 -5.53907,2.15235 -10.86719,4.58204 -15.98047,7.29297 -0.87891,0.45703 -1.73828,0.94922 -2.59766,1.42969 36.07031,-58.22266 100.53906,-97.011718 174.07031,-97.011718 113.01953,0 204.62891,91.621098 204.62891,204.640628 0,113.01953 -91.60938,204.6289 -204.62891,204.6289 -32.03125,0 -62.35156,-7.35937 -89.33984,-20.48047 8.46094,-0.6289 16.91797,-1.67968 25.36719,-3.16796 55.34375,-9.76954 122.78125,-33.78907 161.45312,-92.10157 25.26953,-38.08984 50.64844,-109.48828 24.75,-133.4375 z M 547.94922,174.17969 C 533.58984,140.22266 513.03125,109.72266 486.83984,83.53125 460.65234,57.351562 430.16015,36.78125 396.1914,22.421875 361.03125,7.5429685 323.67969,0 285.17969,0 246.6914,0 209.33984,7.5429685 174.17187,22.421875 140.21094,36.78125 109.71094,57.351562 83.519532,83.53125 57.339844,109.72266 36.78125,140.22266 22.410156,174.17969 7.5429688,209.35156 0,246.70313 0,285.19141 c 0,38.48828 7.5429688,75.83984 22.410156,111.01172 14.371094,33.95703 34.929688,64.45703 61.109376,90.64843 26.191408,26.19141 56.691408,46.75 90.652338,61.10938 35.16797,14.8789 72.51953,22.42187 111.00782,22.42187 38.5,0 75.85156,-7.54297 111.01171,-22.42187 33.96875,-14.35938 64.46094,-34.91797 90.64844,-61.10938 26.19141,-26.1914 46.75,-56.6914 61.10938,-90.64843 14.88281,-35.17188 22.42187,-72.52344 22.42187,-111.01172 0,-38.48828 -7.53906,-75.83985 -22.42187,-111.01172"
     id="path986" />
</svg>
