<?xml version="1.0" encoding="UTF-8" standalone="no"?>
<!-- Created with Inkscape (http://www.inkscape.org/) -->

<svg
   width="0.98447144mm"
   height="0.99003381mm"
   viewBox="0 0 0.98447144 0.99003381"
   version="1.1"
   id="svg1"
   inkscape:version="1.3 (0e150ed6c4, 2023-07-21)"
   sodipodi:docname="safari-pinned-tab.svg"
   xmlns:inkscape="http://www.inkscape.org/namespaces/inkscape"
   xmlns:sodipodi="http://sodipodi.sourceforge.net/DTD/sodipodi-0.dtd"
   xmlns="http://www.w3.org/2000/svg"
   xmlns:svg="http://www.w3.org/2000/svg">
  <sodipodi:namedview
     id="namedview1"
     pagecolor="#ffffff"
     bordercolor="#666666"
     borderopacity="1.0"
     inkscape:showpageshadow="2"
     inkscape:pageopacity="0.0"
     inkscape:pagecheckerboard="0"
     inkscape:deskcolor="#d1d1d1"
     inkscape:document-units="mm"
     inkscape:zoom="87.916498"
     inkscape:cx="5.43129"
     inkscape:cy="2.0985822"
     inkscape:window-width="1920"
     inkscape:window-height="1011"
     inkscape:window-x="0"
     inkscape:window-y="0"
     inkscape:window-maximized="1"
     inkscape:current-layer="layer1" />
  <defs
     id="defs1">
    <clipPath
       id="SvgjsClipPath1012">
      <path
         d="M 0,-3.9920381 H 3.7216806 V -0.25 H 0 Z"
         id="path7" />
    </clipPath>
    <clipPath
       id="SvgjsClipPath1008c6866c52-9d47-489b-8b57-4ac50b80cb5a">
      <path
         d="M 0,-3.9920381 H 3.7216806 V -0.25 H 0 Z"
         id="path8" />
    </clipPath>
    <clipPath
       id="clipPath1">
      <path
         d="M 0,-3.9920381 H 3.7216806 V -0.25 H 0 Z"
         id="path1" />
    </clipPath>
    <clipPath
       id="clipPath2">
      <path
         d="M 0,-3.9920381 H 3.7216806 V -0.25 H 0 Z"
         id="path2" />
    </clipPath>
  </defs>
  <g
     inkscape:label="Calque 1"
     inkscape:groupmode="layer"
     id="layer1"
     transform="translate(-104.51041,-147.90208)">
    <g
       clip-path="url(#SvgjsClipPath1012)"
       id="g6"
       transform="matrix(0.26458333,0,0,0.26458333,104.51021,148.95826)">
      <g
         clip-path="url(#SvgjsClipPath1008c6866c52-9d47-489b-8b57-4ac50b80cb5a)"
         id="g3">
        <path
           d="M 2.6858259,-1.7459331 C 3.2795847,-2.1164386 3.107225,-2.9212364 2.506341,-3.4135473 c 0.954425,1.3042338 -0.1251983,1.9926548 -0.6446525,1.432825 0.6823138,-0.2429322 0.3528625,-1.3310378 -0.4750071,-1.9926548 2.2830878,-0.2592182 3.2215661,2.2949629 1.2991445,2.227444 z"
           fill="#225777"
           fill-rule="evenodd"
           id="path3" />
      </g>
      <g
         clip-path="url(#SvgjsClipPath1008c6866c52-9d47-489b-8b57-4ac50b80cb5a)"
         id="g4">
        <path
           d="M 1.783991,-3.118025 C 1.1664817,-3.4471371 0.55541902,-2.8954503 0.42954214,-2.1286531 1.0819983,-3.6076216 2.2176046,-3.0169164 1.9923155,-2.2881198 1.4406287,-2.7576982 0.6629742,-1.9284715 0.5045254,-0.87938441 -0.85976285,-2.7264835 0.88147746,-4.8165147 1.783991,-3.118025 Z"
           fill="#173054"
           fill-rule="evenodd"
           id="path4" />
      </g>
      <g
         clip-path="url(#SvgjsClipPath1008c6866c52-9d47-489b-8b57-4ac50b80cb5a)"
         id="g5">
        <path
           d="m 1.0467121,-1.6509317 c 0.02409,0.69927835 0.8071728,0.95272857 1.5342729,0.67858161 C 0.97376456,-0.79761533 0.91846016,-2.0767416 1.661507,-2.2460477 1.53088,-1.533537 2.6376466,-1.2746582 3.6256613,-1.661789 2.7085584,0.44452824 0.02714326,-0.01996085 1.0467121,-1.6509317 Z"
           fill="#173054"
           fill-rule="evenodd"
           id="path5" />
      </g>
    </g>
    <path
       style="fill:#296f04;fill-opacity:1;stroke-width:0.00227223"
       d="m 104.93844,148.89014 c -0.11057,-0.0112 -0.18426,-0.0645 -0.20589,-0.14877 -0.002,-0.008 -0.003,-0.0242 -0.003,-0.0442 5e-5,-0.0273 9.6e-4,-0.0353 0.006,-0.0563 0.009,-0.0351 0.027,-0.0775 0.0453,-0.10702 l 0.005,-0.009 0.001,0.0156 c 0.002,0.0227 0.008,0.0424 0.0185,0.0656 0.0282,0.0599 0.0845,0.10023 0.16371,0.11743 0.0297,0.006 0.0874,0.008 0.12314,0.003 0.0301,-0.004 0.0723,-0.0141 0.0905,-0.0216 l 0.0114,-0.005 -0.0227,0.002 c -0.10692,0.007 -0.19397,-0.008 -0.25489,-0.0459 -0.0228,-0.0141 -0.054,-0.0451 -0.0661,-0.0658 -0.0456,-0.078 -0.018,-0.17217 0.0619,-0.21148 0.0113,-0.006 0.0236,-0.0107 0.0273,-0.0114 l 0.007,-0.001 -7.7e-4,0.0226 c -0.002,0.0713 0.0427,0.12522 0.13032,0.15563 0.0488,0.0169 0.0983,0.0233 0.16568,0.0214 0.0697,-0.002 0.13661,-0.0142 0.2001,-0.0365 0.0125,-0.004 0.023,-0.008 0.0234,-0.007 0.001,10e-4 -0.0353,0.0711 -0.0484,0.0922 -0.091,0.14637 -0.23398,0.24716 -0.3851,0.27146 -0.0218,0.004 -0.0775,0.006 -0.0943,0.004 z"
       id="path9" />
    <path
       style="fill:#296f04;fill-opacity:1;stroke-width:0.00227223"
       d="m 104.62783,148.70048 c -0.0378,-0.0544 -0.0723,-0.12538 -0.0901,-0.18553 -0.0176,-0.0592 -0.0253,-0.11106 -0.0253,-0.17031 0,-0.0602 0.007,-0.10755 0.0252,-0.16094 0.0353,-0.10588 0.10286,-0.18276 0.1827,-0.20784 0.02,-0.006 0.0559,-0.009 0.0773,-0.005 0.0613,0.0107 0.12116,0.0592 0.16811,0.13629 0.007,0.0113 0.0125,0.021 0.0125,0.0216 0,5.9e-4 -0.006,-0.001 -0.0125,-0.005 -0.0238,-0.0109 -0.0417,-0.0149 -0.0728,-0.0161 -0.0474,-0.002 -0.083,0.008 -0.12328,0.0349 -0.0666,0.0442 -0.11806,0.12552 -0.14133,0.22352 -0.008,0.0329 -0.006,0.0321 0.013,-0.005 0.0671,-0.13308 0.15655,-0.20709 0.25048,-0.20726 0.026,-4e-5 0.0441,0.004 0.0702,0.0167 0.0267,0.0127 0.0523,0.0383 0.0658,0.0658 0.0157,0.032 0.0199,0.0696 0.0115,0.103 l -0.003,0.0103 -0.0109,-0.008 c -0.0847,-0.0608 -0.19604,-0.014 -0.2857,0.12022 -0.0405,0.0606 -0.075,0.14672 -0.0913,0.22812 l -0.006,0.031 z"
       id="path10" />
    <path
       style="fill:#8cc850;fill-opacity:1;stroke-width:0.00227223"
       d="m 105.23155,148.49116 c 0.0443,-0.0341 0.0657,-0.0636 0.0798,-0.10989 0.006,-0.0186 0.006,-0.0236 0.006,-0.0578 6e-5,-0.0332 -6.2e-4,-0.0403 -0.006,-0.0617 -0.014,-0.0559 -0.0414,-0.10682 -0.0835,-0.15531 -0.0176,-0.0203 -0.0517,-0.0525 -0.0535,-0.0506 -5.8e-4,5.8e-4 0.008,0.0143 0.0184,0.0304 0.0227,0.0341 0.0522,0.0927 0.0623,0.12363 0.0205,0.0628 0.0227,0.11683 0.007,0.16462 -0.0182,0.0543 -0.058,0.0925 -0.11058,0.10592 -0.0474,0.0121 -0.0958,-9.4e-4 -0.13784,-0.0371 l -0.009,-0.008 0.018,-0.009 c 0.0353,-0.0174 0.062,-0.0511 0.0731,-0.0919 0.006,-0.0207 0.006,-0.0756 -4e-5,-0.10225 -0.0148,-0.0707 -0.0557,-0.15169 -0.11188,-0.22157 -0.0205,-0.0255 -0.0624,-0.0687 -0.0866,-0.0891 l -0.0162,-0.0137 0.0105,-0.001 c 0.006,-8e-4 0.0279,-0.002 0.0492,-0.003 0.16564,-0.006 0.32376,0.0504 0.43127,0.15358 0.0619,0.0594 0.10155,0.12592 0.11656,0.19556 0.006,0.026 0.006,0.0722 -1e-5,0.0943 -0.007,0.0282 -0.0218,0.0552 -0.0412,0.0758 -0.0433,0.0461 -0.10133,0.0679 -0.1912,0.0719 l -0.0314,0.001 z"
       id="path11" />
  </g>
</svg>
