<?xml version="1.0" encoding="UTF-8" standalone="no"?>
<!DOCTYPE svg PUBLIC "-//W3C//DTD SVG 1.1//EN"
 "http://www.w3.org/Graphics/SVG/1.1/DTD/svg11.dtd">
<!-- Generated by graphviz version 2.38.0 (20140413.2041)
 -->
<!-- Title: add Pages: 1 -->
<svg width="263pt" height="218pt"
 viewBox="0.00 0.00 262.54 218.00" xmlns="http://www.w3.org/2000/svg" xmlns:xlink="http://www.w3.org/1999/xlink">
<g id="graph0" class="graph" transform="scale(1 1) rotate(0) translate(4 214)">
<title>add</title>
<!-- 1814647793360 -->
<g id="node1" class="node"><title>1814647793360</title>
<polygon fill="none" stroke="black" points="179.347,-210 89.3466,-210 89.3466,-174 179.347,-174 179.347,-210"/>
<text text-anchor="middle" x="134.347" y="-188.3" font-family="Times New Roman,serif" font-size="14.00">1a− &#160;1b &gt;= 0</text>
</g>
<!-- 1814647794128 -->
<g id="node2" class="node"><title>1814647794128</title>
<polygon fill="none" stroke="black" points="115.347,-123 17.3466,-123 17.3466,-87 115.347,-87 115.347,-123"/>
<text text-anchor="middle" x="66.3466" y="-101.3" font-family="Times New Roman,serif" font-size="14.00">−1a+ &#160;1b &gt;= 0</text>
</g>
<!-- 1814647793360&#45;&gt;1814647794128 -->
<g id="edge1" class="edge"><title>1814647793360&#45;&gt;1814647794128</title>
<path fill="none" stroke="black" d="M120.586,-173.799C110.816,-161.587 97.5403,-144.992 86.5687,-131.278"/>
<polygon fill="black" stroke="black" points="89.067,-128.798 80.0869,-123.175 83.6009,-133.171 89.067,-128.798"/>
<text text-anchor="middle" x="107.847" y="-144.8" font-family="Times New Roman,serif" font-size="14.00">1</text>
</g>
<!-- 1814647794320 -->
<g id="node3" class="node"><title>1814647794320</title>
<polygon fill="none" stroke="black" points="231.347,-123 133.347,-123 133.347,-87 231.347,-87 231.347,-123"/>
<text text-anchor="middle" x="182.347" y="-101.3" font-family="Times New Roman,serif" font-size="14.00">−1a+ &#160;1b &gt;= 0</text>
</g>
<!-- 1814647793360&#45;&gt;1814647794320 -->
<g id="edge2" class="edge"><title>1814647793360&#45;&gt;1814647794320</title>
<path fill="none" stroke="black" stroke-dasharray="5,2" d="M144.06,-173.799C150.826,-161.817 159.975,-145.617 167.632,-132.057"/>
<polygon fill="black" stroke="black" points="170.778,-133.604 172.648,-123.175 164.683,-130.162 170.778,-133.604"/>
<text text-anchor="middle" x="163.847" y="-144.8" font-family="Times New Roman,serif" font-size="14.00">0</text>
</g>
<!-- &#45;586836735 -->
<g id="node4" class="node"><title>&#45;586836735</title>
<ellipse fill="none" stroke="black" cx="121.347" cy="-18" rx="27" ry="18"/>
<text text-anchor="middle" x="121.347" y="-14.3" font-family="Times New Roman,serif" font-size="14.00">0</text>
</g>
<!-- 1814647794128&#45;&gt;&#45;586836735 -->
<g id="edge3" class="edge"><title>1814647794128&#45;&gt;&#45;586836735</title>
<path fill="none" stroke="black" d="M77.4767,-86.799C85.5618,-74.3038 96.6151,-57.2215 105.604,-43.3298"/>
<polygon fill="black" stroke="black" points="108.666,-45.0392 111.161,-34.7421 102.789,-41.2364 108.666,-45.0392"/>
<text text-anchor="middle" x="99.8466" y="-57.8" font-family="Times New Roman,serif" font-size="14.00">1</text>
</g>
<!-- 1091818659 -->
<g id="node5" class="node"><title>1091818659</title>
<ellipse fill="none" stroke="black" cx="38.3466" cy="-18" rx="38.1938" ry="18"/>
<text text-anchor="middle" x="38.3466" y="-14.3" font-family="Times New Roman,serif" font-size="14.00">1a− &#160;1b</text>
</g>
<!-- 1814647794128&#45;&gt;1091818659 -->
<g id="edge4" class="edge"><title>1814647794128&#45;&gt;1091818659</title>
<path fill="none" stroke="black" stroke-dasharray="5,2" d="M60.6804,-86.799C56.7838,-74.9701 51.533,-59.0301 47.1017,-45.578"/>
<polygon fill="black" stroke="black" points="50.3619,-44.2882 43.9088,-35.8854 43.7134,-46.4784 50.3619,-44.2882"/>
<text text-anchor="middle" x="56.8466" y="-57.8" font-family="Times New Roman,serif" font-size="14.00">0</text>
</g>
<!-- 1814647794320&#45;&gt;&#45;586836735 -->
<g id="edge6" class="edge"><title>1814647794320&#45;&gt;&#45;586836735</title>
<path fill="none" stroke="black" stroke-dasharray="5,2" d="M170.002,-86.799C160.892,-74.1045 148.384,-56.6752 138.331,-42.6674"/>
<polygon fill="black" stroke="black" points="141.116,-40.5444 132.442,-34.4606 135.429,-44.6257 141.116,-40.5444"/>
<text text-anchor="middle" x="158.847" y="-57.8" font-family="Times New Roman,serif" font-size="14.00">0</text>
</g>
<!-- &#45;1816368117 -->
<g id="node6" class="node"><title>&#45;1816368117</title>
<ellipse fill="none" stroke="black" cx="210.347" cy="-18" rx="44.393" ry="18"/>
<text text-anchor="middle" x="210.347" y="-14.3" font-family="Times New Roman,serif" font-size="14.00">−1a+ &#160;1b</text>
</g>
<!-- 1814647794320&#45;&gt;&#45;1816368117 -->
<g id="edge5" class="edge"><title>1814647794320&#45;&gt;&#45;1816368117</title>
<path fill="none" stroke="black" d="M188.013,-86.799C191.909,-74.9701 197.16,-59.0301 201.591,-45.578"/>
<polygon fill="black" stroke="black" points="204.98,-46.4784 204.784,-35.8854 198.331,-44.2882 204.98,-46.4784"/>
<text text-anchor="middle" x="200.847" y="-57.8" font-family="Times New Roman,serif" font-size="14.00">1</text>
</g>
</g>
</svg>
