<?xml version="1.0" encoding="UTF-8" standalone="no"?>
<!-- Created with Inkscape (http://www.inkscape.org/) -->

<svg
   version="1.1"
   id="svg2"
   xml:space="preserve"
   width="472"
   height="254.66667"
   viewBox="0 0 472 254.66667"
   sodipodi:docname="partial_relu_4_0.svg"
   inkscape:version="1.1.1 (3bf5ae0d25, 2021-09-20)"
   xmlns:inkscape="http://www.inkscape.org/namespaces/inkscape"
   xmlns:sodipodi="http://sodipodi.sourceforge.net/DTD/sodipodi-0.dtd"
   xmlns="http://www.w3.org/2000/svg"
   xmlns:svg="http://www.w3.org/2000/svg"><defs
     id="defs6" /><sodipodi:namedview
     id="namedview4"
     pagecolor="#ffffff"
     bordercolor="#999999"
     borderopacity="1"
     inkscape:pageshadow="0"
     inkscape:pageopacity="0"
     inkscape:pagecheckerboard="0"
     showgrid="false"
     inkscape:zoom="3.4829842"
     inkscape:cx="236.00451"
     inkscape:cy="127.33334"
     inkscape:window-width="3840"
     inkscape:window-height="2126"
     inkscape:window-x="-11"
     inkscape:window-y="-11"
     inkscape:window-maximized="1"
     inkscape:current-layer="g8" /><g
     id="g8"
     inkscape:groupmode="layer"
     inkscape:label="partial_relu_4_0"
     transform="matrix(1.3333333,0,0,1.3333333,0,9.7e-6)"><g
       id="g10"><path
         d="m 103.523,4 h 147 v 36 h -147 z"
         style="fill:none;stroke:#000000;stroke-width:1;stroke-linecap:butt;stroke-linejoin:miter;stroke-miterlimit:10;stroke-dasharray:none;stroke-opacity:1"
         id="path12" /><text
         transform="translate(111.52344,25.699219)"
         style="font-variant:normal;font-weight:normal;font-size:14px;font-family:'Times New Roman';-inkscape-font-specification:TimesNewRomanPSMT;writing-mode:lr-tb;fill:#000000;fill-opacity:1;fill-rule:nonzero;stroke:none"
         id="text16"><tspan
           x="0 6.7480001 12.74 20.972 28.476 35.223999 41.972 50.217999 57.708 64.456001 70.447998 78.68 86.183998 92.931999 99.68 103.432 111.678 119.91 123.662"
           y="0"
           sodipodi:role="line"
           id="tspan14">1a+ 0b+ 0c+ 0d &gt;= 0</tspan></text><path
         d="m 168.074,139.082 c 0,26.602 -36.734,48.168 -82.051,48.168 -45.312,0 -82.046,-21.566 -82.046,-48.168 0,-26.602 36.734,-48.164 82.046,-48.164 45.317,0 82.051,21.562 82.051,48.164"
         style="fill:none;stroke:#000000;stroke-width:1;stroke-linecap:butt;stroke-linejoin:miter;stroke-miterlimit:10;stroke-dasharray:none;stroke-opacity:1"
         id="path18" /><text
         transform="translate(36.023438,120.28516)"
         style="font-variant:normal;font-weight:normal;font-size:14px;font-family:'Times New Roman';-inkscape-font-specification:TimesNewRomanPSMT;writing-mode:lr-tb;fill:#000000;fill-opacity:1;fill-rule:nonzero;stroke:none"
         id="text28"><tspan
           x="0 6.7480001 12.74 20.972 28.476 35.223999 41.972 50.217999 57.708 64.456001 70.447998 78.68 86.183998 92.931999"
           y="0"
           sodipodi:role="line"
           id="tspan20">1a+ 0b+ 0c+ 0d</tspan><tspan
           x="0 6.7480001 12.74 20.972 28.476 35.223999 41.972 50.217999 57.708 64.456001 70.447998 78.68 86.183998 92.931999"
           y="15.000006"
           sodipodi:role="line"
           id="tspan22">0a+ 1b+ 0c+ 0d</tspan><tspan
           x="0 6.7480001 12.74 20.972 28.476 35.223999 41.972 50.217999 57.708 64.456001 70.447998 78.68 86.183998 92.931999"
           y="30.000011"
           sodipodi:role="line"
           id="tspan24">0a+ 0b+ 1c+ 0d</tspan><tspan
           x="0 6.7480001 12.74 20.972 28.476 35.223999 41.972 50.217999 57.708 64.456001 70.447998 78.68 86.183998 92.931999"
           y="45.000019"
           sodipodi:role="line"
           id="tspan26">0a+ 0b+ 0c+ 1d</tspan></text><path
         d="m 163.203,40.48 c -9.828,12.426 -23.57,29.805 -36.738,46.461"
         style="fill:none;stroke:#000000;stroke-width:1;stroke-linecap:butt;stroke-linejoin:miter;stroke-miterlimit:10;stroke-dasharray:none;stroke-opacity:1"
         id="path30" /><path
         d="m 129.012,89.359 -8.946,5.676 3.457,-10.015 z"
         style="fill:#000000;fill-opacity:1;fill-rule:nonzero;stroke:#000000;stroke-width:1;stroke-linecap:butt;stroke-linejoin:miter;stroke-miterlimit:10;stroke-dasharray:none;stroke-opacity:1"
         id="path32" /><text
         transform="translate(148.02344,69.199219)"
         style="font-variant:normal;font-weight:normal;font-size:14px;font-family:'Times New Roman';-inkscape-font-specification:TimesNewRomanPSMT;writing-mode:lr-tb;fill:#000000;fill-opacity:1;fill-rule:nonzero;stroke:none"
         id="text36"><tspan
           x="0"
           y="0"
           id="tspan34">1</tspan></text><path
         d="m 350.074,139.082 c 0,26.602 -36.734,48.168 -82.051,48.168 -45.312,0 -82.046,-21.566 -82.046,-48.168 0,-26.602 36.734,-48.164 82.046,-48.164 45.317,0 82.051,21.562 82.051,48.164"
         style="fill:none;stroke:#000000;stroke-width:1;stroke-linecap:butt;stroke-linejoin:miter;stroke-miterlimit:10;stroke-dasharray:none;stroke-opacity:1"
         id="path38" /><text
         transform="translate(218.02344,120.28516)"
         style="font-variant:normal;font-weight:normal;font-size:14px;font-family:'Times New Roman';-inkscape-font-specification:TimesNewRomanPSMT;writing-mode:lr-tb;fill:#000000;fill-opacity:1;fill-rule:nonzero;stroke:none"
         id="text48"><tspan
           x="0 6.7480001 12.74 20.972 28.476 35.223999 41.972 50.217999 57.708 64.456001 70.447998 78.68 86.183998 92.931999"
           y="0"
           sodipodi:role="line"
           id="tspan40">0a+ 0b+ 0c+ 0d</tspan><tspan
           x="0 6.7480001 12.74 20.972 28.476 35.223999 41.972 50.217999 57.708 64.456001 70.447998 78.68 86.183998 92.931999"
           y="15.000006"
           sodipodi:role="line"
           id="tspan42">0a+ 1b+ 0c+ 0d</tspan><tspan
           x="0 6.7480001 12.74 20.972 28.476 35.223999 41.972 50.217999 57.708 64.456001 70.447998 78.68 86.183998 92.931999"
           y="30.000011"
           sodipodi:role="line"
           id="tspan44">0a+ 0b+ 1c+ 0d</tspan><tspan
           x="0 6.7480001 12.74 20.972 28.476 35.223999 41.972 50.217999 57.708 64.456001 70.447998 78.68 86.183998 92.931999"
           y="45.000019"
           sodipodi:role="line"
           id="tspan46">0a+ 0b+ 0c+ 1d</tspan></text><path
         d="m 190.844,40.48 c 9.828,12.426 23.57,29.805 36.742,46.461"
         style="fill:none;stroke:#000000;stroke-width:1;stroke-linecap:butt;stroke-linejoin:miter;stroke-miterlimit:10;stroke-dasharray:6, 6;stroke-dashoffset:0;stroke-opacity:1"
         id="path50" /><path
         d="m 230.527,85.02 3.457,10.015 -8.949,-5.676 z"
         style="fill:#000000;fill-opacity:1;fill-rule:nonzero;stroke:#000000;stroke-width:1;stroke-linecap:butt;stroke-linejoin:miter;stroke-miterlimit:10;stroke-dasharray:none;stroke-opacity:1"
         id="path52" /><text
         transform="translate(215.02344,69.199219)"
         style="font-variant:normal;font-weight:normal;font-size:14px;font-family:'Times New Roman';-inkscape-font-specification:TimesNewRomanPSMT;writing-mode:lr-tb;fill:#000000;fill-opacity:1;fill-rule:nonzero;stroke:none"
         id="text56"><tspan
           x="0"
           y="0"
           id="tspan54">0</tspan></text></g></g></svg>
