<?xml version="1.0" encoding="UTF-8" standalone="no"?>
<!DOCTYPE svg PUBLIC "-//W3C//DTD SVG 1.1//EN"
 "http://www.w3.org/Graphics/SVG/1.1/DTD/svg11.dtd">
<!-- Generated by graphviz version 12.1.0 (20240811.2233)
 -->
<!-- Pages: 1 -->
<svg width="186pt" height="242pt"
 viewBox="0.00 0.00 185.69 241.70" xmlns="http://www.w3.org/2000/svg" xmlns:xlink="http://www.w3.org/1999/xlink">
<g id="graph0" class="graph" transform="scale(1 1) rotate(0) translate(4 237.7)">
<polygon fill="white" stroke="none" points="-4,4 -4,-237.7 181.69,-237.7 181.69,4 -4,4"/>
<!-- local&#45;branch&#45;A -->
<g id="node1" class="node">
<title>local&#45;branch&#45;A</title>
<g id="a_node1"><a xlink:title="&#45;&gt; None">
<polygon fill="forestgreen" stroke="forestgreen" points="135.69,-17.94 126,-17.94 126,0 135.69,0 135.69,-17.94"/>
<text text-anchor="middle" x="130.84" y="-3.92" font-family="Courier,monospace" font-size="14.00">A</text>
</a>
</g>
</g>
<!-- c40e5a8f807ac96435e42b90ecbffbabeb2469ae -->
<g id="node2" class="node">
<title>c40e5a8f807ac96435e42b90ecbffbabeb2469ae</title>
<g id="a_node2"><a xlink:title="author: First Last &lt;first.last@mail.com&gt;&#10;Wed Jan 01 09:00:00 2025 +0100&#10;committer: Nom Prenom &lt;nom.prenom@mail.com&gt;&#10;Wed Jan 01 09:00:00 2025 +0100&#10;&#10;A">
<polygon fill="#cdad00" stroke="#cdad00" points="135.69,-71.88 126,-71.88 126,-53.94 135.69,-53.94 135.69,-71.88"/>
<text text-anchor="middle" x="130.84" y="-57.86" font-family="Courier,monospace" font-size="14.00">A</text>
</a>
</g>
</g>
<!-- local&#45;branch&#45;A&#45;&gt;c40e5a8f807ac96435e42b90ecbffbabeb2469ae -->
<g id="edge11" class="edge">
<title>local&#45;branch&#45;A&#45;&gt;c40e5a8f807ac96435e42b90ecbffbabeb2469ae</title>
<path fill="none" stroke="#1a1a1a" d="M130.84,-18.09C130.84,-25.89 130.84,-37.87 130.84,-47.33"/>
<polygon fill="#1a1a1a" stroke="#1a1a1a" points="129.1,-47.17 130.85,-52.17 132.6,-47.17 129.1,-47.17"/>
</g>
<!-- bde59a18d866c6ad00edc1554c328ac9455a48c8 -->
<g id="node4" class="node">
<title>bde59a18d866c6ad00edc1554c328ac9455a48c8</title>
<g id="a_node4"><a xlink:title="author: First Last &lt;first.last@mail.com&gt;&#10;Wed Jan 01 09:00:00 2025 +0100&#10;committer: Nom Prenom &lt;nom.prenom@mail.com&gt;&#10;Wed Jan 01 09:00:00 2025 +0100&#10;&#10;B">
<polygon fill="#cdad00" stroke="#cdad00" points="107.69,-125.82 98,-125.82 98,-107.88 107.69,-107.88 107.69,-125.82"/>
<text text-anchor="middle" x="102.84" y="-111.8" font-family="Courier,monospace" font-size="14.00">B</text>
</a>
</g>
</g>
<!-- c40e5a8f807ac96435e42b90ecbffbabeb2469ae&#45;&gt;bde59a18d866c6ad00edc1554c328ac9455a48c8 -->
<g id="edge10" class="edge">
<title>c40e5a8f807ac96435e42b90ecbffbabeb2469ae&#45;&gt;bde59a18d866c6ad00edc1554c328ac9455a48c8</title>
<path fill="none" stroke="#1a1a1a" d="M126.47,-72.03C122.14,-80.06 115.43,-92.51 110.26,-102.09"/>
<polygon fill="#1a1a1a" stroke="#1a1a1a" points="108.83,-101.06 108,-106.29 111.91,-102.72 108.83,-101.06"/>
</g>
<!-- 4b476004aba5f2e254f4deb19b53c9b774115de0 -->
<g id="node6" class="node">
<title>4b476004aba5f2e254f4deb19b53c9b774115de0</title>
<g id="a_node6"><a xlink:title="author: First Last &lt;first.last@mail.com&gt;&#10;Wed Jan 01 09:00:00 2025 +0100&#10;committer: Nom Prenom &lt;nom.prenom@mail.com&gt;&#10;Wed Jan 01 09:00:00 2025 +0100&#10;&#10;C">
<polygon fill="#cdad00" stroke="#cdad00" points="163.69,-125.82 154,-125.82 154,-107.88 163.69,-107.88 163.69,-125.82"/>
<text text-anchor="middle" x="158.84" y="-111.8" font-family="Courier,monospace" font-size="14.00">C</text>
</a>
</g>
</g>
<!-- c40e5a8f807ac96435e42b90ecbffbabeb2469ae&#45;&gt;4b476004aba5f2e254f4deb19b53c9b774115de0 -->
<g id="edge9" class="edge">
<title>c40e5a8f807ac96435e42b90ecbffbabeb2469ae&#45;&gt;4b476004aba5f2e254f4deb19b53c9b774115de0</title>
<path fill="none" stroke="#1a1a1a" d="M135.22,-72.03C139.55,-80.06 146.26,-92.51 151.43,-102.09"/>
<polygon fill="#1a1a1a" stroke="#1a1a1a" points="149.78,-102.72 153.69,-106.29 152.86,-101.06 149.78,-102.72"/>
</g>
<!-- local&#45;branch&#45;B -->
<g id="node3" class="node">
<title>local&#45;branch&#45;B</title>
<g id="a_node3"><a xlink:title="&#45;&gt; None">
<polygon fill="forestgreen" stroke="forestgreen" points="107.69,-71.88 98,-71.88 98,-53.94 107.69,-53.94 107.69,-71.88"/>
<text text-anchor="middle" x="102.84" y="-57.86" font-family="Courier,monospace" font-size="14.00">B</text>
</a>
</g>
</g>
<!-- local&#45;branch&#45;B&#45;&gt;bde59a18d866c6ad00edc1554c328ac9455a48c8 -->
<g id="edge12" class="edge">
<title>local&#45;branch&#45;B&#45;&gt;bde59a18d866c6ad00edc1554c328ac9455a48c8</title>
<path fill="none" stroke="#1a1a1a" d="M102.84,-72.03C102.84,-79.83 102.84,-91.81 102.84,-101.27"/>
<polygon fill="#1a1a1a" stroke="#1a1a1a" points="101.1,-101.11 102.85,-106.11 104.6,-101.11 101.1,-101.11"/>
</g>
<!-- 687be3a12d78b57ab5ea740dca898ca4dee9dcd6 -->
<g id="node8" class="node">
<title>687be3a12d78b57ab5ea740dca898ca4dee9dcd6</title>
<g id="a_node8"><a xlink:title="author: First Last &lt;first.last@mail.com&gt;&#10;Wed Jan 01 09:00:00 2025 +0100&#10;committer: Nom Prenom &lt;nom.prenom@mail.com&gt;&#10;Wed Jan 01 09:00:00 2025 +0100&#10;&#10;D">
<polygon fill="#cdad00" stroke="#cdad00" points="37.69,-179.76 28,-179.76 28,-161.82 37.69,-161.82 37.69,-179.76"/>
<text text-anchor="middle" x="32.84" y="-165.74" font-family="Courier,monospace" font-size="14.00">D</text>
</a>
</g>
</g>
<!-- bde59a18d866c6ad00edc1554c328ac9455a48c8&#45;&gt;687be3a12d78b57ab5ea740dca898ca4dee9dcd6 -->
<g id="edge4" class="edge">
<title>bde59a18d866c6ad00edc1554c328ac9455a48c8&#45;&gt;687be3a12d78b57ab5ea740dca898ca4dee9dcd6</title>
<path fill="none" stroke="#1a1a1a" d="M97.81,-121.59C86.31,-130.12 57.92,-151.18 42.76,-162.43"/>
<polygon fill="#1a1a1a" stroke="#1a1a1a" points="42.02,-160.8 39.05,-165.19 44.11,-163.61 42.02,-160.8"/>
</g>
<!-- f214e513ca8c7144287b02f9c01cfc15663c0418 -->
<g id="node10" class="node">
<title>f214e513ca8c7144287b02f9c01cfc15663c0418</title>
<g id="a_node10"><a xlink:title="author: First Last &lt;first.last@mail.com&gt;&#10;Wed Jan 01 09:00:00 2025 +0100&#10;committer: Nom Prenom &lt;nom.prenom@mail.com&gt;&#10;Wed Jan 01 09:00:00 2025 +0100&#10;&#10;E">
<polygon fill="#cdad00" stroke="#cdad00" points="93.69,-179.76 84,-179.76 84,-161.82 93.69,-161.82 93.69,-179.76"/>
<text text-anchor="middle" x="88.84" y="-165.74" font-family="Courier,monospace" font-size="14.00">E</text>
</a>
</g>
</g>
<!-- bde59a18d866c6ad00edc1554c328ac9455a48c8&#45;&gt;f214e513ca8c7144287b02f9c01cfc15663c0418 -->
<g id="edge6" class="edge">
<title>bde59a18d866c6ad00edc1554c328ac9455a48c8&#45;&gt;f214e513ca8c7144287b02f9c01cfc15663c0418</title>
<path fill="none" stroke="#1a1a1a" d="M100.66,-125.97C98.53,-133.85 95.26,-145.98 92.7,-155.49"/>
<polygon fill="#1a1a1a" stroke="#1a1a1a" points="91.07,-154.82 91.46,-160.1 94.45,-155.73 91.07,-154.82"/>
</g>
<!-- c19917c9cdf5844b315395b7231ee2a60656a300 -->
<g id="node12" class="node">
<title>c19917c9cdf5844b315395b7231ee2a60656a300</title>
<g id="a_node12"><a xlink:title="author: First Last &lt;first.last@mail.com&gt;&#10;Wed Jan 01 09:00:00 2025 +0100&#10;committer: Nom Prenom &lt;nom.prenom@mail.com&gt;&#10;Wed Jan 01 09:00:00 2025 +0100&#10;&#10;F">
<polygon fill="#cdad00" stroke="#cdad00" points="149.69,-179.76 140,-179.76 140,-161.82 149.69,-161.82 149.69,-179.76"/>
<text text-anchor="middle" x="144.84" y="-165.74" font-family="Courier,monospace" font-size="14.00">F</text>
</a>
</g>
</g>
<!-- bde59a18d866c6ad00edc1554c328ac9455a48c8&#45;&gt;c19917c9cdf5844b315395b7231ee2a60656a300 -->
<g id="edge5" class="edge">
<title>bde59a18d866c6ad00edc1554c328ac9455a48c8&#45;&gt;c19917c9cdf5844b315395b7231ee2a60656a300</title>
<path fill="none" stroke="#1a1a1a" d="M108,-124.22C114.86,-132.71 127.13,-147.88 135.61,-158.37"/>
<polygon fill="#1a1a1a" stroke="#1a1a1a" points="134.2,-159.4 138.7,-162.19 136.92,-157.2 134.2,-159.4"/>
</g>
<!-- local&#45;branch&#45;C -->
<g id="node5" class="node">
<title>local&#45;branch&#45;C</title>
<g id="a_node5"><a xlink:title="&#45;&gt; None">
<polygon fill="forestgreen" stroke="forestgreen" points="163.69,-71.88 154,-71.88 154,-53.94 163.69,-53.94 163.69,-71.88"/>
<text text-anchor="middle" x="158.84" y="-57.86" font-family="Courier,monospace" font-size="14.00">C</text>
</a>
</g>
</g>
<!-- local&#45;branch&#45;C&#45;&gt;4b476004aba5f2e254f4deb19b53c9b774115de0 -->
<g id="edge13" class="edge">
<title>local&#45;branch&#45;C&#45;&gt;4b476004aba5f2e254f4deb19b53c9b774115de0</title>
<path fill="none" stroke="#1a1a1a" d="M158.84,-72.03C158.84,-79.83 158.84,-91.81 158.84,-101.27"/>
<polygon fill="#1a1a1a" stroke="#1a1a1a" points="157.1,-101.11 158.85,-106.11 160.6,-101.11 157.1,-101.11"/>
</g>
<!-- 4b476004aba5f2e254f4deb19b53c9b774115de0&#45;&gt;c19917c9cdf5844b315395b7231ee2a60656a300 -->
<g id="edge1" class="edge">
<title>4b476004aba5f2e254f4deb19b53c9b774115de0&#45;&gt;c19917c9cdf5844b315395b7231ee2a60656a300</title>
<path fill="none" stroke="#1a1a1a" d="M156.66,-125.97C154.53,-133.85 151.26,-145.98 148.7,-155.49"/>
<polygon fill="#1a1a1a" stroke="#1a1a1a" points="147.07,-154.82 147.46,-160.1 150.45,-155.73 147.07,-154.82"/>
</g>
<!-- local&#45;branch&#45;D -->
<g id="node7" class="node">
<title>local&#45;branch&#45;D</title>
<g id="a_node7"><a xlink:title="&#45;&gt; None">
<polygon fill="forestgreen" stroke="forestgreen" points="37.69,-125.82 28,-125.82 28,-107.88 37.69,-107.88 37.69,-125.82"/>
<text text-anchor="middle" x="32.84" y="-111.8" font-family="Courier,monospace" font-size="14.00">D</text>
</a>
</g>
</g>
<!-- local&#45;branch&#45;D&#45;&gt;687be3a12d78b57ab5ea740dca898ca4dee9dcd6 -->
<g id="edge14" class="edge">
<title>local&#45;branch&#45;D&#45;&gt;687be3a12d78b57ab5ea740dca898ca4dee9dcd6</title>
<path fill="none" stroke="#1a1a1a" d="M32.84,-125.97C32.84,-133.77 32.84,-145.75 32.84,-155.21"/>
<polygon fill="#1a1a1a" stroke="#1a1a1a" points="31.1,-155.05 32.85,-160.05 34.6,-155.05 31.1,-155.05"/>
</g>
<!-- 99b2a942a9f05ba8035037107727b62414e02924 -->
<g id="node14" class="node">
<title>99b2a942a9f05ba8035037107727b62414e02924</title>
<g id="a_node14"><a xlink:title="author: First Last &lt;first.last@mail.com&gt;&#10;Wed Jan 01 09:00:00 2025 +0100&#10;committer: Nom Prenom &lt;nom.prenom@mail.com&gt;&#10;Wed Jan 01 09:00:00 2025 +0100&#10;&#10;G">
<polygon fill="#cdad00" stroke="#cdad00" points="16.69,-233.7 7,-233.7 7,-215.76 16.69,-215.76 16.69,-233.7"/>
<text text-anchor="middle" x="11.84" y="-219.68" font-family="Courier,monospace" font-size="14.00">G</text>
</a>
</g>
</g>
<!-- 687be3a12d78b57ab5ea740dca898ca4dee9dcd6&#45;&gt;99b2a942a9f05ba8035037107727b62414e02924 -->
<g id="edge3" class="edge">
<title>687be3a12d78b57ab5ea740dca898ca4dee9dcd6&#45;&gt;99b2a942a9f05ba8035037107727b62414e02924</title>
<path fill="none" stroke="#1a1a1a" d="M29.56,-179.91C26.35,-187.86 21.38,-200.16 17.52,-209.7"/>
<polygon fill="#1a1a1a" stroke="#1a1a1a" points="15.99,-208.81 15.74,-214.1 19.24,-210.12 15.99,-208.81"/>
</g>
<!-- 1e1254c73ab6883d91b3ef8baaabd5319d9f263f -->
<g id="node16" class="node">
<title>1e1254c73ab6883d91b3ef8baaabd5319d9f263f</title>
<g id="a_node16"><a xlink:title="author: First Last &lt;first.last@mail.com&gt;&#10;Wed Jan 01 09:00:00 2025 +0100&#10;committer: Nom Prenom &lt;nom.prenom@mail.com&gt;&#10;Wed Jan 01 09:00:00 2025 +0100&#10;&#10;H">
<polygon fill="#cdad00" stroke="#cdad00" points="51.69,-233.7 42,-233.7 42,-215.76 51.69,-215.76 51.69,-233.7"/>
<text text-anchor="middle" x="46.84" y="-219.68" font-family="Courier,monospace" font-size="14.00">H</text>
</a>
</g>
</g>
<!-- 687be3a12d78b57ab5ea740dca898ca4dee9dcd6&#45;&gt;1e1254c73ab6883d91b3ef8baaabd5319d9f263f -->
<g id="edge2" class="edge">
<title>687be3a12d78b57ab5ea740dca898ca4dee9dcd6&#45;&gt;1e1254c73ab6883d91b3ef8baaabd5319d9f263f</title>
<path fill="none" stroke="#1a1a1a" d="M35.03,-179.91C37.16,-187.79 40.43,-199.92 42.99,-209.43"/>
<polygon fill="#1a1a1a" stroke="#1a1a1a" points="41.24,-209.67 44.23,-214.04 44.62,-208.76 41.24,-209.67"/>
</g>
<!-- local&#45;branch&#45;E -->
<g id="node9" class="node">
<title>local&#45;branch&#45;E</title>
<g id="a_node9"><a xlink:title="&#45;&gt; None">
<polygon fill="forestgreen" stroke="forestgreen" points="79.69,-125.82 70,-125.82 70,-107.88 79.69,-107.88 79.69,-125.82"/>
<text text-anchor="middle" x="74.84" y="-111.8" font-family="Courier,monospace" font-size="14.00">E</text>
</a>
</g>
</g>
<!-- local&#45;branch&#45;E&#45;&gt;f214e513ca8c7144287b02f9c01cfc15663c0418 -->
<g id="edge15" class="edge">
<title>local&#45;branch&#45;E&#45;&gt;f214e513ca8c7144287b02f9c01cfc15663c0418</title>
<path fill="none" stroke="#1a1a1a" d="M77.03,-125.97C79.16,-133.85 82.43,-145.98 84.99,-155.49"/>
<polygon fill="#1a1a1a" stroke="#1a1a1a" points="83.24,-155.73 86.23,-160.1 86.62,-154.82 83.24,-155.73"/>
</g>
<!-- local&#45;branch&#45;F -->
<g id="node11" class="node">
<title>local&#45;branch&#45;F</title>
<g id="a_node11"><a xlink:title="&#45;&gt; None">
<polygon fill="forestgreen" stroke="forestgreen" points="135.69,-125.82 126,-125.82 126,-107.88 135.69,-107.88 135.69,-125.82"/>
<text text-anchor="middle" x="130.84" y="-111.8" font-family="Courier,monospace" font-size="14.00">F</text>
</a>
</g>
</g>
<!-- local&#45;branch&#45;F&#45;&gt;c19917c9cdf5844b315395b7231ee2a60656a300 -->
<g id="edge16" class="edge">
<title>local&#45;branch&#45;F&#45;&gt;c19917c9cdf5844b315395b7231ee2a60656a300</title>
<path fill="none" stroke="#1a1a1a" d="M133.03,-125.97C135.16,-133.85 138.43,-145.98 140.99,-155.49"/>
<polygon fill="#1a1a1a" stroke="#1a1a1a" points="139.24,-155.73 142.23,-160.1 142.62,-154.82 139.24,-155.73"/>
</g>
<!-- 0d836f91f9b1b433f80f592a9187777104999694 -->
<g id="node18" class="node">
<title>0d836f91f9b1b433f80f592a9187777104999694</title>
<g id="a_node18"><a xlink:title="author: First Last &lt;first.last@mail.com&gt;&#10;Wed Jan 01 09:00:00 2025 +0100&#10;committer: Nom Prenom &lt;nom.prenom@mail.com&gt;&#10;Wed Jan 01 09:00:00 2025 +0100&#10;&#10;I">
<polygon fill="#cdad00" stroke="#cdad00" points="128.69,-233.7 119,-233.7 119,-215.76 128.69,-215.76 128.69,-233.7"/>
<text text-anchor="middle" x="123.84" y="-219.68" font-family="Courier,monospace" font-size="14.00">I</text>
</a>
</g>
</g>
<!-- c19917c9cdf5844b315395b7231ee2a60656a300&#45;&gt;0d836f91f9b1b433f80f592a9187777104999694 -->
<g id="edge7" class="edge">
<title>c19917c9cdf5844b315395b7231ee2a60656a300&#45;&gt;0d836f91f9b1b433f80f592a9187777104999694</title>
<path fill="none" stroke="#1a1a1a" d="M141.56,-179.91C138.35,-187.86 133.38,-200.16 129.52,-209.7"/>
<polygon fill="#1a1a1a" stroke="#1a1a1a" points="127.99,-208.81 127.74,-214.1 131.24,-210.12 127.99,-208.81"/>
</g>
<!-- 55998ac421051381aa925084222f120a13bb6923 -->
<g id="node20" class="node">
<title>55998ac421051381aa925084222f120a13bb6923</title>
<g id="a_node20"><a xlink:title="author: First Last &lt;first.last@mail.com&gt;&#10;Wed Jan 01 09:00:00 2025 +0100&#10;committer: Nom Prenom &lt;nom.prenom@mail.com&gt;&#10;Wed Jan 01 09:00:00 2025 +0100&#10;&#10;J">
<polygon fill="#cdad00" stroke="#cdad00" points="170.69,-233.7 161,-233.7 161,-215.76 170.69,-215.76 170.69,-233.7"/>
<text text-anchor="middle" x="165.84" y="-219.68" font-family="Courier,monospace" font-size="14.00">J</text>
</a>
</g>
</g>
<!-- c19917c9cdf5844b315395b7231ee2a60656a300&#45;&gt;55998ac421051381aa925084222f120a13bb6923 -->
<g id="edge8" class="edge">
<title>c19917c9cdf5844b315395b7231ee2a60656a300&#45;&gt;55998ac421051381aa925084222f120a13bb6923</title>
<path fill="none" stroke="#1a1a1a" d="M148.13,-179.91C151.34,-187.86 156.31,-200.16 160.17,-209.7"/>
<polygon fill="#1a1a1a" stroke="#1a1a1a" points="158.45,-210.12 161.95,-214.1 161.7,-208.81 158.45,-210.12"/>
</g>
<!-- local&#45;branch&#45;G -->
<g id="node13" class="node">
<title>local&#45;branch&#45;G</title>
<g id="a_node13"><a xlink:title="&#45;&gt; None">
<polygon fill="forestgreen" stroke="forestgreen" points="9.69,-179.76 0,-179.76 0,-161.82 9.69,-161.82 9.69,-179.76"/>
<text text-anchor="middle" x="4.84" y="-165.74" font-family="Courier,monospace" font-size="14.00">G</text>
</a>
</g>
</g>
<!-- local&#45;branch&#45;G&#45;&gt;99b2a942a9f05ba8035037107727b62414e02924 -->
<g id="edge17" class="edge">
<title>local&#45;branch&#45;G&#45;&gt;99b2a942a9f05ba8035037107727b62414e02924</title>
<path fill="none" stroke="#1a1a1a" d="M5.94,-179.91C6.99,-187.71 8.6,-199.69 9.88,-209.15"/>
<polygon fill="#1a1a1a" stroke="#1a1a1a" points="8.13,-209.28 10.53,-214 11.6,-208.81 8.13,-209.28"/>
</g>
<!-- local&#45;branch&#45;H -->
<g id="node15" class="node">
<title>local&#45;branch&#45;H</title>
<g id="a_node15"><a xlink:title="&#45;&gt; None">
<polygon fill="forestgreen" stroke="forestgreen" points="65.69,-179.76 56,-179.76 56,-161.82 65.69,-161.82 65.69,-179.76"/>
<text text-anchor="middle" x="60.84" y="-165.74" font-family="Courier,monospace" font-size="14.00">H</text>
</a>
</g>
</g>
<!-- local&#45;branch&#45;H&#45;&gt;1e1254c73ab6883d91b3ef8baaabd5319d9f263f -->
<g id="edge18" class="edge">
<title>local&#45;branch&#45;H&#45;&gt;1e1254c73ab6883d91b3ef8baaabd5319d9f263f</title>
<path fill="none" stroke="#1a1a1a" d="M58.66,-179.91C56.53,-187.79 53.26,-199.92 50.7,-209.43"/>
<polygon fill="#1a1a1a" stroke="#1a1a1a" points="49.07,-208.76 49.46,-214.04 52.45,-209.67 49.07,-208.76"/>
</g>
<!-- local&#45;branch&#45;I -->
<g id="node17" class="node">
<title>local&#45;branch&#45;I</title>
<g id="a_node17"><a xlink:title="&#45;&gt; None">
<polygon fill="forestgreen" stroke="forestgreen" points="121.69,-179.76 112,-179.76 112,-161.82 121.69,-161.82 121.69,-179.76"/>
<text text-anchor="middle" x="116.84" y="-165.74" font-family="Courier,monospace" font-size="14.00">I</text>
</a>
</g>
</g>
<!-- local&#45;branch&#45;I&#45;&gt;0d836f91f9b1b433f80f592a9187777104999694 -->
<g id="edge19" class="edge">
<title>local&#45;branch&#45;I&#45;&gt;0d836f91f9b1b433f80f592a9187777104999694</title>
<path fill="none" stroke="#1a1a1a" d="M117.94,-179.91C118.99,-187.71 120.6,-199.69 121.88,-209.15"/>
<polygon fill="#1a1a1a" stroke="#1a1a1a" points="120.13,-209.28 122.53,-214 123.6,-208.81 120.13,-209.28"/>
</g>
<!-- local&#45;branch&#45;J -->
<g id="node19" class="node">
<title>local&#45;branch&#45;J</title>
<g id="a_node19"><a xlink:title="&#45;&gt; None">
<polygon fill="forestgreen" stroke="forestgreen" points="177.69,-179.76 168,-179.76 168,-161.82 177.69,-161.82 177.69,-179.76"/>
<text text-anchor="middle" x="172.84" y="-165.74" font-family="Courier,monospace" font-size="14.00">J</text>
</a>
</g>
</g>
<!-- local&#45;branch&#45;J&#45;&gt;55998ac421051381aa925084222f120a13bb6923 -->
<g id="edge20" class="edge">
<title>local&#45;branch&#45;J&#45;&gt;55998ac421051381aa925084222f120a13bb6923</title>
<path fill="none" stroke="#1a1a1a" d="M171.75,-179.91C170.7,-187.71 169.09,-199.69 167.81,-209.15"/>
<polygon fill="#1a1a1a" stroke="#1a1a1a" points="166.09,-208.81 167.16,-214 169.56,-209.28 166.09,-208.81"/>
</g>
</g>
</svg>
