<?xml version="1.0" encoding="UTF-8" standalone="no"?>
<!DOCTYPE svg PUBLIC "-//W3C//DTD SVG 1.1//EN"
 "http://www.w3.org/Graphics/SVG/1.1/DTD/svg11.dtd">
<!-- Generated by graphviz version 12.1.0 (20240811.2233)
 -->
<!-- Pages: 1 -->
<svg width="788pt" height="242pt"
 viewBox="0.00 0.00 787.69 241.70" xmlns="http://www.w3.org/2000/svg" xmlns:xlink="http://www.w3.org/1999/xlink">
<g id="graph0" class="graph" transform="scale(1 1) rotate(0) translate(4 237.7)">
<polygon fill="white" stroke="none" points="-4,4 -4,-237.7 783.69,-237.7 783.69,4 -4,4"/>
<!-- c40e5a8f807ac96435e42b90ecbffbabeb2469ae -->
<g id="node1" class="node">
<title>c40e5a8f807ac96435e42b90ecbffbabeb2469ae</title>
<g id="a_node1"><a xlink:title="author: First Last &lt;first.last@mail.com&gt;&#10;Wed Jan 01 09:00:00 2025 +0100&#10;committer: Nom Prenom &lt;nom.prenom@mail.com&gt;&#10;Wed Jan 01 09:00:00 2025 +0100&#10;&#10;A">
<polygon fill="#cdad00" stroke="#cdad00" points="545.44,-71.88 535.75,-71.88 535.75,-53.94 545.44,-53.94 545.44,-71.88"/>
<text text-anchor="middle" x="540.6" y="-57.86" font-family="Courier,monospace" font-size="14.00">A</text>
</a>
</g>
</g>
<!-- bde59a18d866c6ad00edc1554c328ac9455a48c8 -->
<g id="node19" class="node">
<title>bde59a18d866c6ad00edc1554c328ac9455a48c8</title>
<g id="a_node19"><a xlink:title="author: First Last &lt;first.last@mail.com&gt;&#10;Wed Jan 01 09:00:00 2025 +0100&#10;committer: Nom Prenom &lt;nom.prenom@mail.com&gt;&#10;Wed Jan 01 09:00:00 2025 +0100&#10;&#10;B">
<polygon fill="#cdad00" stroke="#cdad00" points="397.44,-125.82 387.75,-125.82 387.75,-107.88 397.44,-107.88 397.44,-125.82"/>
<text text-anchor="middle" x="392.6" y="-111.8" font-family="Courier,monospace" font-size="14.00">B</text>
</a>
</g>
</g>
<!-- c40e5a8f807ac96435e42b90ecbffbabeb2469ae&#45;&gt;bde59a18d866c6ad00edc1554c328ac9455a48c8 -->
<g id="edge10" class="edge">
<title>c40e5a8f807ac96435e42b90ecbffbabeb2469ae&#45;&gt;bde59a18d866c6ad00edc1554c328ac9455a48c8</title>
<path fill="none" stroke="#1a1a1a" d="M535.34,-65.23C517.1,-69.88 454.94,-86.45 406.6,-107.88 405.58,-108.33 404.53,-108.84 403.5,-109.37"/>
<polygon fill="#1a1a1a" stroke="#1a1a1a" points="402.75,-107.78 399.24,-111.75 404.46,-110.84 402.75,-107.78"/>
</g>
<!-- 4b476004aba5f2e254f4deb19b53c9b774115de0 -->
<g id="node25" class="node">
<title>4b476004aba5f2e254f4deb19b53c9b774115de0</title>
<g id="a_node25"><a xlink:title="author: First Last &lt;first.last@mail.com&gt;&#10;Wed Jan 01 09:00:00 2025 +0100&#10;committer: Nom Prenom &lt;nom.prenom@mail.com&gt;&#10;Wed Jan 01 09:00:00 2025 +0100&#10;&#10;C">
<polygon fill="#cdad00" stroke="#cdad00" points="633.44,-125.82 623.75,-125.82 623.75,-107.88 633.44,-107.88 633.44,-125.82"/>
<text text-anchor="middle" x="628.6" y="-111.8" font-family="Courier,monospace" font-size="14.00">C</text>
</a>
</g>
</g>
<!-- c40e5a8f807ac96435e42b90ecbffbabeb2469ae&#45;&gt;4b476004aba5f2e254f4deb19b53c9b774115de0 -->
<g id="edge9" class="edge">
<title>c40e5a8f807ac96435e42b90ecbffbabeb2469ae&#45;&gt;4b476004aba5f2e254f4deb19b53c9b774115de0</title>
<path fill="none" stroke="#1a1a1a" d="M545.84,-67C559.99,-75.36 599.2,-98.5 618.12,-109.67"/>
<polygon fill="#1a1a1a" stroke="#1a1a1a" points="616.99,-111.03 622.19,-112.07 618.77,-108.02 616.99,-111.03"/>
</g>
<!-- annotation&#45;A^ -->
<g id="node2" class="node">
<title>annotation&#45;A^</title>
<g id="a_node2"><a xlink:title="A^">
<polygon fill="#66cdaa" stroke="#66cdaa" points="361.57,-71.88 343.62,-71.88 343.62,-53.94 361.57,-53.94 361.57,-71.88"/>
<text text-anchor="middle" x="352.6" y="-57.86" font-family="Courier,monospace" font-size="14.00">A^</text>
</a>
</g>
</g>
<!-- annotation&#45;A^&#45;&gt;bde59a18d866c6ad00edc1554c328ac9455a48c8 -->
<g id="edge12" class="edge">
<title>annotation&#45;A^&#45;&gt;bde59a18d866c6ad00edc1554c328ac9455a48c8</title>
<path fill="none" stroke="#1a1a1a" stroke-dasharray="5,2" d="M358.85,-72.03C365.45,-80.6 375.92,-94.19 383.45,-103.97"/>
<polygon fill="#1a1a1a" stroke="#1a1a1a" points="381.92,-104.86 386.36,-107.75 384.7,-102.72 381.92,-104.86"/>
</g>
<!-- annotation&#45;A^0 -->
<g id="node3" class="node">
<title>annotation&#45;A^0</title>
<g id="a_node3"><a xlink:title="A^0">
<polygon fill="#66cdaa" stroke="#66cdaa" points="553.69,-17.94 527.5,-17.94 527.5,0 553.69,0 553.69,-17.94"/>
<text text-anchor="middle" x="540.6" y="-3.92" font-family="Courier,monospace" font-size="14.00">A^0</text>
</a>
</g>
</g>
<!-- annotation&#45;A^0&#45;&gt;c40e5a8f807ac96435e42b90ecbffbabeb2469ae -->
<g id="edge11" class="edge">
<title>annotation&#45;A^0&#45;&gt;c40e5a8f807ac96435e42b90ecbffbabeb2469ae</title>
<path fill="none" stroke="#1a1a1a" stroke-dasharray="5,2" d="M540.6,-18.09C540.6,-25.89 540.6,-37.87 540.6,-47.33"/>
<polygon fill="#1a1a1a" stroke="#1a1a1a" points="538.85,-47.17 540.6,-52.17 542.35,-47.17 538.85,-47.17"/>
</g>
<!-- annotation&#45;A^1 -->
<g id="node4" class="node">
<title>annotation&#45;A^1</title>
<g id="a_node4"><a xlink:title="A^1">
<polygon fill="#66cdaa" stroke="#66cdaa" points="405.69,-71.88 379.5,-71.88 379.5,-53.94 405.69,-53.94 405.69,-71.88"/>
<text text-anchor="middle" x="392.6" y="-57.86" font-family="Courier,monospace" font-size="14.00">A^1</text>
</a>
</g>
</g>
<!-- annotation&#45;A^1&#45;&gt;bde59a18d866c6ad00edc1554c328ac9455a48c8 -->
<g id="edge13" class="edge">
<title>annotation&#45;A^1&#45;&gt;bde59a18d866c6ad00edc1554c328ac9455a48c8</title>
<path fill="none" stroke="#1a1a1a" stroke-dasharray="5,2" d="M392.6,-72.03C392.6,-79.83 392.6,-91.81 392.6,-101.27"/>
<polygon fill="#1a1a1a" stroke="#1a1a1a" points="390.85,-101.11 392.6,-106.11 394.35,-101.11 390.85,-101.11"/>
</g>
<!-- annotation&#45;A^1^1 -->
<g id="node5" class="node">
<title>annotation&#45;A^1^1</title>
<g id="a_node5"><a xlink:title="A^1^1">
<polygon fill="#66cdaa" stroke="#66cdaa" points="147.94,-125.82 105.25,-125.82 105.25,-107.88 147.94,-107.88 147.94,-125.82"/>
<text text-anchor="middle" x="126.6" y="-111.8" font-family="Courier,monospace" font-size="14.00">A^1^1</text>
</a>
</g>
</g>
<!-- 687be3a12d78b57ab5ea740dca898ca4dee9dcd6 -->
<g id="node26" class="node">
<title>687be3a12d78b57ab5ea740dca898ca4dee9dcd6</title>
<g id="a_node26"><a xlink:title="author: First Last &lt;first.last@mail.com&gt;&#10;Wed Jan 01 09:00:00 2025 +0100&#10;committer: Nom Prenom &lt;nom.prenom@mail.com&gt;&#10;Wed Jan 01 09:00:00 2025 +0100&#10;&#10;D">
<polygon fill="#cdad00" stroke="#cdad00" points="183.44,-179.76 173.75,-179.76 173.75,-161.82 183.44,-161.82 183.44,-179.76"/>
<text text-anchor="middle" x="178.6" y="-165.74" font-family="Courier,monospace" font-size="14.00">D</text>
</a>
</g>
</g>
<!-- annotation&#45;A^1^1&#45;&gt;687be3a12d78b57ab5ea740dca898ca4dee9dcd6 -->
<g id="edge17" class="edge">
<title>annotation&#45;A^1^1&#45;&gt;687be3a12d78b57ab5ea740dca898ca4dee9dcd6</title>
<path fill="none" stroke="#1a1a1a" stroke-dasharray="5,2" d="M134.72,-125.97C144.05,-135.28 159.33,-150.54 169.17,-160.37"/>
<polygon fill="#1a1a1a" stroke="#1a1a1a" points="167.67,-161.35 172.44,-163.65 170.14,-158.87 167.67,-161.35"/>
</g>
<!-- annotation&#45;A^1^1^1 -->
<g id="node6" class="node">
<title>annotation&#45;A^1^1^1</title>
<g id="a_node6"><a xlink:title="A^1^1^1">
<polygon fill="#66cdaa" stroke="#66cdaa" points="59.19,-179.76 0,-179.76 0,-161.82 59.19,-161.82 59.19,-179.76"/>
<text text-anchor="middle" x="29.6" y="-165.74" font-family="Courier,monospace" font-size="14.00">A^1^1^1</text>
</a>
</g>
</g>
<!-- 99b2a942a9f05ba8035037107727b62414e02924 -->
<g id="node32" class="node">
<title>99b2a942a9f05ba8035037107727b62414e02924</title>
<g id="a_node32"><a xlink:title="author: First Last &lt;first.last@mail.com&gt;&#10;Wed Jan 01 09:00:00 2025 +0100&#10;committer: Nom Prenom &lt;nom.prenom@mail.com&gt;&#10;Wed Jan 01 09:00:00 2025 +0100&#10;&#10;G">
<polygon fill="#cdad00" stroke="#cdad00" points="123.44,-233.7 113.75,-233.7 113.75,-215.76 123.44,-215.76 123.44,-233.7"/>
<text text-anchor="middle" x="118.6" y="-219.68" font-family="Courier,monospace" font-size="14.00">G</text>
</a>
</g>
</g>
<!-- annotation&#45;A^1^1^1&#45;&gt;99b2a942a9f05ba8035037107727b62414e02924 -->
<g id="edge24" class="edge">
<title>annotation&#45;A^1^1^1&#45;&gt;99b2a942a9f05ba8035037107727b62414e02924</title>
<path fill="none" stroke="#1a1a1a" stroke-dasharray="5,2" d="M43.89,-180.14C61.77,-190.57 91.94,-208.18 107.92,-217.5"/>
<polygon fill="#1a1a1a" stroke="#1a1a1a" points="106.97,-218.97 112.17,-219.98 108.73,-215.95 106.97,-218.97"/>
</g>
<!-- annotation&#45;A^2 -->
<g id="node7" class="node">
<title>annotation&#45;A^2</title>
<g id="a_node7"><a xlink:title="A^2">
<polygon fill="#66cdaa" stroke="#66cdaa" points="641.69,-71.88 615.5,-71.88 615.5,-53.94 641.69,-53.94 641.69,-71.88"/>
<text text-anchor="middle" x="628.6" y="-57.86" font-family="Courier,monospace" font-size="14.00">A^2</text>
</a>
</g>
</g>
<!-- annotation&#45;A^2&#45;&gt;4b476004aba5f2e254f4deb19b53c9b774115de0 -->
<g id="edge15" class="edge">
<title>annotation&#45;A^2&#45;&gt;4b476004aba5f2e254f4deb19b53c9b774115de0</title>
<path fill="none" stroke="#1a1a1a" stroke-dasharray="5,2" d="M628.6,-72.03C628.6,-79.83 628.6,-91.81 628.6,-101.27"/>
<polygon fill="#1a1a1a" stroke="#1a1a1a" points="626.85,-101.11 628.6,-106.11 630.35,-101.11 626.85,-101.11"/>
</g>
<!-- annotation&#45;A^^ -->
<g id="node8" class="node">
<title>annotation&#45;A^^</title>
<g id="a_node8"><a xlink:title="A^^">
<polygon fill="#66cdaa" stroke="#66cdaa" points="191.69,-125.82 165.5,-125.82 165.5,-107.88 191.69,-107.88 191.69,-125.82"/>
<text text-anchor="middle" x="178.6" y="-111.8" font-family="Courier,monospace" font-size="14.00">A^^</text>
</a>
</g>
</g>
<!-- annotation&#45;A^^&#45;&gt;687be3a12d78b57ab5ea740dca898ca4dee9dcd6 -->
<g id="edge16" class="edge">
<title>annotation&#45;A^^&#45;&gt;687be3a12d78b57ab5ea740dca898ca4dee9dcd6</title>
<path fill="none" stroke="#1a1a1a" stroke-dasharray="5,2" d="M178.6,-125.97C178.6,-133.77 178.6,-145.75 178.6,-155.21"/>
<polygon fill="#1a1a1a" stroke="#1a1a1a" points="176.85,-155.05 178.6,-160.05 180.35,-155.05 176.85,-155.05"/>
</g>
<!-- annotation&#45;A^^2 -->
<g id="node9" class="node">
<title>annotation&#45;A^^2</title>
<g id="a_node9"><a xlink:title="A^^2">
<polygon fill="#66cdaa" stroke="#66cdaa" points="449.82,-125.82 415.38,-125.82 415.38,-107.88 449.82,-107.88 449.82,-125.82"/>
<text text-anchor="middle" x="432.6" y="-111.8" font-family="Courier,monospace" font-size="14.00">A^^2</text>
</a>
</g>
</g>
<!-- f214e513ca8c7144287b02f9c01cfc15663c0418 -->
<g id="node28" class="node">
<title>f214e513ca8c7144287b02f9c01cfc15663c0418</title>
<g id="a_node28"><a xlink:title="author: First Last &lt;first.last@mail.com&gt;&#10;Wed Jan 01 09:00:00 2025 +0100&#10;committer: Nom Prenom &lt;nom.prenom@mail.com&gt;&#10;Wed Jan 01 09:00:00 2025 +0100&#10;&#10;E">
<polygon fill="#cdad00" stroke="#cdad00" points="429.44,-179.76 419.75,-179.76 419.75,-161.82 429.44,-161.82 429.44,-179.76"/>
<text text-anchor="middle" x="424.6" y="-165.74" font-family="Courier,monospace" font-size="14.00">E</text>
</a>
</g>
</g>
<!-- annotation&#45;A^^2&#45;&gt;f214e513ca8c7144287b02f9c01cfc15663c0418 -->
<g id="edge20" class="edge">
<title>annotation&#45;A^^2&#45;&gt;f214e513ca8c7144287b02f9c01cfc15663c0418</title>
<path fill="none" stroke="#1a1a1a" stroke-dasharray="5,2" d="M431.35,-125.97C430.14,-133.77 428.3,-145.75 426.84,-155.21"/>
<polygon fill="#1a1a1a" stroke="#1a1a1a" points="425.12,-154.86 426.09,-160.06 428.58,-155.39 425.12,-154.86"/>
</g>
<!-- annotation&#45;A^^3 -->
<g id="node10" class="node">
<title>annotation&#45;A^^3</title>
<g id="a_node10"><a xlink:title="A^^3">
<polygon fill="#66cdaa" stroke="#66cdaa" points="561.82,-125.82 527.38,-125.82 527.38,-107.88 561.82,-107.88 561.82,-125.82"/>
<text text-anchor="middle" x="544.6" y="-111.8" font-family="Courier,monospace" font-size="14.00">A^^3</text>
</a>
</g>
</g>
<!-- c19917c9cdf5844b315395b7231ee2a60656a300 -->
<g id="node29" class="node">
<title>c19917c9cdf5844b315395b7231ee2a60656a300</title>
<g id="a_node29"><a xlink:title="author: First Last &lt;first.last@mail.com&gt;&#10;Wed Jan 01 09:00:00 2025 +0100&#10;committer: Nom Prenom &lt;nom.prenom@mail.com&gt;&#10;Wed Jan 01 09:00:00 2025 +0100&#10;&#10;F">
<polygon fill="#cdad00" stroke="#cdad00" points="606.44,-179.76 596.75,-179.76 596.75,-161.82 606.44,-161.82 606.44,-179.76"/>
<text text-anchor="middle" x="601.6" y="-165.74" font-family="Courier,monospace" font-size="14.00">F</text>
</a>
</g>
</g>
<!-- annotation&#45;A^^3&#45;&gt;c19917c9cdf5844b315395b7231ee2a60656a300 -->
<g id="edge22" class="edge">
<title>annotation&#45;A^^3&#45;&gt;c19917c9cdf5844b315395b7231ee2a60656a300</title>
<path fill="none" stroke="#1a1a1a" stroke-dasharray="5,2" d="M553.75,-126.2C564.14,-135.66 581.01,-151.03 591.69,-160.77"/>
<polygon fill="#1a1a1a" stroke="#1a1a1a" points="590.39,-161.95 595.27,-164.02 592.75,-159.36 590.39,-161.95"/>
</g>
<!-- annotation&#45;A^^3^ -->
<g id="node11" class="node">
<title>annotation&#45;A^^3^</title>
<g id="a_node11"><a xlink:title="A^^3^">
<polygon fill="#66cdaa" stroke="#66cdaa" points="489.94,-179.76 447.25,-179.76 447.25,-161.82 489.94,-161.82 489.94,-179.76"/>
<text text-anchor="middle" x="468.6" y="-165.74" font-family="Courier,monospace" font-size="14.00">A^^3^</text>
</a>
</g>
</g>
<!-- 0d836f91f9b1b433f80f592a9187777104999694 -->
<g id="node34" class="node">
<title>0d836f91f9b1b433f80f592a9187777104999694</title>
<g id="a_node34"><a xlink:title="author: First Last &lt;first.last@mail.com&gt;&#10;Wed Jan 01 09:00:00 2025 +0100&#10;committer: Nom Prenom &lt;nom.prenom@mail.com&gt;&#10;Wed Jan 01 09:00:00 2025 +0100&#10;&#10;I">
<polygon fill="#cdad00" stroke="#cdad00" points="552.44,-233.7 542.75,-233.7 542.75,-215.76 552.44,-215.76 552.44,-233.7"/>
<text text-anchor="middle" x="547.6" y="-219.68" font-family="Courier,monospace" font-size="14.00">I</text>
</a>
</g>
</g>
<!-- annotation&#45;A^^3^&#45;&gt;0d836f91f9b1b433f80f592a9187777104999694 -->
<g id="edge32" class="edge">
<title>annotation&#45;A^^3^&#45;&gt;0d836f91f9b1b433f80f592a9187777104999694</title>
<path fill="none" stroke="#1a1a1a" stroke-dasharray="5,2" d="M481.29,-180.14C496.71,-190.27 522.44,-207.19 536.9,-216.7"/>
<polygon fill="#1a1a1a" stroke="#1a1a1a" points="535.94,-218.16 541.08,-219.44 537.86,-215.23 535.94,-218.16"/>
</g>
<!-- annotation&#45;A^^3^2 -->
<g id="node12" class="node">
<title>annotation&#45;A^^3^2</title>
<g id="a_node12"><a xlink:title="A^^3^2">
<polygon fill="#66cdaa" stroke="#66cdaa" points="675.07,-179.76 624.12,-179.76 624.12,-161.82 675.07,-161.82 675.07,-179.76"/>
<text text-anchor="middle" x="649.6" y="-165.74" font-family="Courier,monospace" font-size="14.00">A^^3^2</text>
</a>
</g>
</g>
<!-- 55998ac421051381aa925084222f120a13bb6923 -->
<g id="node35" class="node">
<title>55998ac421051381aa925084222f120a13bb6923</title>
<g id="a_node35"><a xlink:title="author: First Last &lt;first.last@mail.com&gt;&#10;Wed Jan 01 09:00:00 2025 +0100&#10;committer: Nom Prenom &lt;nom.prenom@mail.com&gt;&#10;Wed Jan 01 09:00:00 2025 +0100&#10;&#10;J">
<polygon fill="#cdad00" stroke="#cdad00" points="686.44,-233.7 676.75,-233.7 676.75,-215.76 686.44,-215.76 686.44,-233.7"/>
<text text-anchor="middle" x="681.6" y="-219.68" font-family="Courier,monospace" font-size="14.00">J</text>
</a>
</g>
</g>
<!-- annotation&#45;A^^3^2&#45;&gt;55998ac421051381aa925084222f120a13bb6923 -->
<g id="edge35" class="edge">
<title>annotation&#45;A^^3^2&#45;&gt;55998ac421051381aa925084222f120a13bb6923</title>
<path fill="none" stroke="#1a1a1a" stroke-dasharray="5,2" d="M654.6,-179.91C659.54,-187.94 667.22,-200.39 673.12,-209.97"/>
<polygon fill="#1a1a1a" stroke="#1a1a1a" points="671.62,-210.87 675.73,-214.21 674.6,-209.04 671.62,-210.87"/>
</g>
<!-- annotation&#45;A^^^ -->
<g id="node13" class="node">
<title>annotation&#45;A^^^</title>
<g id="a_node13"><a xlink:title="A^^^">
<polygon fill="#66cdaa" stroke="#66cdaa" points="111.82,-179.76 77.38,-179.76 77.38,-161.82 111.82,-161.82 111.82,-179.76"/>
<text text-anchor="middle" x="94.6" y="-165.74" font-family="Courier,monospace" font-size="14.00">A^^^</text>
</a>
</g>
</g>
<!-- annotation&#45;A^^^&#45;&gt;99b2a942a9f05ba8035037107727b62414e02924 -->
<g id="edge23" class="edge">
<title>annotation&#45;A^^^&#45;&gt;99b2a942a9f05ba8035037107727b62414e02924</title>
<path fill="none" stroke="#1a1a1a" stroke-dasharray="5,2" d="M98.35,-179.91C102.02,-187.86 107.7,-200.16 112.11,-209.7"/>
<polygon fill="#1a1a1a" stroke="#1a1a1a" points="110.47,-210.32 114.16,-214.13 113.65,-208.85 110.47,-210.32"/>
</g>
<!-- annotation&#45;A^^^2 -->
<g id="node14" class="node">
<title>annotation&#45;A^^^2</title>
<g id="a_node14"><a xlink:title="A^^^2">
<polygon fill="#66cdaa" stroke="#66cdaa" points="243.94,-179.76 201.25,-179.76 201.25,-161.82 243.94,-161.82 243.94,-179.76"/>
<text text-anchor="middle" x="222.6" y="-165.74" font-family="Courier,monospace" font-size="14.00">A^^^2</text>
</a>
</g>
</g>
<!-- 1e1254c73ab6883d91b3ef8baaabd5319d9f263f -->
<g id="node33" class="node">
<title>1e1254c73ab6883d91b3ef8baaabd5319d9f263f</title>
<g id="a_node33"><a xlink:title="author: First Last &lt;first.last@mail.com&gt;&#10;Wed Jan 01 09:00:00 2025 +0100&#10;committer: Nom Prenom &lt;nom.prenom@mail.com&gt;&#10;Wed Jan 01 09:00:00 2025 +0100&#10;&#10;H">
<polygon fill="#cdad00" stroke="#cdad00" points="288.44,-233.7 278.75,-233.7 278.75,-215.76 288.44,-215.76 288.44,-233.7"/>
<text text-anchor="middle" x="283.6" y="-219.68" font-family="Courier,monospace" font-size="14.00">H</text>
</a>
</g>
</g>
<!-- annotation&#45;A^^^2&#45;&gt;1e1254c73ab6883d91b3ef8baaabd5319d9f263f -->
<g id="edge28" class="edge">
<title>annotation&#45;A^^^2&#45;&gt;1e1254c73ab6883d91b3ef8baaabd5319d9f263f</title>
<path fill="none" stroke="#1a1a1a" stroke-dasharray="5,2" d="M232.4,-180.14C243.73,-189.78 262.28,-205.58 273.66,-215.27"/>
<polygon fill="#1a1a1a" stroke="#1a1a1a" points="272.25,-216.36 277.19,-218.27 274.51,-213.7 272.25,-216.36"/>
</g>
<!-- annotation&#45;A~1 -->
<g id="node15" class="node">
<title>annotation&#45;A~1</title>
<g id="a_node15"><a xlink:title="A~1">
<polygon fill="#66cdaa" stroke="#66cdaa" points="449.69,-71.88 423.5,-71.88 423.5,-53.94 449.69,-53.94 449.69,-71.88"/>
<text text-anchor="middle" x="436.6" y="-57.86" font-family="Courier,monospace" font-size="14.00">A~1</text>
</a>
</g>
</g>
<!-- annotation&#45;A~1&#45;&gt;bde59a18d866c6ad00edc1554c328ac9455a48c8 -->
<g id="edge14" class="edge">
<title>annotation&#45;A~1&#45;&gt;bde59a18d866c6ad00edc1554c328ac9455a48c8</title>
<path fill="none" stroke="#1a1a1a" stroke-dasharray="5,2" d="M429.72,-72.03C422.3,-80.79 410.42,-94.81 402.11,-104.62"/>
<polygon fill="#1a1a1a" stroke="#1a1a1a" points="400.78,-103.48 398.88,-108.43 403.45,-105.75 400.78,-103.48"/>
</g>
<!-- annotation&#45;A~2 -->
<g id="node16" class="node">
<title>annotation&#45;A~2</title>
<g id="a_node16"><a xlink:title="A~2">
<polygon fill="#66cdaa" stroke="#66cdaa" points="235.69,-125.82 209.5,-125.82 209.5,-107.88 235.69,-107.88 235.69,-125.82"/>
<text text-anchor="middle" x="222.6" y="-111.8" font-family="Courier,monospace" font-size="14.00">A~2</text>
</a>
</g>
</g>
<!-- annotation&#45;A~2&#45;&gt;687be3a12d78b57ab5ea740dca898ca4dee9dcd6 -->
<g id="edge18" class="edge">
<title>annotation&#45;A~2&#45;&gt;687be3a12d78b57ab5ea740dca898ca4dee9dcd6</title>
<path fill="none" stroke="#1a1a1a" stroke-dasharray="5,2" d="M215.72,-125.97C208.3,-134.73 196.42,-148.75 188.11,-158.56"/>
<polygon fill="#1a1a1a" stroke="#1a1a1a" points="186.78,-157.42 184.88,-162.37 189.45,-159.69 186.78,-157.42"/>
</g>
<!-- annotation&#45;A~2^2 -->
<g id="node17" class="node">
<title>annotation&#45;A~2^2</title>
<g id="a_node17"><a xlink:title="A~2^2">
<polygon fill="#66cdaa" stroke="#66cdaa" points="304.94,-179.76 262.25,-179.76 262.25,-161.82 304.94,-161.82 304.94,-179.76"/>
<text text-anchor="middle" x="283.6" y="-165.74" font-family="Courier,monospace" font-size="14.00">A~2^2</text>
</a>
</g>
</g>
<!-- annotation&#45;A~2^2&#45;&gt;1e1254c73ab6883d91b3ef8baaabd5319d9f263f -->
<g id="edge29" class="edge">
<title>annotation&#45;A~2^2&#45;&gt;1e1254c73ab6883d91b3ef8baaabd5319d9f263f</title>
<path fill="none" stroke="#1a1a1a" stroke-dasharray="5,2" d="M283.6,-179.91C283.6,-187.71 283.6,-199.69 283.6,-209.15"/>
<polygon fill="#1a1a1a" stroke="#1a1a1a" points="281.85,-208.99 283.6,-213.99 285.35,-208.99 281.85,-208.99"/>
</g>
<!-- annotation&#45;A~3 -->
<g id="node18" class="node">
<title>annotation&#45;A~3</title>
<g id="a_node18"><a xlink:title="A~3">
<polygon fill="#66cdaa" stroke="#66cdaa" points="155.69,-179.76 129.5,-179.76 129.5,-161.82 155.69,-161.82 155.69,-179.76"/>
<text text-anchor="middle" x="142.6" y="-165.74" font-family="Courier,monospace" font-size="14.00">A~3</text>
</a>
</g>
</g>
<!-- annotation&#45;A~3&#45;&gt;99b2a942a9f05ba8035037107727b62414e02924 -->
<g id="edge25" class="edge">
<title>annotation&#45;A~3&#45;&gt;99b2a942a9f05ba8035037107727b62414e02924</title>
<path fill="none" stroke="#1a1a1a" stroke-dasharray="5,2" d="M138.85,-179.91C135.17,-187.86 129.49,-200.16 125.08,-209.7"/>
<polygon fill="#1a1a1a" stroke="#1a1a1a" points="123.54,-208.85 123.03,-214.13 126.72,-210.32 123.54,-208.85"/>
</g>
<!-- bde59a18d866c6ad00edc1554c328ac9455a48c8&#45;&gt;687be3a12d78b57ab5ea740dca898ca4dee9dcd6 -->
<g id="edge4" class="edge">
<title>bde59a18d866c6ad00edc1554c328ac9455a48c8&#45;&gt;687be3a12d78b57ab5ea740dca898ca4dee9dcd6</title>
<path fill="none" stroke="#1a1a1a" d="M387.49,-118.4C364.3,-121.01 266.93,-133.25 192.6,-161.82 191.55,-162.22 190.5,-162.69 189.46,-163.2"/>
<polygon fill="#1a1a1a" stroke="#1a1a1a" points="188.71,-161.61 185.18,-165.56 190.41,-164.67 188.71,-161.61"/>
</g>
<!-- bde59a18d866c6ad00edc1554c328ac9455a48c8&#45;&gt;f214e513ca8c7144287b02f9c01cfc15663c0418 -->
<g id="edge6" class="edge">
<title>bde59a18d866c6ad00edc1554c328ac9455a48c8&#45;&gt;f214e513ca8c7144287b02f9c01cfc15663c0418</title>
<path fill="none" stroke="#1a1a1a" d="M397.6,-125.97C402.54,-134 410.22,-146.45 416.12,-156.03"/>
<polygon fill="#1a1a1a" stroke="#1a1a1a" points="414.62,-156.93 418.73,-160.27 417.6,-155.1 414.62,-156.93"/>
</g>
<!-- bde59a18d866c6ad00edc1554c328ac9455a48c8&#45;&gt;c19917c9cdf5844b315395b7231ee2a60656a300 -->
<g id="edge5" class="edge">
<title>bde59a18d866c6ad00edc1554c328ac9455a48c8&#45;&gt;c19917c9cdf5844b315395b7231ee2a60656a300</title>
<path fill="none" stroke="#1a1a1a" d="M397.85,-121.38C400.4,-122.94 403.56,-124.69 406.6,-125.82 483.45,-154.48 510.74,-133.16 587.6,-161.82 588.64,-162.21 589.7,-162.67 590.74,-163.17"/>
<polygon fill="#1a1a1a" stroke="#1a1a1a" points="589.79,-164.65 595.02,-165.53 591.48,-161.58 589.79,-164.65"/>
</g>
<!-- annotation&#45;B^2 -->
<g id="node20" class="node">
<title>annotation&#45;B^2</title>
<g id="a_node20"><a xlink:title="B^2">
<polygon fill="#66cdaa" stroke="#66cdaa" points="493.69,-125.82 467.5,-125.82 467.5,-107.88 493.69,-107.88 493.69,-125.82"/>
<text text-anchor="middle" x="480.6" y="-111.8" font-family="Courier,monospace" font-size="14.00">B^2</text>
</a>
</g>
</g>
<!-- annotation&#45;B^2&#45;&gt;f214e513ca8c7144287b02f9c01cfc15663c0418 -->
<g id="edge19" class="edge">
<title>annotation&#45;B^2&#45;&gt;f214e513ca8c7144287b02f9c01cfc15663c0418</title>
<path fill="none" stroke="#1a1a1a" stroke-dasharray="5,2" d="M471.6,-126.2C461.39,-135.66 444.82,-151.03 434.32,-160.77"/>
<polygon fill="#1a1a1a" stroke="#1a1a1a" points="433.3,-159.33 430.82,-164.01 435.68,-161.9 433.3,-159.33"/>
</g>
<!-- annotation&#45;B^3 -->
<g id="node21" class="node">
<title>annotation&#45;B^3</title>
<g id="a_node21"><a xlink:title="B^3">
<polygon fill="#66cdaa" stroke="#66cdaa" points="605.69,-125.82 579.5,-125.82 579.5,-107.88 605.69,-107.88 605.69,-125.82"/>
<text text-anchor="middle" x="592.6" y="-111.8" font-family="Courier,monospace" font-size="14.00">B^3</text>
</a>
</g>
</g>
<!-- annotation&#45;B^3&#45;&gt;c19917c9cdf5844b315395b7231ee2a60656a300 -->
<g id="edge21" class="edge">
<title>annotation&#45;B^3&#45;&gt;c19917c9cdf5844b315395b7231ee2a60656a300</title>
<path fill="none" stroke="#1a1a1a" stroke-dasharray="5,2" d="M594,-125.97C595.35,-133.77 597.43,-145.75 599.07,-155.21"/>
<polygon fill="#1a1a1a" stroke="#1a1a1a" points="597.33,-155.44 599.91,-160.07 600.78,-154.84 597.33,-155.44"/>
</g>
<!-- annotation&#45;B^3^ -->
<g id="node22" class="node">
<title>annotation&#45;B^3^</title>
<g id="a_node22"><a xlink:title="B^3^">
<polygon fill="#66cdaa" stroke="#66cdaa" points="542.82,-179.76 508.38,-179.76 508.38,-161.82 542.82,-161.82 542.82,-179.76"/>
<text text-anchor="middle" x="525.6" y="-165.74" font-family="Courier,monospace" font-size="14.00">B^3^</text>
</a>
</g>
</g>
<!-- annotation&#45;B^3^&#45;&gt;0d836f91f9b1b433f80f592a9187777104999694 -->
<g id="edge31" class="edge">
<title>annotation&#45;B^3^&#45;&gt;0d836f91f9b1b433f80f592a9187777104999694</title>
<path fill="none" stroke="#1a1a1a" stroke-dasharray="5,2" d="M529.03,-179.91C532.4,-187.86 537.61,-200.16 541.65,-209.7"/>
<polygon fill="#1a1a1a" stroke="#1a1a1a" points="539.96,-210.18 543.52,-214.11 543.18,-208.82 539.96,-210.18"/>
</g>
<!-- annotation&#45;B^3^2 -->
<g id="node23" class="node">
<title>annotation&#45;B^3^2</title>
<g id="a_node23"><a xlink:title="B^3^2">
<polygon fill="#66cdaa" stroke="#66cdaa" points="735.94,-179.76 693.25,-179.76 693.25,-161.82 735.94,-161.82 735.94,-179.76"/>
<text text-anchor="middle" x="714.6" y="-165.74" font-family="Courier,monospace" font-size="14.00">B^3^2</text>
</a>
</g>
</g>
<!-- annotation&#45;B^3^2&#45;&gt;55998ac421051381aa925084222f120a13bb6923 -->
<g id="edge34" class="edge">
<title>annotation&#45;B^3^2&#45;&gt;55998ac421051381aa925084222f120a13bb6923</title>
<path fill="none" stroke="#1a1a1a" stroke-dasharray="5,2" d="M709.44,-179.91C704.29,-188.01 696.27,-200.63 690.17,-210.24"/>
<polygon fill="#1a1a1a" stroke="#1a1a1a" points="688.84,-209.06 687.64,-214.22 691.79,-210.94 688.84,-209.06"/>
</g>
<!-- annotation&#45;B^^2 -->
<g id="node24" class="node">
<title>annotation&#45;B^^2</title>
<g id="a_node24"><a xlink:title="B^^2">
<polygon fill="#66cdaa" stroke="#66cdaa" points="357.82,-179.76 323.38,-179.76 323.38,-161.82 357.82,-161.82 357.82,-179.76"/>
<text text-anchor="middle" x="340.6" y="-165.74" font-family="Courier,monospace" font-size="14.00">B^^2</text>
</a>
</g>
</g>
<!-- annotation&#45;B^^2&#45;&gt;1e1254c73ab6883d91b3ef8baaabd5319d9f263f -->
<g id="edge27" class="edge">
<title>annotation&#45;B^^2&#45;&gt;1e1254c73ab6883d91b3ef8baaabd5319d9f263f</title>
<path fill="none" stroke="#1a1a1a" stroke-dasharray="5,2" d="M331.44,-180.14C321.05,-189.6 304.18,-204.97 293.5,-214.71"/>
<polygon fill="#1a1a1a" stroke="#1a1a1a" points="292.44,-213.3 289.92,-217.96 294.8,-215.89 292.44,-213.3"/>
</g>
<!-- 4b476004aba5f2e254f4deb19b53c9b774115de0&#45;&gt;c19917c9cdf5844b315395b7231ee2a60656a300 -->
<g id="edge1" class="edge">
<title>4b476004aba5f2e254f4deb19b53c9b774115de0&#45;&gt;c19917c9cdf5844b315395b7231ee2a60656a300</title>
<path fill="none" stroke="#1a1a1a" d="M624.38,-125.97C620.2,-134 613.73,-146.45 608.75,-156.03"/>
<polygon fill="#1a1a1a" stroke="#1a1a1a" points="607.32,-154.97 606.57,-160.22 610.43,-156.59 607.32,-154.97"/>
</g>
<!-- 687be3a12d78b57ab5ea740dca898ca4dee9dcd6&#45;&gt;99b2a942a9f05ba8035037107727b62414e02924 -->
<g id="edge3" class="edge">
<title>687be3a12d78b57ab5ea740dca898ca4dee9dcd6&#45;&gt;99b2a942a9f05ba8035037107727b62414e02924</title>
<path fill="none" stroke="#1a1a1a" d="M173.48,-176.22C163.47,-184.88 141.16,-204.2 128.28,-215.35"/>
<polygon fill="#1a1a1a" stroke="#1a1a1a" points="127.48,-213.73 124.84,-218.32 129.77,-216.37 127.48,-213.73"/>
</g>
<!-- 687be3a12d78b57ab5ea740dca898ca4dee9dcd6&#45;&gt;1e1254c73ab6883d91b3ef8baaabd5319d9f263f -->
<g id="edge2" class="edge">
<title>687be3a12d78b57ab5ea740dca898ca4dee9dcd6&#45;&gt;1e1254c73ab6883d91b3ef8baaabd5319d9f263f</title>
<path fill="none" stroke="#1a1a1a" d="M183.73,-174.83C186.36,-176.35 189.62,-178.2 192.6,-179.76 221.12,-194.75 255.54,-210.86 272.73,-218.77"/>
<polygon fill="#1a1a1a" stroke="#1a1a1a" points="271.95,-220.34 277.23,-220.83 273.41,-217.16 271.95,-220.34"/>
</g>
<!-- annotation&#45;D^2 -->
<g id="node27" class="node">
<title>annotation&#45;D^2</title>
<g id="a_node27"><a xlink:title="D^2">
<polygon fill="#66cdaa" stroke="#66cdaa" points="401.69,-179.76 375.5,-179.76 375.5,-161.82 401.69,-161.82 401.69,-179.76"/>
<text text-anchor="middle" x="388.6" y="-165.74" font-family="Courier,monospace" font-size="14.00">D^2</text>
</a>
</g>
</g>
<!-- annotation&#45;D^2&#45;&gt;1e1254c73ab6883d91b3ef8baaabd5319d9f263f -->
<g id="edge26" class="edge">
<title>annotation&#45;D^2&#45;&gt;1e1254c73ab6883d91b3ef8baaabd5319d9f263f</title>
<path fill="none" stroke="#1a1a1a" stroke-dasharray="5,2" d="M375.3,-178.37C354.28,-188.77 313.77,-208.8 294.41,-218.38"/>
<polygon fill="#1a1a1a" stroke="#1a1a1a" points="293.78,-216.74 290.07,-220.53 295.33,-219.88 293.78,-216.74"/>
</g>
<!-- c19917c9cdf5844b315395b7231ee2a60656a300&#45;&gt;0d836f91f9b1b433f80f592a9187777104999694 -->
<g id="edge7" class="edge">
<title>c19917c9cdf5844b315395b7231ee2a60656a300&#45;&gt;0d836f91f9b1b433f80f592a9187777104999694</title>
<path fill="none" stroke="#1a1a1a" d="M596.61,-176.58C587.66,-185.2 568.7,-203.43 557.16,-214.53"/>
<polygon fill="#1a1a1a" stroke="#1a1a1a" points="556.21,-213.02 553.81,-217.75 558.63,-215.54 556.21,-213.02"/>
</g>
<!-- c19917c9cdf5844b315395b7231ee2a60656a300&#45;&gt;55998ac421051381aa925084222f120a13bb6923 -->
<g id="edge8" class="edge">
<title>c19917c9cdf5844b315395b7231ee2a60656a300&#45;&gt;55998ac421051381aa925084222f120a13bb6923</title>
<path fill="none" stroke="#1a1a1a" d="M606.84,-175.2C619.96,-183.71 654.35,-206.04 671.53,-217.19"/>
<polygon fill="#1a1a1a" stroke="#1a1a1a" points="670.22,-218.43 675.37,-219.69 672.13,-215.5 670.22,-218.43"/>
</g>
<!-- annotation&#45;F^ -->
<g id="node30" class="node">
<title>annotation&#45;F^</title>
<g id="a_node30"><a xlink:title="F^">
<polygon fill="#66cdaa" stroke="#66cdaa" points="578.57,-179.76 560.62,-179.76 560.62,-161.82 578.57,-161.82 578.57,-179.76"/>
<text text-anchor="middle" x="569.6" y="-165.74" font-family="Courier,monospace" font-size="14.00">F^</text>
</a>
</g>
</g>
<!-- annotation&#45;F^&#45;&gt;0d836f91f9b1b433f80f592a9187777104999694 -->
<g id="edge30" class="edge">
<title>annotation&#45;F^&#45;&gt;0d836f91f9b1b433f80f592a9187777104999694</title>
<path fill="none" stroke="#1a1a1a" stroke-dasharray="5,2" d="M566.16,-179.91C562.79,-187.86 557.58,-200.16 553.54,-209.7"/>
<polygon fill="#1a1a1a" stroke="#1a1a1a" points="552.01,-208.82 551.67,-214.11 555.23,-210.18 552.01,-208.82"/>
</g>
<!-- annotation&#45;F^2 -->
<g id="node31" class="node">
<title>annotation&#45;F^2</title>
<g id="a_node31"><a xlink:title="F^2">
<polygon fill="#66cdaa" stroke="#66cdaa" points="779.69,-179.76 753.5,-179.76 753.5,-161.82 779.69,-161.82 779.69,-179.76"/>
<text text-anchor="middle" x="766.6" y="-165.74" font-family="Courier,monospace" font-size="14.00">F^2</text>
</a>
</g>
</g>
<!-- annotation&#45;F^2&#45;&gt;55998ac421051381aa925084222f120a13bb6923 -->
<g id="edge33" class="edge">
<title>annotation&#45;F^2&#45;&gt;55998ac421051381aa925084222f120a13bb6923</title>
<path fill="none" stroke="#1a1a1a" stroke-dasharray="5,2" d="M753.31,-179.91C736.5,-190.18 707.85,-207.69 692.34,-217.17"/>
<polygon fill="#1a1a1a" stroke="#1a1a1a" points="691.56,-215.59 688.2,-219.69 693.38,-218.58 691.56,-215.59"/>
</g>
</g>
</svg>
