<?xml version="1.0" encoding="UTF-8" standalone="no"?>
<!DOCTYPE svg PUBLIC "-//W3C//DTD SVG 1.1//EN"
 "http://www.w3.org/Graphics/SVG/1.1/DTD/svg11.dtd">
<!-- Generated by graphviz version 12.1.0 (20240811.2233)
 -->
<!-- Pages: 1 -->
<svg width="212pt" height="242pt"
 viewBox="0.00 0.00 211.94 241.70" xmlns="http://www.w3.org/2000/svg" xmlns:xlink="http://www.w3.org/1999/xlink">
<g id="graph0" class="graph" transform="scale(1 1) rotate(0) translate(4 237.7)">
<polygon fill="white" stroke="none" points="-4,4 -4,-237.7 207.94,-237.7 207.94,4 -4,4"/>
<!-- annotation&#45;=/H -->
<g id="node1" class="node">
<title>annotation&#45;=/H</title>
<g id="a_node1"><a xlink:title=":/H">
<polygon fill="#66cdaa" stroke="#66cdaa" points="26.19,-179.76 0,-179.76 0,-161.82 26.19,-161.82 26.19,-179.76"/>
<text text-anchor="middle" x="13.1" y="-165.74" font-family="Courier,monospace" font-size="14.00">:/H</text>
</a>
</g>
</g>
<!-- 1e1254c73ab6883d91b3ef8baaabd5319d9f263f -->
<g id="node11" class="node">
<title>1e1254c73ab6883d91b3ef8baaabd5319d9f263f</title>
<g id="a_node11"><a xlink:title="author: First Last &lt;first.last@mail.com&gt;&#10;Wed Jan 01 09:00:00 2025 +0100&#10;committer: Nom Prenom &lt;nom.prenom@mail.com&gt;&#10;Wed Jan 01 09:00:00 2025 +0100&#10;&#10;H">
<polygon fill="#cdad00" stroke="#cdad00" points="21.94,-233.7 12.25,-233.7 12.25,-215.76 21.94,-215.76 21.94,-233.7"/>
<text text-anchor="middle" x="17.09" y="-219.68" font-family="Courier,monospace" font-size="14.00">H</text>
</a>
</g>
</g>
<!-- annotation&#45;=/H&#45;&gt;1e1254c73ab6883d91b3ef8baaabd5319d9f263f -->
<g id="edge13" class="edge">
<title>annotation&#45;=/H&#45;&gt;1e1254c73ab6883d91b3ef8baaabd5319d9f263f</title>
<path fill="none" stroke="#1a1a1a" stroke-dasharray="5,2" d="M13.72,-179.91C14.32,-187.71 15.24,-199.69 15.97,-209.15"/>
<polygon fill="#1a1a1a" stroke="#1a1a1a" points="14.22,-209.14 16.34,-213.99 17.71,-208.87 14.22,-209.14"/>
</g>
<!-- annotation&#45;@ -->
<g id="node2" class="node">
<title>annotation&#45;@</title>
<g id="a_node2"><a xlink:title="@">
<polygon fill="#66cdaa" stroke="#66cdaa" points="61.94,-17.94 52.25,-17.94 52.25,0 61.94,0 61.94,-17.94"/>
<text text-anchor="middle" x="57.09" y="-3.92" font-family="Courier,monospace" font-size="14.00">@</text>
</a>
</g>
</g>
<!-- c40e5a8f807ac96435e42b90ecbffbabeb2469ae -->
<g id="node3" class="node">
<title>c40e5a8f807ac96435e42b90ecbffbabeb2469ae</title>
<g id="a_node3"><a xlink:title="author: First Last &lt;first.last@mail.com&gt;&#10;Wed Jan 01 09:00:00 2025 +0100&#10;committer: Nom Prenom &lt;nom.prenom@mail.com&gt;&#10;Wed Jan 01 09:00:00 2025 +0100&#10;&#10;A">
<polygon fill="#cdad00" stroke="#cdad00" points="81.94,-71.88 72.25,-71.88 72.25,-53.94 81.94,-53.94 81.94,-71.88"/>
<text text-anchor="middle" x="77.09" y="-57.86" font-family="Courier,monospace" font-size="14.00">A</text>
</a>
</g>
</g>
<!-- annotation&#45;@&#45;&gt;c40e5a8f807ac96435e42b90ecbffbabeb2469ae -->
<g id="edge15" class="edge">
<title>annotation&#45;@&#45;&gt;c40e5a8f807ac96435e42b90ecbffbabeb2469ae</title>
<path fill="none" stroke="#1a1a1a" stroke-dasharray="5,2" d="M60.22,-18.09C63.25,-25.97 67.93,-38.1 71.59,-47.61"/>
<polygon fill="#1a1a1a" stroke="#1a1a1a" points="69.95,-48.23 73.38,-52.27 73.22,-46.97 69.95,-48.23"/>
</g>
<!-- bde59a18d866c6ad00edc1554c328ac9455a48c8 -->
<g id="node4" class="node">
<title>bde59a18d866c6ad00edc1554c328ac9455a48c8</title>
<g id="a_node4"><a xlink:title="author: First Last &lt;first.last@mail.com&gt;&#10;Wed Jan 01 09:00:00 2025 +0100&#10;committer: Nom Prenom &lt;nom.prenom@mail.com&gt;&#10;Wed Jan 01 09:00:00 2025 +0100&#10;&#10;B">
<polygon fill="#cdad00" stroke="#cdad00" points="81.94,-125.82 72.25,-125.82 72.25,-107.88 81.94,-107.88 81.94,-125.82"/>
<text text-anchor="middle" x="77.09" y="-111.8" font-family="Courier,monospace" font-size="14.00">B</text>
</a>
</g>
</g>
<!-- c40e5a8f807ac96435e42b90ecbffbabeb2469ae&#45;&gt;bde59a18d866c6ad00edc1554c328ac9455a48c8 -->
<g id="edge10" class="edge">
<title>c40e5a8f807ac96435e42b90ecbffbabeb2469ae&#45;&gt;bde59a18d866c6ad00edc1554c328ac9455a48c8</title>
<path fill="none" stroke="#1a1a1a" d="M77.09,-72.03C77.09,-79.83 77.09,-91.81 77.09,-101.27"/>
<polygon fill="#1a1a1a" stroke="#1a1a1a" points="75.35,-101.11 77.1,-106.11 78.85,-101.11 75.35,-101.11"/>
</g>
<!-- 4b476004aba5f2e254f4deb19b53c9b774115de0 -->
<g id="node5" class="node">
<title>4b476004aba5f2e254f4deb19b53c9b774115de0</title>
<g id="a_node5"><a xlink:title="author: First Last &lt;first.last@mail.com&gt;&#10;Wed Jan 01 09:00:00 2025 +0100&#10;committer: Nom Prenom &lt;nom.prenom@mail.com&gt;&#10;Wed Jan 01 09:00:00 2025 +0100&#10;&#10;C">
<polygon fill="#cdad00" stroke="#cdad00" points="109.94,-125.82 100.25,-125.82 100.25,-107.88 109.94,-107.88 109.94,-125.82"/>
<text text-anchor="middle" x="105.09" y="-111.8" font-family="Courier,monospace" font-size="14.00">C</text>
</a>
</g>
</g>
<!-- c40e5a8f807ac96435e42b90ecbffbabeb2469ae&#45;&gt;4b476004aba5f2e254f4deb19b53c9b774115de0 -->
<g id="edge9" class="edge">
<title>c40e5a8f807ac96435e42b90ecbffbabeb2469ae&#45;&gt;4b476004aba5f2e254f4deb19b53c9b774115de0</title>
<path fill="none" stroke="#1a1a1a" d="M81.47,-72.03C85.8,-80.06 92.51,-92.51 97.68,-102.09"/>
<polygon fill="#1a1a1a" stroke="#1a1a1a" points="96.03,-102.72 99.94,-106.29 99.11,-101.06 96.03,-102.72"/>
</g>
<!-- 687be3a12d78b57ab5ea740dca898ca4dee9dcd6 -->
<g id="node7" class="node">
<title>687be3a12d78b57ab5ea740dca898ca4dee9dcd6</title>
<g id="a_node7"><a xlink:title="author: First Last &lt;first.last@mail.com&gt;&#10;Wed Jan 01 09:00:00 2025 +0100&#10;committer: Nom Prenom &lt;nom.prenom@mail.com&gt;&#10;Wed Jan 01 09:00:00 2025 +0100&#10;&#10;D">
<polygon fill="#cdad00" stroke="#cdad00" points="53.94,-179.76 44.25,-179.76 44.25,-161.82 53.94,-161.82 53.94,-179.76"/>
<text text-anchor="middle" x="49.09" y="-165.74" font-family="Courier,monospace" font-size="14.00">D</text>
</a>
</g>
</g>
<!-- bde59a18d866c6ad00edc1554c328ac9455a48c8&#45;&gt;687be3a12d78b57ab5ea740dca898ca4dee9dcd6 -->
<g id="edge4" class="edge">
<title>bde59a18d866c6ad00edc1554c328ac9455a48c8&#45;&gt;687be3a12d78b57ab5ea740dca898ca4dee9dcd6</title>
<path fill="none" stroke="#1a1a1a" d="M72.72,-125.97C68.39,-134 61.68,-146.45 56.51,-156.03"/>
<polygon fill="#1a1a1a" stroke="#1a1a1a" points="55.08,-155 54.25,-160.23 58.16,-156.66 55.08,-155"/>
</g>
<!-- f214e513ca8c7144287b02f9c01cfc15663c0418 -->
<g id="node8" class="node">
<title>f214e513ca8c7144287b02f9c01cfc15663c0418</title>
<g id="a_node8"><a xlink:title="author: First Last &lt;first.last@mail.com&gt;&#10;Wed Jan 01 09:00:00 2025 +0100&#10;committer: Nom Prenom &lt;nom.prenom@mail.com&gt;&#10;Wed Jan 01 09:00:00 2025 +0100&#10;&#10;E">
<polygon fill="#cdad00" stroke="#cdad00" points="81.94,-179.76 72.25,-179.76 72.25,-161.82 81.94,-161.82 81.94,-179.76"/>
<text text-anchor="middle" x="77.09" y="-165.74" font-family="Courier,monospace" font-size="14.00">E</text>
</a>
</g>
</g>
<!-- bde59a18d866c6ad00edc1554c328ac9455a48c8&#45;&gt;f214e513ca8c7144287b02f9c01cfc15663c0418 -->
<g id="edge6" class="edge">
<title>bde59a18d866c6ad00edc1554c328ac9455a48c8&#45;&gt;f214e513ca8c7144287b02f9c01cfc15663c0418</title>
<path fill="none" stroke="#1a1a1a" d="M77.09,-125.97C77.09,-133.77 77.09,-145.75 77.09,-155.21"/>
<polygon fill="#1a1a1a" stroke="#1a1a1a" points="75.35,-155.05 77.1,-160.05 78.85,-155.05 75.35,-155.05"/>
</g>
<!-- c19917c9cdf5844b315395b7231ee2a60656a300 -->
<g id="node9" class="node">
<title>c19917c9cdf5844b315395b7231ee2a60656a300</title>
<g id="a_node9"><a xlink:title="author: First Last &lt;first.last@mail.com&gt;&#10;Wed Jan 01 09:00:00 2025 +0100&#10;committer: Nom Prenom &lt;nom.prenom@mail.com&gt;&#10;Wed Jan 01 09:00:00 2025 +0100&#10;&#10;F">
<polygon fill="#cdad00" stroke="#cdad00" points="109.94,-179.76 100.25,-179.76 100.25,-161.82 109.94,-161.82 109.94,-179.76"/>
<text text-anchor="middle" x="105.09" y="-165.74" font-family="Courier,monospace" font-size="14.00">F</text>
</a>
</g>
</g>
<!-- bde59a18d866c6ad00edc1554c328ac9455a48c8&#45;&gt;c19917c9cdf5844b315395b7231ee2a60656a300 -->
<g id="edge5" class="edge">
<title>bde59a18d866c6ad00edc1554c328ac9455a48c8&#45;&gt;c19917c9cdf5844b315395b7231ee2a60656a300</title>
<path fill="none" stroke="#1a1a1a" d="M81.47,-125.97C85.8,-134 92.51,-146.45 97.68,-156.03"/>
<polygon fill="#1a1a1a" stroke="#1a1a1a" points="96.03,-156.66 99.94,-160.23 99.11,-155 96.03,-156.66"/>
</g>
<!-- 4b476004aba5f2e254f4deb19b53c9b774115de0&#45;&gt;c19917c9cdf5844b315395b7231ee2a60656a300 -->
<g id="edge1" class="edge">
<title>4b476004aba5f2e254f4deb19b53c9b774115de0&#45;&gt;c19917c9cdf5844b315395b7231ee2a60656a300</title>
<path fill="none" stroke="#1a1a1a" d="M105.09,-125.97C105.09,-133.77 105.09,-145.75 105.09,-155.21"/>
<polygon fill="#1a1a1a" stroke="#1a1a1a" points="103.35,-155.05 105.1,-160.05 106.85,-155.05 103.35,-155.05"/>
</g>
<!-- annotation&#45;C^{commit} -->
<g id="node6" class="node">
<title>annotation&#45;C^{commit}</title>
<g id="a_node6"><a xlink:title="C^{commit}">
<polygon fill="#66cdaa" stroke="#66cdaa" points="184.06,-71.88 100.12,-71.88 100.12,-53.94 184.06,-53.94 184.06,-71.88"/>
<text text-anchor="middle" x="142.09" y="-57.86" font-family="Courier,monospace" font-size="14.00">C^{commit}</text>
</a>
</g>
</g>
<!-- annotation&#45;C^{commit}&#45;&gt;4b476004aba5f2e254f4deb19b53c9b774115de0 -->
<g id="edge11" class="edge">
<title>annotation&#45;C^{commit}&#45;&gt;4b476004aba5f2e254f4deb19b53c9b774115de0</title>
<path fill="none" stroke="#1a1a1a" stroke-dasharray="5,2" d="M136.31,-72.03C130.33,-80.42 120.92,-93.64 113.99,-103.37"/>
<polygon fill="#1a1a1a" stroke="#1a1a1a" points="112.59,-102.31 111.12,-107.4 115.44,-104.34 112.59,-102.31"/>
</g>
<!-- 99b2a942a9f05ba8035037107727b62414e02924 -->
<g id="node10" class="node">
<title>99b2a942a9f05ba8035037107727b62414e02924</title>
<g id="a_node10"><a xlink:title="author: First Last &lt;first.last@mail.com&gt;&#10;Wed Jan 01 09:00:00 2025 +0100&#10;committer: Nom Prenom &lt;nom.prenom@mail.com&gt;&#10;Wed Jan 01 09:00:00 2025 +0100&#10;&#10;G">
<polygon fill="#cdad00" stroke="#cdad00" points="53.94,-233.7 44.25,-233.7 44.25,-215.76 53.94,-215.76 53.94,-233.7"/>
<text text-anchor="middle" x="49.09" y="-219.68" font-family="Courier,monospace" font-size="14.00">G</text>
</a>
</g>
</g>
<!-- 687be3a12d78b57ab5ea740dca898ca4dee9dcd6&#45;&gt;99b2a942a9f05ba8035037107727b62414e02924 -->
<g id="edge3" class="edge">
<title>687be3a12d78b57ab5ea740dca898ca4dee9dcd6&#45;&gt;99b2a942a9f05ba8035037107727b62414e02924</title>
<path fill="none" stroke="#1a1a1a" d="M49.09,-179.91C49.09,-187.71 49.09,-199.69 49.09,-209.15"/>
<polygon fill="#1a1a1a" stroke="#1a1a1a" points="47.35,-208.99 49.1,-213.99 50.85,-208.99 47.35,-208.99"/>
</g>
<!-- 687be3a12d78b57ab5ea740dca898ca4dee9dcd6&#45;&gt;1e1254c73ab6883d91b3ef8baaabd5319d9f263f -->
<g id="edge2" class="edge">
<title>687be3a12d78b57ab5ea740dca898ca4dee9dcd6&#45;&gt;1e1254c73ab6883d91b3ef8baaabd5319d9f263f</title>
<path fill="none" stroke="#1a1a1a" d="M44.09,-179.91C39.15,-187.94 31.47,-200.39 25.57,-209.97"/>
<polygon fill="#1a1a1a" stroke="#1a1a1a" points="24.09,-209.04 22.96,-214.21 27.07,-210.87 24.09,-209.04"/>
</g>
<!-- 0d836f91f9b1b433f80f592a9187777104999694 -->
<g id="node14" class="node">
<title>0d836f91f9b1b433f80f592a9187777104999694</title>
<g id="a_node14"><a xlink:title="author: First Last &lt;first.last@mail.com&gt;&#10;Wed Jan 01 09:00:00 2025 +0100&#10;committer: Nom Prenom &lt;nom.prenom@mail.com&gt;&#10;Wed Jan 01 09:00:00 2025 +0100&#10;&#10;I">
<polygon fill="#cdad00" stroke="#cdad00" points="81.94,-233.7 72.25,-233.7 72.25,-215.76 81.94,-215.76 81.94,-233.7"/>
<text text-anchor="middle" x="77.09" y="-219.68" font-family="Courier,monospace" font-size="14.00">I</text>
</a>
</g>
</g>
<!-- c19917c9cdf5844b315395b7231ee2a60656a300&#45;&gt;0d836f91f9b1b433f80f592a9187777104999694 -->
<g id="edge7" class="edge">
<title>c19917c9cdf5844b315395b7231ee2a60656a300&#45;&gt;0d836f91f9b1b433f80f592a9187777104999694</title>
<path fill="none" stroke="#1a1a1a" d="M100.72,-179.91C96.39,-187.94 89.68,-200.39 84.51,-209.97"/>
<polygon fill="#1a1a1a" stroke="#1a1a1a" points="83.08,-208.94 82.25,-214.17 86.16,-210.6 83.08,-208.94"/>
</g>
<!-- 55998ac421051381aa925084222f120a13bb6923 -->
<g id="node15" class="node">
<title>55998ac421051381aa925084222f120a13bb6923</title>
<g id="a_node15"><a xlink:title="author: First Last &lt;first.last@mail.com&gt;&#10;Wed Jan 01 09:00:00 2025 +0100&#10;committer: Nom Prenom &lt;nom.prenom@mail.com&gt;&#10;Wed Jan 01 09:00:00 2025 +0100&#10;&#10;J">
<polygon fill="#cdad00" stroke="#cdad00" points="109.94,-233.7 100.25,-233.7 100.25,-215.76 109.94,-215.76 109.94,-233.7"/>
<text text-anchor="middle" x="105.09" y="-219.68" font-family="Courier,monospace" font-size="14.00">J</text>
</a>
</g>
</g>
<!-- c19917c9cdf5844b315395b7231ee2a60656a300&#45;&gt;55998ac421051381aa925084222f120a13bb6923 -->
<g id="edge8" class="edge">
<title>c19917c9cdf5844b315395b7231ee2a60656a300&#45;&gt;55998ac421051381aa925084222f120a13bb6923</title>
<path fill="none" stroke="#1a1a1a" d="M105.09,-179.91C105.09,-187.71 105.09,-199.69 105.09,-209.15"/>
<polygon fill="#1a1a1a" stroke="#1a1a1a" points="103.35,-208.99 105.1,-213.99 106.85,-208.99 103.35,-208.99"/>
</g>
<!-- annotation&#45;HEAD -->
<g id="node12" class="node">
<title>annotation&#45;HEAD</title>
<g id="a_node12"><a xlink:title="HEAD">
<polygon fill="#66cdaa" stroke="#66cdaa" points="114.31,-17.94 79.88,-17.94 79.88,0 114.31,0 114.31,-17.94"/>
<text text-anchor="middle" x="97.09" y="-3.92" font-family="Courier,monospace" font-size="14.00">HEAD</text>
</a>
</g>
</g>
<!-- annotation&#45;HEAD&#45;&gt;c40e5a8f807ac96435e42b90ecbffbabeb2469ae -->
<g id="edge12" class="edge">
<title>annotation&#45;HEAD&#45;&gt;c40e5a8f807ac96435e42b90ecbffbabeb2469ae</title>
<path fill="none" stroke="#1a1a1a" stroke-dasharray="5,2" d="M93.97,-18.09C90.94,-25.97 86.26,-38.1 82.6,-47.61"/>
<polygon fill="#1a1a1a" stroke="#1a1a1a" points="80.97,-46.97 80.81,-52.27 84.24,-48.23 80.97,-46.97"/>
</g>
<!-- annotation&#45;HEAD^{/F} -->
<g id="node13" class="node">
<title>annotation&#45;HEAD^{/F}</title>
<g id="a_node13"><a xlink:title="HEAD^{/F}">
<polygon fill="#66cdaa" stroke="#66cdaa" points="203.94,-125.82 128.25,-125.82 128.25,-107.88 203.94,-107.88 203.94,-125.82"/>
<text text-anchor="middle" x="166.09" y="-111.8" font-family="Courier,monospace" font-size="14.00">HEAD^{/F}</text>
</a>
</g>
</g>
<!-- annotation&#45;HEAD^{/F}&#45;&gt;c19917c9cdf5844b315395b7231ee2a60656a300 -->
<g id="edge14" class="edge">
<title>annotation&#45;HEAD^{/F}&#45;&gt;c19917c9cdf5844b315395b7231ee2a60656a300</title>
<path fill="none" stroke="#1a1a1a" stroke-dasharray="5,2" d="M156.29,-126.2C144.96,-135.84 126.41,-151.64 115.03,-161.33"/>
<polygon fill="#1a1a1a" stroke="#1a1a1a" points="114.18,-159.76 111.5,-164.33 116.44,-162.42 114.18,-159.76"/>
</g>
</g>
</svg>
