<?xml version="1.0" encoding="UTF-8" standalone="no"?>
<!DOCTYPE svg PUBLIC "-//W3C//DTD SVG 1.1//EN"
 "http://www.w3.org/Graphics/SVG/1.1/DTD/svg11.dtd">
<!-- Generated by graphviz version 12.1.0 (20240811.2233)
 -->
<!-- Pages: 1 -->
<svg width="116pt" height="188pt"
 viewBox="0.00 0.00 115.69 187.76" xmlns="http://www.w3.org/2000/svg" xmlns:xlink="http://www.w3.org/1999/xlink">
<g id="graph0" class="graph" transform="scale(1 1) rotate(0) translate(4 183.76)">
<polygon fill="white" stroke="none" points="-4,4 -4,-183.76 111.69,-183.76 111.69,4 -4,4"/>
<!-- c40e5a8f807ac96435e42b90ecbffbabeb2469ae -->
<g id="node1" class="node">
<title>c40e5a8f807ac96435e42b90ecbffbabeb2469ae</title>
<g id="a_node1"><a xlink:title="author: First Last &lt;first.last@mail.com&gt;&#10;Wed Jan 01 09:00:00 2025 +0100&#10;committer: Nom Prenom &lt;nom.prenom@mail.com&gt;&#10;Wed Jan 01 09:00:00 2025 +0100&#10;&#10;A">
<polygon fill="#cdad00" stroke="#cdad00" points="72.69,-17.94 63,-17.94 63,0 72.69,0 72.69,-17.94"/>
<text text-anchor="middle" x="67.84" y="-3.92" font-family="Courier,monospace" font-size="14.00">A</text>
</a>
</g>
</g>
<!-- bde59a18d866c6ad00edc1554c328ac9455a48c8 -->
<g id="node2" class="node">
<title>bde59a18d866c6ad00edc1554c328ac9455a48c8</title>
<g id="a_node2"><a xlink:title="author: First Last &lt;first.last@mail.com&gt;&#10;Wed Jan 01 09:00:00 2025 +0100&#10;committer: Nom Prenom &lt;nom.prenom@mail.com&gt;&#10;Wed Jan 01 09:00:00 2025 +0100&#10;&#10;B">
<polygon fill="#cdad00" stroke="#cdad00" points="58.69,-71.88 49,-71.88 49,-53.94 58.69,-53.94 58.69,-71.88"/>
<text text-anchor="middle" x="53.84" y="-57.86" font-family="Courier,monospace" font-size="14.00">B</text>
</a>
</g>
</g>
<!-- c40e5a8f807ac96435e42b90ecbffbabeb2469ae&#45;&gt;bde59a18d866c6ad00edc1554c328ac9455a48c8 -->
<g id="edge10" class="edge">
<title>c40e5a8f807ac96435e42b90ecbffbabeb2469ae&#45;&gt;bde59a18d866c6ad00edc1554c328ac9455a48c8</title>
<path fill="none" stroke="#1a1a1a" d="M65.66,-18.09C63.53,-25.97 60.26,-38.1 57.7,-47.61"/>
<polygon fill="#1a1a1a" stroke="#1a1a1a" points="56.07,-46.94 56.46,-52.22 59.45,-47.85 56.07,-46.94"/>
</g>
<!-- 4b476004aba5f2e254f4deb19b53c9b774115de0 -->
<g id="node3" class="node">
<title>4b476004aba5f2e254f4deb19b53c9b774115de0</title>
<g id="a_node3"><a xlink:title="author: First Last &lt;first.last@mail.com&gt;&#10;Wed Jan 01 09:00:00 2025 +0100&#10;committer: Nom Prenom &lt;nom.prenom@mail.com&gt;&#10;Wed Jan 01 09:00:00 2025 +0100&#10;&#10;C">
<polygon fill="#cdad00" stroke="red" points="86.69,-71.88 77,-71.88 77,-53.94 86.69,-53.94 86.69,-71.88"/>
<text text-anchor="middle" x="81.84" y="-57.86" font-family="Courier,monospace" font-size="14.00">C</text>
</a>
</g>
</g>
<!-- c40e5a8f807ac96435e42b90ecbffbabeb2469ae&#45;&gt;4b476004aba5f2e254f4deb19b53c9b774115de0 -->
<g id="edge9" class="edge">
<title>c40e5a8f807ac96435e42b90ecbffbabeb2469ae&#45;&gt;4b476004aba5f2e254f4deb19b53c9b774115de0</title>
<path fill="none" stroke="#1a1a1a" d="M70.03,-18.09C72.16,-25.97 75.43,-38.1 77.99,-47.61"/>
<polygon fill="#1a1a1a" stroke="#1a1a1a" points="76.24,-47.85 79.23,-52.22 79.62,-46.94 76.24,-47.85"/>
</g>
<!-- 687be3a12d78b57ab5ea740dca898ca4dee9dcd6 -->
<g id="node4" class="node">
<title>687be3a12d78b57ab5ea740dca898ca4dee9dcd6</title>
<g id="a_node4"><a xlink:title="author: First Last &lt;first.last@mail.com&gt;&#10;Wed Jan 01 09:00:00 2025 +0100&#10;committer: Nom Prenom &lt;nom.prenom@mail.com&gt;&#10;Wed Jan 01 09:00:00 2025 +0100&#10;&#10;D">
<polygon fill="#cdad00" stroke="#cdad00" points="30.69,-125.82 21,-125.82 21,-107.88 30.69,-107.88 30.69,-125.82"/>
<text text-anchor="middle" x="25.84" y="-111.8" font-family="Courier,monospace" font-size="14.00">D</text>
</a>
</g>
</g>
<!-- bde59a18d866c6ad00edc1554c328ac9455a48c8&#45;&gt;687be3a12d78b57ab5ea740dca898ca4dee9dcd6 -->
<g id="edge4" class="edge">
<title>bde59a18d866c6ad00edc1554c328ac9455a48c8&#45;&gt;687be3a12d78b57ab5ea740dca898ca4dee9dcd6</title>
<path fill="none" stroke="#1a1a1a" d="M49.47,-72.03C45.14,-80.06 38.43,-92.51 33.26,-102.09"/>
<polygon fill="#1a1a1a" stroke="#1a1a1a" points="31.83,-101.06 31,-106.29 34.91,-102.72 31.83,-101.06"/>
</g>
<!-- f214e513ca8c7144287b02f9c01cfc15663c0418 -->
<g id="node5" class="node">
<title>f214e513ca8c7144287b02f9c01cfc15663c0418</title>
<g id="a_node5"><a xlink:title="author: First Last &lt;first.last@mail.com&gt;&#10;Wed Jan 01 09:00:00 2025 +0100&#10;committer: Nom Prenom &lt;nom.prenom@mail.com&gt;&#10;Wed Jan 01 09:00:00 2025 +0100&#10;&#10;E">
<polygon fill="#cdad00" stroke="#cdad00" points="58.69,-125.82 49,-125.82 49,-107.88 58.69,-107.88 58.69,-125.82"/>
<text text-anchor="middle" x="53.84" y="-111.8" font-family="Courier,monospace" font-size="14.00">E</text>
</a>
</g>
</g>
<!-- bde59a18d866c6ad00edc1554c328ac9455a48c8&#45;&gt;f214e513ca8c7144287b02f9c01cfc15663c0418 -->
<g id="edge6" class="edge">
<title>bde59a18d866c6ad00edc1554c328ac9455a48c8&#45;&gt;f214e513ca8c7144287b02f9c01cfc15663c0418</title>
<path fill="none" stroke="#1a1a1a" d="M53.84,-72.03C53.84,-79.83 53.84,-91.81 53.84,-101.27"/>
<polygon fill="#1a1a1a" stroke="#1a1a1a" points="52.1,-101.11 53.85,-106.11 55.6,-101.11 52.1,-101.11"/>
</g>
<!-- c19917c9cdf5844b315395b7231ee2a60656a300 -->
<g id="node6" class="node">
<title>c19917c9cdf5844b315395b7231ee2a60656a300</title>
<g id="a_node6"><a xlink:title="author: First Last &lt;first.last@mail.com&gt;&#10;Wed Jan 01 09:00:00 2025 +0100&#10;committer: Nom Prenom &lt;nom.prenom@mail.com&gt;&#10;Wed Jan 01 09:00:00 2025 +0100&#10;&#10;F">
<polygon fill="#cdad00" stroke="#cdad00" points="86.69,-125.82 77,-125.82 77,-107.88 86.69,-107.88 86.69,-125.82"/>
<text text-anchor="middle" x="81.84" y="-111.8" font-family="Courier,monospace" font-size="14.00">F</text>
</a>
</g>
</g>
<!-- bde59a18d866c6ad00edc1554c328ac9455a48c8&#45;&gt;c19917c9cdf5844b315395b7231ee2a60656a300 -->
<g id="edge5" class="edge">
<title>bde59a18d866c6ad00edc1554c328ac9455a48c8&#45;&gt;c19917c9cdf5844b315395b7231ee2a60656a300</title>
<path fill="none" stroke="#1a1a1a" d="M58.22,-72.03C62.55,-80.06 69.26,-92.51 74.43,-102.09"/>
<polygon fill="#1a1a1a" stroke="#1a1a1a" points="72.78,-102.72 76.69,-106.29 75.86,-101.06 72.78,-102.72"/>
</g>
<!-- 4b476004aba5f2e254f4deb19b53c9b774115de0&#45;&gt;c19917c9cdf5844b315395b7231ee2a60656a300 -->
<g id="edge1" class="edge">
<title>4b476004aba5f2e254f4deb19b53c9b774115de0&#45;&gt;c19917c9cdf5844b315395b7231ee2a60656a300</title>
<path fill="none" stroke="#1a1a1a" d="M81.84,-72.03C81.84,-79.83 81.84,-91.81 81.84,-101.27"/>
<polygon fill="#1a1a1a" stroke="#1a1a1a" points="80.1,-101.11 81.85,-106.11 83.6,-101.11 80.1,-101.11"/>
</g>
<!-- 99b2a942a9f05ba8035037107727b62414e02924 -->
<g id="node7" class="node">
<title>99b2a942a9f05ba8035037107727b62414e02924</title>
<g id="a_node7"><a xlink:title="author: First Last &lt;first.last@mail.com&gt;&#10;Wed Jan 01 09:00:00 2025 +0100&#10;committer: Nom Prenom &lt;nom.prenom@mail.com&gt;&#10;Wed Jan 01 09:00:00 2025 +0100&#10;&#10;G">
<polygon fill="#cdad00" stroke="#cdad00" points="9.69,-179.76 0,-179.76 0,-161.82 9.69,-161.82 9.69,-179.76"/>
<text text-anchor="middle" x="4.84" y="-165.74" font-family="Courier,monospace" font-size="14.00">G</text>
</a>
</g>
</g>
<!-- 687be3a12d78b57ab5ea740dca898ca4dee9dcd6&#45;&gt;99b2a942a9f05ba8035037107727b62414e02924 -->
<g id="edge3" class="edge">
<title>687be3a12d78b57ab5ea740dca898ca4dee9dcd6&#45;&gt;99b2a942a9f05ba8035037107727b62414e02924</title>
<path fill="none" stroke="#1a1a1a" d="M22.56,-125.97C19.35,-133.92 14.38,-146.22 10.52,-155.76"/>
<polygon fill="#1a1a1a" stroke="#1a1a1a" points="8.99,-154.87 8.74,-160.16 12.24,-156.18 8.99,-154.87"/>
</g>
<!-- 1e1254c73ab6883d91b3ef8baaabd5319d9f263f -->
<g id="node8" class="node">
<title>1e1254c73ab6883d91b3ef8baaabd5319d9f263f</title>
<g id="a_node8"><a xlink:title="author: First Last &lt;first.last@mail.com&gt;&#10;Wed Jan 01 09:00:00 2025 +0100&#10;committer: Nom Prenom &lt;nom.prenom@mail.com&gt;&#10;Wed Jan 01 09:00:00 2025 +0100&#10;&#10;H">
<polygon fill="#cdad00" stroke="#cdad00" points="37.69,-179.76 28,-179.76 28,-161.82 37.69,-161.82 37.69,-179.76"/>
<text text-anchor="middle" x="32.84" y="-165.74" font-family="Courier,monospace" font-size="14.00">H</text>
</a>
</g>
</g>
<!-- 687be3a12d78b57ab5ea740dca898ca4dee9dcd6&#45;&gt;1e1254c73ab6883d91b3ef8baaabd5319d9f263f -->
<g id="edge2" class="edge">
<title>687be3a12d78b57ab5ea740dca898ca4dee9dcd6&#45;&gt;1e1254c73ab6883d91b3ef8baaabd5319d9f263f</title>
<path fill="none" stroke="#1a1a1a" d="M26.94,-125.97C27.99,-133.77 29.6,-145.75 30.88,-155.21"/>
<polygon fill="#1a1a1a" stroke="#1a1a1a" points="29.13,-155.34 31.53,-160.06 32.6,-154.87 29.13,-155.34"/>
</g>
<!-- 0d836f91f9b1b433f80f592a9187777104999694 -->
<g id="node9" class="node">
<title>0d836f91f9b1b433f80f592a9187777104999694</title>
<g id="a_node9"><a xlink:title="author: First Last &lt;first.last@mail.com&gt;&#10;Wed Jan 01 09:00:00 2025 +0100&#10;committer: Nom Prenom &lt;nom.prenom@mail.com&gt;&#10;Wed Jan 01 09:00:00 2025 +0100&#10;&#10;I">
<polygon fill="#cdad00" stroke="#cdad00" points="79.69,-179.76 70,-179.76 70,-161.82 79.69,-161.82 79.69,-179.76"/>
<text text-anchor="middle" x="74.84" y="-165.74" font-family="Courier,monospace" font-size="14.00">I</text>
</a>
</g>
</g>
<!-- c19917c9cdf5844b315395b7231ee2a60656a300&#45;&gt;0d836f91f9b1b433f80f592a9187777104999694 -->
<g id="edge7" class="edge">
<title>c19917c9cdf5844b315395b7231ee2a60656a300&#45;&gt;0d836f91f9b1b433f80f592a9187777104999694</title>
<path fill="none" stroke="#1a1a1a" d="M80.75,-125.97C79.7,-133.77 78.09,-145.75 76.81,-155.21"/>
<polygon fill="#1a1a1a" stroke="#1a1a1a" points="75.09,-154.87 76.16,-160.06 78.56,-155.34 75.09,-154.87"/>
</g>
<!-- 55998ac421051381aa925084222f120a13bb6923 -->
<g id="node10" class="node">
<title>55998ac421051381aa925084222f120a13bb6923</title>
<g id="a_node10"><a xlink:title="author: First Last &lt;first.last@mail.com&gt;&#10;Wed Jan 01 09:00:00 2025 +0100&#10;committer: Nom Prenom &lt;nom.prenom@mail.com&gt;&#10;Wed Jan 01 09:00:00 2025 +0100&#10;&#10;J">
<polygon fill="#cdad00" stroke="#cdad00" points="107.69,-179.76 98,-179.76 98,-161.82 107.69,-161.82 107.69,-179.76"/>
<text text-anchor="middle" x="102.84" y="-165.74" font-family="Courier,monospace" font-size="14.00">J</text>
</a>
</g>
</g>
<!-- c19917c9cdf5844b315395b7231ee2a60656a300&#45;&gt;55998ac421051381aa925084222f120a13bb6923 -->
<g id="edge8" class="edge">
<title>c19917c9cdf5844b315395b7231ee2a60656a300&#45;&gt;55998ac421051381aa925084222f120a13bb6923</title>
<path fill="none" stroke="#1a1a1a" d="M85.13,-125.97C88.34,-133.92 93.31,-146.22 97.17,-155.76"/>
<polygon fill="#1a1a1a" stroke="#1a1a1a" points="95.45,-156.18 98.95,-160.16 98.7,-154.87 95.45,-156.18"/>
</g>
</g>
</svg>
