<?xml version="1.0" encoding="UTF-8" standalone="no"?>
<!DOCTYPE svg PUBLIC "-//W3C//DTD SVG 1.1//EN"
 "http://www.w3.org/Graphics/SVG/1.1/DTD/svg11.dtd">
<!-- Generated by graphviz version 12.1.0 (20240811.2233)
 -->
<!-- Pages: 1 -->
<svg width="147pt" height="153pt"
 viewBox="0.00 0.00 147.00 152.88" xmlns="http://www.w3.org/2000/svg" xmlns:xlink="http://www.w3.org/1999/xlink">
<g id="graph0" class="graph" transform="scale(1 1) rotate(0) translate(4 148.88)">
<polygon fill="white" stroke="none" points="-4,4 -4,-148.88 143,-148.88 143,4 -4,4"/>
<g id="clust1" class="cluster">
<title>cluster_standalone</title>
<polygon fill="white" stroke="lightgrey" points="8,-8 8,-136.88 131,-136.88 131,-8 8,-8"/>
<text text-anchor="middle" x="69.5" y="-119.58" font-family="Courier,monospace" font-size="14.00">Standalone</text>
<text text-anchor="middle" x="69.5" y="-103.08" font-family="Courier,monospace" font-size="14.00">Trees &amp; Blobs</text>
</g>
<!-- 83baae61804e65cc73a7201a7252750c76066a30 -->
<g id="node1" class="node">
<title>83baae61804e65cc73a7201a7252750c76066a30</title>
<g id="a_node1"><a xlink:title="83baae61804e65cc73a7201a7252750c76066a30">
<polygon fill="gray" stroke="gray" points="95.61,-87.88 39.41,-87.88 39.41,-69.94 98.59,-69.94 98.59,-84.89 95.61,-87.88"/>
<polyline fill="none" stroke="gray" points="95.61,-87.88 95.61,-84.89"/>
<polyline fill="none" stroke="gray" points="98.59,-84.89 95.61,-84.89"/>
<text text-anchor="middle" x="69" y="-73.86" font-family="Courier,monospace" font-size="14.00">83baae6</text>
</a>
</g>
</g>
<!-- d670460b4b4aece5915caf5c68d12f560a9fe3e4 -->
<g id="node2" class="node">
<title>d670460b4b4aece5915caf5c68d12f560a9fe3e4</title>
<g id="a_node2"><a xlink:title="d670460b4b4aece5915caf5c68d12f560a9fe3e4">
<polygon fill="gray" stroke="gray" points="95.61,-33.94 39.41,-33.94 39.41,-16 98.59,-16 98.59,-30.95 95.61,-33.94"/>
<polyline fill="none" stroke="gray" points="95.61,-33.94 95.61,-30.95"/>
<polyline fill="none" stroke="gray" points="98.59,-30.95 95.61,-30.95"/>
<text text-anchor="middle" x="69" y="-19.92" font-family="Courier,monospace" font-size="14.00">d670460</text>
</a>
</g>
</g>
<!-- 83baae61804e65cc73a7201a7252750c76066a30&#45;&gt;d670460b4b4aece5915caf5c68d12f560a9fe3e4 -->
</g>
</svg>
