<?xml version="1.0" encoding="UTF-8" standalone="no"?>
<!DOCTYPE svg PUBLIC "-//W3C//DTD SVG 1.1//EN"
 "http://www.w3.org/Graphics/SVG/1.1/DTD/svg11.dtd">
<!-- Generated by graphviz version 12.1.0 (20240811.2233)
 -->
<!-- Pages: 1 -->
<svg width="177pt" height="207pt"
 viewBox="0.00 0.00 177.00 206.82" xmlns="http://www.w3.org/2000/svg" xmlns:xlink="http://www.w3.org/1999/xlink">
<g id="graph0" class="graph" transform="scale(1 1) rotate(0) translate(4 202.82)">
<polygon fill="white" stroke="none" points="-4,4 -4,-202.82 173,-202.82 173,4 -4,4"/>
<g id="clust1" class="cluster">
<title>cluster_standalone</title>
<polygon fill="white" stroke="lightgrey" points="8,-8 8,-190.82 161,-190.82 161,-8 8,-8"/>
<text text-anchor="middle" x="84.5" y="-173.52" font-family="Courier,monospace" font-size="14.00">Standalone</text>
<text text-anchor="middle" x="84.5" y="-157.02" font-family="Courier,monospace" font-size="14.00">Trees &amp; Blobs</text>
</g>
<!-- d8329fc1cc938780ffdd9f94e0d364e0ea74f579 -->
<g id="node1" class="node">
<title>d8329fc1cc938780ffdd9f94e0d364e0ea74f579</title>
<g id="a_node1"><a xlink:title="d8329fc1cc938780ffdd9f94e0d364e0ea74f579">
<polygon fill="#00688b" stroke="#00688b" points="75.59,-141.82 74.1,-143.81 63.63,-143.81 62.14,-141.82 16.41,-141.82 16.41,-123.88 75.59,-123.88 75.59,-141.82"/>
<text text-anchor="middle" x="46" y="-127.8" font-family="Courier,monospace" font-size="14.00">d8329fc</text>
</a>
</g>
</g>
<!-- 83baae61804e65cc73a7201a7252750c76066a30 -->
<g id="node2" class="node">
<title>83baae61804e65cc73a7201a7252750c76066a30</title>
<g id="a_node2"><a xlink:title="test.txt">
<polygon fill="gray" stroke="gray" points="110.61,-87.88 54.41,-87.88 54.41,-69.94 113.59,-69.94 113.59,-84.89 110.61,-87.88"/>
<polyline fill="none" stroke="gray" points="110.61,-87.88 110.61,-84.89"/>
<polyline fill="none" stroke="gray" points="113.59,-84.89 110.61,-84.89"/>
<text text-anchor="middle" x="84" y="-73.86" font-family="Courier,monospace" font-size="14.00">83baae6</text>
</a>
</g>
</g>
<!-- d8329fc1cc938780ffdd9f94e0d364e0ea74f579&#45;&gt;83baae61804e65cc73a7201a7252750c76066a30 -->
<g id="edge1" class="edge">
<title>d8329fc1cc938780ffdd9f94e0d364e0ea74f579&#45;&gt;83baae61804e65cc73a7201a7252750c76066a30</title>
<path fill="none" stroke="#1a1a1a" d="M51.94,-123.73C57.93,-115.55 67.27,-102.78 74.33,-93.13"/>
<polygon fill="#1a1a1a" stroke="#1a1a1a" points="75.55,-94.43 77.09,-89.36 72.72,-92.36 75.55,-94.43"/>
</g>
<!-- d670460b4b4aece5915caf5c68d12f560a9fe3e4 -->
<g id="node4" class="node">
<title>d670460b4b4aece5915caf5c68d12f560a9fe3e4</title>
<g id="a_node4"><a xlink:title="d670460b4b4aece5915caf5c68d12f560a9fe3e4">
<polygon fill="gray" stroke="gray" points="110.61,-33.94 54.41,-33.94 54.41,-16 113.59,-16 113.59,-30.95 110.61,-33.94"/>
<polyline fill="none" stroke="gray" points="110.61,-33.94 110.61,-30.95"/>
<polyline fill="none" stroke="gray" points="113.59,-30.95 110.61,-30.95"/>
<text text-anchor="middle" x="84" y="-19.92" font-family="Courier,monospace" font-size="14.00">d670460</text>
</a>
</g>
</g>
<!-- 83baae61804e65cc73a7201a7252750c76066a30&#45;&gt;d670460b4b4aece5915caf5c68d12f560a9fe3e4 -->
<!-- 1f7a7a472abf3dd9643fd615f6da379c4acb3e3a -->
<g id="node3" class="node">
<title>1f7a7a472abf3dd9643fd615f6da379c4acb3e3a</title>
<g id="a_node3"><a xlink:title="1f7a7a472abf3dd9643fd615f6da379c4acb3e3a">
<polygon fill="gray" stroke="gray" points="149.6,-141.82 93.41,-141.82 93.41,-123.88 152.59,-123.88 152.59,-138.83 149.6,-141.82"/>
<polyline fill="none" stroke="gray" points="149.6,-141.82 149.6,-138.83"/>
<polyline fill="none" stroke="gray" points="152.59,-138.83 149.6,-138.83"/>
<text text-anchor="middle" x="123" y="-127.8" font-family="Courier,monospace" font-size="14.00">1f7a7a4</text>
</a>
</g>
</g>
<!-- 1f7a7a472abf3dd9643fd615f6da379c4acb3e3a&#45;&gt;83baae61804e65cc73a7201a7252750c76066a30 -->
</g>
</svg>
