<?xml version="1.0" encoding="UTF-8" standalone="no"?>
<!DOCTYPE svg PUBLIC "-//W3C//DTD SVG 1.1//EN"
 "http://www.w3.org/Graphics/SVG/1.1/DTD/svg11.dtd">
<!-- Generated by graphviz version 12.1.0 (20240811.2233)
 -->
<!-- Pages: 1 -->
<svg width="197pt" height="315pt"
 viewBox="0.00 0.00 197.00 314.70" xmlns="http://www.w3.org/2000/svg" xmlns:xlink="http://www.w3.org/1999/xlink">
<g id="graph0" class="graph" transform="scale(1 1) rotate(0) translate(4 310.7)">
<polygon fill="white" stroke="none" points="-4,4 -4,-310.7 193,-310.7 193,4 -4,4"/>
<g id="clust1" class="cluster">
<title>cluster_standalone</title>
<polygon fill="white" stroke="lightgrey" points="8,-8 8,-298.7 181,-298.7 181,-8 8,-8"/>
<text text-anchor="middle" x="94.5" y="-281.4" font-family="Courier,monospace" font-size="14.00">Standalone</text>
<text text-anchor="middle" x="94.5" y="-264.9" font-family="Courier,monospace" font-size="14.00">Trees &amp; Blobs</text>
</g>
<!-- 0155eb4229851634a0f03eb265b69f5a2d56f341 -->
<g id="node1" class="node">
<title>0155eb4229851634a0f03eb265b69f5a2d56f341</title>
<g id="a_node1"><a xlink:title="0155eb4229851634a0f03eb265b69f5a2d56f341">
<polygon fill="#00688b" stroke="#00688b" points="152.59,-249.7 151.1,-251.69 140.64,-251.69 139.14,-249.7 93.41,-249.7 93.41,-231.76 152.59,-231.76 152.59,-249.7"/>
<text text-anchor="middle" x="123" y="-235.68" font-family="Courier,monospace" font-size="14.00">0155eb4</text>
</a>
</g>
</g>
<!-- 1f7a7a472abf3dd9643fd615f6da379c4acb3e3a -->
<g id="node2" class="node">
<title>1f7a7a472abf3dd9643fd615f6da379c4acb3e3a</title>
<g id="a_node2"><a xlink:title="test.txt">
<polygon fill="gray" stroke="gray" points="72.61,-195.76 16.41,-195.76 16.41,-177.82 75.59,-177.82 75.59,-192.77 72.61,-195.76"/>
<polyline fill="none" stroke="gray" points="72.61,-195.76 72.61,-192.77"/>
<polyline fill="none" stroke="gray" points="75.59,-192.77 72.61,-192.77"/>
<text text-anchor="middle" x="46" y="-181.74" font-family="Courier,monospace" font-size="14.00">1f7a7a4</text>
</a>
</g>
</g>
<!-- 0155eb4229851634a0f03eb265b69f5a2d56f341&#45;&gt;1f7a7a472abf3dd9643fd615f6da379c4acb3e3a -->
<g id="edge1" class="edge">
<title>0155eb4229851634a0f03eb265b69f5a2d56f341&#45;&gt;1f7a7a472abf3dd9643fd615f6da379c4acb3e3a</title>
<path fill="none" stroke="#1a1a1a" d="M110.63,-231.38C97.94,-222.83 78.09,-209.44 63.74,-199.75"/>
<polygon fill="#1a1a1a" stroke="#1a1a1a" points="64.72,-198.31 59.6,-196.96 62.76,-201.21 64.72,-198.31"/>
</g>
<!-- fa49b077972391ad58037050f2a75f74e3671e92 -->
<g id="node3" class="node">
<title>fa49b077972391ad58037050f2a75f74e3671e92</title>
<g id="a_node3"><a xlink:title="new.txt">
<polygon fill="gray" stroke="gray" points="159.6,-33.94 103.41,-33.94 103.41,-16 162.59,-16 162.59,-30.95 159.6,-33.94"/>
<polyline fill="none" stroke="gray" points="159.6,-33.94 159.6,-30.95"/>
<polyline fill="none" stroke="gray" points="162.59,-30.95 159.6,-30.95"/>
<text text-anchor="middle" x="133" y="-19.92" font-family="Courier,monospace" font-size="14.00">fa49b07</text>
</a>
</g>
</g>
<!-- 0155eb4229851634a0f03eb265b69f5a2d56f341&#45;&gt;fa49b077972391ad58037050f2a75f74e3671e92 -->
<g id="edge2" class="edge">
<title>0155eb4229851634a0f03eb265b69f5a2d56f341&#45;&gt;fa49b077972391ad58037050f2a75f74e3671e92</title>
<path fill="none" stroke="#1a1a1a" d="M133.98,-231.35C143.44,-223.38 156.42,-210.45 162,-195.76 181.84,-143.48 178.07,-123.5 162,-69.94 158.56,-58.48 151.06,-47.25 144.55,-39.01"/>
<polygon fill="#1a1a1a" stroke="#1a1a1a" points="146.16,-38.2 141.63,-35.45 143.45,-40.43 146.16,-38.2"/>
</g>
<!-- d8329fc1cc938780ffdd9f94e0d364e0ea74f579 -->
<g id="node4" class="node">
<title>d8329fc1cc938780ffdd9f94e0d364e0ea74f579</title>
<g id="a_node4"><a xlink:title="d8329fc1cc938780ffdd9f94e0d364e0ea74f579">
<polygon fill="#00688b" stroke="#00688b" points="152.59,-195.76 151.1,-197.75 140.64,-197.75 139.14,-195.76 93.41,-195.76 93.41,-177.82 152.59,-177.82 152.59,-195.76"/>
<text text-anchor="middle" x="123" y="-181.74" font-family="Courier,monospace" font-size="14.00">d8329fc</text>
</a>
</g>
</g>
<!-- 0155eb4229851634a0f03eb265b69f5a2d56f341&#45;&gt;d8329fc1cc938780ffdd9f94e0d364e0ea74f579 -->
<!-- 83baae61804e65cc73a7201a7252750c76066a30 -->
<g id="node5" class="node">
<title>83baae61804e65cc73a7201a7252750c76066a30</title>
<g id="a_node5"><a xlink:title="test.txt">
<polygon fill="gray" stroke="gray" points="149.6,-141.82 93.41,-141.82 93.41,-123.88 152.59,-123.88 152.59,-138.83 149.6,-141.82"/>
<polyline fill="none" stroke="gray" points="149.6,-141.82 149.6,-138.83"/>
<polyline fill="none" stroke="gray" points="152.59,-138.83 149.6,-138.83"/>
<text text-anchor="middle" x="123" y="-127.8" font-family="Courier,monospace" font-size="14.00">83baae6</text>
</a>
</g>
</g>
<!-- 1f7a7a472abf3dd9643fd615f6da379c4acb3e3a&#45;&gt;83baae61804e65cc73a7201a7252750c76066a30 -->
<!-- d8329fc1cc938780ffdd9f94e0d364e0ea74f579&#45;&gt;83baae61804e65cc73a7201a7252750c76066a30 -->
<g id="edge3" class="edge">
<title>d8329fc1cc938780ffdd9f94e0d364e0ea74f579&#45;&gt;83baae61804e65cc73a7201a7252750c76066a30</title>
<path fill="none" stroke="#1a1a1a" d="M123,-177.67C123,-169.87 123,-157.89 123,-148.43"/>
<polygon fill="#1a1a1a" stroke="#1a1a1a" points="124.75,-148.59 123,-143.59 121.25,-148.59 124.75,-148.59"/>
</g>
<!-- d670460b4b4aece5915caf5c68d12f560a9fe3e4 -->
<g id="node6" class="node">
<title>d670460b4b4aece5915caf5c68d12f560a9fe3e4</title>
<g id="a_node6"><a xlink:title="d670460b4b4aece5915caf5c68d12f560a9fe3e4">
<polygon fill="gray" stroke="gray" points="149.6,-87.88 93.41,-87.88 93.41,-69.94 152.59,-69.94 152.59,-84.89 149.6,-87.88"/>
<polyline fill="none" stroke="gray" points="149.6,-87.88 149.6,-84.89"/>
<polyline fill="none" stroke="gray" points="152.59,-84.89 149.6,-84.89"/>
<text text-anchor="middle" x="123" y="-73.86" font-family="Courier,monospace" font-size="14.00">d670460</text>
</a>
</g>
</g>
<!-- 83baae61804e65cc73a7201a7252750c76066a30&#45;&gt;d670460b4b4aece5915caf5c68d12f560a9fe3e4 -->
<!-- d670460b4b4aece5915caf5c68d12f560a9fe3e4&#45;&gt;fa49b077972391ad58037050f2a75f74e3671e92 -->
</g>
</svg>
