<?xml version="1.0" encoding="UTF-8" standalone="no"?>
<!DOCTYPE svg PUBLIC "-//W3C//DTD SVG 1.1//EN"
 "http://www.w3.org/Graphics/SVG/1.1/DTD/svg11.dtd">
<!-- Generated by graphviz version 12.1.0 (20240811.2233)
 -->
<!-- Pages: 1 -->
<svg width="217pt" height="369pt"
 viewBox="0.00 0.00 217.00 368.64" xmlns="http://www.w3.org/2000/svg" xmlns:xlink="http://www.w3.org/1999/xlink">
<g id="graph0" class="graph" transform="scale(1 1) rotate(0) translate(4 364.64)">
<polygon fill="white" stroke="none" points="-4,4 -4,-364.64 213,-364.64 213,4 -4,4"/>
<g id="clust1" class="cluster">
<title>cluster_standalone</title>
<polygon fill="white" stroke="lightgrey" points="8,-8 8,-352.64 201,-352.64 201,-8 8,-8"/>
<text text-anchor="middle" x="104.5" y="-335.34" font-family="Courier,monospace" font-size="14.00">Standalone</text>
<text text-anchor="middle" x="104.5" y="-318.84" font-family="Courier,monospace" font-size="14.00">Trees &amp; Blobs</text>
</g>
<!-- 0155eb4229851634a0f03eb265b69f5a2d56f341 -->
<g id="node1" class="node">
<title>0155eb4229851634a0f03eb265b69f5a2d56f341</title>
<g id="a_node1"><a xlink:title="0155eb4229851634a0f03eb265b69f5a2d56f341">
<polygon fill="#00688b" stroke="#00688b" points="95.59,-303.64 94.1,-305.63 83.63,-305.63 82.14,-303.64 36.41,-303.64 36.41,-285.7 95.59,-285.7 95.59,-303.64"/>
<text text-anchor="middle" x="66" y="-289.62" font-family="Courier,monospace" font-size="14.00">0155eb4</text>
</a>
</g>
</g>
<!-- 1f7a7a472abf3dd9643fd615f6da379c4acb3e3a -->
<g id="node2" class="node">
<title>1f7a7a472abf3dd9643fd615f6da379c4acb3e3a</title>
<g id="a_node2"><a xlink:title="test.txt">
<polygon fill="gray" stroke="gray" points="92.61,-195.76 36.41,-195.76 36.41,-177.82 95.59,-177.82 95.59,-192.77 92.61,-195.76"/>
<polyline fill="none" stroke="gray" points="92.61,-195.76 92.61,-192.77"/>
<polyline fill="none" stroke="gray" points="95.59,-192.77 92.61,-192.77"/>
<text text-anchor="middle" x="66" y="-181.74" font-family="Courier,monospace" font-size="14.00">1f7a7a4</text>
</a>
</g>
</g>
<!-- 0155eb4229851634a0f03eb265b69f5a2d56f341&#45;&gt;1f7a7a472abf3dd9643fd615f6da379c4acb3e3a -->
<g id="edge1" class="edge">
<title>0155eb4229851634a0f03eb265b69f5a2d56f341&#45;&gt;1f7a7a472abf3dd9643fd615f6da379c4acb3e3a</title>
<path fill="none" stroke="#1a1a1a" d="M66,-285.36C66,-267.42 66,-224.88 66,-202.36"/>
<polygon fill="#1a1a1a" stroke="#1a1a1a" points="67.75,-202.57 66,-197.57 64.25,-202.57 67.75,-202.57"/>
</g>
<!-- fa49b077972391ad58037050f2a75f74e3671e92 -->
<g id="node3" class="node">
<title>fa49b077972391ad58037050f2a75f74e3671e92</title>
<g id="a_node3"><a xlink:title="new.txt">
<polygon fill="gray" stroke="gray" points="130.6,-33.94 74.41,-33.94 74.41,-16 133.59,-16 133.59,-30.95 130.6,-33.94"/>
<polyline fill="none" stroke="gray" points="130.6,-33.94 130.6,-30.95"/>
<polyline fill="none" stroke="gray" points="133.59,-30.95 130.6,-30.95"/>
<text text-anchor="middle" x="104" y="-19.92" font-family="Courier,monospace" font-size="14.00">fa49b07</text>
</a>
</g>
</g>
<!-- 0155eb4229851634a0f03eb265b69f5a2d56f341&#45;&gt;fa49b077972391ad58037050f2a75f74e3671e92 -->
<g id="edge2" class="edge">
<title>0155eb4229851634a0f03eb265b69f5a2d56f341&#45;&gt;fa49b077972391ad58037050f2a75f74e3671e92</title>
<path fill="none" stroke="#1a1a1a" d="M58.98,-285.23C45.43,-268.05 17,-227.29 17,-187.79 17,-187.79 17,-187.79 17,-131.85 17,-89.43 59.21,-54.73 84.83,-37.58"/>
<polygon fill="#1a1a1a" stroke="#1a1a1a" points="85.52,-39.22 88.75,-35.02 83.61,-36.29 85.52,-39.22"/>
</g>
<!-- 3c4e9cd789d88d8d89c1073707c3585e41b0e614 -->
<g id="node4" class="node">
<title>3c4e9cd789d88d8d89c1073707c3585e41b0e614</title>
<g id="a_node4"><a xlink:title="3c4e9cd789d88d8d89c1073707c3585e41b0e614">
<polygon fill="#00688b" stroke="#00688b" points="172.59,-249.7 171.1,-251.69 160.64,-251.69 159.14,-249.7 113.41,-249.7 113.41,-231.76 172.59,-231.76 172.59,-249.7"/>
<text text-anchor="middle" x="143" y="-235.68" font-family="Courier,monospace" font-size="14.00">3c4e9cd</text>
</a>
</g>
</g>
<!-- 0155eb4229851634a0f03eb265b69f5a2d56f341&#45;&gt;3c4e9cd789d88d8d89c1073707c3585e41b0e614 -->
<!-- 83baae61804e65cc73a7201a7252750c76066a30 -->
<g id="node6" class="node">
<title>83baae61804e65cc73a7201a7252750c76066a30</title>
<g id="a_node6"><a xlink:title="test.txt">
<polygon fill="gray" stroke="gray" points="130.6,-141.82 74.41,-141.82 74.41,-123.88 133.59,-123.88 133.59,-138.83 130.6,-141.82"/>
<polyline fill="none" stroke="gray" points="130.6,-141.82 130.6,-138.83"/>
<polyline fill="none" stroke="gray" points="133.59,-138.83 130.6,-138.83"/>
<text text-anchor="middle" x="104" y="-127.8" font-family="Courier,monospace" font-size="14.00">83baae6</text>
</a>
</g>
</g>
<!-- 1f7a7a472abf3dd9643fd615f6da379c4acb3e3a&#45;&gt;83baae61804e65cc73a7201a7252750c76066a30 -->
<!-- 3c4e9cd789d88d8d89c1073707c3585e41b0e614&#45;&gt;1f7a7a472abf3dd9643fd615f6da379c4acb3e3a -->
<g id="edge3" class="edge">
<title>3c4e9cd789d88d8d89c1073707c3585e41b0e614&#45;&gt;1f7a7a472abf3dd9643fd615f6da379c4acb3e3a</title>
<path fill="none" stroke="#1a1a1a" d="M130.63,-231.38C117.94,-222.83 98.09,-209.44 83.74,-199.75"/>
<polygon fill="#1a1a1a" stroke="#1a1a1a" points="84.72,-198.31 79.6,-196.96 82.76,-201.21 84.72,-198.31"/>
</g>
<!-- 3c4e9cd789d88d8d89c1073707c3585e41b0e614&#45;&gt;fa49b077972391ad58037050f2a75f74e3671e92 -->
<g id="edge5" class="edge">
<title>3c4e9cd789d88d8d89c1073707c3585e41b0e614&#45;&gt;fa49b077972391ad58037050f2a75f74e3671e92</title>
<path fill="none" stroke="#1a1a1a" d="M153.98,-231.35C163.44,-223.38 176.42,-210.45 182,-195.76 184.83,-188.31 183.38,-185.67 182,-177.82 173.2,-127.6 169.05,-113.77 143,-69.94 136.05,-58.25 125.76,-46.81 117.5,-38.53"/>
<polygon fill="#1a1a1a" stroke="#1a1a1a" points="119.03,-37.58 114.23,-35.33 116.58,-40.08 119.03,-37.58"/>
</g>
<!-- d8329fc1cc938780ffdd9f94e0d364e0ea74f579 -->
<g id="node5" class="node">
<title>d8329fc1cc938780ffdd9f94e0d364e0ea74f579</title>
<g id="a_node5"><a xlink:title="bak">
<polygon fill="#00688b" stroke="#00688b" points="172.59,-195.76 171.1,-197.75 160.64,-197.75 159.14,-195.76 113.41,-195.76 113.41,-177.82 172.59,-177.82 172.59,-195.76"/>
<text text-anchor="middle" x="143" y="-181.74" font-family="Courier,monospace" font-size="14.00">d8329fc</text>
</a>
</g>
</g>
<!-- 3c4e9cd789d88d8d89c1073707c3585e41b0e614&#45;&gt;d8329fc1cc938780ffdd9f94e0d364e0ea74f579 -->
<g id="edge4" class="edge">
<title>3c4e9cd789d88d8d89c1073707c3585e41b0e614&#45;&gt;d8329fc1cc938780ffdd9f94e0d364e0ea74f579</title>
<path fill="none" stroke="#1a1a1a" d="M137.94,-231.61C136.13,-223.81 135.78,-211.83 136.86,-202.37"/>
<polygon fill="#1a1a1a" stroke="#1a1a1a" points="138.58,-202.73 137.66,-197.51 135.12,-202.16 138.58,-202.73"/>
</g>
<!-- 3c4e9cd789d88d8d89c1073707c3585e41b0e614&#45;&gt;d8329fc1cc938780ffdd9f94e0d364e0ea74f579 -->
<!-- d8329fc1cc938780ffdd9f94e0d364e0ea74f579&#45;&gt;83baae61804e65cc73a7201a7252750c76066a30 -->
<g id="edge6" class="edge">
<title>d8329fc1cc938780ffdd9f94e0d364e0ea74f579&#45;&gt;83baae61804e65cc73a7201a7252750c76066a30</title>
<path fill="none" stroke="#1a1a1a" d="M136.91,-177.67C130.76,-169.49 121.17,-156.72 113.93,-147.07"/>
<polygon fill="#1a1a1a" stroke="#1a1a1a" points="115.49,-146.24 111.09,-143.29 112.69,-148.34 115.49,-146.24"/>
</g>
<!-- d670460b4b4aece5915caf5c68d12f560a9fe3e4 -->
<g id="node7" class="node">
<title>d670460b4b4aece5915caf5c68d12f560a9fe3e4</title>
<g id="a_node7"><a xlink:title="d670460b4b4aece5915caf5c68d12f560a9fe3e4">
<polygon fill="gray" stroke="gray" points="130.6,-87.88 74.41,-87.88 74.41,-69.94 133.59,-69.94 133.59,-84.89 130.6,-87.88"/>
<polyline fill="none" stroke="gray" points="130.6,-87.88 130.6,-84.89"/>
<polyline fill="none" stroke="gray" points="133.59,-84.89 130.6,-84.89"/>
<text text-anchor="middle" x="104" y="-73.86" font-family="Courier,monospace" font-size="14.00">d670460</text>
</a>
</g>
</g>
<!-- 83baae61804e65cc73a7201a7252750c76066a30&#45;&gt;d670460b4b4aece5915caf5c68d12f560a9fe3e4 -->
<!-- d670460b4b4aece5915caf5c68d12f560a9fe3e4&#45;&gt;fa49b077972391ad58037050f2a75f74e3671e92 -->
</g>
</svg>
