<?xml version="1.0" encoding="UTF-8" standalone="no"?>
<!DOCTYPE svg PUBLIC "-//W3C//DTD SVG 1.1//EN"
 "http://www.w3.org/Graphics/SVG/1.1/DTD/svg11.dtd">
<!-- Generated by graphviz version 12.1.0 (20240811.2233)
 -->
<!-- Pages: 1 -->
<svg width="279pt" height="441pt"
 viewBox="0.00 0.00 278.60 440.52" xmlns="http://www.w3.org/2000/svg" xmlns:xlink="http://www.w3.org/1999/xlink">
<g id="graph0" class="graph" transform="scale(1 1) rotate(0) translate(4 436.52)">
<polygon fill="white" stroke="none" points="-4,4 -4,-436.52 274.6,-436.52 274.6,4 -4,4"/>
<g id="clust1" class="cluster">
<title>cluster_standalone</title>
<polygon fill="white" stroke="lightgrey" points="69.59,-8 69.59,-352.64 262.6,-352.64 262.6,-8 69.59,-8"/>
<text text-anchor="middle" x="166.09" y="-335.34" font-family="Courier,monospace" font-size="14.00">Standalone</text>
<text text-anchor="middle" x="166.09" y="-318.84" font-family="Courier,monospace" font-size="14.00">Trees &amp; Blobs</text>
</g>
<!-- 03c5025d075bbe625608593e3bf4671daebebcc4 -->
<g id="node1" class="node">
<title>03c5025d075bbe625608593e3bf4671daebebcc4</title>
<g id="a_node1"><a xlink:title="author: First Last &lt;first.last@mail.com&gt;&#10;Wed Jan 01 09:00:00 2025 +0100&#10;committer: Nom Prenom &lt;nom.prenom@mail.com&gt;&#10;Wed Jan 01 09:00:00 2025 +0100&#10;&#10;Second commit">
<polygon fill="darkorange" stroke="darkorange" points="157.19,-378.58 98,-378.58 98,-360.64 157.19,-360.64 157.19,-378.58"/>
<text text-anchor="middle" x="127.59" y="-364.56" font-family="Courier,monospace" font-size="14.00">03c5025</text>
</a>
</g>
</g>
<!-- fa26b470d9508bebe2029623de8770215ebb26a0 -->
<g id="node3" class="node">
<title>fa26b470d9508bebe2029623de8770215ebb26a0</title>
<g id="a_node3"><a xlink:title="author: First Last &lt;first.last@mail.com&gt;&#10;Wed Jan 01 09:00:00 2025 +0100&#10;committer: Nom Prenom &lt;nom.prenom@mail.com&gt;&#10;Wed Jan 01 09:00:00 2025 +0100&#10;&#10;First commit">
<polygon fill="darkorange" stroke="darkorange" points="59.19,-249.7 0,-249.7 0,-231.76 59.19,-231.76 59.19,-249.7"/>
<text text-anchor="middle" x="29.59" y="-235.68" font-family="Courier,monospace" font-size="14.00">fa26b47</text>
</a>
</g>
</g>
<!-- 03c5025d075bbe625608593e3bf4671daebebcc4&#45;&gt;fa26b470d9508bebe2029623de8770215ebb26a0 -->
<g id="edge4" class="edge">
<title>03c5025d075bbe625608593e3bf4671daebebcc4&#45;&gt;fa26b470d9508bebe2029623de8770215ebb26a0</title>
<path fill="none" stroke="#1a1a1a" d="M97.52,-366.9C86.28,-364.84 74.18,-360.71 65.59,-352.64 38.21,-326.89 31.61,-280.15 30.05,-256.41"/>
<polygon fill="#1a1a1a" stroke="#1a1a1a" points="31.81,-256.51 29.8,-251.61 28.31,-256.69 31.81,-256.51"/>
</g>
<!-- 0155eb4229851634a0f03eb265b69f5a2d56f341 -->
<g id="node4" class="node">
<title>0155eb4229851634a0f03eb265b69f5a2d56f341</title>
<g id="a_node4"><a xlink:title="0155eb4229851634a0f03eb265b69f5a2d56f341">
<polygon fill="#00688b" stroke="#00688b" points="157.19,-303.64 155.69,-305.63 145.23,-305.63 143.73,-303.64 98,-303.64 98,-285.7 157.19,-285.7 157.19,-303.64"/>
<text text-anchor="middle" x="127.59" y="-289.62" font-family="Courier,monospace" font-size="14.00">0155eb4</text>
</a>
</g>
</g>
<!-- 03c5025d075bbe625608593e3bf4671daebebcc4&#45;&gt;0155eb4229851634a0f03eb265b69f5a2d56f341 -->
<g id="edge3" class="edge">
<title>03c5025d075bbe625608593e3bf4671daebebcc4&#45;&gt;0155eb4229851634a0f03eb265b69f5a2d56f341</title>
<path fill="none" stroke="#1a1a1a" d="M127.59,-360.24C127.59,-348.04 127.59,-325.19 127.59,-310.21"/>
<polygon fill="#1a1a1a" stroke="#1a1a1a" points="129.35,-310.45 127.6,-305.45 125.85,-310.45 129.35,-310.45"/>
</g>
<!-- aa6ef7bc380e3e98362b4276d24b8046b1f4f758 -->
<g id="node2" class="node">
<title>aa6ef7bc380e3e98362b4276d24b8046b1f4f758</title>
<g id="a_node2"><a xlink:title="author: First Last &lt;first.last@mail.com&gt;&#10;Wed Jan 01 09:00:00 2025 +0100&#10;committer: Nom Prenom &lt;nom.prenom@mail.com&gt;&#10;Wed Jan 01 09:00:00 2025 +0100&#10;&#10;Third commit">
<polygon fill="darkorange" stroke="darkorange" points="186.19,-432.52 127,-432.52 127,-414.58 186.19,-414.58 186.19,-432.52"/>
<text text-anchor="middle" x="156.59" y="-418.5" font-family="Courier,monospace" font-size="14.00">aa6ef7b</text>
</a>
</g>
</g>
<!-- aa6ef7bc380e3e98362b4276d24b8046b1f4f758&#45;&gt;03c5025d075bbe625608593e3bf4671daebebcc4 -->
<g id="edge8" class="edge">
<title>aa6ef7bc380e3e98362b4276d24b8046b1f4f758&#45;&gt;03c5025d075bbe625608593e3bf4671daebebcc4</title>
<path fill="none" stroke="#1a1a1a" d="M152.06,-414.43C147.58,-406.4 140.63,-393.95 135.28,-384.37"/>
<polygon fill="#1a1a1a" stroke="#1a1a1a" points="136.89,-383.67 132.93,-380.16 133.84,-385.38 136.89,-383.67"/>
</g>
<!-- 3c4e9cd789d88d8d89c1073707c3585e41b0e614 -->
<g id="node7" class="node">
<title>3c4e9cd789d88d8d89c1073707c3585e41b0e614</title>
<g id="a_node7"><a xlink:title="3c4e9cd789d88d8d89c1073707c3585e41b0e614">
<polygon fill="#00688b" stroke="#00688b" points="229.19,-249.7 227.69,-251.69 217.23,-251.69 215.74,-249.7 170,-249.7 170,-231.76 229.19,-231.76 229.19,-249.7"/>
<text text-anchor="middle" x="199.59" y="-235.68" font-family="Courier,monospace" font-size="14.00">3c4e9cd</text>
</a>
</g>
</g>
<!-- aa6ef7bc380e3e98362b4276d24b8046b1f4f758&#45;&gt;3c4e9cd789d88d8d89c1073707c3585e41b0e614 -->
<g id="edge9" class="edge">
<title>aa6ef7bc380e3e98362b4276d24b8046b1f4f758&#45;&gt;3c4e9cd789d88d8d89c1073707c3585e41b0e614</title>
<path fill="none" stroke="#1a1a1a" d="M158.55,-414.31C165.3,-385.95 187.6,-292.15 196.19,-256.06"/>
<polygon fill="#1a1a1a" stroke="#1a1a1a" points="197.82,-256.76 197.27,-251.49 194.41,-255.95 197.82,-256.76"/>
</g>
<!-- d8329fc1cc938780ffdd9f94e0d364e0ea74f579 -->
<g id="node8" class="node">
<title>d8329fc1cc938780ffdd9f94e0d364e0ea74f579</title>
<g id="a_node8"><a xlink:title="bak">
<polygon fill="#00688b" stroke="#00688b" points="234.19,-195.76 232.69,-197.75 222.23,-197.75 220.74,-195.76 175,-195.76 175,-177.82 234.19,-177.82 234.19,-195.76"/>
<text text-anchor="middle" x="204.59" y="-181.74" font-family="Courier,monospace" font-size="14.00">d8329fc</text>
</a>
</g>
</g>
<!-- fa26b470d9508bebe2029623de8770215ebb26a0&#45;&gt;d8329fc1cc938780ffdd9f94e0d364e0ea74f579 -->
<g id="edge11" class="edge">
<title>fa26b470d9508bebe2029623de8770215ebb26a0&#45;&gt;d8329fc1cc938780ffdd9f94e0d364e0ea74f579</title>
<path fill="none" stroke="#1a1a1a" d="M58.1,-231.27C88.74,-222.18 137.43,-207.72 170.18,-198"/>
<polygon fill="#1a1a1a" stroke="#1a1a1a" points="170.35,-199.78 174.65,-196.68 169.36,-196.42 170.35,-199.78"/>
</g>
<!-- 1f7a7a472abf3dd9643fd615f6da379c4acb3e3a -->
<g id="node5" class="node">
<title>1f7a7a472abf3dd9643fd615f6da379c4acb3e3a</title>
<g id="a_node5"><a xlink:title="test.txt">
<polygon fill="gray" stroke="gray" points="154.2,-195.76 98,-195.76 98,-177.82 157.19,-177.82 157.19,-192.77 154.2,-195.76"/>
<polyline fill="none" stroke="gray" points="154.2,-195.76 154.2,-192.77"/>
<polyline fill="none" stroke="gray" points="157.19,-192.77 154.2,-192.77"/>
<text text-anchor="middle" x="127.59" y="-181.74" font-family="Courier,monospace" font-size="14.00">1f7a7a4</text>
</a>
</g>
</g>
<!-- 0155eb4229851634a0f03eb265b69f5a2d56f341&#45;&gt;1f7a7a472abf3dd9643fd615f6da379c4acb3e3a -->
<g id="edge1" class="edge">
<title>0155eb4229851634a0f03eb265b69f5a2d56f341&#45;&gt;1f7a7a472abf3dd9643fd615f6da379c4acb3e3a</title>
<path fill="none" stroke="#1a1a1a" d="M127.59,-285.36C127.59,-267.42 127.59,-224.88 127.59,-202.36"/>
<polygon fill="#1a1a1a" stroke="#1a1a1a" points="129.35,-202.57 127.6,-197.57 125.85,-202.57 129.35,-202.57"/>
</g>
<!-- fa49b077972391ad58037050f2a75f74e3671e92 -->
<g id="node6" class="node">
<title>fa49b077972391ad58037050f2a75f74e3671e92</title>
<g id="a_node6"><a xlink:title="new.txt">
<polygon fill="gray" stroke="gray" points="192.2,-33.94 136,-33.94 136,-16 195.19,-16 195.19,-30.95 192.2,-33.94"/>
<polyline fill="none" stroke="gray" points="192.2,-33.94 192.2,-30.95"/>
<polyline fill="none" stroke="gray" points="195.19,-30.95 192.2,-30.95"/>
<text text-anchor="middle" x="165.59" y="-19.92" font-family="Courier,monospace" font-size="14.00">fa49b07</text>
</a>
</g>
</g>
<!-- 0155eb4229851634a0f03eb265b69f5a2d56f341&#45;&gt;fa49b077972391ad58037050f2a75f74e3671e92 -->
<g id="edge2" class="edge">
<title>0155eb4229851634a0f03eb265b69f5a2d56f341&#45;&gt;fa49b077972391ad58037050f2a75f74e3671e92</title>
<path fill="none" stroke="#1a1a1a" d="M120.57,-285.23C107.03,-268.05 78.59,-227.29 78.59,-187.79 78.59,-187.79 78.59,-187.79 78.59,-131.85 78.59,-89.43 120.81,-54.73 146.42,-37.58"/>
<polygon fill="#1a1a1a" stroke="#1a1a1a" points="147.12,-39.22 150.35,-35.02 145.21,-36.29 147.12,-39.22"/>
</g>
<!-- 0155eb4229851634a0f03eb265b69f5a2d56f341&#45;&gt;3c4e9cd789d88d8d89c1073707c3585e41b0e614 -->
<!-- 83baae61804e65cc73a7201a7252750c76066a30 -->
<g id="node9" class="node">
<title>83baae61804e65cc73a7201a7252750c76066a30</title>
<g id="a_node9"><a xlink:title="test.txt">
<polygon fill="gray" stroke="gray" points="192.2,-141.82 136,-141.82 136,-123.88 195.19,-123.88 195.19,-138.83 192.2,-141.82"/>
<polyline fill="none" stroke="gray" points="192.2,-141.82 192.2,-138.83"/>
<polyline fill="none" stroke="gray" points="195.19,-138.83 192.2,-138.83"/>
<text text-anchor="middle" x="165.59" y="-127.8" font-family="Courier,monospace" font-size="14.00">83baae6</text>
</a>
</g>
</g>
<!-- 1f7a7a472abf3dd9643fd615f6da379c4acb3e3a&#45;&gt;83baae61804e65cc73a7201a7252750c76066a30 -->
<!-- 3c4e9cd789d88d8d89c1073707c3585e41b0e614&#45;&gt;1f7a7a472abf3dd9643fd615f6da379c4acb3e3a -->
<g id="edge5" class="edge">
<title>3c4e9cd789d88d8d89c1073707c3585e41b0e614&#45;&gt;1f7a7a472abf3dd9643fd615f6da379c4acb3e3a</title>
<path fill="none" stroke="#1a1a1a" d="M188.03,-231.38C176.1,-222.78 157.38,-209.28 143.94,-199.58"/>
<polygon fill="#1a1a1a" stroke="#1a1a1a" points="145.2,-198.33 140.12,-196.83 143.16,-201.17 145.2,-198.33"/>
</g>
<!-- 3c4e9cd789d88d8d89c1073707c3585e41b0e614&#45;&gt;fa49b077972391ad58037050f2a75f74e3671e92 -->
<g id="edge7" class="edge">
<title>3c4e9cd789d88d8d89c1073707c3585e41b0e614&#45;&gt;fa49b077972391ad58037050f2a75f74e3671e92</title>
<path fill="none" stroke="#1a1a1a" d="M212.37,-231.36C222.98,-223.58 237.31,-210.92 243.59,-195.76 246.65,-188.39 244.97,-185.67 243.59,-177.82 234.8,-127.6 230.64,-113.77 204.59,-69.94 197.65,-58.25 187.36,-46.81 179.09,-38.53"/>
<polygon fill="#1a1a1a" stroke="#1a1a1a" points="180.62,-37.58 175.83,-35.33 178.18,-40.08 180.62,-37.58"/>
</g>
<!-- 3c4e9cd789d88d8d89c1073707c3585e41b0e614&#45;&gt;d8329fc1cc938780ffdd9f94e0d364e0ea74f579 -->
<g id="edge6" class="edge">
<title>3c4e9cd789d88d8d89c1073707c3585e41b0e614&#45;&gt;d8329fc1cc938780ffdd9f94e0d364e0ea74f579</title>
<path fill="none" stroke="#1a1a1a" d="M195.31,-231.61C194.25,-223.73 195.07,-211.6 197.11,-202.09"/>
<polygon fill="#1a1a1a" stroke="#1a1a1a" points="198.75,-202.76 198.33,-197.48 195.36,-201.87 198.75,-202.76"/>
</g>
<!-- 3c4e9cd789d88d8d89c1073707c3585e41b0e614&#45;&gt;d8329fc1cc938780ffdd9f94e0d364e0ea74f579 -->
<!-- d8329fc1cc938780ffdd9f94e0d364e0ea74f579&#45;&gt;83baae61804e65cc73a7201a7252750c76066a30 -->
<g id="edge10" class="edge">
<title>d8329fc1cc938780ffdd9f94e0d364e0ea74f579&#45;&gt;83baae61804e65cc73a7201a7252750c76066a30</title>
<path fill="none" stroke="#1a1a1a" d="M198.5,-177.67C192.36,-169.49 182.77,-156.72 175.52,-147.07"/>
<polygon fill="#1a1a1a" stroke="#1a1a1a" points="177.09,-146.24 172.68,-143.29 174.29,-148.34 177.09,-146.24"/>
</g>
<!-- d670460b4b4aece5915caf5c68d12f560a9fe3e4 -->
<g id="node10" class="node">
<title>d670460b4b4aece5915caf5c68d12f560a9fe3e4</title>
<g id="a_node10"><a xlink:title="d670460b4b4aece5915caf5c68d12f560a9fe3e4">
<polygon fill="gray" stroke="gray" points="192.2,-87.88 136,-87.88 136,-69.94 195.19,-69.94 195.19,-84.89 192.2,-87.88"/>
<polyline fill="none" stroke="gray" points="192.2,-87.88 192.2,-84.89"/>
<polyline fill="none" stroke="gray" points="195.19,-84.89 192.2,-84.89"/>
<text text-anchor="middle" x="165.59" y="-73.86" font-family="Courier,monospace" font-size="14.00">d670460</text>
</a>
</g>
</g>
<!-- 83baae61804e65cc73a7201a7252750c76066a30&#45;&gt;d670460b4b4aece5915caf5c68d12f560a9fe3e4 -->
<!-- d670460b4b4aece5915caf5c68d12f560a9fe3e4&#45;&gt;fa49b077972391ad58037050f2a75f74e3671e92 -->
</g>
</svg>
