<?xml version="1.0" encoding="UTF-8" standalone="no"?>
<!DOCTYPE svg PUBLIC "-//W3C//DTD SVG 1.1//EN"
 "http://www.w3.org/Graphics/SVG/1.1/DTD/svg11.dtd">
<!-- Generated by graphviz version 12.1.0 (20240811.2233)
 -->
<!-- Pages: 1 -->
<svg width="286pt" height="387pt"
 viewBox="0.00 0.00 286.22 386.58" xmlns="http://www.w3.org/2000/svg" xmlns:xlink="http://www.w3.org/1999/xlink">
<g id="graph0" class="graph" transform="scale(1 1) rotate(0) translate(4 382.58)">
<polygon fill="white" stroke="none" points="-4,4 -4,-382.58 282.22,-382.58 282.22,4 -4,4"/>
<g id="clust1" class="cluster">
<title>cluster_standalone</title>
<polygon fill="white" stroke="lightgrey" points="8,-8 8,-298.7 131,-298.7 131,-8 8,-8"/>
<text text-anchor="middle" x="69.5" y="-281.4" font-family="Courier,monospace" font-size="14.00">Standalone</text>
<text text-anchor="middle" x="69.5" y="-264.9" font-family="Courier,monospace" font-size="14.00">Trees &amp; Blobs</text>
</g>
<!-- 03c5025d075bbe625608593e3bf4671daebebcc4 -->
<g id="node1" class="node">
<title>03c5025d075bbe625608593e3bf4671daebebcc4</title>
<g id="a_node1"><a xlink:title="author: First Last &lt;first.last@mail.com&gt;&#10;Wed Jan 01 09:00:00 2025 +0100&#10;committer: Nom Prenom &lt;nom.prenom@mail.com&gt;&#10;Wed Jan 01 09:00:00 2025 +0100&#10;&#10;Second commit">
<polygon fill="darkorange" stroke="darkorange" points="121.59,-324.64 62.41,-324.64 62.41,-306.7 121.59,-306.7 121.59,-324.64"/>
<text text-anchor="middle" x="92" y="-310.62" font-family="Courier,monospace" font-size="14.00">03c5025</text>
</a>
</g>
</g>
<!-- fa26b470d9508bebe2029623de8770215ebb26a0 -->
<g id="node5" class="node">
<title>fa26b470d9508bebe2029623de8770215ebb26a0</title>
<g id="a_node5"><a xlink:title="author: First Last &lt;first.last@mail.com&gt;&#10;Wed Jan 01 09:00:00 2025 +0100&#10;committer: Nom Prenom &lt;nom.prenom@mail.com&gt;&#10;Wed Jan 01 09:00:00 2025 +0100&#10;&#10;First commit">
<polygon fill="#cdad00" stroke="#cdad00" points="200.59,-195.76 141.41,-195.76 141.41,-177.82 200.59,-177.82 200.59,-195.76"/>
<text text-anchor="middle" x="171" y="-181.74" font-family="Courier,monospace" font-size="14.00">fa26b47</text>
</a>
</g>
</g>
<!-- 03c5025d075bbe625608593e3bf4671daebebcc4&#45;&gt;fa26b470d9508bebe2029623de8770215ebb26a0 -->
<g id="edge4" class="edge">
<title>03c5025d075bbe625608593e3bf4671daebebcc4&#45;&gt;fa26b470d9508bebe2029623de8770215ebb26a0</title>
<path fill="none" stroke="#1a1a1a" d="M121.89,-307.61C126.74,-305.39 131.36,-302.49 135,-298.7 160.91,-271.69 168.17,-225.85 170.21,-202.46"/>
<polygon fill="#1a1a1a" stroke="#1a1a1a" points="171.95,-202.59 170.57,-197.48 168.46,-202.34 171.95,-202.59"/>
</g>
<!-- 0155eb4229851634a0f03eb265b69f5a2d56f341 -->
<g id="node7" class="node">
<title>0155eb4229851634a0f03eb265b69f5a2d56f341</title>
<g id="a_node7"><a xlink:title="0155eb4229851634a0f03eb265b69f5a2d56f341">
<polygon fill="#00688b" stroke="#00688b" points="121.59,-249.7 120.1,-251.69 109.63,-251.69 108.14,-249.7 62.41,-249.7 62.41,-231.76 121.59,-231.76 121.59,-249.7"/>
<text text-anchor="middle" x="92" y="-235.68" font-family="Courier,monospace" font-size="14.00">0155eb4</text>
</a>
</g>
</g>
<!-- 03c5025d075bbe625608593e3bf4671daebebcc4&#45;&gt;0155eb4229851634a0f03eb265b69f5a2d56f341 -->
<g id="edge3" class="edge">
<title>03c5025d075bbe625608593e3bf4671daebebcc4&#45;&gt;0155eb4229851634a0f03eb265b69f5a2d56f341</title>
<path fill="none" stroke="#1a1a1a" d="M92,-306.3C92,-294.1 92,-271.25 92,-256.27"/>
<polygon fill="#1a1a1a" stroke="#1a1a1a" points="93.75,-256.51 92,-251.51 90.25,-256.51 93.75,-256.51"/>
</g>
<!-- 83baae61804e65cc73a7201a7252750c76066a30 -->
<g id="node2" class="node">
<title>83baae61804e65cc73a7201a7252750c76066a30</title>
<g id="a_node2"><a xlink:title="test.txt">
<polygon fill="gray" stroke="gray" points="197.6,-87.88 141.41,-87.88 141.41,-69.94 200.59,-69.94 200.59,-84.89 197.6,-87.88"/>
<polyline fill="none" stroke="gray" points="197.6,-87.88 197.6,-84.89"/>
<polyline fill="none" stroke="gray" points="200.59,-84.89 197.6,-84.89"/>
<text text-anchor="middle" x="171" y="-73.86" font-family="Courier,monospace" font-size="14.00">83baae6</text>
</a>
</g>
</g>
<!-- aa6ef7bc380e3e98362b4276d24b8046b1f4f758 -->
<g id="node3" class="node">
<title>aa6ef7bc380e3e98362b4276d24b8046b1f4f758</title>
<g id="a_node3"><a xlink:title="author: First Last &lt;first.last@mail.com&gt;&#10;Wed Jan 01 09:00:00 2025 +0100&#10;committer: Nom Prenom &lt;nom.prenom@mail.com&gt;&#10;Wed Jan 01 09:00:00 2025 +0100&#10;&#10;Third commit">
<polygon fill="darkorange" stroke="darkorange" points="92.59,-378.58 33.41,-378.58 33.41,-360.64 92.59,-360.64 92.59,-378.58"/>
<text text-anchor="middle" x="63" y="-364.56" font-family="Courier,monospace" font-size="14.00">aa6ef7b</text>
</a>
</g>
</g>
<!-- aa6ef7bc380e3e98362b4276d24b8046b1f4f758&#45;&gt;03c5025d075bbe625608593e3bf4671daebebcc4 -->
<g id="edge9" class="edge">
<title>aa6ef7bc380e3e98362b4276d24b8046b1f4f758&#45;&gt;03c5025d075bbe625608593e3bf4671daebebcc4</title>
<path fill="none" stroke="#1a1a1a" d="M67.53,-360.49C72.02,-352.46 78.97,-340.01 84.32,-330.43"/>
<polygon fill="#1a1a1a" stroke="#1a1a1a" points="85.76,-331.44 86.67,-326.22 82.7,-329.73 85.76,-331.44"/>
</g>
<!-- 3c4e9cd789d88d8d89c1073707c3585e41b0e614 -->
<g id="node10" class="node">
<title>3c4e9cd789d88d8d89c1073707c3585e41b0e614</title>
<g id="a_node10"><a xlink:title="3c4e9cd789d88d8d89c1073707c3585e41b0e614">
<polygon fill="#00688b" stroke="#00688b" points="102.59,-195.76 101.1,-197.75 90.63,-197.75 89.14,-195.76 43.41,-195.76 43.41,-177.82 102.59,-177.82 102.59,-195.76"/>
<text text-anchor="middle" x="73" y="-181.74" font-family="Courier,monospace" font-size="14.00">3c4e9cd</text>
</a>
</g>
</g>
<!-- aa6ef7bc380e3e98362b4276d24b8046b1f4f758&#45;&gt;3c4e9cd789d88d8d89c1073707c3585e41b0e614 -->
<g id="edge10" class="edge">
<title>aa6ef7bc380e3e98362b4276d24b8046b1f4f758&#45;&gt;3c4e9cd789d88d8d89c1073707c3585e41b0e614</title>
<path fill="none" stroke="#1a1a1a" d="M60.52,-360.28C58.04,-351.5 54.42,-337.24 53,-324.64 48.39,-283.62 44.26,-272.1 53,-231.76 55.31,-221.11 60.43,-209.93 64.91,-201.52"/>
<polygon fill="#1a1a1a" stroke="#1a1a1a" points="66.25,-202.72 67.14,-197.49 63.19,-201.02 66.25,-202.72"/>
</g>
<!-- d8329fc1cc938780ffdd9f94e0d364e0ea74f579 -->
<g id="node4" class="node">
<title>d8329fc1cc938780ffdd9f94e0d364e0ea74f579</title>
<g id="a_node4"><a xlink:title="bak">
<polygon fill="#00688b" stroke="#00688b" points="200.59,-141.82 199.1,-143.81 188.64,-143.81 187.14,-141.82 141.41,-141.82 141.41,-123.88 200.59,-123.88 200.59,-141.82"/>
<text text-anchor="middle" x="171" y="-127.8" font-family="Courier,monospace" font-size="14.00">d8329fc</text>
</a>
</g>
</g>
<!-- d8329fc1cc938780ffdd9f94e0d364e0ea74f579&#45;&gt;83baae61804e65cc73a7201a7252750c76066a30 -->
<g id="edge11" class="edge">
<title>d8329fc1cc938780ffdd9f94e0d364e0ea74f579&#45;&gt;83baae61804e65cc73a7201a7252750c76066a30</title>
<path fill="none" stroke="#1a1a1a" d="M171,-123.73C171,-115.93 171,-103.95 171,-94.49"/>
<polygon fill="#1a1a1a" stroke="#1a1a1a" points="172.75,-94.65 171,-89.65 169.25,-94.65 172.75,-94.65"/>
</g>
<!-- fa26b470d9508bebe2029623de8770215ebb26a0&#45;&gt;d8329fc1cc938780ffdd9f94e0d364e0ea74f579 -->
<g id="edge12" class="edge">
<title>fa26b470d9508bebe2029623de8770215ebb26a0&#45;&gt;d8329fc1cc938780ffdd9f94e0d364e0ea74f579</title>
<path fill="none" stroke="#1a1a1a" d="M171,-177.67C171,-169.87 171,-157.89 171,-148.43"/>
<polygon fill="#1a1a1a" stroke="#1a1a1a" points="172.75,-148.59 171,-143.59 169.25,-148.59 172.75,-148.59"/>
</g>
<!-- 224f62133906b4b68a5652b73f779c4a381eadd8 -->
<g id="node6" class="node">
<title>224f62133906b4b68a5652b73f779c4a381eadd8</title>
<g id="a_node6"><a xlink:title="Nom Prenom &lt;nom.prenom@mail.com&gt;&#10;Wed Jan 1 09:00:00 2025 +0100&#10;&#10;First commit&#10;">
<polygon fill="pink" stroke="pink" points="278.22,-249.7 177.78,-249.7 177.78,-231.76 278.22,-231.76 278.22,-249.7"/>
<text text-anchor="middle" x="228" y="-235.68" font-family="Courier,monospace" font-size="14.00">first&#45;commit</text>
</a>
</g>
</g>
<!-- 224f62133906b4b68a5652b73f779c4a381eadd8&#45;&gt;fa26b470d9508bebe2029623de8770215ebb26a0 -->
<g id="edge5" class="edge">
<title>224f62133906b4b68a5652b73f779c4a381eadd8&#45;&gt;fa26b470d9508bebe2029623de8770215ebb26a0</title>
<path fill="none" stroke="#1a1a1a" d="M218.84,-231.38C209.56,-222.93 195.11,-209.76 184.51,-200.1"/>
<polygon fill="#1a1a1a" stroke="#1a1a1a" points="185.94,-199.04 181.07,-196.96 183.58,-201.62 185.94,-199.04"/>
</g>
<!-- 1f7a7a472abf3dd9643fd615f6da379c4acb3e3a -->
<g id="node8" class="node">
<title>1f7a7a472abf3dd9643fd615f6da379c4acb3e3a</title>
<g id="a_node8"><a xlink:title="test.txt">
<polygon fill="gray" stroke="gray" points="119.61,-141.82 63.41,-141.82 63.41,-123.88 122.59,-123.88 122.59,-138.83 119.61,-141.82"/>
<polyline fill="none" stroke="gray" points="119.61,-141.82 119.61,-138.83"/>
<polyline fill="none" stroke="gray" points="122.59,-138.83 119.61,-138.83"/>
<text text-anchor="middle" x="93" y="-127.8" font-family="Courier,monospace" font-size="14.00">1f7a7a4</text>
</a>
</g>
</g>
<!-- 0155eb4229851634a0f03eb265b69f5a2d56f341&#45;&gt;1f7a7a472abf3dd9643fd615f6da379c4acb3e3a -->
<g id="edge1" class="edge">
<title>0155eb4229851634a0f03eb265b69f5a2d56f341&#45;&gt;1f7a7a472abf3dd9643fd615f6da379c4acb3e3a</title>
<path fill="none" stroke="#1a1a1a" d="M97.13,-231.35C102.06,-222.77 109.16,-208.87 112,-195.76 115.64,-178.95 108.15,-160.13 101.53,-147.69"/>
<polygon fill="#1a1a1a" stroke="#1a1a1a" points="103.12,-146.96 99.14,-143.46 100.07,-148.68 103.12,-146.96"/>
</g>
<!-- fa49b077972391ad58037050f2a75f74e3671e92 -->
<g id="node9" class="node">
<title>fa49b077972391ad58037050f2a75f74e3671e92</title>
<g id="a_node9"><a xlink:title="new.txt">
<polygon fill="gray" stroke="gray" points="72.61,-33.94 16.41,-33.94 16.41,-16 75.59,-16 75.59,-30.95 72.61,-33.94"/>
<polyline fill="none" stroke="gray" points="72.61,-33.94 72.61,-30.95"/>
<polyline fill="none" stroke="gray" points="75.59,-30.95 72.61,-30.95"/>
<text text-anchor="middle" x="46" y="-19.92" font-family="Courier,monospace" font-size="14.00">fa49b07</text>
</a>
</g>
</g>
<!-- 0155eb4229851634a0f03eb265b69f5a2d56f341&#45;&gt;fa49b077972391ad58037050f2a75f74e3671e92 -->
<g id="edge2" class="edge">
<title>0155eb4229851634a0f03eb265b69f5a2d56f341&#45;&gt;fa49b077972391ad58037050f2a75f74e3671e92</title>
<path fill="none" stroke="#1a1a1a" d="M73.34,-231.35C59.68,-224.1 42.15,-212.17 34,-195.76 7.98,-143.38 29.37,-70.5 40.41,-40.13"/>
<polygon fill="#1a1a1a" stroke="#1a1a1a" points="41.94,-41.03 42.06,-35.74 38.66,-39.81 41.94,-41.03"/>
</g>
<!-- 0155eb4229851634a0f03eb265b69f5a2d56f341&#45;&gt;3c4e9cd789d88d8d89c1073707c3585e41b0e614 -->
<!-- d670460b4b4aece5915caf5c68d12f560a9fe3e4 -->
<g id="node11" class="node">
<title>d670460b4b4aece5915caf5c68d12f560a9fe3e4</title>
<g id="a_node11"><a xlink:title="d670460b4b4aece5915caf5c68d12f560a9fe3e4">
<polygon fill="gray" stroke="gray" points="119.61,-87.88 63.41,-87.88 63.41,-69.94 122.59,-69.94 122.59,-84.89 119.61,-87.88"/>
<polyline fill="none" stroke="gray" points="119.61,-87.88 119.61,-84.89"/>
<polyline fill="none" stroke="gray" points="122.59,-84.89 119.61,-84.89"/>
<text text-anchor="middle" x="93" y="-73.86" font-family="Courier,monospace" font-size="14.00">d670460</text>
</a>
</g>
</g>
<!-- 1f7a7a472abf3dd9643fd615f6da379c4acb3e3a&#45;&gt;d670460b4b4aece5915caf5c68d12f560a9fe3e4 -->
<!-- 3c4e9cd789d88d8d89c1073707c3585e41b0e614&#45;&gt;d8329fc1cc938780ffdd9f94e0d364e0ea74f579 -->
<g id="edge7" class="edge">
<title>3c4e9cd789d88d8d89c1073707c3585e41b0e614&#45;&gt;d8329fc1cc938780ffdd9f94e0d364e0ea74f579</title>
<path fill="none" stroke="#1a1a1a" d="M88.75,-177.44C105.32,-168.66 131.5,-154.78 149.87,-145.05"/>
<polygon fill="#1a1a1a" stroke="#1a1a1a" points="150.36,-146.77 153.96,-142.88 148.72,-143.68 150.36,-146.77"/>
</g>
<!-- 3c4e9cd789d88d8d89c1073707c3585e41b0e614&#45;&gt;1f7a7a472abf3dd9643fd615f6da379c4acb3e3a -->
<g id="edge6" class="edge">
<title>3c4e9cd789d88d8d89c1073707c3585e41b0e614&#45;&gt;1f7a7a472abf3dd9643fd615f6da379c4acb3e3a</title>
<path fill="none" stroke="#1a1a1a" d="M76.12,-177.67C79.16,-169.79 83.83,-157.66 87.49,-148.15"/>
<polygon fill="#1a1a1a" stroke="#1a1a1a" points="89.12,-148.79 89.29,-143.49 85.86,-147.53 89.12,-148.79"/>
</g>
<!-- 3c4e9cd789d88d8d89c1073707c3585e41b0e614&#45;&gt;fa49b077972391ad58037050f2a75f74e3671e92 -->
<g id="edge8" class="edge">
<title>3c4e9cd789d88d8d89c1073707c3585e41b0e614&#45;&gt;fa49b077972391ad58037050f2a75f74e3671e92</title>
<path fill="none" stroke="#1a1a1a" d="M68.31,-177.33C63.78,-168.69 57.14,-154.75 54,-141.82 45.36,-106.29 44.95,-62.95 45.44,-40.71"/>
<polygon fill="#1a1a1a" stroke="#1a1a1a" points="47.19,-40.82 45.58,-35.77 43.69,-40.72 47.19,-40.82"/>
</g>
<!-- d670460b4b4aece5915caf5c68d12f560a9fe3e4&#45;&gt;fa49b077972391ad58037050f2a75f74e3671e92 -->
</g>
</svg>
