<?xml version="1.0" encoding="UTF-8" standalone="no"?>
<!DOCTYPE svg PUBLIC "-//W3C//DTD SVG 1.1//EN"
 "http://www.w3.org/Graphics/SVG/1.1/DTD/svg11.dtd">
<!-- Generated by graphviz version 12.1.0 (20240811.2233)
 -->
<!-- Pages: 1 -->
<svg width="242pt" height="353pt"
 viewBox="0.00 0.00 241.81 352.64" xmlns="http://www.w3.org/2000/svg" xmlns:xlink="http://www.w3.org/1999/xlink">
<g id="graph0" class="graph" transform="scale(1 1) rotate(0) translate(4 348.64)">
<polygon fill="white" stroke="none" points="-4,4 -4,-348.64 237.81,-348.64 237.81,4 -4,4"/>
<g id="clust1" class="cluster">
<title>cluster_standalone</title>
<polygon fill="white" stroke="lightgrey" points="66.59,-261.7 66.59,-336.64 189.59,-336.64 189.59,-261.7 66.59,-261.7"/>
<text text-anchor="middle" x="128.09" y="-319.34" font-family="Courier,monospace" font-size="14.00">Standalone</text>
<text text-anchor="middle" x="128.09" y="-302.84" font-family="Courier,monospace" font-size="14.00">Trees &amp; Blobs</text>
</g>
<!-- 0155eb4229851634a0f03eb265b69f5a2d56f341 -->
<g id="node1" class="node">
<title>0155eb4229851634a0f03eb265b69f5a2d56f341</title>
<g id="a_node1"><a xlink:title="0155eb4229851634a0f03eb265b69f5a2d56f341">
<polygon fill="#00688b" stroke="#00688b" points="59.19,-125.82 57.7,-127.81 47.23,-127.81 45.74,-125.82 0,-125.82 0,-107.88 59.19,-107.88 59.19,-125.82"/>
<text text-anchor="middle" x="29.59" y="-111.8" font-family="Courier,monospace" font-size="14.00">0155eb4</text>
</a>
</g>
</g>
<!-- 1f7a7a472abf3dd9643fd615f6da379c4acb3e3a -->
<g id="node3" class="node">
<title>1f7a7a472abf3dd9643fd615f6da379c4acb3e3a</title>
<g id="a_node3"><a xlink:title="test.txt">
<polygon fill="gray" stroke="gray" points="133.2,-71.88 77,-71.88 77,-53.94 136.19,-53.94 136.19,-68.89 133.2,-71.88"/>
<polyline fill="none" stroke="gray" points="133.2,-71.88 133.2,-68.89"/>
<polyline fill="none" stroke="gray" points="136.19,-68.89 133.2,-68.89"/>
<text text-anchor="middle" x="106.59" y="-57.86" font-family="Courier,monospace" font-size="14.00">1f7a7a4</text>
</a>
</g>
</g>
<!-- 0155eb4229851634a0f03eb265b69f5a2d56f341&#45;&gt;1f7a7a472abf3dd9643fd615f6da379c4acb3e3a -->
<g id="edge1" class="edge">
<title>0155eb4229851634a0f03eb265b69f5a2d56f341&#45;&gt;1f7a7a472abf3dd9643fd615f6da379c4acb3e3a</title>
<path fill="none" stroke="#1a1a1a" d="M41.97,-107.5C54.65,-98.95 74.5,-85.56 88.86,-75.87"/>
<polygon fill="#1a1a1a" stroke="#1a1a1a" points="89.83,-77.33 93,-73.08 87.88,-74.43 89.83,-77.33"/>
</g>
<!-- fa49b077972391ad58037050f2a75f74e3671e92 -->
<g id="node10" class="node">
<title>fa49b077972391ad58037050f2a75f74e3671e92</title>
<g id="a_node10"><a xlink:title="new.txt">
<polygon fill="gray" stroke="gray" points="56.2,-71.88 0,-71.88 0,-53.94 59.19,-53.94 59.19,-68.89 56.2,-71.88"/>
<polyline fill="none" stroke="gray" points="56.2,-71.88 56.2,-68.89"/>
<polyline fill="none" stroke="gray" points="59.19,-68.89 56.2,-68.89"/>
<text text-anchor="middle" x="29.59" y="-57.86" font-family="Courier,monospace" font-size="14.00">fa49b07</text>
</a>
</g>
</g>
<!-- 0155eb4229851634a0f03eb265b69f5a2d56f341&#45;&gt;fa49b077972391ad58037050f2a75f74e3671e92 -->
<g id="edge2" class="edge">
<title>0155eb4229851634a0f03eb265b69f5a2d56f341&#45;&gt;fa49b077972391ad58037050f2a75f74e3671e92</title>
<path fill="none" stroke="#1a1a1a" d="M29.59,-107.73C29.59,-99.93 29.59,-87.95 29.59,-78.49"/>
<polygon fill="#1a1a1a" stroke="#1a1a1a" points="31.35,-78.65 29.6,-73.65 27.85,-78.65 31.35,-78.65"/>
</g>
<!-- 03c5025d075bbe625608593e3bf4671daebebcc4 -->
<g id="node2" class="node">
<title>03c5025d075bbe625608593e3bf4671daebebcc4</title>
<g id="a_node2"><a xlink:title="author: First Last &lt;first.last@mail.com&gt;&#10;Wed Jan 01 09:00:00 2025 +0100&#10;committer: Nom Prenom &lt;nom.prenom@mail.com&gt;&#10;Wed Jan 01 09:00:00 2025 +0100&#10;&#10;Second commit">
<polygon fill="#cdad00" stroke="#cdad00" points="73.19,-179.76 14,-179.76 14,-161.82 73.19,-161.82 73.19,-179.76"/>
<text text-anchor="middle" x="43.59" y="-165.74" font-family="Courier,monospace" font-size="14.00">03c5025</text>
</a>
</g>
</g>
<!-- 03c5025d075bbe625608593e3bf4671daebebcc4&#45;&gt;0155eb4229851634a0f03eb265b69f5a2d56f341 -->
<g id="edge3" class="edge">
<title>03c5025d075bbe625608593e3bf4671daebebcc4&#45;&gt;0155eb4229851634a0f03eb265b69f5a2d56f341</title>
<path fill="none" stroke="#1a1a1a" d="M41.41,-161.67C39.28,-153.79 36.01,-141.66 33.45,-132.15"/>
<polygon fill="#1a1a1a" stroke="#1a1a1a" points="35.2,-131.91 32.21,-127.54 31.82,-132.82 35.2,-131.91"/>
</g>
<!-- fa26b470d9508bebe2029623de8770215ebb26a0 -->
<g id="node9" class="node">
<title>fa26b470d9508bebe2029623de8770215ebb26a0</title>
<g id="a_node9"><a xlink:title="author: First Last &lt;first.last@mail.com&gt;&#10;Wed Jan 01 09:00:00 2025 +0100&#10;committer: Nom Prenom &lt;nom.prenom@mail.com&gt;&#10;Wed Jan 01 09:00:00 2025 +0100&#10;&#10;First commit">
<polygon fill="#cdad00" stroke="#cdad00" points="213.19,-125.82 154,-125.82 154,-107.88 213.19,-107.88 213.19,-125.82"/>
<text text-anchor="middle" x="183.59" y="-111.8" font-family="Courier,monospace" font-size="14.00">fa26b47</text>
</a>
</g>
</g>
<!-- 03c5025d075bbe625608593e3bf4671daebebcc4&#45;&gt;fa26b470d9508bebe2029623de8770215ebb26a0 -->
<g id="edge4" class="edge">
<title>03c5025d075bbe625608593e3bf4671daebebcc4&#45;&gt;fa26b470d9508bebe2029623de8770215ebb26a0</title>
<path fill="none" stroke="#1a1a1a" d="M66.4,-161.33C90.5,-152.39 128.58,-138.26 154.75,-128.55"/>
<polygon fill="#1a1a1a" stroke="#1a1a1a" points="155.3,-130.21 159.38,-126.83 154.08,-126.93 155.3,-130.21"/>
</g>
<!-- 3c4e9cd789d88d8d89c1073707c3585e41b0e614 -->
<g id="node4" class="node">
<title>3c4e9cd789d88d8d89c1073707c3585e41b0e614</title>
<g id="a_node4"><a xlink:title="3c4e9cd789d88d8d89c1073707c3585e41b0e614">
<polygon fill="#00688b" stroke="#00688b" points="136.19,-125.82 134.69,-127.81 124.23,-127.81 122.74,-125.82 77,-125.82 77,-107.88 136.19,-107.88 136.19,-125.82"/>
<text text-anchor="middle" x="106.59" y="-111.8" font-family="Courier,monospace" font-size="14.00">3c4e9cd</text>
</a>
</g>
</g>
<!-- 3c4e9cd789d88d8d89c1073707c3585e41b0e614&#45;&gt;1f7a7a472abf3dd9643fd615f6da379c4acb3e3a -->
<g id="edge6" class="edge">
<title>3c4e9cd789d88d8d89c1073707c3585e41b0e614&#45;&gt;1f7a7a472abf3dd9643fd615f6da379c4acb3e3a</title>
<path fill="none" stroke="#1a1a1a" d="M106.59,-107.73C106.59,-99.93 106.59,-87.95 106.59,-78.49"/>
<polygon fill="#1a1a1a" stroke="#1a1a1a" points="108.35,-78.65 106.6,-73.65 104.85,-78.65 108.35,-78.65"/>
</g>
<!-- d8329fc1cc938780ffdd9f94e0d364e0ea74f579 -->
<g id="node8" class="node">
<title>d8329fc1cc938780ffdd9f94e0d364e0ea74f579</title>
<g id="a_node8"><a xlink:title="bak">
<polygon fill="#00688b" stroke="#00688b" points="213.19,-71.88 211.69,-73.87 201.23,-73.87 199.74,-71.88 154,-71.88 154,-53.94 213.19,-53.94 213.19,-71.88"/>
<text text-anchor="middle" x="183.59" y="-57.86" font-family="Courier,monospace" font-size="14.00">d8329fc</text>
</a>
</g>
</g>
<!-- 3c4e9cd789d88d8d89c1073707c3585e41b0e614&#45;&gt;d8329fc1cc938780ffdd9f94e0d364e0ea74f579 -->
<g id="edge7" class="edge">
<title>3c4e9cd789d88d8d89c1073707c3585e41b0e614&#45;&gt;d8329fc1cc938780ffdd9f94e0d364e0ea74f579</title>
<path fill="none" stroke="#1a1a1a" d="M118.97,-107.5C131.65,-98.95 151.5,-85.56 165.86,-75.87"/>
<polygon fill="#1a1a1a" stroke="#1a1a1a" points="166.83,-77.33 170,-73.08 164.88,-74.43 166.83,-77.33"/>
</g>
<!-- 3c4e9cd789d88d8d89c1073707c3585e41b0e614&#45;&gt;fa49b077972391ad58037050f2a75f74e3671e92 -->
<g id="edge8" class="edge">
<title>3c4e9cd789d88d8d89c1073707c3585e41b0e614&#45;&gt;fa49b077972391ad58037050f2a75f74e3671e92</title>
<path fill="none" stroke="#1a1a1a" d="M94.22,-107.5C81.54,-98.95 61.69,-85.56 47.33,-75.87"/>
<polygon fill="#1a1a1a" stroke="#1a1a1a" points="48.31,-74.43 43.19,-73.08 46.36,-77.33 48.31,-74.43"/>
</g>
<!-- 83baae61804e65cc73a7201a7252750c76066a30 -->
<g id="node5" class="node">
<title>83baae61804e65cc73a7201a7252750c76066a30</title>
<g id="a_node5"><a xlink:title="test.txt">
<polygon fill="gray" stroke="gray" points="210.2,-17.94 154,-17.94 154,0 213.19,0 213.19,-14.95 210.2,-17.94"/>
<polyline fill="none" stroke="gray" points="210.2,-17.94 210.2,-14.95"/>
<polyline fill="none" stroke="gray" points="213.19,-14.95 210.2,-14.95"/>
<text text-anchor="middle" x="183.59" y="-3.92" font-family="Courier,monospace" font-size="14.00">83baae6</text>
</a>
</g>
</g>
<!-- HEAD -->
<g id="node6" class="node">
<title>HEAD</title>
<g id="a_node6"><a xlink:title="main">
<polygon fill="cornflowerblue" stroke="cornflowerblue" points="57.81,-287.64 23.38,-287.64 23.38,-269.7 57.81,-269.7 57.81,-287.64"/>
<text text-anchor="middle" x="40.59" y="-273.62" font-family="Courier,monospace" font-size="14.00">HEAD</text>
</a>
</g>
</g>
<!-- local&#45;branch&#45;main -->
<g id="node12" class="node">
<title>local&#45;branch&#45;main</title>
<g id="a_node12"><a xlink:title="&#45;&gt; None">
<polygon fill="forestgreen" stroke="forestgreen" points="57.81,-233.7 23.38,-233.7 23.38,-215.76 57.81,-215.76 57.81,-233.7"/>
<text text-anchor="middle" x="40.59" y="-219.68" font-family="Courier,monospace" font-size="14.00">main</text>
</a>
</g>
</g>
<!-- HEAD&#45;&gt;local&#45;branch&#45;main -->
<g id="edge9" class="edge">
<title>HEAD&#45;&gt;local&#45;branch&#45;main</title>
<path fill="none" stroke="#1a1a1a" d="M40.59,-269.55C40.59,-261.75 40.59,-249.77 40.59,-240.31"/>
<polygon fill="#1a1a1a" stroke="#1a1a1a" points="42.35,-240.47 40.6,-235.47 38.85,-240.47 42.35,-240.47"/>
</g>
<!-- aa6ef7bc380e3e98362b4276d24b8046b1f4f758 -->
<g id="node7" class="node">
<title>aa6ef7bc380e3e98362b4276d24b8046b1f4f758</title>
<g id="a_node7"><a xlink:title="author: First Last &lt;first.last@mail.com&gt;&#10;Wed Jan 01 09:00:00 2025 +0100&#10;committer: Nom Prenom &lt;nom.prenom@mail.com&gt;&#10;Wed Jan 01 09:00:00 2025 +0100&#10;&#10;Third commit">
<polygon fill="darkorange" stroke="darkorange" points="135.19,-233.7 76,-233.7 76,-215.76 135.19,-215.76 135.19,-233.7"/>
<text text-anchor="middle" x="105.59" y="-219.68" font-family="Courier,monospace" font-size="14.00">aa6ef7b</text>
</a>
</g>
</g>
<!-- aa6ef7bc380e3e98362b4276d24b8046b1f4f758&#45;&gt;03c5025d075bbe625608593e3bf4671daebebcc4 -->
<g id="edge10" class="edge">
<title>aa6ef7bc380e3e98362b4276d24b8046b1f4f758&#45;&gt;03c5025d075bbe625608593e3bf4671daebebcc4</title>
<path fill="none" stroke="#1a1a1a" d="M95.63,-215.38C85.54,-206.93 69.82,-193.76 58.29,-184.1"/>
<polygon fill="#1a1a1a" stroke="#1a1a1a" points="59.44,-182.78 54.49,-180.92 57.2,-185.47 59.44,-182.78"/>
</g>
<!-- aa6ef7bc380e3e98362b4276d24b8046b1f4f758&#45;&gt;3c4e9cd789d88d8d89c1073707c3585e41b0e614 -->
<g id="edge11" class="edge">
<title>aa6ef7bc380e3e98362b4276d24b8046b1f4f758&#45;&gt;3c4e9cd789d88d8d89c1073707c3585e41b0e614</title>
<path fill="none" stroke="#1a1a1a" d="M105.67,-215.42C105.84,-197.48 106.24,-154.94 106.46,-132.42"/>
<polygon fill="#1a1a1a" stroke="#1a1a1a" points="108.21,-132.65 106.5,-127.63 104.71,-132.62 108.21,-132.65"/>
</g>
<!-- d8329fc1cc938780ffdd9f94e0d364e0ea74f579&#45;&gt;83baae61804e65cc73a7201a7252750c76066a30 -->
<g id="edge12" class="edge">
<title>d8329fc1cc938780ffdd9f94e0d364e0ea74f579&#45;&gt;83baae61804e65cc73a7201a7252750c76066a30</title>
<path fill="none" stroke="#1a1a1a" d="M183.59,-53.79C183.59,-45.99 183.59,-34.01 183.59,-24.55"/>
<polygon fill="#1a1a1a" stroke="#1a1a1a" points="185.35,-24.71 183.6,-19.71 181.85,-24.71 185.35,-24.71"/>
</g>
<!-- fa26b470d9508bebe2029623de8770215ebb26a0&#45;&gt;d8329fc1cc938780ffdd9f94e0d364e0ea74f579 -->
<g id="edge13" class="edge">
<title>fa26b470d9508bebe2029623de8770215ebb26a0&#45;&gt;d8329fc1cc938780ffdd9f94e0d364e0ea74f579</title>
<path fill="none" stroke="#1a1a1a" d="M183.59,-107.73C183.59,-99.93 183.59,-87.95 183.59,-78.49"/>
<polygon fill="#1a1a1a" stroke="#1a1a1a" points="185.35,-78.65 183.6,-73.65 181.85,-78.65 185.35,-78.65"/>
</g>
<!-- 224f62133906b4b68a5652b73f779c4a381eadd8 -->
<g id="node11" class="node">
<title>224f62133906b4b68a5652b73f779c4a381eadd8</title>
<g id="a_node11"><a xlink:title="Nom Prenom &lt;nom.prenom@mail.com&gt;&#10;Wed Jan 1 09:00:00 2025 +0100&#10;&#10;First commit&#10;">
<polygon fill="pink" stroke="pink" points="233.81,-179.76 133.38,-179.76 133.38,-161.82 233.81,-161.82 233.81,-179.76"/>
<text text-anchor="middle" x="183.59" y="-165.74" font-family="Courier,monospace" font-size="14.00">first&#45;commit</text>
</a>
</g>
</g>
<!-- 224f62133906b4b68a5652b73f779c4a381eadd8&#45;&gt;fa26b470d9508bebe2029623de8770215ebb26a0 -->
<g id="edge5" class="edge">
<title>224f62133906b4b68a5652b73f779c4a381eadd8&#45;&gt;fa26b470d9508bebe2029623de8770215ebb26a0</title>
<path fill="none" stroke="#1a1a1a" d="M183.59,-161.67C183.59,-153.87 183.59,-141.89 183.59,-132.43"/>
<polygon fill="#1a1a1a" stroke="#1a1a1a" points="185.35,-132.59 183.6,-127.59 181.85,-132.59 185.35,-132.59"/>
</g>
<!-- local&#45;branch&#45;main&#45;&gt;03c5025d075bbe625608593e3bf4671daebebcc4 -->
<g id="edge14" class="edge">
<title>local&#45;branch&#45;main&#45;&gt;03c5025d075bbe625608593e3bf4671daebebcc4</title>
<path fill="none" stroke="#1a1a1a" d="M41.06,-215.61C41.51,-207.81 42.21,-195.83 42.75,-186.37"/>
<polygon fill="#1a1a1a" stroke="#1a1a1a" points="44.49,-186.62 43.03,-181.53 41,-186.42 44.49,-186.62"/>
</g>
<!-- d670460b4b4aece5915caf5c68d12f560a9fe3e4 -->
<g id="node13" class="node">
<title>d670460b4b4aece5915caf5c68d12f560a9fe3e4</title>
<g id="a_node13"><a xlink:title="d670460b4b4aece5915caf5c68d12f560a9fe3e4">
<polygon fill="gray" stroke="gray" points="155.2,-287.64 99,-287.64 99,-269.7 158.19,-269.7 158.19,-284.65 155.2,-287.64"/>
<polyline fill="none" stroke="gray" points="155.2,-287.64 155.2,-284.65"/>
<polyline fill="none" stroke="gray" points="158.19,-284.65 155.2,-284.65"/>
<text text-anchor="middle" x="128.59" y="-273.62" font-family="Courier,monospace" font-size="14.00">d670460</text>
</a>
</g>
</g>
</g>
</svg>
