<?xml version="1.0" encoding="UTF-8" standalone="no"?>
<!DOCTYPE svg PUBLIC "-//W3C//DTD SVG 1.1//EN"
 "http://www.w3.org/Graphics/SVG/1.1/DTD/svg11.dtd">
<!-- Generated by graphviz version 12.1.0 (20240811.2233)
 -->
<!-- Pages: 1 -->
<svg width="311pt" height="299pt"
 viewBox="0.00 0.00 311.22 298.70" xmlns="http://www.w3.org/2000/svg" xmlns:xlink="http://www.w3.org/1999/xlink">
<g id="graph0" class="graph" transform="scale(1 1) rotate(0) translate(4 294.7)">
<polygon fill="white" stroke="none" points="-4,4 -4,-294.7 307.22,-294.7 307.22,4 -4,4"/>
<g id="clust1" class="cluster">
<title>cluster_standalone</title>
<polygon fill="white" stroke="lightgrey" points="172.22,-207.76 172.22,-282.7 295.22,-282.7 295.22,-207.76 172.22,-207.76"/>
<text text-anchor="middle" x="233.72" y="-265.4" font-family="Courier,monospace" font-size="14.00">Standalone</text>
<text text-anchor="middle" x="233.72" y="-248.9" font-family="Courier,monospace" font-size="14.00">Trees &amp; Blobs</text>
</g>
<!-- 0155eb4229851634a0f03eb265b69f5a2d56f341 -->
<g id="node1" class="node">
<title>0155eb4229851634a0f03eb265b69f5a2d56f341</title>
<g id="a_node1"><a xlink:title="0155eb4229851634a0f03eb265b69f5a2d56f341">
<polygon fill="#00688b" stroke="#00688b" points="87.81,-125.82 86.32,-127.81 75.85,-127.81 74.36,-125.82 28.62,-125.82 28.62,-107.88 87.81,-107.88 87.81,-125.82"/>
<text text-anchor="middle" x="58.22" y="-111.8" font-family="Courier,monospace" font-size="14.00">0155eb4</text>
</a>
</g>
</g>
<!-- 1f7a7a472abf3dd9643fd615f6da379c4acb3e3a -->
<g id="node3" class="node">
<title>1f7a7a472abf3dd9643fd615f6da379c4acb3e3a</title>
<g id="a_node3"><a xlink:title="test.txt">
<polygon fill="gray" stroke="gray" points="161.82,-71.88 105.62,-71.88 105.62,-53.94 164.81,-53.94 164.81,-68.89 161.82,-71.88"/>
<polyline fill="none" stroke="gray" points="161.82,-71.88 161.82,-68.89"/>
<polyline fill="none" stroke="gray" points="164.81,-68.89 161.82,-68.89"/>
<text text-anchor="middle" x="135.22" y="-57.86" font-family="Courier,monospace" font-size="14.00">1f7a7a4</text>
</a>
</g>
</g>
<!-- 0155eb4229851634a0f03eb265b69f5a2d56f341&#45;&gt;1f7a7a472abf3dd9643fd615f6da379c4acb3e3a -->
<g id="edge1" class="edge">
<title>0155eb4229851634a0f03eb265b69f5a2d56f341&#45;&gt;1f7a7a472abf3dd9643fd615f6da379c4acb3e3a</title>
<path fill="none" stroke="#1a1a1a" d="M70.59,-107.5C83.28,-98.95 103.13,-85.56 117.48,-75.87"/>
<polygon fill="#1a1a1a" stroke="#1a1a1a" points="118.46,-77.33 121.62,-73.08 116.5,-74.43 118.46,-77.33"/>
</g>
<!-- fa49b077972391ad58037050f2a75f74e3671e92 -->
<g id="node10" class="node">
<title>fa49b077972391ad58037050f2a75f74e3671e92</title>
<g id="a_node10"><a xlink:title="new.txt">
<polygon fill="gray" stroke="gray" points="84.83,-71.88 28.62,-71.88 28.62,-53.94 87.81,-53.94 87.81,-68.89 84.83,-71.88"/>
<polyline fill="none" stroke="gray" points="84.83,-71.88 84.83,-68.89"/>
<polyline fill="none" stroke="gray" points="87.81,-68.89 84.83,-68.89"/>
<text text-anchor="middle" x="58.22" y="-57.86" font-family="Courier,monospace" font-size="14.00">fa49b07</text>
</a>
</g>
</g>
<!-- 0155eb4229851634a0f03eb265b69f5a2d56f341&#45;&gt;fa49b077972391ad58037050f2a75f74e3671e92 -->
<g id="edge2" class="edge">
<title>0155eb4229851634a0f03eb265b69f5a2d56f341&#45;&gt;fa49b077972391ad58037050f2a75f74e3671e92</title>
<path fill="none" stroke="#1a1a1a" d="M58.22,-107.73C58.22,-99.93 58.22,-87.95 58.22,-78.49"/>
<polygon fill="#1a1a1a" stroke="#1a1a1a" points="59.97,-78.65 58.22,-73.65 56.47,-78.65 59.97,-78.65"/>
</g>
<!-- 03c5025d075bbe625608593e3bf4671daebebcc4 -->
<g id="node2" class="node">
<title>03c5025d075bbe625608593e3bf4671daebebcc4</title>
<g id="a_node2"><a xlink:title="author: First Last &lt;first.last@mail.com&gt;&#10;Wed Jan 01 09:00:00 2025 +0100&#10;committer: Nom Prenom &lt;nom.prenom@mail.com&gt;&#10;Wed Jan 01 09:00:00 2025 +0100&#10;&#10;Second commit">
<polygon fill="#cdad00" stroke="#cdad00" points="98.81,-179.76 39.62,-179.76 39.62,-161.82 98.81,-161.82 98.81,-179.76"/>
<text text-anchor="middle" x="69.22" y="-165.74" font-family="Courier,monospace" font-size="14.00">03c5025</text>
</a>
</g>
</g>
<!-- 03c5025d075bbe625608593e3bf4671daebebcc4&#45;&gt;0155eb4229851634a0f03eb265b69f5a2d56f341 -->
<g id="edge3" class="edge">
<title>03c5025d075bbe625608593e3bf4671daebebcc4&#45;&gt;0155eb4229851634a0f03eb265b69f5a2d56f341</title>
<path fill="none" stroke="#1a1a1a" d="M67.5,-161.67C65.85,-153.87 63.31,-141.89 61.31,-132.43"/>
<polygon fill="#1a1a1a" stroke="#1a1a1a" points="63.02,-132.09 60.28,-127.56 59.6,-132.81 63.02,-132.09"/>
</g>
<!-- fa26b470d9508bebe2029623de8770215ebb26a0 -->
<g id="node9" class="node">
<title>fa26b470d9508bebe2029623de8770215ebb26a0</title>
<g id="a_node9"><a xlink:title="author: First Last &lt;first.last@mail.com&gt;&#10;Wed Jan 01 09:00:00 2025 +0100&#10;committer: Nom Prenom &lt;nom.prenom@mail.com&gt;&#10;Wed Jan 01 09:00:00 2025 +0100&#10;&#10;First commit">
<polygon fill="#cdad00" stroke="#cdad00" points="241.81,-125.82 182.62,-125.82 182.62,-107.88 241.81,-107.88 241.81,-125.82"/>
<text text-anchor="middle" x="212.22" y="-111.8" font-family="Courier,monospace" font-size="14.00">fa26b47</text>
</a>
</g>
</g>
<!-- 03c5025d075bbe625608593e3bf4671daebebcc4&#45;&gt;fa26b470d9508bebe2029623de8770215ebb26a0 -->
<g id="edge4" class="edge">
<title>03c5025d075bbe625608593e3bf4671daebebcc4&#45;&gt;fa26b470d9508bebe2029623de8770215ebb26a0</title>
<path fill="none" stroke="#1a1a1a" d="M92.51,-161.33C117.24,-152.35 156.35,-138.14 183.09,-128.43"/>
<polygon fill="#1a1a1a" stroke="#1a1a1a" points="183.41,-130.18 187.51,-126.82 182.22,-126.89 183.41,-130.18"/>
</g>
<!-- 3c4e9cd789d88d8d89c1073707c3585e41b0e614 -->
<g id="node4" class="node">
<title>3c4e9cd789d88d8d89c1073707c3585e41b0e614</title>
<g id="a_node4"><a xlink:title="3c4e9cd789d88d8d89c1073707c3585e41b0e614">
<polygon fill="#00688b" stroke="#00688b" points="164.81,-125.82 163.32,-127.81 152.86,-127.81 151.36,-125.82 105.62,-125.82 105.62,-107.88 164.81,-107.88 164.81,-125.82"/>
<text text-anchor="middle" x="135.22" y="-111.8" font-family="Courier,monospace" font-size="14.00">3c4e9cd</text>
</a>
</g>
</g>
<!-- 3c4e9cd789d88d8d89c1073707c3585e41b0e614&#45;&gt;1f7a7a472abf3dd9643fd615f6da379c4acb3e3a -->
<g id="edge6" class="edge">
<title>3c4e9cd789d88d8d89c1073707c3585e41b0e614&#45;&gt;1f7a7a472abf3dd9643fd615f6da379c4acb3e3a</title>
<path fill="none" stroke="#1a1a1a" d="M135.22,-107.73C135.22,-99.93 135.22,-87.95 135.22,-78.49"/>
<polygon fill="#1a1a1a" stroke="#1a1a1a" points="136.97,-78.65 135.22,-73.65 133.47,-78.65 136.97,-78.65"/>
</g>
<!-- d8329fc1cc938780ffdd9f94e0d364e0ea74f579 -->
<g id="node8" class="node">
<title>d8329fc1cc938780ffdd9f94e0d364e0ea74f579</title>
<g id="a_node8"><a xlink:title="bak">
<polygon fill="#00688b" stroke="#00688b" points="241.81,-71.88 240.32,-73.87 229.86,-73.87 228.36,-71.88 182.62,-71.88 182.62,-53.94 241.81,-53.94 241.81,-71.88"/>
<text text-anchor="middle" x="212.22" y="-57.86" font-family="Courier,monospace" font-size="14.00">d8329fc</text>
</a>
</g>
</g>
<!-- 3c4e9cd789d88d8d89c1073707c3585e41b0e614&#45;&gt;d8329fc1cc938780ffdd9f94e0d364e0ea74f579 -->
<g id="edge7" class="edge">
<title>3c4e9cd789d88d8d89c1073707c3585e41b0e614&#45;&gt;d8329fc1cc938780ffdd9f94e0d364e0ea74f579</title>
<path fill="none" stroke="#1a1a1a" d="M147.59,-107.5C160.28,-98.95 180.13,-85.56 194.48,-75.87"/>
<polygon fill="#1a1a1a" stroke="#1a1a1a" points="195.46,-77.33 198.62,-73.08 193.5,-74.43 195.46,-77.33"/>
</g>
<!-- 3c4e9cd789d88d8d89c1073707c3585e41b0e614&#45;&gt;fa49b077972391ad58037050f2a75f74e3671e92 -->
<g id="edge8" class="edge">
<title>3c4e9cd789d88d8d89c1073707c3585e41b0e614&#45;&gt;fa49b077972391ad58037050f2a75f74e3671e92</title>
<path fill="none" stroke="#1a1a1a" d="M122.85,-107.5C110.16,-98.95 90.31,-85.56 75.96,-75.87"/>
<polygon fill="#1a1a1a" stroke="#1a1a1a" points="76.94,-74.43 71.82,-73.08 74.98,-77.33 76.94,-74.43"/>
</g>
<!-- 83baae61804e65cc73a7201a7252750c76066a30 -->
<g id="node5" class="node">
<title>83baae61804e65cc73a7201a7252750c76066a30</title>
<g id="a_node5"><a xlink:title="test.txt">
<polygon fill="gray" stroke="gray" points="238.82,-17.94 182.62,-17.94 182.62,0 241.81,0 241.81,-14.95 238.82,-17.94"/>
<polyline fill="none" stroke="gray" points="238.82,-17.94 238.82,-14.95"/>
<polyline fill="none" stroke="gray" points="241.81,-14.95 238.82,-14.95"/>
<text text-anchor="middle" x="212.22" y="-3.92" font-family="Courier,monospace" font-size="14.00">83baae6</text>
</a>
</g>
</g>
<!-- HEAD -->
<g id="node6" class="node">
<title>HEAD</title>
<g id="a_node6"><a xlink:title="03c5025d075bbe625608593e3bf4671daebebcc4">
<polygon fill="cornflowerblue" stroke="black" points="86.44,-233.7 52,-233.7 52,-215.76 86.44,-215.76 86.44,-233.7"/>
<text text-anchor="middle" x="69.22" y="-219.68" font-family="Courier,monospace" font-size="14.00">HEAD</text>
</a>
</g>
</g>
<!-- HEAD&#45;&gt;03c5025d075bbe625608593e3bf4671daebebcc4 -->
<g id="edge9" class="edge">
<title>HEAD&#45;&gt;03c5025d075bbe625608593e3bf4671daebebcc4</title>
<path fill="none" stroke="#1a1a1a" d="M69.22,-215.61C69.22,-207.81 69.22,-195.83 69.22,-186.37"/>
<polygon fill="#1a1a1a" stroke="#1a1a1a" points="70.97,-186.53 69.22,-181.53 67.47,-186.53 70.97,-186.53"/>
</g>
<!-- aa6ef7bc380e3e98362b4276d24b8046b1f4f758 -->
<g id="node7" class="node">
<title>aa6ef7bc380e3e98362b4276d24b8046b1f4f758</title>
<g id="a_node7"><a xlink:title="author: First Last &lt;first.last@mail.com&gt;&#10;Wed Jan 01 09:00:00 2025 +0100&#10;committer: Nom Prenom &lt;nom.prenom@mail.com&gt;&#10;Wed Jan 01 09:00:00 2025 +0100&#10;&#10;Third commit">
<polygon fill="darkorange" stroke="darkorange" points="163.81,-233.7 104.62,-233.7 104.62,-215.76 163.81,-215.76 163.81,-233.7"/>
<text text-anchor="middle" x="134.22" y="-219.68" font-family="Courier,monospace" font-size="14.00">aa6ef7b</text>
</a>
</g>
</g>
<!-- aa6ef7bc380e3e98362b4276d24b8046b1f4f758&#45;&gt;03c5025d075bbe625608593e3bf4671daebebcc4 -->
<g id="edge10" class="edge">
<title>aa6ef7bc380e3e98362b4276d24b8046b1f4f758&#45;&gt;03c5025d075bbe625608593e3bf4671daebebcc4</title>
<path fill="none" stroke="#1a1a1a" d="M123.78,-215.38C113.1,-206.85 96.41,-193.52 84.3,-183.84"/>
<polygon fill="#1a1a1a" stroke="#1a1a1a" points="85.6,-182.64 80.61,-180.89 83.42,-185.38 85.6,-182.64"/>
</g>
<!-- aa6ef7bc380e3e98362b4276d24b8046b1f4f758&#45;&gt;3c4e9cd789d88d8d89c1073707c3585e41b0e614 -->
<g id="edge11" class="edge">
<title>aa6ef7bc380e3e98362b4276d24b8046b1f4f758&#45;&gt;3c4e9cd789d88d8d89c1073707c3585e41b0e614</title>
<path fill="none" stroke="#1a1a1a" d="M134.3,-215.42C134.47,-197.48 134.87,-154.94 135.08,-132.42"/>
<polygon fill="#1a1a1a" stroke="#1a1a1a" points="136.83,-132.65 135.13,-127.63 133.33,-132.62 136.83,-132.65"/>
</g>
<!-- d8329fc1cc938780ffdd9f94e0d364e0ea74f579&#45;&gt;83baae61804e65cc73a7201a7252750c76066a30 -->
<g id="edge12" class="edge">
<title>d8329fc1cc938780ffdd9f94e0d364e0ea74f579&#45;&gt;83baae61804e65cc73a7201a7252750c76066a30</title>
<path fill="none" stroke="#1a1a1a" d="M212.22,-53.79C212.22,-45.99 212.22,-34.01 212.22,-24.55"/>
<polygon fill="#1a1a1a" stroke="#1a1a1a" points="213.97,-24.71 212.22,-19.71 210.47,-24.71 213.97,-24.71"/>
</g>
<!-- fa26b470d9508bebe2029623de8770215ebb26a0&#45;&gt;d8329fc1cc938780ffdd9f94e0d364e0ea74f579 -->
<g id="edge13" class="edge">
<title>fa26b470d9508bebe2029623de8770215ebb26a0&#45;&gt;d8329fc1cc938780ffdd9f94e0d364e0ea74f579</title>
<path fill="none" stroke="#1a1a1a" d="M212.22,-107.73C212.22,-99.93 212.22,-87.95 212.22,-78.49"/>
<polygon fill="#1a1a1a" stroke="#1a1a1a" points="213.97,-78.65 212.22,-73.65 210.47,-78.65 213.97,-78.65"/>
</g>
<!-- 224f62133906b4b68a5652b73f779c4a381eadd8 -->
<g id="node11" class="node">
<title>224f62133906b4b68a5652b73f779c4a381eadd8</title>
<g id="a_node11"><a xlink:title="Nom Prenom &lt;nom.prenom@mail.com&gt;&#10;Wed Jan 1 09:00:00 2025 +0100&#10;&#10;First commit&#10;">
<polygon fill="pink" stroke="pink" points="262.44,-179.76 162,-179.76 162,-161.82 262.44,-161.82 262.44,-179.76"/>
<text text-anchor="middle" x="212.22" y="-165.74" font-family="Courier,monospace" font-size="14.00">first&#45;commit</text>
</a>
</g>
</g>
<!-- 224f62133906b4b68a5652b73f779c4a381eadd8&#45;&gt;fa26b470d9508bebe2029623de8770215ebb26a0 -->
<g id="edge5" class="edge">
<title>224f62133906b4b68a5652b73f779c4a381eadd8&#45;&gt;fa26b470d9508bebe2029623de8770215ebb26a0</title>
<path fill="none" stroke="#1a1a1a" d="M212.22,-161.67C212.22,-153.87 212.22,-141.89 212.22,-132.43"/>
<polygon fill="#1a1a1a" stroke="#1a1a1a" points="213.97,-132.59 212.22,-127.59 210.47,-132.59 213.97,-132.59"/>
</g>
<!-- local&#45;branch&#45;main -->
<g id="node12" class="node">
<title>local&#45;branch&#45;main</title>
<g id="a_node12"><a xlink:title="&#45;&gt; None">
<polygon fill="forestgreen" stroke="forestgreen" points="34.44,-233.7 0,-233.7 0,-215.76 34.44,-215.76 34.44,-233.7"/>
<text text-anchor="middle" x="17.22" y="-219.68" font-family="Courier,monospace" font-size="14.00">main</text>
</a>
</g>
</g>
<!-- local&#45;branch&#45;main&#45;&gt;03c5025d075bbe625608593e3bf4671daebebcc4 -->
<g id="edge14" class="edge">
<title>local&#45;branch&#45;main&#45;&gt;03c5025d075bbe625608593e3bf4671daebebcc4</title>
<path fill="none" stroke="#1a1a1a" d="M25.34,-215.61C33.69,-207.28 46.8,-194.18 56.52,-184.48"/>
<polygon fill="#1a1a1a" stroke="#1a1a1a" points="57.61,-185.86 59.91,-181.09 55.14,-183.39 57.61,-185.86"/>
</g>
<!-- d670460b4b4aece5915caf5c68d12f560a9fe3e4 -->
<g id="node13" class="node">
<title>d670460b4b4aece5915caf5c68d12f560a9fe3e4</title>
<g id="a_node13"><a xlink:title="d670460b4b4aece5915caf5c68d12f560a9fe3e4">
<polygon fill="gray" stroke="gray" points="260.82,-233.7 204.62,-233.7 204.62,-215.76 263.81,-215.76 263.81,-230.71 260.82,-233.7"/>
<polyline fill="none" stroke="gray" points="260.82,-233.7 260.82,-230.71"/>
<polyline fill="none" stroke="gray" points="263.81,-230.71 260.82,-230.71"/>
<text text-anchor="middle" x="234.22" y="-219.68" font-family="Courier,monospace" font-size="14.00">d670460</text>
</a>
</g>
</g>
</g>
</svg>
