<?xml version="1.0" encoding="UTF-8" standalone="no"?>
<!DOCTYPE svg PUBLIC "-//W3C//DTD SVG 1.1//EN"
 "http://www.w3.org/Graphics/SVG/1.1/DTD/svg11.dtd">
<!-- Generated by graphviz version 12.1.0 (20240811.2233)
 -->
<!-- Pages: 1 -->
<svg width="238pt" height="188pt"
 viewBox="0.00 0.00 238.44 187.76" xmlns="http://www.w3.org/2000/svg" xmlns:xlink="http://www.w3.org/1999/xlink">
<g id="graph0" class="graph" transform="scale(1 1) rotate(0) translate(4 183.76)">
<polygon fill="white" stroke="none" points="-4,4 -4,-183.76 234.44,-183.76 234.44,4 -4,4"/>
<!-- 03c5025d075bbe625608593e3bf4671daebebcc4 -->
<g id="node1" class="node">
<title>03c5025d075bbe625608593e3bf4671daebebcc4</title>
<g id="a_node1"><a xlink:title="author: First Last &lt;first.last@mail.com&gt;&#10;Wed Jan 01 09:00:00 2025 +0100&#10;committer: Nom Prenom &lt;nom.prenom@mail.com&gt;&#10;Wed Jan 01 09:00:00 2025 +0100&#10;&#10;Second commit">
<polygon fill="#cdad00" stroke="#cdad00" points="177.81,-71.88 118.62,-71.88 118.62,-53.94 177.81,-53.94 177.81,-71.88"/>
<text text-anchor="middle" x="148.22" y="-57.86" font-family="Courier,monospace" font-size="14.00">03c5025</text>
</a>
</g>
</g>
<!-- fa26b470d9508bebe2029623de8770215ebb26a0 -->
<g id="node4" class="node">
<title>fa26b470d9508bebe2029623de8770215ebb26a0</title>
<g id="a_node4"><a xlink:title="author: First Last &lt;first.last@mail.com&gt;&#10;Wed Jan 01 09:00:00 2025 +0100&#10;committer: Nom Prenom &lt;nom.prenom@mail.com&gt;&#10;Wed Jan 01 09:00:00 2025 +0100&#10;&#10;First commit">
<polygon fill="#cdad00" stroke="#cdad00" points="128.81,-17.94 69.62,-17.94 69.62,0 128.81,0 128.81,-17.94"/>
<text text-anchor="middle" x="99.22" y="-3.92" font-family="Courier,monospace" font-size="14.00">fa26b47</text>
</a>
</g>
</g>
<!-- 03c5025d075bbe625608593e3bf4671daebebcc4&#45;&gt;fa26b470d9508bebe2029623de8770215ebb26a0 -->
<g id="edge1" class="edge">
<title>03c5025d075bbe625608593e3bf4671daebebcc4&#45;&gt;fa26b470d9508bebe2029623de8770215ebb26a0</title>
<path fill="none" stroke="#1a1a1a" d="M140.56,-53.79C132.77,-45.53 120.57,-32.6 111.44,-22.92"/>
<polygon fill="#1a1a1a" stroke="#1a1a1a" points="112.73,-21.74 108.02,-19.3 110.18,-24.14 112.73,-21.74"/>
</g>
<!-- HEAD -->
<g id="node2" class="node">
<title>HEAD</title>
<g id="a_node2"><a xlink:title="03c5025d075bbe625608593e3bf4671daebebcc4">
<polygon fill="cornflowerblue" stroke="black" points="100.44,-125.82 66,-125.82 66,-107.88 100.44,-107.88 100.44,-125.82"/>
<text text-anchor="middle" x="83.22" y="-111.8" font-family="Courier,monospace" font-size="14.00">HEAD</text>
</a>
</g>
</g>
<!-- HEAD&#45;&gt;03c5025d075bbe625608593e3bf4671daebebcc4 -->
<g id="edge3" class="edge">
<title>HEAD&#45;&gt;03c5025d075bbe625608593e3bf4671daebebcc4</title>
<path fill="none" stroke="#1a1a1a" d="M93.66,-107.5C104.34,-98.97 121.03,-85.64 133.14,-75.96"/>
<polygon fill="#1a1a1a" stroke="#1a1a1a" points="134.02,-77.5 136.83,-73.01 131.84,-74.76 134.02,-77.5"/>
</g>
<!-- aa6ef7bc380e3e98362b4276d24b8046b1f4f758 -->
<g id="node3" class="node">
<title>aa6ef7bc380e3e98362b4276d24b8046b1f4f758</title>
<g id="a_node3"><a xlink:title="author: First Last &lt;first.last@mail.com&gt;&#10;Wed Jan 01 09:00:00 2025 +0100&#10;committer: Nom Prenom &lt;nom.prenom@mail.com&gt;&#10;Wed Jan 01 09:00:00 2025 +0100&#10;&#10;Third commit">
<polygon fill="#cdad00" stroke="#cdad00" points="177.81,-125.82 118.62,-125.82 118.62,-107.88 177.81,-107.88 177.81,-125.82"/>
<text text-anchor="middle" x="148.22" y="-111.8" font-family="Courier,monospace" font-size="14.00">aa6ef7b</text>
</a>
</g>
</g>
<!-- aa6ef7bc380e3e98362b4276d24b8046b1f4f758&#45;&gt;03c5025d075bbe625608593e3bf4671daebebcc4 -->
<g id="edge4" class="edge">
<title>aa6ef7bc380e3e98362b4276d24b8046b1f4f758&#45;&gt;03c5025d075bbe625608593e3bf4671daebebcc4</title>
<path fill="none" stroke="#1a1a1a" d="M148.22,-107.73C148.22,-99.93 148.22,-87.95 148.22,-78.49"/>
<polygon fill="#1a1a1a" stroke="#1a1a1a" points="149.97,-78.65 148.22,-73.65 146.47,-78.65 149.97,-78.65"/>
</g>
<!-- 224f62133906b4b68a5652b73f779c4a381eadd8 -->
<g id="node5" class="node">
<title>224f62133906b4b68a5652b73f779c4a381eadd8</title>
<g id="a_node5"><a xlink:title="Nom Prenom &lt;nom.prenom@mail.com&gt;&#10;Wed Jan 1 09:00:00 2025 +0100&#10;&#10;First commit&#10;">
<polygon fill="pink" stroke="pink" points="100.44,-71.88 0,-71.88 0,-53.94 100.44,-53.94 100.44,-71.88"/>
<text text-anchor="middle" x="50.22" y="-57.86" font-family="Courier,monospace" font-size="14.00">first&#45;commit</text>
</a>
</g>
</g>
<!-- 224f62133906b4b68a5652b73f779c4a381eadd8&#45;&gt;fa26b470d9508bebe2029623de8770215ebb26a0 -->
<g id="edge2" class="edge">
<title>224f62133906b4b68a5652b73f779c4a381eadd8&#45;&gt;fa26b470d9508bebe2029623de8770215ebb26a0</title>
<path fill="none" stroke="#1a1a1a" d="M57.88,-53.79C65.67,-45.53 77.87,-32.6 87,-22.92"/>
<polygon fill="#1a1a1a" stroke="#1a1a1a" points="88.26,-24.14 90.42,-19.3 85.71,-21.74 88.26,-24.14"/>
</g>
<!-- local&#45;branch&#45;main -->
<g id="node6" class="node">
<title>local&#45;branch&#45;main</title>
<g id="a_node6"><a xlink:title="&#45;&gt; None">
<polygon fill="forestgreen" stroke="forestgreen" points="230.44,-125.82 196,-125.82 196,-107.88 230.44,-107.88 230.44,-125.82"/>
<text text-anchor="middle" x="213.22" y="-111.8" font-family="Courier,monospace" font-size="14.00">main</text>
</a>
</g>
</g>
<!-- local&#45;branch&#45;main&#45;&gt;03c5025d075bbe625608593e3bf4671daebebcc4 -->
<g id="edge5" class="edge">
<title>local&#45;branch&#45;main&#45;&gt;03c5025d075bbe625608593e3bf4671daebebcc4</title>
<path fill="none" stroke="#1a1a1a" d="M202.78,-107.5C192.1,-98.97 175.41,-85.64 163.3,-75.96"/>
<polygon fill="#1a1a1a" stroke="#1a1a1a" points="164.6,-74.76 159.61,-73.01 162.42,-77.5 164.6,-74.76"/>
</g>
<!-- lwt&#45;third&#45;commit&#45;aa6ef7bc380e3e98362b4276d24b8046b1f4f758 -->
<g id="node7" class="node">
<title>lwt&#45;third&#45;commit&#45;aa6ef7bc380e3e98362b4276d24b8046b1f4f758</title>
<g id="a_node7"><a xlink:title="aa6ef7bc380e3e98362b4276d24b8046b1f4f758">
<polygon fill="lightcoral" stroke="lightcoral" points="198.44,-179.76 98,-179.76 98,-161.82 198.44,-161.82 198.44,-179.76"/>
<text text-anchor="middle" x="148.22" y="-165.74" font-family="Courier,monospace" font-size="14.00">third&#45;commit</text>
</a>
</g>
</g>
<!-- lwt&#45;third&#45;commit&#45;aa6ef7bc380e3e98362b4276d24b8046b1f4f758&#45;&gt;aa6ef7bc380e3e98362b4276d24b8046b1f4f758 -->
<g id="edge6" class="edge">
<title>lwt&#45;third&#45;commit&#45;aa6ef7bc380e3e98362b4276d24b8046b1f4f758&#45;&gt;aa6ef7bc380e3e98362b4276d24b8046b1f4f758</title>
<path fill="none" stroke="#1a1a1a" d="M148.22,-161.67C148.22,-153.87 148.22,-141.89 148.22,-132.43"/>
<polygon fill="#1a1a1a" stroke="#1a1a1a" points="149.97,-132.59 148.22,-127.59 146.47,-132.59 149.97,-132.59"/>
</g>
</g>
</svg>
