<?xml version="1.0" encoding="UTF-8" standalone="no"?>
<!DOCTYPE svg PUBLIC "-//W3C//DTD SVG 1.1//EN"
 "http://www.w3.org/Graphics/SVG/1.1/DTD/svg11.dtd">
<!-- Generated by graphviz version 12.1.0 (20240811.2233)
 -->
<!-- Pages: 1 -->
<svg width="120pt" height="207pt"
 viewBox="0.00 0.00 120.00 206.82" xmlns="http://www.w3.org/2000/svg" xmlns:xlink="http://www.w3.org/1999/xlink">
<g id="graph0" class="graph" transform="scale(1 1) rotate(0) translate(4 202.82)">
<polygon fill="white" stroke="none" points="-4,4 -4,-202.82 116,-202.82 116,4 -4,4"/>
<g id="clust1" class="cluster">
<title>cluster_standalone</title>
<polygon fill="white" stroke="lightgrey" points="8,-8 8,-190.82 104,-190.82 104,-8 8,-8"/>
<text text-anchor="middle" x="56" y="-173.52" font-family="Times,serif" font-size="14.00">Standalone</text>
<text text-anchor="middle" x="56" y="-157.02" font-family="Times,serif" font-size="14.00">Trees &amp; Blobs</text>
</g>
<!-- 1f7a7a472abf3dd9643fd615f6da379c4acb3e3a -->
<g id="node1" class="node">
<title>1f7a7a472abf3dd9643fd615f6da379c4acb3e3a</title>
<g id="a_node1"><a xlink:title="1f7a7a472abf3dd9643fd615f6da379c4acb3e3a">
<polygon fill="gray" stroke="gray" points="78.86,-141.82 30.16,-141.82 30.16,-123.88 81.84,-123.88 81.84,-138.83 78.86,-141.82"/>
<polyline fill="none" stroke="gray" points="78.86,-141.82 78.86,-138.83"/>
<polyline fill="none" stroke="gray" points="81.84,-138.83 78.86,-138.83"/>
<text text-anchor="middle" x="56" y="-127.8" font-family="Times,serif" font-size="14.00">1f7a7a47</text>
</a>
</g>
</g>
<!-- 83baae61804e65cc73a7201a7252750c76066a30 -->
<g id="node2" class="node">
<title>83baae61804e65cc73a7201a7252750c76066a30</title>
<g id="a_node2"><a xlink:title="83baae61804e65cc73a7201a7252750c76066a30">
<polygon fill="gray" stroke="gray" points="79.61,-87.88 29.41,-87.88 29.41,-69.94 82.59,-69.94 82.59,-84.89 79.61,-87.88"/>
<polyline fill="none" stroke="gray" points="79.61,-87.88 79.61,-84.89"/>
<polyline fill="none" stroke="gray" points="82.59,-84.89 79.61,-84.89"/>
<text text-anchor="middle" x="56" y="-73.86" font-family="Times,serif" font-size="14.00">83baae61</text>
</a>
</g>
</g>
<!-- 1f7a7a472abf3dd9643fd615f6da379c4acb3e3a&#45;&gt;83baae61804e65cc73a7201a7252750c76066a30 -->
<!-- d670460b4b4aece5915caf5c68d12f560a9fe3e4 -->
<g id="node3" class="node">
<title>d670460b4b4aece5915caf5c68d12f560a9fe3e4</title>
<g id="a_node3"><a xlink:title="d670460b4b4aece5915caf5c68d12f560a9fe3e4">
<polygon fill="gray" stroke="gray" points="80.73,-33.94 28.28,-33.94 28.28,-16 83.72,-16 83.72,-30.95 80.73,-33.94"/>
<polyline fill="none" stroke="gray" points="80.73,-33.94 80.73,-30.95"/>
<polyline fill="none" stroke="gray" points="83.72,-30.95 80.73,-30.95"/>
<text text-anchor="middle" x="56" y="-19.92" font-family="Times,serif" font-size="14.00">d670460b</text>
</a>
</g>
</g>
<!-- 83baae61804e65cc73a7201a7252750c76066a30&#45;&gt;d670460b4b4aece5915caf5c68d12f560a9fe3e4 -->
</g>
</svg>
