<?xml version="1.0" encoding="UTF-8" standalone="no"?>
<!DOCTYPE svg PUBLIC "-//W3C//DTD SVG 1.1//EN"
 "http://www.w3.org/Graphics/SVG/1.1/DTD/svg11.dtd">
<!-- Generated by graphviz version 12.1.0 (20240811.2233)
 -->
<!-- Pages: 1 -->
<svg width="162pt" height="207pt"
 viewBox="0.00 0.00 162.00 206.82" xmlns="http://www.w3.org/2000/svg" xmlns:xlink="http://www.w3.org/1999/xlink">
<g id="graph0" class="graph" transform="scale(1 1) rotate(0) translate(4 202.82)">
<polygon fill="white" stroke="none" points="-4,4 -4,-202.82 158,-202.82 158,4 -4,4"/>
<g id="clust1" class="cluster">
<title>cluster_standalone</title>
<polygon fill="white" stroke="lightgrey" points="8,-8 8,-190.82 146,-190.82 146,-8 8,-8"/>
<text text-anchor="middle" x="77" y="-173.52" font-family="Times,serif" font-size="14.00">Standalone</text>
<text text-anchor="middle" x="77" y="-157.02" font-family="Times,serif" font-size="14.00">Trees &amp; Blobs</text>
</g>
<!-- d8329fc1cc938780ffdd9f94e0d364e0ea74f579 -->
<g id="node1" class="node">
<title>d8329fc1cc938780ffdd9f94e0d364e0ea74f579</title>
<g id="a_node1"><a xlink:title="d8329fc1cc938780ffdd9f94e0d364e0ea74f579">
<polygon fill="#00688b" stroke="#00688b" points="68.22,-141.82 66.72,-143.81 56.26,-143.81 54.77,-141.82 15.78,-141.82 15.78,-123.88 68.22,-123.88 68.22,-141.82"/>
<text text-anchor="middle" x="42" y="-127.8" font-family="Times,serif" font-size="14.00">d8329fc1</text>
</a>
</g>
</g>
<!-- 83baae61804e65cc73a7201a7252750c76066a30 -->
<g id="node2" class="node">
<title>83baae61804e65cc73a7201a7252750c76066a30</title>
<g id="a_node2"><a xlink:title="test.txt">
<polygon fill="gray" stroke="gray" points="100.61,-87.88 50.41,-87.88 50.41,-69.94 103.59,-69.94 103.59,-84.89 100.61,-87.88"/>
<polyline fill="none" stroke="gray" points="100.61,-87.88 100.61,-84.89"/>
<polyline fill="none" stroke="gray" points="103.59,-84.89 100.61,-84.89"/>
<text text-anchor="middle" x="77" y="-73.86" font-family="Times,serif" font-size="14.00">83baae61</text>
</a>
</g>
</g>
<!-- d8329fc1cc938780ffdd9f94e0d364e0ea74f579&#45;&gt;83baae61804e65cc73a7201a7252750c76066a30 -->
<g id="edge1" class="edge">
<title>d8329fc1cc938780ffdd9f94e0d364e0ea74f579&#45;&gt;83baae61804e65cc73a7201a7252750c76066a30</title>
<path fill="none" stroke="#1a1a1a" d="M47.47,-123.73C52.93,-115.63 61.43,-103.01 67.91,-93.4"/>
<polygon fill="#1a1a1a" stroke="#1a1a1a" points="69.27,-94.52 70.61,-89.4 66.36,-92.56 69.27,-94.52"/>
</g>
<!-- d670460b4b4aece5915caf5c68d12f560a9fe3e4 -->
<g id="node4" class="node">
<title>d670460b4b4aece5915caf5c68d12f560a9fe3e4</title>
<g id="a_node4"><a xlink:title="d670460b4b4aece5915caf5c68d12f560a9fe3e4">
<polygon fill="gray" stroke="gray" points="101.73,-33.94 49.28,-33.94 49.28,-16 104.72,-16 104.72,-30.95 101.73,-33.94"/>
<polyline fill="none" stroke="gray" points="101.73,-33.94 101.73,-30.95"/>
<polyline fill="none" stroke="gray" points="104.72,-30.95 101.73,-30.95"/>
<text text-anchor="middle" x="77" y="-19.92" font-family="Times,serif" font-size="14.00">d670460b</text>
</a>
</g>
</g>
<!-- 83baae61804e65cc73a7201a7252750c76066a30&#45;&gt;d670460b4b4aece5915caf5c68d12f560a9fe3e4 -->
<!-- 1f7a7a472abf3dd9643fd615f6da379c4acb3e3a -->
<g id="node3" class="node">
<title>1f7a7a472abf3dd9643fd615f6da379c4acb3e3a</title>
<g id="a_node3"><a xlink:title="1f7a7a472abf3dd9643fd615f6da379c4acb3e3a">
<polygon fill="gray" stroke="gray" points="134.85,-141.82 86.16,-141.82 86.16,-123.88 137.84,-123.88 137.84,-138.83 134.85,-141.82"/>
<polyline fill="none" stroke="gray" points="134.85,-141.82 134.85,-138.83"/>
<polyline fill="none" stroke="gray" points="137.84,-138.83 134.85,-138.83"/>
<text text-anchor="middle" x="112" y="-127.8" font-family="Times,serif" font-size="14.00">1f7a7a47</text>
</a>
</g>
</g>
<!-- 1f7a7a472abf3dd9643fd615f6da379c4acb3e3a&#45;&gt;83baae61804e65cc73a7201a7252750c76066a30 -->
</g>
</svg>
