<?xml version="1.0" encoding="UTF-8" standalone="no"?>
<!DOCTYPE svg PUBLIC "-//W3C//DTD SVG 1.1//EN"
 "http://www.w3.org/Graphics/SVG/1.1/DTD/svg11.dtd">
<!-- Generated by graphviz version 12.1.0 (20240811.2233)
 -->
<!-- Pages: 1 -->
<svg width="182pt" height="315pt"
 viewBox="0.00 0.00 182.00 314.70" xmlns="http://www.w3.org/2000/svg" xmlns:xlink="http://www.w3.org/1999/xlink">
<g id="graph0" class="graph" transform="scale(1 1) rotate(0) translate(4 310.7)">
<polygon fill="white" stroke="none" points="-4,4 -4,-310.7 178,-310.7 178,4 -4,4"/>
<g id="clust1" class="cluster">
<title>cluster_standalone</title>
<polygon fill="white" stroke="lightgrey" points="8,-8 8,-298.7 166,-298.7 166,-8 8,-8"/>
<text text-anchor="middle" x="87" y="-281.4" font-family="Times,serif" font-size="14.00">Standalone</text>
<text text-anchor="middle" x="87" y="-264.9" font-family="Times,serif" font-size="14.00">Trees &amp; Blobs</text>
</g>
<!-- 0155eb4229851634a0f03eb265b69f5a2d56f341 -->
<g id="node1" class="node">
<title>0155eb4229851634a0f03eb265b69f5a2d56f341</title>
<g id="a_node1"><a xlink:title="0155eb4229851634a0f03eb265b69f5a2d56f341">
<polygon fill="#00688b" stroke="#00688b" points="139.34,-249.7 137.85,-251.69 127.39,-251.69 125.89,-249.7 84.66,-249.7 84.66,-231.76 139.34,-231.76 139.34,-249.7"/>
<text text-anchor="middle" x="112" y="-235.68" font-family="Times,serif" font-size="14.00">0155eb42</text>
</a>
</g>
</g>
<!-- 1f7a7a472abf3dd9643fd615f6da379c4acb3e3a -->
<g id="node2" class="node">
<title>1f7a7a472abf3dd9643fd615f6da379c4acb3e3a</title>
<g id="a_node2"><a xlink:title="test.txt">
<polygon fill="gray" stroke="gray" points="64.86,-195.76 16.16,-195.76 16.16,-177.82 67.84,-177.82 67.84,-192.77 64.86,-195.76"/>
<polyline fill="none" stroke="gray" points="64.86,-195.76 64.86,-192.77"/>
<polyline fill="none" stroke="gray" points="67.84,-192.77 64.86,-192.77"/>
<text text-anchor="middle" x="42" y="-181.74" font-family="Times,serif" font-size="14.00">1f7a7a47</text>
</a>
</g>
</g>
<!-- 0155eb4229851634a0f03eb265b69f5a2d56f341&#45;&gt;1f7a7a472abf3dd9643fd615f6da379c4acb3e3a -->
<g id="edge1" class="edge">
<title>0155eb4229851634a0f03eb265b69f5a2d56f341&#45;&gt;1f7a7a472abf3dd9643fd615f6da379c4acb3e3a</title>
<path fill="none" stroke="#1a1a1a" d="M100.75,-231.38C89.15,-222.78 70.96,-209.28 57.89,-199.58"/>
<polygon fill="#1a1a1a" stroke="#1a1a1a" points="59.26,-198.42 54.2,-196.84 57.18,-201.23 59.26,-198.42"/>
</g>
<!-- fa49b077972391ad58037050f2a75f74e3671e92 -->
<g id="node3" class="node">
<title>fa49b077972391ad58037050f2a75f74e3671e92</title>
<g id="a_node3"><a xlink:title="new.txt">
<polygon fill="gray" stroke="gray" points="144.23,-33.94 94.78,-33.94 94.78,-16 147.22,-16 147.22,-30.95 144.23,-33.94"/>
<polyline fill="none" stroke="gray" points="144.23,-33.94 144.23,-30.95"/>
<polyline fill="none" stroke="gray" points="147.22,-30.95 144.23,-30.95"/>
<text text-anchor="middle" x="121" y="-19.92" font-family="Times,serif" font-size="14.00">fa49b077</text>
</a>
</g>
</g>
<!-- 0155eb4229851634a0f03eb265b69f5a2d56f341&#45;&gt;fa49b077972391ad58037050f2a75f74e3671e92 -->
<g id="edge2" class="edge">
<title>0155eb4229851634a0f03eb265b69f5a2d56f341&#45;&gt;fa49b077972391ad58037050f2a75f74e3671e92</title>
<path fill="none" stroke="#1a1a1a" d="M121.55,-231.42C130.08,-223.31 141.98,-210.13 147,-195.76 165.45,-142.97 161.75,-123.88 147,-69.94 144,-58.96 137.47,-47.93 131.7,-39.67"/>
<polygon fill="#1a1a1a" stroke="#1a1a1a" points="133.13,-38.66 128.78,-35.65 130.3,-40.72 133.13,-38.66"/>
</g>
<!-- d8329fc1cc938780ffdd9f94e0d364e0ea74f579 -->
<g id="node4" class="node">
<title>d8329fc1cc938780ffdd9f94e0d364e0ea74f579</title>
<g id="a_node4"><a xlink:title="d8329fc1cc938780ffdd9f94e0d364e0ea74f579">
<polygon fill="#00688b" stroke="#00688b" points="138.22,-195.76 136.72,-197.75 126.26,-197.75 124.77,-195.76 85.78,-195.76 85.78,-177.82 138.22,-177.82 138.22,-195.76"/>
<text text-anchor="middle" x="112" y="-181.74" font-family="Times,serif" font-size="14.00">d8329fc1</text>
</a>
</g>
</g>
<!-- 0155eb4229851634a0f03eb265b69f5a2d56f341&#45;&gt;d8329fc1cc938780ffdd9f94e0d364e0ea74f579 -->
<!-- 83baae61804e65cc73a7201a7252750c76066a30 -->
<g id="node5" class="node">
<title>83baae61804e65cc73a7201a7252750c76066a30</title>
<g id="a_node5"><a xlink:title="test.txt">
<polygon fill="gray" stroke="gray" points="133.6,-141.82 83.41,-141.82 83.41,-123.88 136.59,-123.88 136.59,-138.83 133.6,-141.82"/>
<polyline fill="none" stroke="gray" points="133.6,-141.82 133.6,-138.83"/>
<polyline fill="none" stroke="gray" points="136.59,-138.83 133.6,-138.83"/>
<text text-anchor="middle" x="110" y="-127.8" font-family="Times,serif" font-size="14.00">83baae61</text>
</a>
</g>
</g>
<!-- 1f7a7a472abf3dd9643fd615f6da379c4acb3e3a&#45;&gt;83baae61804e65cc73a7201a7252750c76066a30 -->
<!-- d8329fc1cc938780ffdd9f94e0d364e0ea74f579&#45;&gt;83baae61804e65cc73a7201a7252750c76066a30 -->
<g id="edge3" class="edge">
<title>d8329fc1cc938780ffdd9f94e0d364e0ea74f579&#45;&gt;83baae61804e65cc73a7201a7252750c76066a30</title>
<path fill="none" stroke="#1a1a1a" d="M111.69,-177.67C111.39,-169.87 110.93,-157.89 110.56,-148.43"/>
<polygon fill="#1a1a1a" stroke="#1a1a1a" points="112.32,-148.52 110.38,-143.59 108.82,-148.66 112.32,-148.52"/>
</g>
<!-- d670460b4b4aece5915caf5c68d12f560a9fe3e4 -->
<g id="node6" class="node">
<title>d670460b4b4aece5915caf5c68d12f560a9fe3e4</title>
<g id="a_node6"><a xlink:title="d670460b4b4aece5915caf5c68d12f560a9fe3e4">
<polygon fill="gray" stroke="gray" points="134.73,-87.88 82.28,-87.88 82.28,-69.94 137.72,-69.94 137.72,-84.89 134.73,-87.88"/>
<polyline fill="none" stroke="gray" points="134.73,-87.88 134.73,-84.89"/>
<polyline fill="none" stroke="gray" points="137.72,-84.89 134.73,-84.89"/>
<text text-anchor="middle" x="110" y="-73.86" font-family="Times,serif" font-size="14.00">d670460b</text>
</a>
</g>
</g>
<!-- 83baae61804e65cc73a7201a7252750c76066a30&#45;&gt;d670460b4b4aece5915caf5c68d12f560a9fe3e4 -->
<!-- d670460b4b4aece5915caf5c68d12f560a9fe3e4&#45;&gt;fa49b077972391ad58037050f2a75f74e3671e92 -->
</g>
</svg>
