<?xml version="1.0" encoding="UTF-8" standalone="no"?>
<!DOCTYPE svg PUBLIC "-//W3C//DTD SVG 1.1//EN"
 "http://www.w3.org/Graphics/SVG/1.1/DTD/svg11.dtd">
<!-- Generated by graphviz version 12.1.0 (20240811.2233)
 -->
<!-- Pages: 1 -->
<svg width="202pt" height="369pt"
 viewBox="0.00 0.00 202.00 368.64" xmlns="http://www.w3.org/2000/svg" xmlns:xlink="http://www.w3.org/1999/xlink">
<g id="graph0" class="graph" transform="scale(1 1) rotate(0) translate(4 364.64)">
<polygon fill="white" stroke="none" points="-4,4 -4,-364.64 198,-364.64 198,4 -4,4"/>
<g id="clust1" class="cluster">
<title>cluster_standalone</title>
<polygon fill="white" stroke="lightgrey" points="8,-8 8,-352.64 186,-352.64 186,-8 8,-8"/>
<text text-anchor="middle" x="97" y="-335.34" font-family="Times,serif" font-size="14.00">Standalone</text>
<text text-anchor="middle" x="97" y="-318.84" font-family="Times,serif" font-size="14.00">Trees &amp; Blobs</text>
</g>
<!-- 0155eb4229851634a0f03eb265b69f5a2d56f341 -->
<g id="node1" class="node">
<title>0155eb4229851634a0f03eb265b69f5a2d56f341</title>
<g id="a_node1"><a xlink:title="0155eb4229851634a0f03eb265b69f5a2d56f341">
<polygon fill="#00688b" stroke="#00688b" points="89.34,-303.64 87.85,-305.63 77.38,-305.63 75.89,-303.64 34.66,-303.64 34.66,-285.7 89.34,-285.7 89.34,-303.64"/>
<text text-anchor="middle" x="62" y="-289.62" font-family="Times,serif" font-size="14.00">0155eb42</text>
</a>
</g>
</g>
<!-- 1f7a7a472abf3dd9643fd615f6da379c4acb3e3a -->
<g id="node2" class="node">
<title>1f7a7a472abf3dd9643fd615f6da379c4acb3e3a</title>
<g id="a_node2"><a xlink:title="test.txt">
<polygon fill="gray" stroke="gray" points="84.86,-195.76 36.16,-195.76 36.16,-177.82 87.84,-177.82 87.84,-192.77 84.86,-195.76"/>
<polyline fill="none" stroke="gray" points="84.86,-195.76 84.86,-192.77"/>
<polyline fill="none" stroke="gray" points="87.84,-192.77 84.86,-192.77"/>
<text text-anchor="middle" x="62" y="-181.74" font-family="Times,serif" font-size="14.00">1f7a7a47</text>
</a>
</g>
</g>
<!-- 0155eb4229851634a0f03eb265b69f5a2d56f341&#45;&gt;1f7a7a472abf3dd9643fd615f6da379c4acb3e3a -->
<g id="edge1" class="edge">
<title>0155eb4229851634a0f03eb265b69f5a2d56f341&#45;&gt;1f7a7a472abf3dd9643fd615f6da379c4acb3e3a</title>
<path fill="none" stroke="#1a1a1a" d="M62,-285.36C62,-267.42 62,-224.88 62,-202.36"/>
<polygon fill="#1a1a1a" stroke="#1a1a1a" points="63.75,-202.57 62,-197.57 60.25,-202.57 63.75,-202.57"/>
</g>
<!-- fa49b077972391ad58037050f2a75f74e3671e92 -->
<g id="node3" class="node">
<title>fa49b077972391ad58037050f2a75f74e3671e92</title>
<g id="a_node3"><a xlink:title="new.txt">
<polygon fill="gray" stroke="gray" points="120.23,-33.94 70.78,-33.94 70.78,-16 123.22,-16 123.22,-30.95 120.23,-33.94"/>
<polyline fill="none" stroke="gray" points="120.23,-33.94 120.23,-30.95"/>
<polyline fill="none" stroke="gray" points="123.22,-30.95 120.23,-30.95"/>
<text text-anchor="middle" x="97" y="-19.92" font-family="Times,serif" font-size="14.00">fa49b077</text>
</a>
</g>
</g>
<!-- 0155eb4229851634a0f03eb265b69f5a2d56f341&#45;&gt;fa49b077972391ad58037050f2a75f74e3671e92 -->
<g id="edge2" class="edge">
<title>0155eb4229851634a0f03eb265b69f5a2d56f341&#45;&gt;fa49b077972391ad58037050f2a75f74e3671e92</title>
<path fill="none" stroke="#1a1a1a" d="M55.74,-285.4C43.38,-268.21 17,-226.94 17,-187.79 17,-187.79 17,-187.79 17,-131.85 17,-90.73 55.89,-55.47 79.44,-37.9"/>
<polygon fill="#1a1a1a" stroke="#1a1a1a" points="80.26,-39.47 83.28,-35.11 78.2,-36.64 80.26,-39.47"/>
</g>
<!-- 3c4e9cd789d88d8d89c1073707c3585e41b0e614 -->
<g id="node4" class="node">
<title>3c4e9cd789d88d8d89c1073707c3585e41b0e614</title>
<g id="a_node4"><a xlink:title="3c4e9cd789d88d8d89c1073707c3585e41b0e614">
<polygon fill="#00688b" stroke="#00688b" points="158.59,-249.7 157.1,-251.69 146.64,-251.69 145.14,-249.7 105.41,-249.7 105.41,-231.76 158.59,-231.76 158.59,-249.7"/>
<text text-anchor="middle" x="132" y="-235.68" font-family="Times,serif" font-size="14.00">3c4e9cd7</text>
</a>
</g>
</g>
<!-- 0155eb4229851634a0f03eb265b69f5a2d56f341&#45;&gt;3c4e9cd789d88d8d89c1073707c3585e41b0e614 -->
<!-- 83baae61804e65cc73a7201a7252750c76066a30 -->
<g id="node6" class="node">
<title>83baae61804e65cc73a7201a7252750c76066a30</title>
<g id="a_node6"><a xlink:title="test.txt">
<polygon fill="gray" stroke="gray" points="120.61,-141.82 70.41,-141.82 70.41,-123.88 123.59,-123.88 123.59,-138.83 120.61,-141.82"/>
<polyline fill="none" stroke="gray" points="120.61,-141.82 120.61,-138.83"/>
<polyline fill="none" stroke="gray" points="123.59,-138.83 120.61,-138.83"/>
<text text-anchor="middle" x="97" y="-127.8" font-family="Times,serif" font-size="14.00">83baae61</text>
</a>
</g>
</g>
<!-- 1f7a7a472abf3dd9643fd615f6da379c4acb3e3a&#45;&gt;83baae61804e65cc73a7201a7252750c76066a30 -->
<!-- 3c4e9cd789d88d8d89c1073707c3585e41b0e614&#45;&gt;1f7a7a472abf3dd9643fd615f6da379c4acb3e3a -->
<g id="edge3" class="edge">
<title>3c4e9cd789d88d8d89c1073707c3585e41b0e614&#45;&gt;1f7a7a472abf3dd9643fd615f6da379c4acb3e3a</title>
<path fill="none" stroke="#1a1a1a" d="M120.75,-231.38C109.15,-222.78 90.96,-209.28 77.89,-199.58"/>
<polygon fill="#1a1a1a" stroke="#1a1a1a" points="79.26,-198.42 74.2,-196.84 77.18,-201.23 79.26,-198.42"/>
</g>
<!-- 3c4e9cd789d88d8d89c1073707c3585e41b0e614&#45;&gt;fa49b077972391ad58037050f2a75f74e3671e92 -->
<g id="edge5" class="edge">
<title>3c4e9cd789d88d8d89c1073707c3585e41b0e614&#45;&gt;fa49b077972391ad58037050f2a75f74e3671e92</title>
<path fill="none" stroke="#1a1a1a" d="M141.55,-231.42C150.08,-223.31 161.98,-210.13 167,-195.76 169.63,-188.23 168.18,-185.71 167,-177.82 159.59,-128.23 157.96,-113.99 134,-69.94 127.64,-58.26 117.87,-46.82 109.97,-38.54"/>
<polygon fill="#1a1a1a" stroke="#1a1a1a" points="111.61,-37.71 106.86,-35.36 109.11,-40.16 111.61,-37.71"/>
</g>
<!-- d8329fc1cc938780ffdd9f94e0d364e0ea74f579 -->
<g id="node5" class="node">
<title>d8329fc1cc938780ffdd9f94e0d364e0ea74f579</title>
<g id="a_node5"><a xlink:title="bak">
<polygon fill="#00688b" stroke="#00688b" points="158.22,-195.76 156.72,-197.75 146.26,-197.75 144.77,-195.76 105.78,-195.76 105.78,-177.82 158.22,-177.82 158.22,-195.76"/>
<text text-anchor="middle" x="132" y="-181.74" font-family="Times,serif" font-size="14.00">d8329fc1</text>
</a>
</g>
</g>
<!-- 3c4e9cd789d88d8d89c1073707c3585e41b0e614&#45;&gt;d8329fc1cc938780ffdd9f94e0d364e0ea74f579 -->
<g id="edge4" class="edge">
<title>3c4e9cd789d88d8d89c1073707c3585e41b0e614&#45;&gt;d8329fc1cc938780ffdd9f94e0d364e0ea74f579</title>
<path fill="none" stroke="#1a1a1a" d="M126.94,-231.61C125.13,-223.81 124.78,-211.83 125.86,-202.37"/>
<polygon fill="#1a1a1a" stroke="#1a1a1a" points="127.58,-202.73 126.66,-197.51 124.12,-202.16 127.58,-202.73"/>
</g>
<!-- 3c4e9cd789d88d8d89c1073707c3585e41b0e614&#45;&gt;d8329fc1cc938780ffdd9f94e0d364e0ea74f579 -->
<!-- d8329fc1cc938780ffdd9f94e0d364e0ea74f579&#45;&gt;83baae61804e65cc73a7201a7252750c76066a30 -->
<g id="edge6" class="edge">
<title>d8329fc1cc938780ffdd9f94e0d364e0ea74f579&#45;&gt;83baae61804e65cc73a7201a7252750c76066a30</title>
<path fill="none" stroke="#1a1a1a" d="M126.53,-177.67C121.07,-169.57 112.57,-156.95 106.09,-147.34"/>
<polygon fill="#1a1a1a" stroke="#1a1a1a" points="107.64,-146.5 103.39,-143.34 104.73,-148.46 107.64,-146.5"/>
</g>
<!-- d670460b4b4aece5915caf5c68d12f560a9fe3e4 -->
<g id="node7" class="node">
<title>d670460b4b4aece5915caf5c68d12f560a9fe3e4</title>
<g id="a_node7"><a xlink:title="d670460b4b4aece5915caf5c68d12f560a9fe3e4">
<polygon fill="gray" stroke="gray" points="121.73,-87.88 69.28,-87.88 69.28,-69.94 124.72,-69.94 124.72,-84.89 121.73,-87.88"/>
<polyline fill="none" stroke="gray" points="121.73,-87.88 121.73,-84.89"/>
<polyline fill="none" stroke="gray" points="124.72,-84.89 121.73,-84.89"/>
<text text-anchor="middle" x="97" y="-73.86" font-family="Times,serif" font-size="14.00">d670460b</text>
</a>
</g>
</g>
<!-- 83baae61804e65cc73a7201a7252750c76066a30&#45;&gt;d670460b4b4aece5915caf5c68d12f560a9fe3e4 -->
<!-- d670460b4b4aece5915caf5c68d12f560a9fe3e4&#45;&gt;fa49b077972391ad58037050f2a75f74e3671e92 -->
</g>
</svg>
