<?xml version="1.0" encoding="UTF-8" standalone="no"?>
<!DOCTYPE svg PUBLIC "-//W3C//DTD SVG 1.1//EN"
 "http://www.w3.org/Graphics/SVG/1.1/DTD/svg11.dtd">
<!-- Generated by graphviz version 12.1.0 (20240811.2233)
 -->
<!-- Pages: 1 -->
<svg width="256pt" height="441pt"
 viewBox="0.00 0.00 256.22 440.52" xmlns="http://www.w3.org/2000/svg" xmlns:xlink="http://www.w3.org/1999/xlink">
<g id="graph0" class="graph" transform="scale(1 1) rotate(0) translate(4 436.52)">
<polygon fill="white" stroke="none" points="-4,4 -4,-436.52 252.22,-436.52 252.22,4 -4,4"/>
<g id="clust1" class="cluster">
<title>cluster_standalone</title>
<polygon fill="white" stroke="lightgrey" points="62.22,-8 62.22,-352.64 240.22,-352.64 240.22,-8 62.22,-8"/>
<text text-anchor="middle" x="151.22" y="-335.34" font-family="Times,serif" font-size="14.00">Standalone</text>
<text text-anchor="middle" x="151.22" y="-318.84" font-family="Times,serif" font-size="14.00">Trees &amp; Blobs</text>
</g>
<!-- 03c5025d075bbe625608593e3bf4671daebebcc4 -->
<g id="node1" class="node">
<title>03c5025d075bbe625608593e3bf4671daebebcc4</title>
<g id="a_node1"><a xlink:title="author: First Last &lt;first.last@mail.com&gt;&#10;Wed Jan 01 09:00:00 2025 +0100&#10;committer: Nom Prenom &lt;nom.prenom@mail.com&gt;&#10;Wed Jan 01 09:00:00 2025 +0100&#10;&#10;Second commit">
<polygon fill="darkorange" stroke="darkorange" points="143.56,-378.58 88.88,-378.58 88.88,-360.64 143.56,-360.64 143.56,-378.58"/>
<text text-anchor="middle" x="116.22" y="-364.56" font-family="Times,serif" font-size="14.00">03c5025d</text>
</a>
</g>
</g>
<!-- fa26b470d9508bebe2029623de8770215ebb26a0 -->
<g id="node3" class="node">
<title>fa26b470d9508bebe2029623de8770215ebb26a0</title>
<g id="a_node3"><a xlink:title="author: First Last &lt;first.last@mail.com&gt;&#10;Wed Jan 01 09:00:00 2025 +0100&#10;committer: Nom Prenom &lt;nom.prenom@mail.com&gt;&#10;Wed Jan 01 09:00:00 2025 +0100&#10;&#10;First commit">
<polygon fill="darkorange" stroke="darkorange" points="52.44,-249.7 0,-249.7 0,-231.76 52.44,-231.76 52.44,-249.7"/>
<text text-anchor="middle" x="26.22" y="-235.68" font-family="Times,serif" font-size="14.00">fa26b470</text>
</a>
</g>
</g>
<!-- 03c5025d075bbe625608593e3bf4671daebebcc4&#45;&gt;fa26b470d9508bebe2029623de8770215ebb26a0 -->
<g id="edge4" class="edge">
<title>03c5025d075bbe625608593e3bf4671daebebcc4&#45;&gt;fa26b470d9508bebe2029623de8770215ebb26a0</title>
<path fill="none" stroke="#1a1a1a" d="M88.52,-366.72C77.82,-364.65 66.24,-360.57 58.22,-352.64 31.75,-326.49 26.84,-279.93 26.14,-256.32"/>
<polygon fill="#1a1a1a" stroke="#1a1a1a" points="27.9,-256.53 26.07,-251.56 24.4,-256.58 27.9,-256.53"/>
</g>
<!-- 0155eb4229851634a0f03eb265b69f5a2d56f341 -->
<g id="node4" class="node">
<title>0155eb4229851634a0f03eb265b69f5a2d56f341</title>
<g id="a_node4"><a xlink:title="0155eb4229851634a0f03eb265b69f5a2d56f341">
<polygon fill="#00688b" stroke="#00688b" points="143.56,-303.64 142.07,-305.63 131.6,-305.63 130.11,-303.64 88.88,-303.64 88.88,-285.7 143.56,-285.7 143.56,-303.64"/>
<text text-anchor="middle" x="116.22" y="-289.62" font-family="Times,serif" font-size="14.00">0155eb42</text>
</a>
</g>
</g>
<!-- 03c5025d075bbe625608593e3bf4671daebebcc4&#45;&gt;0155eb4229851634a0f03eb265b69f5a2d56f341 -->
<g id="edge3" class="edge">
<title>03c5025d075bbe625608593e3bf4671daebebcc4&#45;&gt;0155eb4229851634a0f03eb265b69f5a2d56f341</title>
<path fill="none" stroke="#1a1a1a" d="M116.22,-360.24C116.22,-348.04 116.22,-325.19 116.22,-310.21"/>
<polygon fill="#1a1a1a" stroke="#1a1a1a" points="117.97,-310.45 116.22,-305.45 114.47,-310.45 117.97,-310.45"/>
</g>
<!-- aa6ef7bc380e3e98362b4276d24b8046b1f4f758 -->
<g id="node2" class="node">
<title>aa6ef7bc380e3e98362b4276d24b8046b1f4f758</title>
<g id="a_node2"><a xlink:title="author: First Last &lt;first.last@mail.com&gt;&#10;Wed Jan 01 09:00:00 2025 +0100&#10;committer: Nom Prenom &lt;nom.prenom@mail.com&gt;&#10;Wed Jan 01 09:00:00 2025 +0100&#10;&#10;Third commit">
<polygon fill="darkorange" stroke="darkorange" points="168.31,-432.52 118.12,-432.52 118.12,-414.58 168.31,-414.58 168.31,-432.52"/>
<text text-anchor="middle" x="143.22" y="-418.5" font-family="Times,serif" font-size="14.00">aa6ef7bc</text>
</a>
</g>
</g>
<!-- aa6ef7bc380e3e98362b4276d24b8046b1f4f758&#45;&gt;03c5025d075bbe625608593e3bf4671daebebcc4 -->
<g id="edge8" class="edge">
<title>aa6ef7bc380e3e98362b4276d24b8046b1f4f758&#45;&gt;03c5025d075bbe625608593e3bf4671daebebcc4</title>
<path fill="none" stroke="#1a1a1a" d="M139,-414.43C134.83,-406.4 128.35,-393.95 123.37,-384.37"/>
<polygon fill="#1a1a1a" stroke="#1a1a1a" points="125.06,-383.81 121.2,-380.18 121.95,-385.43 125.06,-383.81"/>
</g>
<!-- 3c4e9cd789d88d8d89c1073707c3585e41b0e614 -->
<g id="node7" class="node">
<title>3c4e9cd789d88d8d89c1073707c3585e41b0e614</title>
<g id="a_node7"><a xlink:title="3c4e9cd789d88d8d89c1073707c3585e41b0e614">
<polygon fill="#00688b" stroke="#00688b" points="208.81,-249.7 207.32,-251.69 196.86,-251.69 195.36,-249.7 155.62,-249.7 155.62,-231.76 208.81,-231.76 208.81,-249.7"/>
<text text-anchor="middle" x="182.22" y="-235.68" font-family="Times,serif" font-size="14.00">3c4e9cd7</text>
</a>
</g>
</g>
<!-- aa6ef7bc380e3e98362b4276d24b8046b1f4f758&#45;&gt;3c4e9cd789d88d8d89c1073707c3585e41b0e614 -->
<g id="edge9" class="edge">
<title>aa6ef7bc380e3e98362b4276d24b8046b1f4f758&#45;&gt;3c4e9cd789d88d8d89c1073707c3585e41b0e614</title>
<path fill="none" stroke="#1a1a1a" d="M145,-414.31C151.11,-385.95 171.35,-292.15 179.13,-256.06"/>
<polygon fill="#1a1a1a" stroke="#1a1a1a" points="180.77,-256.75 180.11,-251.5 177.35,-256.02 180.77,-256.75"/>
</g>
<!-- d8329fc1cc938780ffdd9f94e0d364e0ea74f579 -->
<g id="node8" class="node">
<title>d8329fc1cc938780ffdd9f94e0d364e0ea74f579</title>
<g id="a_node8"><a xlink:title="bak">
<polygon fill="#00688b" stroke="#00688b" points="212.44,-195.76 210.94,-197.75 200.48,-197.75 198.99,-195.76 160,-195.76 160,-177.82 212.44,-177.82 212.44,-195.76"/>
<text text-anchor="middle" x="186.22" y="-181.74" font-family="Times,serif" font-size="14.00">d8329fc1</text>
</a>
</g>
</g>
<!-- fa26b470d9508bebe2029623de8770215ebb26a0&#45;&gt;d8329fc1cc938780ffdd9f94e0d364e0ea74f579 -->
<g id="edge11" class="edge">
<title>fa26b470d9508bebe2029623de8770215ebb26a0&#45;&gt;d8329fc1cc938780ffdd9f94e0d364e0ea74f579</title>
<path fill="none" stroke="#1a1a1a" d="M52.28,-231.27C80.06,-222.25 124.08,-207.96 154.01,-198.25"/>
<polygon fill="#1a1a1a" stroke="#1a1a1a" points="154.51,-199.92 158.73,-196.71 153.43,-196.59 154.51,-199.92"/>
</g>
<!-- 1f7a7a472abf3dd9643fd615f6da379c4acb3e3a -->
<g id="node5" class="node">
<title>1f7a7a472abf3dd9643fd615f6da379c4acb3e3a</title>
<g id="a_node5"><a xlink:title="test.txt">
<polygon fill="gray" stroke="gray" points="139.07,-195.76 90.38,-195.76 90.38,-177.82 142.06,-177.82 142.06,-192.77 139.07,-195.76"/>
<polyline fill="none" stroke="gray" points="139.07,-195.76 139.07,-192.77"/>
<polyline fill="none" stroke="gray" points="142.06,-192.77 139.07,-192.77"/>
<text text-anchor="middle" x="116.22" y="-181.74" font-family="Times,serif" font-size="14.00">1f7a7a47</text>
</a>
</g>
</g>
<!-- 0155eb4229851634a0f03eb265b69f5a2d56f341&#45;&gt;1f7a7a472abf3dd9643fd615f6da379c4acb3e3a -->
<g id="edge1" class="edge">
<title>0155eb4229851634a0f03eb265b69f5a2d56f341&#45;&gt;1f7a7a472abf3dd9643fd615f6da379c4acb3e3a</title>
<path fill="none" stroke="#1a1a1a" d="M116.22,-285.36C116.22,-267.42 116.22,-224.88 116.22,-202.36"/>
<polygon fill="#1a1a1a" stroke="#1a1a1a" points="117.97,-202.57 116.22,-197.57 114.47,-202.57 117.97,-202.57"/>
</g>
<!-- fa49b077972391ad58037050f2a75f74e3671e92 -->
<g id="node6" class="node">
<title>fa49b077972391ad58037050f2a75f74e3671e92</title>
<g id="a_node6"><a xlink:title="new.txt">
<polygon fill="gray" stroke="gray" points="174.45,-33.94 125,-33.94 125,-16 177.44,-16 177.44,-30.95 174.45,-33.94"/>
<polyline fill="none" stroke="gray" points="174.45,-33.94 174.45,-30.95"/>
<polyline fill="none" stroke="gray" points="177.44,-30.95 174.45,-30.95"/>
<text text-anchor="middle" x="151.22" y="-19.92" font-family="Times,serif" font-size="14.00">fa49b077</text>
</a>
</g>
</g>
<!-- 0155eb4229851634a0f03eb265b69f5a2d56f341&#45;&gt;fa49b077972391ad58037050f2a75f74e3671e92 -->
<g id="edge2" class="edge">
<title>0155eb4229851634a0f03eb265b69f5a2d56f341&#45;&gt;fa49b077972391ad58037050f2a75f74e3671e92</title>
<path fill="none" stroke="#1a1a1a" d="M109.96,-285.4C97.6,-268.21 71.22,-226.94 71.22,-187.79 71.22,-187.79 71.22,-187.79 71.22,-131.85 71.22,-90.73 110.11,-55.47 133.66,-37.9"/>
<polygon fill="#1a1a1a" stroke="#1a1a1a" points="134.48,-39.47 137.5,-35.11 132.42,-36.64 134.48,-39.47"/>
</g>
<!-- 0155eb4229851634a0f03eb265b69f5a2d56f341&#45;&gt;3c4e9cd789d88d8d89c1073707c3585e41b0e614 -->
<!-- 83baae61804e65cc73a7201a7252750c76066a30 -->
<g id="node9" class="node">
<title>83baae61804e65cc73a7201a7252750c76066a30</title>
<g id="a_node9"><a xlink:title="test.txt">
<polygon fill="gray" stroke="gray" points="174.82,-141.82 124.62,-141.82 124.62,-123.88 177.81,-123.88 177.81,-138.83 174.82,-141.82"/>
<polyline fill="none" stroke="gray" points="174.82,-141.82 174.82,-138.83"/>
<polyline fill="none" stroke="gray" points="177.81,-138.83 174.82,-138.83"/>
<text text-anchor="middle" x="151.22" y="-127.8" font-family="Times,serif" font-size="14.00">83baae61</text>
</a>
</g>
</g>
<!-- 1f7a7a472abf3dd9643fd615f6da379c4acb3e3a&#45;&gt;83baae61804e65cc73a7201a7252750c76066a30 -->
<!-- 3c4e9cd789d88d8d89c1073707c3585e41b0e614&#45;&gt;1f7a7a472abf3dd9643fd615f6da379c4acb3e3a -->
<g id="edge5" class="edge">
<title>3c4e9cd789d88d8d89c1073707c3585e41b0e614&#45;&gt;1f7a7a472abf3dd9643fd615f6da379c4acb3e3a</title>
<path fill="none" stroke="#1a1a1a" d="M171.62,-231.38C160.78,-222.85 143.83,-209.52 131.53,-199.84"/>
<polygon fill="#1a1a1a" stroke="#1a1a1a" points="132.78,-198.6 127.77,-196.88 130.62,-201.35 132.78,-198.6"/>
</g>
<!-- 3c4e9cd789d88d8d89c1073707c3585e41b0e614&#45;&gt;fa49b077972391ad58037050f2a75f74e3671e92 -->
<g id="edge7" class="edge">
<title>3c4e9cd789d88d8d89c1073707c3585e41b0e614&#45;&gt;fa49b077972391ad58037050f2a75f74e3671e92</title>
<path fill="none" stroke="#1a1a1a" d="M193.2,-231.35C202.66,-223.38 215.64,-210.45 221.22,-195.76 224.05,-188.31 222.4,-185.71 221.22,-177.82 213.81,-128.23 212.18,-113.99 188.22,-69.94 181.86,-58.26 172.09,-46.82 164.19,-38.54"/>
<polygon fill="#1a1a1a" stroke="#1a1a1a" points="165.83,-37.71 161.08,-35.36 163.33,-40.16 165.83,-37.71"/>
</g>
<!-- 3c4e9cd789d88d8d89c1073707c3585e41b0e614&#45;&gt;d8329fc1cc938780ffdd9f94e0d364e0ea74f579 -->
<g id="edge6" class="edge">
<title>3c4e9cd789d88d8d89c1073707c3585e41b0e614&#45;&gt;d8329fc1cc938780ffdd9f94e0d364e0ea74f579</title>
<path fill="none" stroke="#1a1a1a" d="M177.78,-231.61C176.57,-223.73 177.16,-211.6 179.01,-202.09"/>
<polygon fill="#1a1a1a" stroke="#1a1a1a" points="180.65,-202.76 180.14,-197.49 177.25,-201.93 180.65,-202.76"/>
</g>
<!-- 3c4e9cd789d88d8d89c1073707c3585e41b0e614&#45;&gt;d8329fc1cc938780ffdd9f94e0d364e0ea74f579 -->
<!-- d8329fc1cc938780ffdd9f94e0d364e0ea74f579&#45;&gt;83baae61804e65cc73a7201a7252750c76066a30 -->
<g id="edge10" class="edge">
<title>d8329fc1cc938780ffdd9f94e0d364e0ea74f579&#45;&gt;83baae61804e65cc73a7201a7252750c76066a30</title>
<path fill="none" stroke="#1a1a1a" d="M180.75,-177.67C175.29,-169.57 166.79,-156.95 160.31,-147.34"/>
<polygon fill="#1a1a1a" stroke="#1a1a1a" points="161.86,-146.5 157.61,-143.34 158.95,-148.46 161.86,-146.5"/>
</g>
<!-- d670460b4b4aece5915caf5c68d12f560a9fe3e4 -->
<g id="node10" class="node">
<title>d670460b4b4aece5915caf5c68d12f560a9fe3e4</title>
<g id="a_node10"><a xlink:title="d670460b4b4aece5915caf5c68d12f560a9fe3e4">
<polygon fill="gray" stroke="gray" points="175.95,-87.88 123.5,-87.88 123.5,-69.94 178.94,-69.94 178.94,-84.89 175.95,-87.88"/>
<polyline fill="none" stroke="gray" points="175.95,-87.88 175.95,-84.89"/>
<polyline fill="none" stroke="gray" points="178.94,-84.89 175.95,-84.89"/>
<text text-anchor="middle" x="151.22" y="-73.86" font-family="Times,serif" font-size="14.00">d670460b</text>
</a>
</g>
</g>
<!-- 83baae61804e65cc73a7201a7252750c76066a30&#45;&gt;d670460b4b4aece5915caf5c68d12f560a9fe3e4 -->
<!-- d670460b4b4aece5915caf5c68d12f560a9fe3e4&#45;&gt;fa49b077972391ad58037050f2a75f74e3671e92 -->
</g>
</svg>
