<?xml version="1.0" encoding="UTF-8" standalone="no"?>
<!DOCTYPE svg PUBLIC "-//W3C//DTD SVG 1.1//EN"
 "http://www.w3.org/Graphics/SVG/1.1/DTD/svg11.dtd">
<!-- Generated by graphviz version 12.1.0 (20240811.2233)
 -->
<!-- Pages: 1 -->
<svg width="245pt" height="387pt"
 viewBox="0.00 0.00 245.22 386.58" xmlns="http://www.w3.org/2000/svg" xmlns:xlink="http://www.w3.org/1999/xlink">
<g id="graph0" class="graph" transform="scale(1 1) rotate(0) translate(4 382.58)">
<polygon fill="white" stroke="none" points="-4,4 -4,-382.58 241.22,-382.58 241.22,4 -4,4"/>
<g id="clust1" class="cluster">
<title>cluster_standalone</title>
<polygon fill="white" stroke="lightgrey" points="8,-8 8,-298.7 120,-298.7 120,-8 8,-8"/>
<text text-anchor="middle" x="64" y="-281.4" font-family="Times,serif" font-size="14.00">Standalone</text>
<text text-anchor="middle" x="64" y="-264.9" font-family="Times,serif" font-size="14.00">Trees &amp; Blobs</text>
</g>
<!-- 03c5025d075bbe625608593e3bf4671daebebcc4 -->
<g id="node1" class="node">
<title>03c5025d075bbe625608593e3bf4671daebebcc4</title>
<g id="a_node1"><a xlink:title="author: First Last &lt;first.last@mail.com&gt;&#10;Wed Jan 01 09:00:00 2025 +0100&#10;committer: Nom Prenom &lt;nom.prenom@mail.com&gt;&#10;Wed Jan 01 09:00:00 2025 +0100&#10;&#10;Second commit">
<polygon fill="darkorange" stroke="darkorange" points="111.34,-324.64 56.66,-324.64 56.66,-306.7 111.34,-306.7 111.34,-324.64"/>
<text text-anchor="middle" x="84" y="-310.62" font-family="Times,serif" font-size="14.00">03c5025d</text>
</a>
</g>
</g>
<!-- fa26b470d9508bebe2029623de8770215ebb26a0 -->
<g id="node5" class="node">
<title>fa26b470d9508bebe2029623de8770215ebb26a0</title>
<g id="a_node5"><a xlink:title="author: First Last &lt;first.last@mail.com&gt;&#10;Wed Jan 01 09:00:00 2025 +0100&#10;committer: Nom Prenom &lt;nom.prenom@mail.com&gt;&#10;Wed Jan 01 09:00:00 2025 +0100&#10;&#10;First commit">
<polygon fill="#cdad00" stroke="#cdad00" points="181.22,-195.76 128.78,-195.76 128.78,-177.82 181.22,-177.82 181.22,-195.76"/>
<text text-anchor="middle" x="155" y="-181.74" font-family="Times,serif" font-size="14.00">fa26b470</text>
</a>
</g>
</g>
<!-- 03c5025d075bbe625608593e3bf4671daebebcc4&#45;&gt;fa26b470d9508bebe2029623de8770215ebb26a0 -->
<g id="edge4" class="edge">
<title>03c5025d075bbe625608593e3bf4671daebebcc4&#45;&gt;fa26b470d9508bebe2029623de8770215ebb26a0</title>
<path fill="none" stroke="#1a1a1a" d="M111.54,-307.6C116.19,-305.38 120.6,-302.48 124,-298.7 148.58,-271.33 153.84,-226.02 154.86,-202.69"/>
<polygon fill="#1a1a1a" stroke="#1a1a1a" points="156.6,-202.76 155.01,-197.71 153.11,-202.66 156.6,-202.76"/>
</g>
<!-- 0155eb4229851634a0f03eb265b69f5a2d56f341 -->
<g id="node7" class="node">
<title>0155eb4229851634a0f03eb265b69f5a2d56f341</title>
<g id="a_node7"><a xlink:title="0155eb4229851634a0f03eb265b69f5a2d56f341">
<polygon fill="#00688b" stroke="#00688b" points="111.34,-249.7 109.85,-251.69 99.38,-251.69 97.89,-249.7 56.66,-249.7 56.66,-231.76 111.34,-231.76 111.34,-249.7"/>
<text text-anchor="middle" x="84" y="-235.68" font-family="Times,serif" font-size="14.00">0155eb42</text>
</a>
</g>
</g>
<!-- 03c5025d075bbe625608593e3bf4671daebebcc4&#45;&gt;0155eb4229851634a0f03eb265b69f5a2d56f341 -->
<g id="edge3" class="edge">
<title>03c5025d075bbe625608593e3bf4671daebebcc4&#45;&gt;0155eb4229851634a0f03eb265b69f5a2d56f341</title>
<path fill="none" stroke="#1a1a1a" d="M84,-306.3C84,-294.1 84,-271.25 84,-256.27"/>
<polygon fill="#1a1a1a" stroke="#1a1a1a" points="85.75,-256.51 84,-251.51 82.25,-256.51 85.75,-256.51"/>
</g>
<!-- 83baae61804e65cc73a7201a7252750c76066a30 -->
<g id="node2" class="node">
<title>83baae61804e65cc73a7201a7252750c76066a30</title>
<g id="a_node2"><a xlink:title="test.txt">
<polygon fill="gray" stroke="gray" points="179.6,-87.88 129.41,-87.88 129.41,-69.94 182.59,-69.94 182.59,-84.89 179.6,-87.88"/>
<polyline fill="none" stroke="gray" points="179.6,-87.88 179.6,-84.89"/>
<polyline fill="none" stroke="gray" points="182.59,-84.89 179.6,-84.89"/>
<text text-anchor="middle" x="156" y="-73.86" font-family="Times,serif" font-size="14.00">83baae61</text>
</a>
</g>
</g>
<!-- aa6ef7bc380e3e98362b4276d24b8046b1f4f758 -->
<g id="node3" class="node">
<title>aa6ef7bc380e3e98362b4276d24b8046b1f4f758</title>
<g id="a_node3"><a xlink:title="author: First Last &lt;first.last@mail.com&gt;&#10;Wed Jan 01 09:00:00 2025 +0100&#10;committer: Nom Prenom &lt;nom.prenom@mail.com&gt;&#10;Wed Jan 01 09:00:00 2025 +0100&#10;&#10;Third commit">
<polygon fill="darkorange" stroke="darkorange" points="81.09,-378.58 30.91,-378.58 30.91,-360.64 81.09,-360.64 81.09,-378.58"/>
<text text-anchor="middle" x="56" y="-364.56" font-family="Times,serif" font-size="14.00">aa6ef7bc</text>
</a>
</g>
</g>
<!-- aa6ef7bc380e3e98362b4276d24b8046b1f4f758&#45;&gt;03c5025d075bbe625608593e3bf4671daebebcc4 -->
<g id="edge9" class="edge">
<title>aa6ef7bc380e3e98362b4276d24b8046b1f4f758&#45;&gt;03c5025d075bbe625608593e3bf4671daebebcc4</title>
<path fill="none" stroke="#1a1a1a" d="M60.38,-360.49C64.71,-352.46 71.42,-340.01 76.58,-330.43"/>
<polygon fill="#1a1a1a" stroke="#1a1a1a" points="78.01,-331.46 78.85,-326.23 74.93,-329.8 78.01,-331.46"/>
</g>
<!-- 3c4e9cd789d88d8d89c1073707c3585e41b0e614 -->
<g id="node10" class="node">
<title>3c4e9cd789d88d8d89c1073707c3585e41b0e614</title>
<g id="a_node10"><a xlink:title="3c4e9cd789d88d8d89c1073707c3585e41b0e614">
<polygon fill="#00688b" stroke="#00688b" points="89.59,-195.76 88.1,-197.75 77.63,-197.75 76.14,-195.76 36.41,-195.76 36.41,-177.82 89.59,-177.82 89.59,-195.76"/>
<text text-anchor="middle" x="63" y="-181.74" font-family="Times,serif" font-size="14.00">3c4e9cd7</text>
</a>
</g>
</g>
<!-- aa6ef7bc380e3e98362b4276d24b8046b1f4f758&#45;&gt;3c4e9cd789d88d8d89c1073707c3585e41b0e614 -->
<g id="edge10" class="edge">
<title>aa6ef7bc380e3e98362b4276d24b8046b1f4f758&#45;&gt;3c4e9cd789d88d8d89c1073707c3585e41b0e614</title>
<path fill="none" stroke="#1a1a1a" d="M54.01,-360.24C52.03,-351.44 49.13,-337.16 48,-324.64 44.29,-283.53 41.24,-272.48 48,-231.76 49.7,-221.49 53.5,-210.39 56.85,-201.92"/>
<polygon fill="#1a1a1a" stroke="#1a1a1a" points="58.42,-202.7 58.71,-197.41 55.19,-201.37 58.42,-202.7"/>
</g>
<!-- d8329fc1cc938780ffdd9f94e0d364e0ea74f579 -->
<g id="node4" class="node">
<title>d8329fc1cc938780ffdd9f94e0d364e0ea74f579</title>
<g id="a_node4"><a xlink:title="bak">
<polygon fill="#00688b" stroke="#00688b" points="181.22,-141.82 179.72,-143.81 169.26,-143.81 167.77,-141.82 128.78,-141.82 128.78,-123.88 181.22,-123.88 181.22,-141.82"/>
<text text-anchor="middle" x="155" y="-127.8" font-family="Times,serif" font-size="14.00">d8329fc1</text>
</a>
</g>
</g>
<!-- d8329fc1cc938780ffdd9f94e0d364e0ea74f579&#45;&gt;83baae61804e65cc73a7201a7252750c76066a30 -->
<g id="edge11" class="edge">
<title>d8329fc1cc938780ffdd9f94e0d364e0ea74f579&#45;&gt;83baae61804e65cc73a7201a7252750c76066a30</title>
<path fill="none" stroke="#1a1a1a" d="M155.16,-123.73C155.31,-115.93 155.54,-103.95 155.72,-94.49"/>
<polygon fill="#1a1a1a" stroke="#1a1a1a" points="157.47,-94.69 155.81,-89.65 153.97,-94.62 157.47,-94.69"/>
</g>
<!-- fa26b470d9508bebe2029623de8770215ebb26a0&#45;&gt;d8329fc1cc938780ffdd9f94e0d364e0ea74f579 -->
<g id="edge12" class="edge">
<title>fa26b470d9508bebe2029623de8770215ebb26a0&#45;&gt;d8329fc1cc938780ffdd9f94e0d364e0ea74f579</title>
<path fill="none" stroke="#1a1a1a" d="M155,-177.67C155,-169.87 155,-157.89 155,-148.43"/>
<polygon fill="#1a1a1a" stroke="#1a1a1a" points="156.75,-148.59 155,-143.59 153.25,-148.59 156.75,-148.59"/>
</g>
<!-- 224f62133906b4b68a5652b73f779c4a381eadd8 -->
<g id="node6" class="node">
<title>224f62133906b4b68a5652b73f779c4a381eadd8</title>
<g id="a_node6"><a xlink:title="Nom Prenom &lt;nom.prenom@mail.com&gt;&#10;Wed Jan 1 09:00:00 2025 +0100&#10;&#10;First commit&#10;">
<polygon fill="pink" stroke="pink" points="237.22,-249.7 166.78,-249.7 166.78,-231.76 237.22,-231.76 237.22,-249.7"/>
<text text-anchor="middle" x="202" y="-235.68" font-family="Times,serif" font-size="14.00">first&#45;commit</text>
</a>
</g>
</g>
<!-- 224f62133906b4b68a5652b73f779c4a381eadd8&#45;&gt;fa26b470d9508bebe2029623de8770215ebb26a0 -->
<g id="edge5" class="edge">
<title>224f62133906b4b68a5652b73f779c4a381eadd8&#45;&gt;fa26b470d9508bebe2029623de8770215ebb26a0</title>
<path fill="none" stroke="#1a1a1a" d="M194.66,-231.61C187.18,-223.35 175.48,-210.42 166.72,-200.74"/>
<polygon fill="#1a1a1a" stroke="#1a1a1a" points="168.12,-199.68 163.46,-197.14 165.52,-202.02 168.12,-199.68"/>
</g>
<!-- 1f7a7a472abf3dd9643fd615f6da379c4acb3e3a -->
<g id="node8" class="node">
<title>1f7a7a472abf3dd9643fd615f6da379c4acb3e3a</title>
<g id="a_node8"><a xlink:title="test.txt">
<polygon fill="gray" stroke="gray" points="106.86,-141.82 58.16,-141.82 58.16,-123.88 109.84,-123.88 109.84,-138.83 106.86,-141.82"/>
<polyline fill="none" stroke="gray" points="106.86,-141.82 106.86,-138.83"/>
<polyline fill="none" stroke="gray" points="109.84,-138.83 106.86,-138.83"/>
<text text-anchor="middle" x="84" y="-127.8" font-family="Times,serif" font-size="14.00">1f7a7a47</text>
</a>
</g>
</g>
<!-- 0155eb4229851634a0f03eb265b69f5a2d56f341&#45;&gt;1f7a7a472abf3dd9643fd615f6da379c4acb3e3a -->
<g id="edge1" class="edge">
<title>0155eb4229851634a0f03eb265b69f5a2d56f341&#45;&gt;1f7a7a472abf3dd9643fd615f6da379c4acb3e3a</title>
<path fill="none" stroke="#1a1a1a" d="M87.72,-231.51C91.42,-222.83 96.86,-208.65 99,-195.76 101.74,-179.22 95.98,-160.56 90.82,-148.09"/>
<polygon fill="#1a1a1a" stroke="#1a1a1a" points="92.45,-147.44 88.83,-143.57 89.24,-148.85 92.45,-147.44"/>
</g>
<!-- fa49b077972391ad58037050f2a75f74e3671e92 -->
<g id="node9" class="node">
<title>fa49b077972391ad58037050f2a75f74e3671e92</title>
<g id="a_node9"><a xlink:title="new.txt">
<polygon fill="gray" stroke="gray" points="65.23,-33.94 15.78,-33.94 15.78,-16 68.22,-16 68.22,-30.95 65.23,-33.94"/>
<polyline fill="none" stroke="gray" points="65.23,-33.94 65.23,-30.95"/>
<polyline fill="none" stroke="gray" points="68.22,-30.95 65.23,-30.95"/>
<text text-anchor="middle" x="42" y="-19.92" font-family="Times,serif" font-size="14.00">fa49b077</text>
</a>
</g>
</g>
<!-- 0155eb4229851634a0f03eb265b69f5a2d56f341&#45;&gt;fa49b077972391ad58037050f2a75f74e3671e92 -->
<g id="edge2" class="edge">
<title>0155eb4229851634a0f03eb265b69f5a2d56f341&#45;&gt;fa49b077972391ad58037050f2a75f74e3671e92</title>
<path fill="none" stroke="#1a1a1a" d="M65.65,-231.27C52.22,-223.97 34.99,-212.02 27,-195.76 1.16,-143.2 24.24,-70.42 36.04,-40.11"/>
<polygon fill="#1a1a1a" stroke="#1a1a1a" points="37.57,-41 37.81,-35.71 34.32,-39.7 37.57,-41"/>
</g>
<!-- 0155eb4229851634a0f03eb265b69f5a2d56f341&#45;&gt;3c4e9cd789d88d8d89c1073707c3585e41b0e614 -->
<!-- d670460b4b4aece5915caf5c68d12f560a9fe3e4 -->
<g id="node11" class="node">
<title>d670460b4b4aece5915caf5c68d12f560a9fe3e4</title>
<g id="a_node11"><a xlink:title="d670460b4b4aece5915caf5c68d12f560a9fe3e4">
<polygon fill="gray" stroke="gray" points="108.73,-87.88 56.28,-87.88 56.28,-69.94 111.72,-69.94 111.72,-84.89 108.73,-87.88"/>
<polyline fill="none" stroke="gray" points="108.73,-87.88 108.73,-84.89"/>
<polyline fill="none" stroke="gray" points="111.72,-84.89 108.73,-84.89"/>
<text text-anchor="middle" x="84" y="-73.86" font-family="Times,serif" font-size="14.00">d670460b</text>
</a>
</g>
</g>
<!-- 1f7a7a472abf3dd9643fd615f6da379c4acb3e3a&#45;&gt;d670460b4b4aece5915caf5c68d12f560a9fe3e4 -->
<!-- 3c4e9cd789d88d8d89c1073707c3585e41b0e614&#45;&gt;d8329fc1cc938780ffdd9f94e0d364e0ea74f579 -->
<g id="edge7" class="edge">
<title>3c4e9cd789d88d8d89c1073707c3585e41b0e614&#45;&gt;d8329fc1cc938780ffdd9f94e0d364e0ea74f579</title>
<path fill="none" stroke="#1a1a1a" d="M77.78,-177.44C93.21,-168.74 117.5,-155.02 134.71,-145.3"/>
<polygon fill="#1a1a1a" stroke="#1a1a1a" points="135.44,-146.9 138.94,-142.92 133.72,-143.85 135.44,-146.9"/>
</g>
<!-- 3c4e9cd789d88d8d89c1073707c3585e41b0e614&#45;&gt;1f7a7a472abf3dd9643fd615f6da379c4acb3e3a -->
<g id="edge6" class="edge">
<title>3c4e9cd789d88d8d89c1073707c3585e41b0e614&#45;&gt;1f7a7a472abf3dd9643fd615f6da379c4acb3e3a</title>
<path fill="none" stroke="#1a1a1a" d="M66.28,-177.67C69.5,-169.72 74.47,-157.42 78.33,-147.88"/>
<polygon fill="#1a1a1a" stroke="#1a1a1a" points="79.85,-148.77 80.11,-143.48 76.61,-147.46 79.85,-148.77"/>
</g>
<!-- 3c4e9cd789d88d8d89c1073707c3585e41b0e614&#45;&gt;fa49b077972391ad58037050f2a75f74e3671e92 -->
<g id="edge8" class="edge">
<title>3c4e9cd789d88d8d89c1073707c3585e41b0e614&#45;&gt;fa49b077972391ad58037050f2a75f74e3671e92</title>
<path fill="none" stroke="#1a1a1a" d="M59.69,-177.52C56.35,-168.8 51.38,-154.58 49,-141.82 42.3,-105.89 41.58,-62.72 41.73,-40.61"/>
<polygon fill="#1a1a1a" stroke="#1a1a1a" points="43.48,-40.73 41.79,-35.71 39.98,-40.69 43.48,-40.73"/>
</g>
<!-- d670460b4b4aece5915caf5c68d12f560a9fe3e4&#45;&gt;fa49b077972391ad58037050f2a75f74e3671e92 -->
</g>
</svg>
