<?xml version="1.0" encoding="UTF-8" standalone="no"?>
<!DOCTYPE svg PUBLIC "-//W3C//DTD SVG 1.1//EN"
 "http://www.w3.org/Graphics/SVG/1.1/DTD/svg11.dtd">
<!-- Generated by graphviz version 12.1.0 (20240811.2233)
 -->
<!-- Pages: 1 -->
<svg width="214pt" height="407pt"
 viewBox="0.00 0.00 213.56 406.58" xmlns="http://www.w3.org/2000/svg" xmlns:xlink="http://www.w3.org/1999/xlink">
<g id="graph0" class="graph" transform="scale(1 1) rotate(0) translate(4 402.58)">
<polygon fill="white" stroke="none" points="-4,4 -4,-402.58 209.56,-402.58 209.56,4 -4,4"/>
<g id="clust1" class="cluster">
<title>cluster_standalone</title>
<polygon fill="white" stroke="lightgrey" points="99.34,-315.64 99.34,-390.58 195.34,-390.58 195.34,-315.64 99.34,-315.64"/>
<text text-anchor="middle" x="147.34" y="-373.28" font-family="Times,serif" font-size="14.00">Standalone</text>
<text text-anchor="middle" x="147.34" y="-356.78" font-family="Times,serif" font-size="14.00">Trees &amp; Blobs</text>
</g>
<!-- 0155eb4229851634a0f03eb265b69f5a2d56f341 -->
<g id="node1" class="node">
<title>0155eb4229851634a0f03eb265b69f5a2d56f341</title>
<g id="a_node1"><a xlink:title="0155eb4229851634a0f03eb265b69f5a2d56f341">
<polygon fill="#00688b" stroke="#00688b" points="54.69,-125.82 53.2,-127.81 42.73,-127.81 41.24,-125.82 0,-125.82 0,-107.88 54.69,-107.88 54.69,-125.82"/>
<text text-anchor="middle" x="27.34" y="-111.8" font-family="Times,serif" font-size="14.00">0155eb42</text>
</a>
</g>
</g>
<!-- 1f7a7a472abf3dd9643fd615f6da379c4acb3e3a -->
<g id="node3" class="node">
<title>1f7a7a472abf3dd9643fd615f6da379c4acb3e3a</title>
<g id="a_node3"><a xlink:title="test.txt">
<polygon fill="gray" stroke="gray" points="121.2,-71.88 72.5,-71.88 72.5,-53.94 124.19,-53.94 124.19,-68.89 121.2,-71.88"/>
<polyline fill="none" stroke="gray" points="121.2,-71.88 121.2,-68.89"/>
<polyline fill="none" stroke="gray" points="124.19,-68.89 121.2,-68.89"/>
<text text-anchor="middle" x="98.34" y="-57.86" font-family="Times,serif" font-size="14.00">1f7a7a47</text>
</a>
</g>
</g>
<!-- 0155eb4229851634a0f03eb265b69f5a2d56f341&#45;&gt;1f7a7a472abf3dd9643fd615f6da379c4acb3e3a -->
<g id="edge1" class="edge">
<title>0155eb4229851634a0f03eb265b69f5a2d56f341&#45;&gt;1f7a7a472abf3dd9643fd615f6da379c4acb3e3a</title>
<path fill="none" stroke="#1a1a1a" d="M38.75,-107.5C50.52,-98.9 68.97,-85.4 82.22,-75.7"/>
<polygon fill="#1a1a1a" stroke="#1a1a1a" points="82.98,-77.32 85.98,-72.96 80.91,-74.5 82.98,-77.32"/>
</g>
<!-- fa49b077972391ad58037050f2a75f74e3671e92 -->
<g id="node10" class="node">
<title>fa49b077972391ad58037050f2a75f74e3671e92</title>
<g id="a_node10"><a xlink:title="new.txt">
<polygon fill="gray" stroke="gray" points="51.57,-71.88 2.12,-71.88 2.12,-53.94 54.56,-53.94 54.56,-68.89 51.57,-71.88"/>
<polyline fill="none" stroke="gray" points="51.57,-71.88 51.57,-68.89"/>
<polyline fill="none" stroke="gray" points="54.56,-68.89 51.57,-68.89"/>
<text text-anchor="middle" x="28.34" y="-57.86" font-family="Times,serif" font-size="14.00">fa49b077</text>
</a>
</g>
</g>
<!-- 0155eb4229851634a0f03eb265b69f5a2d56f341&#45;&gt;fa49b077972391ad58037050f2a75f74e3671e92 -->
<g id="edge2" class="edge">
<title>0155eb4229851634a0f03eb265b69f5a2d56f341&#45;&gt;fa49b077972391ad58037050f2a75f74e3671e92</title>
<path fill="none" stroke="#1a1a1a" d="M27.5,-107.73C27.65,-99.93 27.88,-87.95 28.06,-78.49"/>
<polygon fill="#1a1a1a" stroke="#1a1a1a" points="29.81,-78.69 28.16,-73.65 26.31,-78.62 29.81,-78.69"/>
</g>
<!-- 03c5025d075bbe625608593e3bf4671daebebcc4 -->
<g id="node2" class="node">
<title>03c5025d075bbe625608593e3bf4671daebebcc4</title>
<g id="a_node2"><a xlink:title="author: First Last &lt;first.last@mail.com&gt;&#10;Wed Jan 01 09:00:00 2025 +0100&#10;committer: Nom Prenom &lt;nom.prenom@mail.com&gt;&#10;Wed Jan 01 09:00:00 2025 +0100&#10;&#10;Second commit">
<polygon fill="#cdad00" stroke="#cdad00" points="71.69,-179.76 17,-179.76 17,-161.82 71.69,-161.82 71.69,-179.76"/>
<text text-anchor="middle" x="44.34" y="-165.74" font-family="Times,serif" font-size="14.00">03c5025d</text>
</a>
</g>
</g>
<!-- 03c5025d075bbe625608593e3bf4671daebebcc4&#45;&gt;0155eb4229851634a0f03eb265b69f5a2d56f341 -->
<g id="edge3" class="edge">
<title>03c5025d075bbe625608593e3bf4671daebebcc4&#45;&gt;0155eb4229851634a0f03eb265b69f5a2d56f341</title>
<path fill="none" stroke="#1a1a1a" d="M41.69,-161.67C39.11,-153.79 35.14,-141.66 32.03,-132.15"/>
<polygon fill="#1a1a1a" stroke="#1a1a1a" points="33.73,-131.73 30.51,-127.52 30.4,-132.81 33.73,-131.73"/>
</g>
<!-- fa26b470d9508bebe2029623de8770215ebb26a0 -->
<g id="node9" class="node">
<title>fa26b470d9508bebe2029623de8770215ebb26a0</title>
<g id="a_node9"><a xlink:title="author: First Last &lt;first.last@mail.com&gt;&#10;Wed Jan 01 09:00:00 2025 +0100&#10;committer: Nom Prenom &lt;nom.prenom@mail.com&gt;&#10;Wed Jan 01 09:00:00 2025 +0100&#10;&#10;First commit">
<polygon fill="#cdad00" stroke="#cdad00" points="196.56,-125.82 144.12,-125.82 144.12,-107.88 196.56,-107.88 196.56,-125.82"/>
<text text-anchor="middle" x="170.34" y="-111.8" font-family="Times,serif" font-size="14.00">fa26b470</text>
</a>
</g>
</g>
<!-- 03c5025d075bbe625608593e3bf4671daebebcc4&#45;&gt;fa26b470d9508bebe2029623de8770215ebb26a0 -->
<g id="edge4" class="edge">
<title>03c5025d075bbe625608593e3bf4671daebebcc4&#45;&gt;fa26b470d9508bebe2029623de8770215ebb26a0</title>
<path fill="none" stroke="#1a1a1a" d="M64.87,-161.33C86.47,-152.43 120.54,-138.38 144.08,-128.68"/>
<polygon fill="#1a1a1a" stroke="#1a1a1a" points="144.47,-130.41 148.43,-126.88 143.14,-127.17 144.47,-130.41"/>
</g>
<!-- 3c4e9cd789d88d8d89c1073707c3585e41b0e614 -->
<g id="node4" class="node">
<title>3c4e9cd789d88d8d89c1073707c3585e41b0e614</title>
<g id="a_node4"><a xlink:title="3c4e9cd789d88d8d89c1073707c3585e41b0e614">
<polygon fill="#00688b" stroke="#00688b" points="125.94,-125.82 124.44,-127.81 113.98,-127.81 112.48,-125.82 72.75,-125.82 72.75,-107.88 125.94,-107.88 125.94,-125.82"/>
<text text-anchor="middle" x="99.34" y="-111.8" font-family="Times,serif" font-size="14.00">3c4e9cd7</text>
</a>
</g>
</g>
<!-- 3c4e9cd789d88d8d89c1073707c3585e41b0e614&#45;&gt;1f7a7a472abf3dd9643fd615f6da379c4acb3e3a -->
<g id="edge6" class="edge">
<title>3c4e9cd789d88d8d89c1073707c3585e41b0e614&#45;&gt;1f7a7a472abf3dd9643fd615f6da379c4acb3e3a</title>
<path fill="none" stroke="#1a1a1a" d="M99.19,-107.73C99.04,-99.93 98.81,-87.95 98.63,-78.49"/>
<polygon fill="#1a1a1a" stroke="#1a1a1a" points="100.38,-78.62 98.53,-73.65 96.88,-78.69 100.38,-78.62"/>
</g>
<!-- d8329fc1cc938780ffdd9f94e0d364e0ea74f579 -->
<g id="node8" class="node">
<title>d8329fc1cc938780ffdd9f94e0d364e0ea74f579</title>
<g id="a_node8"><a xlink:title="bak">
<polygon fill="#00688b" stroke="#00688b" points="195.56,-71.88 194.07,-73.87 183.61,-73.87 182.11,-71.88 143.12,-71.88 143.12,-53.94 195.56,-53.94 195.56,-71.88"/>
<text text-anchor="middle" x="169.34" y="-57.86" font-family="Times,serif" font-size="14.00">d8329fc1</text>
</a>
</g>
</g>
<!-- 3c4e9cd789d88d8d89c1073707c3585e41b0e614&#45;&gt;d8329fc1cc938780ffdd9f94e0d364e0ea74f579 -->
<g id="edge7" class="edge">
<title>3c4e9cd789d88d8d89c1073707c3585e41b0e614&#45;&gt;d8329fc1cc938780ffdd9f94e0d364e0ea74f579</title>
<path fill="none" stroke="#1a1a1a" d="M110.59,-107.5C122.19,-98.9 140.38,-85.4 153.45,-75.7"/>
<polygon fill="#1a1a1a" stroke="#1a1a1a" points="154.17,-77.35 157.14,-72.96 152.08,-74.54 154.17,-77.35"/>
</g>
<!-- 3c4e9cd789d88d8d89c1073707c3585e41b0e614&#45;&gt;fa49b077972391ad58037050f2a75f74e3671e92 -->
<g id="edge8" class="edge">
<title>3c4e9cd789d88d8d89c1073707c3585e41b0e614&#45;&gt;fa49b077972391ad58037050f2a75f74e3671e92</title>
<path fill="none" stroke="#1a1a1a" d="M87.94,-107.5C76.17,-98.9 57.72,-85.4 44.47,-75.7"/>
<polygon fill="#1a1a1a" stroke="#1a1a1a" points="45.78,-74.5 40.71,-72.96 43.71,-77.32 45.78,-74.5"/>
</g>
<!-- 83baae61804e65cc73a7201a7252750c76066a30 -->
<g id="node5" class="node">
<title>83baae61804e65cc73a7201a7252750c76066a30</title>
<g id="a_node5"><a xlink:title="test.txt">
<polygon fill="gray" stroke="gray" points="192.95,-17.94 142.75,-17.94 142.75,0 195.94,0 195.94,-14.95 192.95,-17.94"/>
<polyline fill="none" stroke="gray" points="192.95,-17.94 192.95,-14.95"/>
<polyline fill="none" stroke="gray" points="195.94,-14.95 192.95,-14.95"/>
<text text-anchor="middle" x="169.34" y="-3.92" font-family="Times,serif" font-size="14.00">83baae61</text>
</a>
</g>
</g>
<!-- HEAD -->
<g id="node6" class="node">
<title>HEAD</title>
<g id="a_node6"><a xlink:title="main">
<polygon fill="cornflowerblue" stroke="cornflowerblue" points="90.81,-341.58 51.88,-341.58 51.88,-323.64 90.81,-323.64 90.81,-341.58"/>
<text text-anchor="middle" x="71.34" y="-327.56" font-family="Times,serif" font-size="14.00">HEAD</text>
</a>
</g>
</g>
<!-- local&#45;branch&#45;main -->
<g id="node12" class="node">
<title>local&#45;branch&#45;main</title>
<g id="a_node12"><a xlink:title="&#45;&gt; None">
<polygon fill="forestgreen" stroke="forestgreen" points="85.94,-287.64 56.75,-287.64 56.75,-269.7 85.94,-269.7 85.94,-287.64"/>
<text text-anchor="middle" x="71.34" y="-273.62" font-family="Times,serif" font-size="14.00">main</text>
</a>
</g>
</g>
<!-- HEAD&#45;&gt;local&#45;branch&#45;main -->
<g id="edge9" class="edge">
<title>HEAD&#45;&gt;local&#45;branch&#45;main</title>
<path fill="none" stroke="#1a1a1a" d="M71.34,-323.49C71.34,-315.69 71.34,-303.71 71.34,-294.25"/>
<polygon fill="#1a1a1a" stroke="#1a1a1a" points="73.1,-294.41 71.35,-289.41 69.6,-294.41 73.1,-294.41"/>
</g>
<!-- aa6ef7bc380e3e98362b4276d24b8046b1f4f758 -->
<g id="node7" class="node">
<title>aa6ef7bc380e3e98362b4276d24b8046b1f4f758</title>
<g id="a_node7"><a xlink:title="author: First Last &lt;first.last@mail.com&gt;&#10;Wed Jan 01 09:00:00 2025 +0100&#10;committer: Nom Prenom &lt;nom.prenom@mail.com&gt;&#10;Wed Jan 01 09:00:00 2025 +0100&#10;&#10;Third commit">
<polygon fill="#cdad00" stroke="#cdad00" points="96.44,-233.7 46.25,-233.7 46.25,-215.76 96.44,-215.76 96.44,-233.7"/>
<text text-anchor="middle" x="71.34" y="-219.68" font-family="Times,serif" font-size="14.00">aa6ef7bc</text>
</a>
</g>
</g>
<!-- aa6ef7bc380e3e98362b4276d24b8046b1f4f758&#45;&gt;03c5025d075bbe625608593e3bf4671daebebcc4 -->
<g id="edge10" class="edge">
<title>aa6ef7bc380e3e98362b4276d24b8046b1f4f758&#45;&gt;03c5025d075bbe625608593e3bf4671daebebcc4</title>
<path fill="none" stroke="#1a1a1a" d="M67.13,-215.61C62.95,-207.58 56.48,-195.13 51.5,-185.55"/>
<polygon fill="#1a1a1a" stroke="#1a1a1a" points="53.18,-184.99 49.32,-181.36 50.07,-186.61 53.18,-184.99"/>
</g>
<!-- aa6ef7bc380e3e98362b4276d24b8046b1f4f758&#45;&gt;3c4e9cd789d88d8d89c1073707c3585e41b0e614 -->
<g id="edge11" class="edge">
<title>aa6ef7bc380e3e98362b4276d24b8046b1f4f758&#45;&gt;3c4e9cd789d88d8d89c1073707c3585e41b0e614</title>
<path fill="none" stroke="#1a1a1a" d="M73.54,-215.42C78.31,-197.41 89.63,-154.57 95.57,-132.13"/>
<polygon fill="#1a1a1a" stroke="#1a1a1a" points="97.18,-132.86 96.77,-127.58 93.8,-131.97 97.18,-132.86"/>
</g>
<!-- d8329fc1cc938780ffdd9f94e0d364e0ea74f579&#45;&gt;83baae61804e65cc73a7201a7252750c76066a30 -->
<g id="edge12" class="edge">
<title>d8329fc1cc938780ffdd9f94e0d364e0ea74f579&#45;&gt;83baae61804e65cc73a7201a7252750c76066a30</title>
<path fill="none" stroke="#1a1a1a" d="M169.34,-53.79C169.34,-45.99 169.34,-34.01 169.34,-24.55"/>
<polygon fill="#1a1a1a" stroke="#1a1a1a" points="171.1,-24.71 169.35,-19.71 167.6,-24.71 171.1,-24.71"/>
</g>
<!-- fa26b470d9508bebe2029623de8770215ebb26a0&#45;&gt;d8329fc1cc938780ffdd9f94e0d364e0ea74f579 -->
<g id="edge13" class="edge">
<title>fa26b470d9508bebe2029623de8770215ebb26a0&#45;&gt;d8329fc1cc938780ffdd9f94e0d364e0ea74f579</title>
<path fill="none" stroke="#1a1a1a" d="M170.19,-107.73C170.04,-99.93 169.81,-87.95 169.63,-78.49"/>
<polygon fill="#1a1a1a" stroke="#1a1a1a" points="171.38,-78.62 169.53,-73.65 167.88,-78.69 171.38,-78.62"/>
</g>
<!-- 224f62133906b4b68a5652b73f779c4a381eadd8 -->
<g id="node11" class="node">
<title>224f62133906b4b68a5652b73f779c4a381eadd8</title>
<g id="a_node11"><a xlink:title="Nom Prenom &lt;nom.prenom@mail.com&gt;&#10;Wed Jan 1 09:00:00 2025 +0100&#10;&#10;First commit&#10;">
<polygon fill="pink" stroke="pink" points="205.56,-179.76 135.12,-179.76 135.12,-161.82 205.56,-161.82 205.56,-179.76"/>
<text text-anchor="middle" x="170.34" y="-165.74" font-family="Times,serif" font-size="14.00">first&#45;commit</text>
</a>
</g>
</g>
<!-- 224f62133906b4b68a5652b73f779c4a381eadd8&#45;&gt;fa26b470d9508bebe2029623de8770215ebb26a0 -->
<g id="edge5" class="edge">
<title>224f62133906b4b68a5652b73f779c4a381eadd8&#45;&gt;fa26b470d9508bebe2029623de8770215ebb26a0</title>
<path fill="none" stroke="#1a1a1a" d="M170.34,-161.67C170.34,-153.87 170.34,-141.89 170.34,-132.43"/>
<polygon fill="#1a1a1a" stroke="#1a1a1a" points="172.1,-132.59 170.35,-127.59 168.6,-132.59 172.1,-132.59"/>
</g>
<!-- local&#45;branch&#45;main&#45;&gt;aa6ef7bc380e3e98362b4276d24b8046b1f4f758 -->
<g id="edge14" class="edge">
<title>local&#45;branch&#45;main&#45;&gt;aa6ef7bc380e3e98362b4276d24b8046b1f4f758</title>
<path fill="none" stroke="#1a1a1a" d="M71.34,-269.55C71.34,-261.75 71.34,-249.77 71.34,-240.31"/>
<polygon fill="#1a1a1a" stroke="#1a1a1a" points="73.1,-240.47 71.35,-235.47 69.6,-240.47 73.1,-240.47"/>
</g>
<!-- d670460b4b4aece5915caf5c68d12f560a9fe3e4 -->
<g id="node13" class="node">
<title>d670460b4b4aece5915caf5c68d12f560a9fe3e4</title>
<g id="a_node13"><a xlink:title="d670460b4b4aece5915caf5c68d12f560a9fe3e4">
<polygon fill="gray" stroke="gray" points="172.07,-341.58 119.62,-341.58 119.62,-323.64 175.06,-323.64 175.06,-338.59 172.07,-341.58"/>
<polyline fill="none" stroke="gray" points="172.07,-341.58 172.07,-338.59"/>
<polyline fill="none" stroke="gray" points="175.06,-338.59 172.07,-338.59"/>
<text text-anchor="middle" x="147.34" y="-327.56" font-family="Times,serif" font-size="14.00">d670460b</text>
</a>
</g>
</g>
</g>
</svg>
