<?xml version="1.0" encoding="UTF-8" standalone="no"?>
<!DOCTYPE svg PUBLIC "-//W3C//DTD SVG 1.1//EN"
 "http://www.w3.org/Graphics/SVG/1.1/DTD/svg11.dtd">
<!-- Generated by graphviz version 12.1.0 (20240811.2233)
 -->
<!-- Pages: 1 -->
<svg width="214pt" height="353pt"
 viewBox="0.00 0.00 213.56 352.64" xmlns="http://www.w3.org/2000/svg" xmlns:xlink="http://www.w3.org/1999/xlink">
<g id="graph0" class="graph" transform="scale(1 1) rotate(0) translate(4 348.64)">
<polygon fill="white" stroke="none" points="-4,4 -4,-348.64 209.56,-348.64 209.56,4 -4,4"/>
<g id="clust1" class="cluster">
<title>cluster_standalone</title>
<polygon fill="white" stroke="lightgrey" points="69.34,-261.7 69.34,-336.64 165.34,-336.64 165.34,-261.7 69.34,-261.7"/>
<text text-anchor="middle" x="117.34" y="-319.34" font-family="Times,serif" font-size="14.00">Standalone</text>
<text text-anchor="middle" x="117.34" y="-302.84" font-family="Times,serif" font-size="14.00">Trees &amp; Blobs</text>
</g>
<!-- 0155eb4229851634a0f03eb265b69f5a2d56f341 -->
<g id="node1" class="node">
<title>0155eb4229851634a0f03eb265b69f5a2d56f341</title>
<g id="a_node1"><a xlink:title="0155eb4229851634a0f03eb265b69f5a2d56f341">
<polygon fill="#00688b" stroke="#00688b" points="54.69,-125.82 53.2,-127.81 42.73,-127.81 41.24,-125.82 0,-125.82 0,-107.88 54.69,-107.88 54.69,-125.82"/>
<text text-anchor="middle" x="27.34" y="-111.8" font-family="Times,serif" font-size="14.00">0155eb42</text>
</a>
</g>
</g>
<!-- 1f7a7a472abf3dd9643fd615f6da379c4acb3e3a -->
<g id="node3" class="node">
<title>1f7a7a472abf3dd9643fd615f6da379c4acb3e3a</title>
<g id="a_node3"><a xlink:title="test.txt">
<polygon fill="gray" stroke="gray" points="121.2,-71.88 72.5,-71.88 72.5,-53.94 124.19,-53.94 124.19,-68.89 121.2,-71.88"/>
<polyline fill="none" stroke="gray" points="121.2,-71.88 121.2,-68.89"/>
<polyline fill="none" stroke="gray" points="124.19,-68.89 121.2,-68.89"/>
<text text-anchor="middle" x="98.34" y="-57.86" font-family="Times,serif" font-size="14.00">1f7a7a47</text>
</a>
</g>
</g>
<!-- 0155eb4229851634a0f03eb265b69f5a2d56f341&#45;&gt;1f7a7a472abf3dd9643fd615f6da379c4acb3e3a -->
<g id="edge1" class="edge">
<title>0155eb4229851634a0f03eb265b69f5a2d56f341&#45;&gt;1f7a7a472abf3dd9643fd615f6da379c4acb3e3a</title>
<path fill="none" stroke="#1a1a1a" d="M38.75,-107.5C50.52,-98.9 68.97,-85.4 82.22,-75.7"/>
<polygon fill="#1a1a1a" stroke="#1a1a1a" points="82.98,-77.32 85.98,-72.96 80.91,-74.5 82.98,-77.32"/>
</g>
<!-- fa49b077972391ad58037050f2a75f74e3671e92 -->
<g id="node10" class="node">
<title>fa49b077972391ad58037050f2a75f74e3671e92</title>
<g id="a_node10"><a xlink:title="new.txt">
<polygon fill="gray" stroke="gray" points="51.57,-71.88 2.12,-71.88 2.12,-53.94 54.56,-53.94 54.56,-68.89 51.57,-71.88"/>
<polyline fill="none" stroke="gray" points="51.57,-71.88 51.57,-68.89"/>
<polyline fill="none" stroke="gray" points="54.56,-68.89 51.57,-68.89"/>
<text text-anchor="middle" x="28.34" y="-57.86" font-family="Times,serif" font-size="14.00">fa49b077</text>
</a>
</g>
</g>
<!-- 0155eb4229851634a0f03eb265b69f5a2d56f341&#45;&gt;fa49b077972391ad58037050f2a75f74e3671e92 -->
<g id="edge2" class="edge">
<title>0155eb4229851634a0f03eb265b69f5a2d56f341&#45;&gt;fa49b077972391ad58037050f2a75f74e3671e92</title>
<path fill="none" stroke="#1a1a1a" d="M27.5,-107.73C27.65,-99.93 27.88,-87.95 28.06,-78.49"/>
<polygon fill="#1a1a1a" stroke="#1a1a1a" points="29.81,-78.69 28.16,-73.65 26.31,-78.62 29.81,-78.69"/>
</g>
<!-- 03c5025d075bbe625608593e3bf4671daebebcc4 -->
<g id="node2" class="node">
<title>03c5025d075bbe625608593e3bf4671daebebcc4</title>
<g id="a_node2"><a xlink:title="author: First Last &lt;first.last@mail.com&gt;&#10;Wed Jan 01 09:00:00 2025 +0100&#10;committer: Nom Prenom &lt;nom.prenom@mail.com&gt;&#10;Wed Jan 01 09:00:00 2025 +0100&#10;&#10;Second commit">
<polygon fill="#cdad00" stroke="#cdad00" points="69.69,-179.76 15,-179.76 15,-161.82 69.69,-161.82 69.69,-179.76"/>
<text text-anchor="middle" x="42.34" y="-165.74" font-family="Times,serif" font-size="14.00">03c5025d</text>
</a>
</g>
</g>
<!-- 03c5025d075bbe625608593e3bf4671daebebcc4&#45;&gt;0155eb4229851634a0f03eb265b69f5a2d56f341 -->
<g id="edge3" class="edge">
<title>03c5025d075bbe625608593e3bf4671daebebcc4&#45;&gt;0155eb4229851634a0f03eb265b69f5a2d56f341</title>
<path fill="none" stroke="#1a1a1a" d="M40,-161.67C37.73,-153.79 34.22,-141.66 31.48,-132.15"/>
<polygon fill="#1a1a1a" stroke="#1a1a1a" points="33.21,-131.85 30.14,-127.53 29.85,-132.82 33.21,-131.85"/>
</g>
<!-- fa26b470d9508bebe2029623de8770215ebb26a0 -->
<g id="node9" class="node">
<title>fa26b470d9508bebe2029623de8770215ebb26a0</title>
<g id="a_node9"><a xlink:title="author: First Last &lt;first.last@mail.com&gt;&#10;Wed Jan 01 09:00:00 2025 +0100&#10;committer: Nom Prenom &lt;nom.prenom@mail.com&gt;&#10;Wed Jan 01 09:00:00 2025 +0100&#10;&#10;First commit">
<polygon fill="#cdad00" stroke="#cdad00" points="196.56,-125.82 144.12,-125.82 144.12,-107.88 196.56,-107.88 196.56,-125.82"/>
<text text-anchor="middle" x="170.34" y="-111.8" font-family="Times,serif" font-size="14.00">fa26b470</text>
</a>
</g>
</g>
<!-- 03c5025d075bbe625608593e3bf4671daebebcc4&#45;&gt;fa26b470d9508bebe2029623de8770215ebb26a0 -->
<g id="edge4" class="edge">
<title>03c5025d075bbe625608593e3bf4671daebebcc4&#45;&gt;fa26b470d9508bebe2029623de8770215ebb26a0</title>
<path fill="none" stroke="#1a1a1a" d="M63.2,-161.33C85.14,-152.43 119.75,-138.38 143.67,-128.68"/>
<polygon fill="#1a1a1a" stroke="#1a1a1a" points="144.13,-130.38 148.1,-126.88 142.81,-127.13 144.13,-130.38"/>
</g>
<!-- 3c4e9cd789d88d8d89c1073707c3585e41b0e614 -->
<g id="node4" class="node">
<title>3c4e9cd789d88d8d89c1073707c3585e41b0e614</title>
<g id="a_node4"><a xlink:title="3c4e9cd789d88d8d89c1073707c3585e41b0e614">
<polygon fill="#00688b" stroke="#00688b" points="125.94,-125.82 124.44,-127.81 113.98,-127.81 112.48,-125.82 72.75,-125.82 72.75,-107.88 125.94,-107.88 125.94,-125.82"/>
<text text-anchor="middle" x="99.34" y="-111.8" font-family="Times,serif" font-size="14.00">3c4e9cd7</text>
</a>
</g>
</g>
<!-- 3c4e9cd789d88d8d89c1073707c3585e41b0e614&#45;&gt;1f7a7a472abf3dd9643fd615f6da379c4acb3e3a -->
<g id="edge6" class="edge">
<title>3c4e9cd789d88d8d89c1073707c3585e41b0e614&#45;&gt;1f7a7a472abf3dd9643fd615f6da379c4acb3e3a</title>
<path fill="none" stroke="#1a1a1a" d="M99.19,-107.73C99.04,-99.93 98.81,-87.95 98.63,-78.49"/>
<polygon fill="#1a1a1a" stroke="#1a1a1a" points="100.38,-78.62 98.53,-73.65 96.88,-78.69 100.38,-78.62"/>
</g>
<!-- d8329fc1cc938780ffdd9f94e0d364e0ea74f579 -->
<g id="node8" class="node">
<title>d8329fc1cc938780ffdd9f94e0d364e0ea74f579</title>
<g id="a_node8"><a xlink:title="bak">
<polygon fill="#00688b" stroke="#00688b" points="195.56,-71.88 194.07,-73.87 183.61,-73.87 182.11,-71.88 143.12,-71.88 143.12,-53.94 195.56,-53.94 195.56,-71.88"/>
<text text-anchor="middle" x="169.34" y="-57.86" font-family="Times,serif" font-size="14.00">d8329fc1</text>
</a>
</g>
</g>
<!-- 3c4e9cd789d88d8d89c1073707c3585e41b0e614&#45;&gt;d8329fc1cc938780ffdd9f94e0d364e0ea74f579 -->
<g id="edge7" class="edge">
<title>3c4e9cd789d88d8d89c1073707c3585e41b0e614&#45;&gt;d8329fc1cc938780ffdd9f94e0d364e0ea74f579</title>
<path fill="none" stroke="#1a1a1a" d="M110.59,-107.5C122.19,-98.9 140.38,-85.4 153.45,-75.7"/>
<polygon fill="#1a1a1a" stroke="#1a1a1a" points="154.17,-77.35 157.14,-72.96 152.08,-74.54 154.17,-77.35"/>
</g>
<!-- 3c4e9cd789d88d8d89c1073707c3585e41b0e614&#45;&gt;fa49b077972391ad58037050f2a75f74e3671e92 -->
<g id="edge8" class="edge">
<title>3c4e9cd789d88d8d89c1073707c3585e41b0e614&#45;&gt;fa49b077972391ad58037050f2a75f74e3671e92</title>
<path fill="none" stroke="#1a1a1a" d="M87.94,-107.5C76.17,-98.9 57.72,-85.4 44.47,-75.7"/>
<polygon fill="#1a1a1a" stroke="#1a1a1a" points="45.78,-74.5 40.71,-72.96 43.71,-77.32 45.78,-74.5"/>
</g>
<!-- 83baae61804e65cc73a7201a7252750c76066a30 -->
<g id="node5" class="node">
<title>83baae61804e65cc73a7201a7252750c76066a30</title>
<g id="a_node5"><a xlink:title="test.txt">
<polygon fill="gray" stroke="gray" points="192.95,-17.94 142.75,-17.94 142.75,0 195.94,0 195.94,-14.95 192.95,-17.94"/>
<polyline fill="none" stroke="gray" points="192.95,-17.94 192.95,-14.95"/>
<polyline fill="none" stroke="gray" points="195.94,-14.95 192.95,-14.95"/>
<text text-anchor="middle" x="169.34" y="-3.92" font-family="Times,serif" font-size="14.00">83baae61</text>
</a>
</g>
</g>
<!-- HEAD -->
<g id="node6" class="node">
<title>HEAD</title>
<g id="a_node6"><a xlink:title="main">
<polygon fill="cornflowerblue" stroke="cornflowerblue" points="60.81,-287.64 21.88,-287.64 21.88,-269.7 60.81,-269.7 60.81,-287.64"/>
<text text-anchor="middle" x="41.34" y="-273.62" font-family="Times,serif" font-size="14.00">HEAD</text>
</a>
</g>
</g>
<!-- local&#45;branch&#45;main -->
<g id="node12" class="node">
<title>local&#45;branch&#45;main</title>
<g id="a_node12"><a xlink:title="&#45;&gt; None">
<polygon fill="forestgreen" stroke="forestgreen" points="55.94,-233.7 26.75,-233.7 26.75,-215.76 55.94,-215.76 55.94,-233.7"/>
<text text-anchor="middle" x="41.34" y="-219.68" font-family="Times,serif" font-size="14.00">main</text>
</a>
</g>
</g>
<!-- HEAD&#45;&gt;local&#45;branch&#45;main -->
<g id="edge9" class="edge">
<title>HEAD&#45;&gt;local&#45;branch&#45;main</title>
<path fill="none" stroke="#1a1a1a" d="M41.34,-269.55C41.34,-261.75 41.34,-249.77 41.34,-240.31"/>
<polygon fill="#1a1a1a" stroke="#1a1a1a" points="43.1,-240.47 41.35,-235.47 39.6,-240.47 43.1,-240.47"/>
</g>
<!-- aa6ef7bc380e3e98362b4276d24b8046b1f4f758 -->
<g id="node7" class="node">
<title>aa6ef7bc380e3e98362b4276d24b8046b1f4f758</title>
<g id="a_node7"><a xlink:title="author: First Last &lt;first.last@mail.com&gt;&#10;Wed Jan 01 09:00:00 2025 +0100&#10;committer: Nom Prenom &lt;nom.prenom@mail.com&gt;&#10;Wed Jan 01 09:00:00 2025 +0100&#10;&#10;Third commit">
<polygon fill="darkorange" stroke="darkorange" points="124.44,-233.7 74.25,-233.7 74.25,-215.76 124.44,-215.76 124.44,-233.7"/>
<text text-anchor="middle" x="99.34" y="-219.68" font-family="Times,serif" font-size="14.00">aa6ef7bc</text>
</a>
</g>
</g>
<!-- aa6ef7bc380e3e98362b4276d24b8046b1f4f758&#45;&gt;03c5025d075bbe625608593e3bf4671daebebcc4 -->
<g id="edge10" class="edge">
<title>aa6ef7bc380e3e98362b4276d24b8046b1f4f758&#45;&gt;03c5025d075bbe625608593e3bf4671daebebcc4</title>
<path fill="none" stroke="#1a1a1a" d="M90.19,-215.38C80.91,-206.93 66.45,-193.76 55.86,-184.1"/>
<polygon fill="#1a1a1a" stroke="#1a1a1a" points="57.29,-183.04 52.41,-180.96 54.93,-185.62 57.29,-183.04"/>
</g>
<!-- aa6ef7bc380e3e98362b4276d24b8046b1f4f758&#45;&gt;3c4e9cd789d88d8d89c1073707c3585e41b0e614 -->
<g id="edge11" class="edge">
<title>aa6ef7bc380e3e98362b4276d24b8046b1f4f758&#45;&gt;3c4e9cd789d88d8d89c1073707c3585e41b0e614</title>
<path fill="none" stroke="#1a1a1a" d="M99.34,-215.42C99.34,-197.48 99.34,-154.94 99.34,-132.42"/>
<polygon fill="#1a1a1a" stroke="#1a1a1a" points="101.1,-132.63 99.35,-127.63 97.6,-132.63 101.1,-132.63"/>
</g>
<!-- d8329fc1cc938780ffdd9f94e0d364e0ea74f579&#45;&gt;83baae61804e65cc73a7201a7252750c76066a30 -->
<g id="edge12" class="edge">
<title>d8329fc1cc938780ffdd9f94e0d364e0ea74f579&#45;&gt;83baae61804e65cc73a7201a7252750c76066a30</title>
<path fill="none" stroke="#1a1a1a" d="M169.34,-53.79C169.34,-45.99 169.34,-34.01 169.34,-24.55"/>
<polygon fill="#1a1a1a" stroke="#1a1a1a" points="171.1,-24.71 169.35,-19.71 167.6,-24.71 171.1,-24.71"/>
</g>
<!-- fa26b470d9508bebe2029623de8770215ebb26a0&#45;&gt;d8329fc1cc938780ffdd9f94e0d364e0ea74f579 -->
<g id="edge13" class="edge">
<title>fa26b470d9508bebe2029623de8770215ebb26a0&#45;&gt;d8329fc1cc938780ffdd9f94e0d364e0ea74f579</title>
<path fill="none" stroke="#1a1a1a" d="M170.19,-107.73C170.04,-99.93 169.81,-87.95 169.63,-78.49"/>
<polygon fill="#1a1a1a" stroke="#1a1a1a" points="171.38,-78.62 169.53,-73.65 167.88,-78.69 171.38,-78.62"/>
</g>
<!-- 224f62133906b4b68a5652b73f779c4a381eadd8 -->
<g id="node11" class="node">
<title>224f62133906b4b68a5652b73f779c4a381eadd8</title>
<g id="a_node11"><a xlink:title="Nom Prenom &lt;nom.prenom@mail.com&gt;&#10;Wed Jan 1 09:00:00 2025 +0100&#10;&#10;First commit&#10;">
<polygon fill="pink" stroke="pink" points="205.56,-179.76 135.12,-179.76 135.12,-161.82 205.56,-161.82 205.56,-179.76"/>
<text text-anchor="middle" x="170.34" y="-165.74" font-family="Times,serif" font-size="14.00">first&#45;commit</text>
</a>
</g>
</g>
<!-- 224f62133906b4b68a5652b73f779c4a381eadd8&#45;&gt;fa26b470d9508bebe2029623de8770215ebb26a0 -->
<g id="edge5" class="edge">
<title>224f62133906b4b68a5652b73f779c4a381eadd8&#45;&gt;fa26b470d9508bebe2029623de8770215ebb26a0</title>
<path fill="none" stroke="#1a1a1a" d="M170.34,-161.67C170.34,-153.87 170.34,-141.89 170.34,-132.43"/>
<polygon fill="#1a1a1a" stroke="#1a1a1a" points="172.1,-132.59 170.35,-127.59 168.6,-132.59 172.1,-132.59"/>
</g>
<!-- local&#45;branch&#45;main&#45;&gt;03c5025d075bbe625608593e3bf4671daebebcc4 -->
<g id="edge14" class="edge">
<title>local&#45;branch&#45;main&#45;&gt;03c5025d075bbe625608593e3bf4671daebebcc4</title>
<path fill="none" stroke="#1a1a1a" d="M41.5,-215.61C41.65,-207.81 41.88,-195.83 42.06,-186.37"/>
<polygon fill="#1a1a1a" stroke="#1a1a1a" points="43.81,-186.57 42.16,-181.53 40.31,-186.5 43.81,-186.57"/>
</g>
<!-- d670460b4b4aece5915caf5c68d12f560a9fe3e4 -->
<g id="node13" class="node">
<title>d670460b4b4aece5915caf5c68d12f560a9fe3e4</title>
<g id="a_node13"><a xlink:title="d670460b4b4aece5915caf5c68d12f560a9fe3e4">
<polygon fill="gray" stroke="gray" points="142.07,-287.64 89.62,-287.64 89.62,-269.7 145.06,-269.7 145.06,-284.65 142.07,-287.64"/>
<polyline fill="none" stroke="gray" points="142.07,-287.64 142.07,-284.65"/>
<polyline fill="none" stroke="gray" points="145.06,-284.65 142.07,-284.65"/>
<text text-anchor="middle" x="117.34" y="-273.62" font-family="Times,serif" font-size="14.00">d670460b</text>
</a>
</g>
</g>
</g>
</svg>
