<?xml version="1.0" encoding="UTF-8" standalone="no"?>
<!DOCTYPE svg PUBLIC "-//W3C//DTD SVG 1.1//EN"
 "http://www.w3.org/Graphics/SVG/1.1/DTD/svg11.dtd">
<!-- Generated by graphviz version 12.1.0 (20240811.2233)
 -->
<!-- Pages: 1 -->
<svg width="276pt" height="299pt"
 viewBox="0.00 0.00 275.60 298.70" xmlns="http://www.w3.org/2000/svg" xmlns:xlink="http://www.w3.org/1999/xlink">
<g id="graph0" class="graph" transform="scale(1 1) rotate(0) translate(4 294.7)">
<polygon fill="white" stroke="none" points="-4,4 -4,-294.7 271.6,-294.7 271.6,4 -4,4"/>
<g id="clust1" class="cluster">
<title>cluster_standalone</title>
<polygon fill="white" stroke="lightgrey" points="163.59,-207.76 163.59,-282.7 259.6,-282.7 259.6,-207.76 163.59,-207.76"/>
<text text-anchor="middle" x="211.59" y="-265.4" font-family="Times,serif" font-size="14.00">Standalone</text>
<text text-anchor="middle" x="211.59" y="-248.9" font-family="Times,serif" font-size="14.00">Trees &amp; Blobs</text>
</g>
<!-- 0155eb4229851634a0f03eb265b69f5a2d56f341 -->
<g id="node1" class="node">
<title>0155eb4229851634a0f03eb265b69f5a2d56f341</title>
<g id="a_node1"><a xlink:title="0155eb4229851634a0f03eb265b69f5a2d56f341">
<polygon fill="#00688b" stroke="#00688b" points="84.94,-125.82 83.44,-127.81 72.98,-127.81 71.48,-125.82 30.25,-125.82 30.25,-107.88 84.94,-107.88 84.94,-125.82"/>
<text text-anchor="middle" x="57.59" y="-111.8" font-family="Times,serif" font-size="14.00">0155eb42</text>
</a>
</g>
</g>
<!-- 1f7a7a472abf3dd9643fd615f6da379c4acb3e3a -->
<g id="node3" class="node">
<title>1f7a7a472abf3dd9643fd615f6da379c4acb3e3a</title>
<g id="a_node3"><a xlink:title="test.txt">
<polygon fill="gray" stroke="gray" points="151.45,-71.88 102.75,-71.88 102.75,-53.94 154.44,-53.94 154.44,-68.89 151.45,-71.88"/>
<polyline fill="none" stroke="gray" points="151.45,-71.88 151.45,-68.89"/>
<polyline fill="none" stroke="gray" points="154.44,-68.89 151.45,-68.89"/>
<text text-anchor="middle" x="128.59" y="-57.86" font-family="Times,serif" font-size="14.00">1f7a7a47</text>
</a>
</g>
</g>
<!-- 0155eb4229851634a0f03eb265b69f5a2d56f341&#45;&gt;1f7a7a472abf3dd9643fd615f6da379c4acb3e3a -->
<g id="edge1" class="edge">
<title>0155eb4229851634a0f03eb265b69f5a2d56f341&#45;&gt;1f7a7a472abf3dd9643fd615f6da379c4acb3e3a</title>
<path fill="none" stroke="#1a1a1a" d="M69,-107.5C80.77,-98.9 99.22,-85.4 112.47,-75.7"/>
<polygon fill="#1a1a1a" stroke="#1a1a1a" points="113.23,-77.32 116.23,-72.96 111.16,-74.5 113.23,-77.32"/>
</g>
<!-- fa49b077972391ad58037050f2a75f74e3671e92 -->
<g id="node10" class="node">
<title>fa49b077972391ad58037050f2a75f74e3671e92</title>
<g id="a_node10"><a xlink:title="new.txt">
<polygon fill="gray" stroke="gray" points="81.83,-71.88 32.38,-71.88 32.38,-53.94 84.81,-53.94 84.81,-68.89 81.83,-71.88"/>
<polyline fill="none" stroke="gray" points="81.83,-71.88 81.83,-68.89"/>
<polyline fill="none" stroke="gray" points="84.81,-68.89 81.83,-68.89"/>
<text text-anchor="middle" x="58.59" y="-57.86" font-family="Times,serif" font-size="14.00">fa49b077</text>
</a>
</g>
</g>
<!-- 0155eb4229851634a0f03eb265b69f5a2d56f341&#45;&gt;fa49b077972391ad58037050f2a75f74e3671e92 -->
<g id="edge2" class="edge">
<title>0155eb4229851634a0f03eb265b69f5a2d56f341&#45;&gt;fa49b077972391ad58037050f2a75f74e3671e92</title>
<path fill="none" stroke="#1a1a1a" d="M57.75,-107.73C57.9,-99.93 58.13,-87.95 58.31,-78.49"/>
<polygon fill="#1a1a1a" stroke="#1a1a1a" points="60.06,-78.69 58.41,-73.65 56.56,-78.62 60.06,-78.69"/>
</g>
<!-- 03c5025d075bbe625608593e3bf4671daebebcc4 -->
<g id="node2" class="node">
<title>03c5025d075bbe625608593e3bf4671daebebcc4</title>
<g id="a_node2"><a xlink:title="author: First Last &lt;first.last@mail.com&gt;&#10;Wed Jan 01 09:00:00 2025 +0100&#10;committer: Nom Prenom &lt;nom.prenom@mail.com&gt;&#10;Wed Jan 01 09:00:00 2025 +0100&#10;&#10;Second commit">
<polygon fill="#cdad00" stroke="#cdad00" points="93.94,-179.76 39.25,-179.76 39.25,-161.82 93.94,-161.82 93.94,-179.76"/>
<text text-anchor="middle" x="66.59" y="-165.74" font-family="Times,serif" font-size="14.00">03c5025d</text>
</a>
</g>
</g>
<!-- 03c5025d075bbe625608593e3bf4671daebebcc4&#45;&gt;0155eb4229851634a0f03eb265b69f5a2d56f341 -->
<g id="edge3" class="edge">
<title>03c5025d075bbe625608593e3bf4671daebebcc4&#45;&gt;0155eb4229851634a0f03eb265b69f5a2d56f341</title>
<path fill="none" stroke="#1a1a1a" d="M65.19,-161.67C63.84,-153.87 61.76,-141.89 60.12,-132.43"/>
<polygon fill="#1a1a1a" stroke="#1a1a1a" points="61.86,-132.2 59.28,-127.57 58.41,-132.8 61.86,-132.2"/>
</g>
<!-- fa26b470d9508bebe2029623de8770215ebb26a0 -->
<g id="node9" class="node">
<title>fa26b470d9508bebe2029623de8770215ebb26a0</title>
<g id="a_node9"><a xlink:title="author: First Last &lt;first.last@mail.com&gt;&#10;Wed Jan 01 09:00:00 2025 +0100&#10;committer: Nom Prenom &lt;nom.prenom@mail.com&gt;&#10;Wed Jan 01 09:00:00 2025 +0100&#10;&#10;First commit">
<polygon fill="#cdad00" stroke="#cdad00" points="226.81,-125.82 174.38,-125.82 174.38,-107.88 226.81,-107.88 226.81,-125.82"/>
<text text-anchor="middle" x="200.59" y="-111.8" font-family="Times,serif" font-size="14.00">fa26b470</text>
</a>
</g>
</g>
<!-- 03c5025d075bbe625608593e3bf4671daebebcc4&#45;&gt;fa26b470d9508bebe2029623de8770215ebb26a0 -->
<g id="edge4" class="edge">
<title>03c5025d075bbe625608593e3bf4671daebebcc4&#45;&gt;fa26b470d9508bebe2029623de8770215ebb26a0</title>
<path fill="none" stroke="#1a1a1a" d="M88.42,-161.33C111.49,-152.39 147.93,-138.26 172.98,-128.55"/>
<polygon fill="#1a1a1a" stroke="#1a1a1a" points="173.34,-130.29 177.37,-126.85 172.07,-127.03 173.34,-130.29"/>
</g>
<!-- 3c4e9cd789d88d8d89c1073707c3585e41b0e614 -->
<g id="node4" class="node">
<title>3c4e9cd789d88d8d89c1073707c3585e41b0e614</title>
<g id="a_node4"><a xlink:title="3c4e9cd789d88d8d89c1073707c3585e41b0e614">
<polygon fill="#00688b" stroke="#00688b" points="156.19,-125.82 154.69,-127.81 144.23,-127.81 142.74,-125.82 103,-125.82 103,-107.88 156.19,-107.88 156.19,-125.82"/>
<text text-anchor="middle" x="129.59" y="-111.8" font-family="Times,serif" font-size="14.00">3c4e9cd7</text>
</a>
</g>
</g>
<!-- 3c4e9cd789d88d8d89c1073707c3585e41b0e614&#45;&gt;1f7a7a472abf3dd9643fd615f6da379c4acb3e3a -->
<g id="edge6" class="edge">
<title>3c4e9cd789d88d8d89c1073707c3585e41b0e614&#45;&gt;1f7a7a472abf3dd9643fd615f6da379c4acb3e3a</title>
<path fill="none" stroke="#1a1a1a" d="M129.44,-107.73C129.29,-99.93 129.06,-87.95 128.88,-78.49"/>
<polygon fill="#1a1a1a" stroke="#1a1a1a" points="130.63,-78.62 128.78,-73.65 127.13,-78.69 130.63,-78.62"/>
</g>
<!-- d8329fc1cc938780ffdd9f94e0d364e0ea74f579 -->
<g id="node8" class="node">
<title>d8329fc1cc938780ffdd9f94e0d364e0ea74f579</title>
<g id="a_node8"><a xlink:title="bak">
<polygon fill="#00688b" stroke="#00688b" points="225.81,-71.88 224.32,-73.87 213.86,-73.87 212.36,-71.88 173.38,-71.88 173.38,-53.94 225.81,-53.94 225.81,-71.88"/>
<text text-anchor="middle" x="199.59" y="-57.86" font-family="Times,serif" font-size="14.00">d8329fc1</text>
</a>
</g>
</g>
<!-- 3c4e9cd789d88d8d89c1073707c3585e41b0e614&#45;&gt;d8329fc1cc938780ffdd9f94e0d364e0ea74f579 -->
<g id="edge7" class="edge">
<title>3c4e9cd789d88d8d89c1073707c3585e41b0e614&#45;&gt;d8329fc1cc938780ffdd9f94e0d364e0ea74f579</title>
<path fill="none" stroke="#1a1a1a" d="M140.84,-107.5C152.44,-98.9 170.63,-85.4 183.7,-75.7"/>
<polygon fill="#1a1a1a" stroke="#1a1a1a" points="184.42,-77.35 187.39,-72.96 182.33,-74.54 184.42,-77.35"/>
</g>
<!-- 3c4e9cd789d88d8d89c1073707c3585e41b0e614&#45;&gt;fa49b077972391ad58037050f2a75f74e3671e92 -->
<g id="edge8" class="edge">
<title>3c4e9cd789d88d8d89c1073707c3585e41b0e614&#45;&gt;fa49b077972391ad58037050f2a75f74e3671e92</title>
<path fill="none" stroke="#1a1a1a" d="M118.19,-107.5C106.42,-98.9 87.97,-85.4 74.72,-75.7"/>
<polygon fill="#1a1a1a" stroke="#1a1a1a" points="76.03,-74.5 70.96,-72.96 73.96,-77.32 76.03,-74.5"/>
</g>
<!-- 83baae61804e65cc73a7201a7252750c76066a30 -->
<g id="node5" class="node">
<title>83baae61804e65cc73a7201a7252750c76066a30</title>
<g id="a_node5"><a xlink:title="test.txt">
<polygon fill="gray" stroke="gray" points="223.2,-17.94 173,-17.94 173,0 226.19,0 226.19,-14.95 223.2,-17.94"/>
<polyline fill="none" stroke="gray" points="223.2,-17.94 223.2,-14.95"/>
<polyline fill="none" stroke="gray" points="226.19,-14.95 223.2,-14.95"/>
<text text-anchor="middle" x="199.59" y="-3.92" font-family="Times,serif" font-size="14.00">83baae61</text>
</a>
</g>
</g>
<!-- HEAD -->
<g id="node6" class="node">
<title>HEAD</title>
<g id="a_node6"><a xlink:title="03c5025d075bbe625608593e3bf4671daebebcc4">
<polygon fill="cornflowerblue" stroke="black" points="86.06,-233.7 47.12,-233.7 47.12,-215.76 86.06,-215.76 86.06,-233.7"/>
<text text-anchor="middle" x="66.59" y="-219.68" font-family="Times,serif" font-size="14.00">HEAD</text>
</a>
</g>
</g>
<!-- HEAD&#45;&gt;03c5025d075bbe625608593e3bf4671daebebcc4 -->
<g id="edge9" class="edge">
<title>HEAD&#45;&gt;03c5025d075bbe625608593e3bf4671daebebcc4</title>
<path fill="none" stroke="#1a1a1a" d="M66.59,-215.61C66.59,-207.81 66.59,-195.83 66.59,-186.37"/>
<polygon fill="#1a1a1a" stroke="#1a1a1a" points="68.35,-186.53 66.6,-181.53 64.85,-186.53 68.35,-186.53"/>
</g>
<!-- aa6ef7bc380e3e98362b4276d24b8046b1f4f758 -->
<g id="node7" class="node">
<title>aa6ef7bc380e3e98362b4276d24b8046b1f4f758</title>
<g id="a_node7"><a xlink:title="author: First Last &lt;first.last@mail.com&gt;&#10;Wed Jan 01 09:00:00 2025 +0100&#10;committer: Nom Prenom &lt;nom.prenom@mail.com&gt;&#10;Wed Jan 01 09:00:00 2025 +0100&#10;&#10;Third commit">
<polygon fill="darkorange" stroke="darkorange" points="154.69,-233.7 104.5,-233.7 104.5,-215.76 154.69,-215.76 154.69,-233.7"/>
<text text-anchor="middle" x="129.59" y="-219.68" font-family="Times,serif" font-size="14.00">aa6ef7bc</text>
</a>
</g>
</g>
<!-- aa6ef7bc380e3e98362b4276d24b8046b1f4f758&#45;&gt;03c5025d075bbe625608593e3bf4671daebebcc4 -->
<g id="edge10" class="edge">
<title>aa6ef7bc380e3e98362b4276d24b8046b1f4f758&#45;&gt;03c5025d075bbe625608593e3bf4671daebebcc4</title>
<path fill="none" stroke="#1a1a1a" d="M119.47,-215.38C109.13,-206.85 92.95,-193.52 81.21,-183.84"/>
<polygon fill="#1a1a1a" stroke="#1a1a1a" points="82.62,-182.74 77.65,-180.91 80.4,-185.44 82.62,-182.74"/>
</g>
<!-- aa6ef7bc380e3e98362b4276d24b8046b1f4f758&#45;&gt;3c4e9cd789d88d8d89c1073707c3585e41b0e614 -->
<g id="edge11" class="edge">
<title>aa6ef7bc380e3e98362b4276d24b8046b1f4f758&#45;&gt;3c4e9cd789d88d8d89c1073707c3585e41b0e614</title>
<path fill="none" stroke="#1a1a1a" d="M129.59,-215.42C129.59,-197.48 129.59,-154.94 129.59,-132.42"/>
<polygon fill="#1a1a1a" stroke="#1a1a1a" points="131.35,-132.63 129.6,-127.63 127.85,-132.63 131.35,-132.63"/>
</g>
<!-- d8329fc1cc938780ffdd9f94e0d364e0ea74f579&#45;&gt;83baae61804e65cc73a7201a7252750c76066a30 -->
<g id="edge12" class="edge">
<title>d8329fc1cc938780ffdd9f94e0d364e0ea74f579&#45;&gt;83baae61804e65cc73a7201a7252750c76066a30</title>
<path fill="none" stroke="#1a1a1a" d="M199.59,-53.79C199.59,-45.99 199.59,-34.01 199.59,-24.55"/>
<polygon fill="#1a1a1a" stroke="#1a1a1a" points="201.35,-24.71 199.6,-19.71 197.85,-24.71 201.35,-24.71"/>
</g>
<!-- fa26b470d9508bebe2029623de8770215ebb26a0&#45;&gt;d8329fc1cc938780ffdd9f94e0d364e0ea74f579 -->
<g id="edge13" class="edge">
<title>fa26b470d9508bebe2029623de8770215ebb26a0&#45;&gt;d8329fc1cc938780ffdd9f94e0d364e0ea74f579</title>
<path fill="none" stroke="#1a1a1a" d="M200.44,-107.73C200.29,-99.93 200.06,-87.95 199.88,-78.49"/>
<polygon fill="#1a1a1a" stroke="#1a1a1a" points="201.63,-78.62 199.78,-73.65 198.13,-78.69 201.63,-78.62"/>
</g>
<!-- 224f62133906b4b68a5652b73f779c4a381eadd8 -->
<g id="node11" class="node">
<title>224f62133906b4b68a5652b73f779c4a381eadd8</title>
<g id="a_node11"><a xlink:title="Nom Prenom &lt;nom.prenom@mail.com&gt;&#10;Wed Jan 1 09:00:00 2025 +0100&#10;&#10;First commit&#10;">
<polygon fill="pink" stroke="pink" points="235.81,-179.76 165.38,-179.76 165.38,-161.82 235.81,-161.82 235.81,-179.76"/>
<text text-anchor="middle" x="200.59" y="-165.74" font-family="Times,serif" font-size="14.00">first&#45;commit</text>
</a>
</g>
</g>
<!-- 224f62133906b4b68a5652b73f779c4a381eadd8&#45;&gt;fa26b470d9508bebe2029623de8770215ebb26a0 -->
<g id="edge5" class="edge">
<title>224f62133906b4b68a5652b73f779c4a381eadd8&#45;&gt;fa26b470d9508bebe2029623de8770215ebb26a0</title>
<path fill="none" stroke="#1a1a1a" d="M200.59,-161.67C200.59,-153.87 200.59,-141.89 200.59,-132.43"/>
<polygon fill="#1a1a1a" stroke="#1a1a1a" points="202.35,-132.59 200.6,-127.59 198.85,-132.59 202.35,-132.59"/>
</g>
<!-- local&#45;branch&#45;main -->
<g id="node12" class="node">
<title>local&#45;branch&#45;main</title>
<g id="a_node12"><a xlink:title="&#45;&gt; None">
<polygon fill="forestgreen" stroke="forestgreen" points="29.19,-233.7 0,-233.7 0,-215.76 29.19,-215.76 29.19,-233.7"/>
<text text-anchor="middle" x="14.6" y="-219.68" font-family="Times,serif" font-size="14.00">main</text>
</a>
</g>
</g>
<!-- local&#45;branch&#45;main&#45;&gt;03c5025d075bbe625608593e3bf4671daebebcc4 -->
<g id="edge14" class="edge">
<title>local&#45;branch&#45;main&#45;&gt;03c5025d075bbe625608593e3bf4671daebebcc4</title>
<path fill="none" stroke="#1a1a1a" d="M22.72,-215.61C31.07,-207.28 44.18,-194.18 53.89,-184.48"/>
<polygon fill="#1a1a1a" stroke="#1a1a1a" points="54.98,-185.86 57.28,-181.09 52.51,-183.39 54.98,-185.86"/>
</g>
<!-- d670460b4b4aece5915caf5c68d12f560a9fe3e4 -->
<g id="node13" class="node">
<title>d670460b4b4aece5915caf5c68d12f560a9fe3e4</title>
<g id="a_node13"><a xlink:title="d670460b4b4aece5915caf5c68d12f560a9fe3e4">
<polygon fill="gray" stroke="gray" points="236.32,-233.7 183.88,-233.7 183.88,-215.76 239.31,-215.76 239.31,-230.71 236.32,-233.7"/>
<polyline fill="none" stroke="gray" points="236.32,-233.7 236.32,-230.71"/>
<polyline fill="none" stroke="gray" points="239.31,-230.71 236.32,-230.71"/>
<text text-anchor="middle" x="211.59" y="-219.68" font-family="Times,serif" font-size="14.00">d670460b</text>
</a>
</g>
</g>
</g>
</svg>
