<?xml version="1.0" encoding="UTF-8" standalone="no"?>
<!DOCTYPE svg PUBLIC "-//W3C//DTD SVG 1.1//EN"
 "http://www.w3.org/Graphics/SVG/1.1/DTD/svg11.dtd">
<!-- Generated by graphviz version 12.1.0 (20240811.2233)
 -->
<!-- Pages: 1 -->
<svg width="197pt" height="188pt"
 viewBox="0.00 0.00 196.81 187.76" xmlns="http://www.w3.org/2000/svg" xmlns:xlink="http://www.w3.org/1999/xlink">
<g id="graph0" class="graph" transform="scale(1 1) rotate(0) translate(4 183.76)">
<polygon fill="white" stroke="none" points="-4,4 -4,-183.76 192.81,-183.76 192.81,4 -4,4"/>
<!-- 03c5025d075bbe625608593e3bf4671daebebcc4 -->
<g id="node1" class="node">
<title>03c5025d075bbe625608593e3bf4671daebebcc4</title>
<g id="a_node1"><a xlink:title="author: First Last &lt;first.last@mail.com&gt;&#10;Wed Jan 01 09:00:00 2025 +0100&#10;committer: Nom Prenom &lt;nom.prenom@mail.com&gt;&#10;Wed Jan 01 09:00:00 2025 +0100&#10;&#10;Second commit">
<polygon fill="#cdad00" stroke="#cdad00" points="143.56,-71.88 88.88,-71.88 88.88,-53.94 143.56,-53.94 143.56,-71.88"/>
<text text-anchor="middle" x="116.22" y="-57.86" font-family="Times,serif" font-size="14.00">03c5025d</text>
</a>
</g>
</g>
<!-- fa26b470d9508bebe2029623de8770215ebb26a0 -->
<g id="node4" class="node">
<title>fa26b470d9508bebe2029623de8770215ebb26a0</title>
<g id="a_node4"><a xlink:title="author: First Last &lt;first.last@mail.com&gt;&#10;Wed Jan 01 09:00:00 2025 +0100&#10;committer: Nom Prenom &lt;nom.prenom@mail.com&gt;&#10;Wed Jan 01 09:00:00 2025 +0100&#10;&#10;First commit">
<polygon fill="#cdad00" stroke="#cdad00" points="101.44,-17.94 49,-17.94 49,0 101.44,0 101.44,-17.94"/>
<text text-anchor="middle" x="75.22" y="-3.92" font-family="Times,serif" font-size="14.00">fa26b470</text>
</a>
</g>
</g>
<!-- 03c5025d075bbe625608593e3bf4671daebebcc4&#45;&gt;fa26b470d9508bebe2029623de8770215ebb26a0 -->
<g id="edge1" class="edge">
<title>03c5025d075bbe625608593e3bf4671daebebcc4&#45;&gt;fa26b470d9508bebe2029623de8770215ebb26a0</title>
<path fill="none" stroke="#1a1a1a" d="M109.81,-53.79C103.35,-45.61 93.27,-32.84 85.66,-23.19"/>
<polygon fill="#1a1a1a" stroke="#1a1a1a" points="87.13,-22.23 82.65,-19.39 84.38,-24.4 87.13,-22.23"/>
</g>
<!-- HEAD -->
<g id="node2" class="node">
<title>HEAD</title>
<g id="a_node2"><a xlink:title="03c5025d075bbe625608593e3bf4671daebebcc4">
<polygon fill="cornflowerblue" stroke="black" points="72.69,-125.82 33.75,-125.82 33.75,-107.88 72.69,-107.88 72.69,-125.82"/>
<text text-anchor="middle" x="53.22" y="-111.8" font-family="Times,serif" font-size="14.00">HEAD</text>
</a>
</g>
</g>
<!-- HEAD&#45;&gt;03c5025d075bbe625608593e3bf4671daebebcc4 -->
<g id="edge3" class="edge">
<title>HEAD&#45;&gt;03c5025d075bbe625608593e3bf4671daebebcc4</title>
<path fill="none" stroke="#1a1a1a" d="M63.34,-107.5C73.69,-98.97 89.87,-85.64 101.6,-75.96"/>
<polygon fill="#1a1a1a" stroke="#1a1a1a" points="102.42,-77.56 105.16,-73.03 100.19,-74.86 102.42,-77.56"/>
</g>
<!-- aa6ef7bc380e3e98362b4276d24b8046b1f4f758 -->
<g id="node3" class="node">
<title>aa6ef7bc380e3e98362b4276d24b8046b1f4f758</title>
<g id="a_node3"><a xlink:title="author: First Last &lt;first.last@mail.com&gt;&#10;Wed Jan 01 09:00:00 2025 +0100&#10;committer: Nom Prenom &lt;nom.prenom@mail.com&gt;&#10;Wed Jan 01 09:00:00 2025 +0100&#10;&#10;Third commit">
<polygon fill="#cdad00" stroke="#cdad00" points="141.31,-125.82 91.12,-125.82 91.12,-107.88 141.31,-107.88 141.31,-125.82"/>
<text text-anchor="middle" x="116.22" y="-111.8" font-family="Times,serif" font-size="14.00">aa6ef7bc</text>
</a>
</g>
</g>
<!-- aa6ef7bc380e3e98362b4276d24b8046b1f4f758&#45;&gt;03c5025d075bbe625608593e3bf4671daebebcc4 -->
<g id="edge4" class="edge">
<title>aa6ef7bc380e3e98362b4276d24b8046b1f4f758&#45;&gt;03c5025d075bbe625608593e3bf4671daebebcc4</title>
<path fill="none" stroke="#1a1a1a" d="M116.22,-107.73C116.22,-99.93 116.22,-87.95 116.22,-78.49"/>
<polygon fill="#1a1a1a" stroke="#1a1a1a" points="117.97,-78.65 116.22,-73.65 114.47,-78.65 117.97,-78.65"/>
</g>
<!-- 224f62133906b4b68a5652b73f779c4a381eadd8 -->
<g id="node5" class="node">
<title>224f62133906b4b68a5652b73f779c4a381eadd8</title>
<g id="a_node5"><a xlink:title="Nom Prenom &lt;nom.prenom@mail.com&gt;&#10;Wed Jan 1 09:00:00 2025 +0100&#10;&#10;First commit&#10;">
<polygon fill="pink" stroke="pink" points="70.44,-71.88 0,-71.88 0,-53.94 70.44,-53.94 70.44,-71.88"/>
<text text-anchor="middle" x="35.22" y="-57.86" font-family="Times,serif" font-size="14.00">first&#45;commit</text>
</a>
</g>
</g>
<!-- 224f62133906b4b68a5652b73f779c4a381eadd8&#45;&gt;fa26b470d9508bebe2029623de8770215ebb26a0 -->
<g id="edge2" class="edge">
<title>224f62133906b4b68a5652b73f779c4a381eadd8&#45;&gt;fa26b470d9508bebe2029623de8770215ebb26a0</title>
<path fill="none" stroke="#1a1a1a" d="M41.47,-53.79C47.77,-45.61 57.61,-32.84 65.04,-23.19"/>
<polygon fill="#1a1a1a" stroke="#1a1a1a" points="66.29,-24.43 67.96,-19.4 63.52,-22.29 66.29,-24.43"/>
</g>
<!-- local&#45;branch&#45;main -->
<g id="node6" class="node">
<title>local&#45;branch&#45;main</title>
<g id="a_node6"><a xlink:title="&#45;&gt; None">
<polygon fill="forestgreen" stroke="forestgreen" points="188.81,-125.82 159.62,-125.82 159.62,-107.88 188.81,-107.88 188.81,-125.82"/>
<text text-anchor="middle" x="174.22" y="-111.8" font-family="Times,serif" font-size="14.00">main</text>
</a>
</g>
</g>
<!-- local&#45;branch&#45;main&#45;&gt;03c5025d075bbe625608593e3bf4671daebebcc4 -->
<g id="edge5" class="edge">
<title>local&#45;branch&#45;main&#45;&gt;03c5025d075bbe625608593e3bf4671daebebcc4</title>
<path fill="none" stroke="#1a1a1a" d="M164.9,-107.5C155.46,-99.05 140.75,-85.88 129.97,-76.22"/>
<polygon fill="#1a1a1a" stroke="#1a1a1a" points="131.34,-75.1 126.45,-73.07 129.01,-77.71 131.34,-75.1"/>
</g>
<!-- lwt&#45;third&#45;commit&#45;aa6ef7bc380e3e98362b4276d24b8046b1f4f758 -->
<g id="node7" class="node">
<title>lwt&#45;third&#45;commit&#45;aa6ef7bc380e3e98362b4276d24b8046b1f4f758</title>
<g id="a_node7"><a xlink:title="aa6ef7bc380e3e98362b4276d24b8046b1f4f758">
<polygon fill="lightcoral" stroke="lightcoral" points="153.31,-179.76 79.12,-179.76 79.12,-161.82 153.31,-161.82 153.31,-179.76"/>
<text text-anchor="middle" x="116.22" y="-165.74" font-family="Times,serif" font-size="14.00">third&#45;commit</text>
</a>
</g>
</g>
<!-- lwt&#45;third&#45;commit&#45;aa6ef7bc380e3e98362b4276d24b8046b1f4f758&#45;&gt;aa6ef7bc380e3e98362b4276d24b8046b1f4f758 -->
<g id="edge6" class="edge">
<title>lwt&#45;third&#45;commit&#45;aa6ef7bc380e3e98362b4276d24b8046b1f4f758&#45;&gt;aa6ef7bc380e3e98362b4276d24b8046b1f4f758</title>
<path fill="none" stroke="#1a1a1a" d="M116.22,-161.67C116.22,-153.87 116.22,-141.89 116.22,-132.43"/>
<polygon fill="#1a1a1a" stroke="#1a1a1a" points="117.97,-132.59 116.22,-127.59 114.47,-132.59 117.97,-132.59"/>
</g>
</g>
</svg>
