<?xml version="1.0" encoding="UTF-8" standalone="no"?>
<!DOCTYPE svg PUBLIC "-//W3C//DTD SVG 1.1//EN"
 "http://www.w3.org/Graphics/SVG/1.1/DTD/svg11.dtd">
<!-- Generated by graphviz version 12.1.0 (20240811.2233)
 -->
<!-- Pages: 1 -->
<svg width="221pt" height="296pt"
 viewBox="0.00 0.00 221.19 295.64" xmlns="http://www.w3.org/2000/svg" xmlns:xlink="http://www.w3.org/1999/xlink">
<g id="graph0" class="graph" transform="scale(1 1) rotate(0) translate(4 291.64)">
<polygon fill="white" stroke="none" points="-4,4 -4,-291.64 217.19,-291.64 217.19,4 -4,4"/>
<!-- 0497c2a004c61f8a0f5aee23f36743418e8873a5 -->
<g id="node1" class="node">
<title>0497c2a004c61f8a0f5aee23f36743418e8873a5</title>
<g id="a_node1"><a xlink:title="author: First Last &lt;first.last@mail.com&gt;&#10;Wed Jan 01 09:00:00 2025 +0100&#10;committer: Nom Prenom &lt;nom.prenom@mail.com&gt;&#10;Wed Jan 01 09:00:00 2025 +0100&#10;&#10;D">
<polygon fill="#cdad00" stroke="#cdad00" points="213.19,-179.76 154,-179.76 154,-161.82 213.19,-161.82 213.19,-179.76"/>
<text text-anchor="middle" x="183.59" y="-165.74" font-family="Courier,monospace" font-size="14.00">0497c2a</text>
</a>
</g>
</g>
<!-- c95114ce51d4572690bdb32ee0ed0bab5312c91e -->
<g id="node9" class="node">
<title>c95114ce51d4572690bdb32ee0ed0bab5312c91e</title>
<g id="a_node9"><a xlink:title="author: First Last &lt;first.last@mail.com&gt;&#10;Wed Jan 01 09:00:00 2025 +0100&#10;committer: Nom Prenom &lt;nom.prenom@mail.com&gt;&#10;Wed Jan 01 09:00:00 2025 +0100&#10;&#10;F">
<polygon fill="#cdad00" stroke="#cdad00" points="136.19,-125.82 77,-125.82 77,-107.88 136.19,-107.88 136.19,-125.82"/>
<text text-anchor="middle" x="106.59" y="-111.8" font-family="Courier,monospace" font-size="14.00">c95114c</text>
</a>
</g>
</g>
<!-- 0497c2a004c61f8a0f5aee23f36743418e8873a5&#45;&gt;c95114ce51d4572690bdb32ee0ed0bab5312c91e -->
<g id="edge1" class="edge">
<title>0497c2a004c61f8a0f5aee23f36743418e8873a5&#45;&gt;c95114ce51d4572690bdb32ee0ed0bab5312c91e</title>
<path fill="none" stroke="#1a1a1a" d="M171.22,-161.44C158.54,-152.89 138.69,-139.5 124.33,-129.81"/>
<polygon fill="#1a1a1a" stroke="#1a1a1a" points="125.31,-128.37 120.19,-127.02 123.36,-131.27 125.31,-128.37"/>
</g>
<!-- 09fb3c2be6d936a03d55af5c9551935cfa5f9514 -->
<g id="node2" class="node">
<title>09fb3c2be6d936a03d55af5c9551935cfa5f9514</title>
<g id="a_node2"><a xlink:title="author: First Last &lt;first.last@mail.com&gt;&#10;Wed Jan 01 09:00:00 2025 +0100&#10;committer: Nom Prenom &lt;nom.prenom@mail.com&gt;&#10;Wed Jan 01 09:00:00 2025 +0100&#10;&#10;E">
<polygon fill="#cdad00" stroke="#cdad00" points="59.19,-233.7 0,-233.7 0,-215.76 59.19,-215.76 59.19,-233.7"/>
<text text-anchor="middle" x="29.59" y="-219.68" font-family="Courier,monospace" font-size="14.00">09fb3c2</text>
</a>
</g>
</g>
<!-- 63e7edbc0e52512afc2ff9cd9d2732bee2c8a123 -->
<g id="node6" class="node">
<title>63e7edbc0e52512afc2ff9cd9d2732bee2c8a123</title>
<g id="a_node6"><a xlink:title="author: First Last &lt;first.last@mail.com&gt;&#10;Wed Jan 01 09:00:00 2025 +0100&#10;committer: Nom Prenom &lt;nom.prenom@mail.com&gt;&#10;Wed Jan 01 09:00:00 2025 +0100&#10;&#10;D">
<polygon fill="#cdad00" stroke="#cdad00" points="59.19,-179.76 0,-179.76 0,-161.82 59.19,-161.82 59.19,-179.76"/>
<text text-anchor="middle" x="29.59" y="-165.74" font-family="Courier,monospace" font-size="14.00">63e7edb</text>
</a>
</g>
</g>
<!-- 09fb3c2be6d936a03d55af5c9551935cfa5f9514&#45;&gt;63e7edbc0e52512afc2ff9cd9d2732bee2c8a123 -->
<g id="edge2" class="edge">
<title>09fb3c2be6d936a03d55af5c9551935cfa5f9514&#45;&gt;63e7edbc0e52512afc2ff9cd9d2732bee2c8a123</title>
<path fill="none" stroke="#1a1a1a" d="M29.59,-215.61C29.59,-207.81 29.59,-195.83 29.59,-186.37"/>
<polygon fill="#1a1a1a" stroke="#1a1a1a" points="31.35,-186.53 29.6,-181.53 27.85,-186.53 31.35,-186.53"/>
</g>
<!-- 283df083a94d26f908a41712541d833677a5f214 -->
<g id="node3" class="node">
<title>283df083a94d26f908a41712541d833677a5f214</title>
<g id="a_node3"><a xlink:title="author: First Last &lt;first.last@mail.com&gt;&#10;Wed Jan 01 09:00:00 2025 +0100&#10;committer: Nom Prenom &lt;nom.prenom@mail.com&gt;&#10;Wed Jan 01 09:00:00 2025 +0100&#10;&#10;E">
<polygon fill="#cdad00" stroke="#cdad00" points="213.19,-233.7 154,-233.7 154,-215.76 213.19,-215.76 213.19,-233.7"/>
<text text-anchor="middle" x="183.59" y="-219.68" font-family="Courier,monospace" font-size="14.00">283df08</text>
</a>
</g>
</g>
<!-- 283df083a94d26f908a41712541d833677a5f214&#45;&gt;0497c2a004c61f8a0f5aee23f36743418e8873a5 -->
<g id="edge3" class="edge">
<title>283df083a94d26f908a41712541d833677a5f214&#45;&gt;0497c2a004c61f8a0f5aee23f36743418e8873a5</title>
<path fill="none" stroke="#1a1a1a" d="M183.59,-215.61C183.59,-207.81 183.59,-195.83 183.59,-186.37"/>
<polygon fill="#1a1a1a" stroke="#1a1a1a" points="185.35,-186.53 183.6,-181.53 181.85,-186.53 185.35,-186.53"/>
</g>
<!-- 428dc1e7c34f61e59f99225dee0233605e4d328d -->
<g id="node4" class="node">
<title>428dc1e7c34f61e59f99225dee0233605e4d328d</title>
<g id="a_node4"><a xlink:title="author: First Last &lt;first.last@mail.com&gt;&#10;Wed Jan 01 09:00:00 2025 +0100&#10;committer: Nom Prenom &lt;nom.prenom@mail.com&gt;&#10;Wed Jan 01 09:00:00 2025 +0100&#10;&#10;G">
<polygon fill="#cdad00" stroke="#cdad00" points="136.19,-179.76 77,-179.76 77,-161.82 136.19,-161.82 136.19,-179.76"/>
<text text-anchor="middle" x="106.59" y="-165.74" font-family="Courier,monospace" font-size="14.00">428dc1e</text>
</a>
</g>
</g>
<!-- 428dc1e7c34f61e59f99225dee0233605e4d328d&#45;&gt;c95114ce51d4572690bdb32ee0ed0bab5312c91e -->
<g id="edge4" class="edge">
<title>428dc1e7c34f61e59f99225dee0233605e4d328d&#45;&gt;c95114ce51d4572690bdb32ee0ed0bab5312c91e</title>
<path fill="none" stroke="#1a1a1a" d="M106.59,-161.67C106.59,-153.87 106.59,-141.89 106.59,-132.43"/>
<polygon fill="#1a1a1a" stroke="#1a1a1a" points="108.35,-132.59 106.6,-127.59 104.85,-132.59 108.35,-132.59"/>
</g>
<!-- 4878ceed1e061309ab4aee50b9655c8a9968641a -->
<g id="node5" class="node">
<title>4878ceed1e061309ab4aee50b9655c8a9968641a</title>
<g id="a_node5"><a xlink:title="author: First Last &lt;first.last@mail.com&gt;&#10;Wed Jan 01 09:00:00 2025 +0100&#10;committer: Nom Prenom &lt;nom.prenom@mail.com&gt;&#10;Wed Jan 01 09:00:00 2025 +0100&#10;&#10;C">
<polygon fill="#cdad00" stroke="#cdad00" points="59.19,-125.82 0,-125.82 0,-107.88 59.19,-107.88 59.19,-125.82"/>
<text text-anchor="middle" x="29.59" y="-111.8" font-family="Courier,monospace" font-size="14.00">4878cee</text>
</a>
</g>
</g>
<!-- bc9b888fe913619e565b163ffaa9e3eb995b9b4b -->
<g id="node8" class="node">
<title>bc9b888fe913619e565b163ffaa9e3eb995b9b4b</title>
<g id="a_node8"><a xlink:title="author: First Last &lt;first.last@mail.com&gt;&#10;Wed Jan 01 09:00:00 2025 +0100&#10;committer: Nom Prenom &lt;nom.prenom@mail.com&gt;&#10;Wed Jan 01 09:00:00 2025 +0100&#10;&#10;B">
<polygon fill="#cdad00" stroke="#cdad00" points="97.19,-71.88 38,-71.88 38,-53.94 97.19,-53.94 97.19,-71.88"/>
<text text-anchor="middle" x="67.59" y="-57.86" font-family="Courier,monospace" font-size="14.00">bc9b888</text>
</a>
</g>
</g>
<!-- 4878ceed1e061309ab4aee50b9655c8a9968641a&#45;&gt;bc9b888fe913619e565b163ffaa9e3eb995b9b4b -->
<g id="edge5" class="edge">
<title>4878ceed1e061309ab4aee50b9655c8a9968641a&#45;&gt;bc9b888fe913619e565b163ffaa9e3eb995b9b4b</title>
<path fill="none" stroke="#1a1a1a" d="M35.53,-107.73C41.52,-99.55 50.86,-86.78 57.92,-77.13"/>
<polygon fill="#1a1a1a" stroke="#1a1a1a" points="59.14,-78.43 60.68,-73.36 56.32,-76.36 59.14,-78.43"/>
</g>
<!-- 63e7edbc0e52512afc2ff9cd9d2732bee2c8a123&#45;&gt;4878ceed1e061309ab4aee50b9655c8a9968641a -->
<g id="edge6" class="edge">
<title>63e7edbc0e52512afc2ff9cd9d2732bee2c8a123&#45;&gt;4878ceed1e061309ab4aee50b9655c8a9968641a</title>
<path fill="none" stroke="#1a1a1a" d="M29.59,-161.67C29.59,-153.87 29.59,-141.89 29.59,-132.43"/>
<polygon fill="#1a1a1a" stroke="#1a1a1a" points="31.35,-132.59 29.6,-127.59 27.85,-132.59 31.35,-132.59"/>
</g>
<!-- HEAD -->
<g id="node7" class="node">
<title>HEAD</title>
<g id="a_node7"><a xlink:title="283df083a94d26f908a41712541d833677a5f214">
<polygon fill="cornflowerblue" stroke="black" points="200.81,-287.64 166.38,-287.64 166.38,-269.7 200.81,-269.7 200.81,-287.64"/>
<text text-anchor="middle" x="183.59" y="-273.62" font-family="Courier,monospace" font-size="14.00">HEAD</text>
</a>
</g>
</g>
<!-- HEAD&#45;&gt;283df083a94d26f908a41712541d833677a5f214 -->
<g id="edge7" class="edge">
<title>HEAD&#45;&gt;283df083a94d26f908a41712541d833677a5f214</title>
<path fill="none" stroke="#1a1a1a" d="M183.59,-269.55C183.59,-261.75 183.59,-249.77 183.59,-240.31"/>
<polygon fill="#1a1a1a" stroke="#1a1a1a" points="185.35,-240.47 183.6,-235.47 181.85,-240.47 185.35,-240.47"/>
</g>
<!-- ea0bd76be523844f6b6f7745efc26b63d8ece1b5 -->
<g id="node10" class="node">
<title>ea0bd76be523844f6b6f7745efc26b63d8ece1b5</title>
<g id="a_node10"><a xlink:title="author: First Last &lt;first.last@mail.com&gt;&#10;Wed Jan 01 09:00:00 2025 +0100&#10;committer: Nom Prenom &lt;nom.prenom@mail.com&gt;&#10;Wed Jan 01 09:00:00 2025 +0100&#10;&#10;A">
<polygon fill="#cdad00" stroke="#cdad00" points="97.19,-17.94 38,-17.94 38,0 97.19,0 97.19,-17.94"/>
<text text-anchor="middle" x="67.59" y="-3.92" font-family="Courier,monospace" font-size="14.00">ea0bd76</text>
</a>
</g>
</g>
<!-- bc9b888fe913619e565b163ffaa9e3eb995b9b4b&#45;&gt;ea0bd76be523844f6b6f7745efc26b63d8ece1b5 -->
<g id="edge8" class="edge">
<title>bc9b888fe913619e565b163ffaa9e3eb995b9b4b&#45;&gt;ea0bd76be523844f6b6f7745efc26b63d8ece1b5</title>
<path fill="none" stroke="#1a1a1a" d="M67.59,-53.79C67.59,-45.99 67.59,-34.01 67.59,-24.55"/>
<polygon fill="#1a1a1a" stroke="#1a1a1a" points="69.35,-24.71 67.6,-19.71 65.85,-24.71 69.35,-24.71"/>
</g>
<!-- c95114ce51d4572690bdb32ee0ed0bab5312c91e&#45;&gt;bc9b888fe913619e565b163ffaa9e3eb995b9b4b -->
<g id="edge9" class="edge">
<title>c95114ce51d4572690bdb32ee0ed0bab5312c91e&#45;&gt;bc9b888fe913619e565b163ffaa9e3eb995b9b4b</title>
<path fill="none" stroke="#1a1a1a" d="M100.5,-107.73C94.36,-99.55 84.77,-86.78 77.52,-77.13"/>
<polygon fill="#1a1a1a" stroke="#1a1a1a" points="79.09,-76.3 74.68,-73.35 76.29,-78.4 79.09,-76.3"/>
</g>
<!-- local&#45;branch&#45;feature -->
<g id="node11" class="node">
<title>local&#45;branch&#45;feature</title>
<g id="a_node11"><a xlink:title="&#45;&gt; None">
<polygon fill="forestgreen" stroke="forestgreen" points="59.19,-287.64 0,-287.64 0,-269.7 59.19,-269.7 59.19,-287.64"/>
<text text-anchor="middle" x="29.59" y="-273.62" font-family="Courier,monospace" font-size="14.00">feature</text>
</a>
</g>
</g>
<!-- local&#45;branch&#45;feature&#45;&gt;09fb3c2be6d936a03d55af5c9551935cfa5f9514 -->
<g id="edge10" class="edge">
<title>local&#45;branch&#45;feature&#45;&gt;09fb3c2be6d936a03d55af5c9551935cfa5f9514</title>
<path fill="none" stroke="#1a1a1a" d="M29.59,-269.55C29.59,-261.75 29.59,-249.77 29.59,-240.31"/>
<polygon fill="#1a1a1a" stroke="#1a1a1a" points="31.35,-240.47 29.6,-235.47 27.85,-240.47 31.35,-240.47"/>
</g>
<!-- local&#45;branch&#45;main -->
<g id="node12" class="node">
<title>local&#45;branch&#45;main</title>
<g id="a_node12"><a xlink:title="&#45;&gt; None">
<polygon fill="forestgreen" stroke="forestgreen" points="123.81,-233.7 89.38,-233.7 89.38,-215.76 123.81,-215.76 123.81,-233.7"/>
<text text-anchor="middle" x="106.59" y="-219.68" font-family="Courier,monospace" font-size="14.00">main</text>
</a>
</g>
</g>
<!-- local&#45;branch&#45;main&#45;&gt;428dc1e7c34f61e59f99225dee0233605e4d328d -->
<g id="edge11" class="edge">
<title>local&#45;branch&#45;main&#45;&gt;428dc1e7c34f61e59f99225dee0233605e4d328d</title>
<path fill="none" stroke="#1a1a1a" d="M106.59,-215.61C106.59,-207.81 106.59,-195.83 106.59,-186.37"/>
<polygon fill="#1a1a1a" stroke="#1a1a1a" points="108.35,-186.53 106.6,-181.53 104.85,-186.53 108.35,-186.53"/>
</g>
</g>
</svg>
