<?xml version="1.0" encoding="UTF-8" standalone="no"?>
<!DOCTYPE svg PUBLIC "-//W3C//DTD SVG 1.1//EN"
 "http://www.w3.org/Graphics/SVG/1.1/DTD/svg11.dtd">
<!-- Generated by graphviz version 12.1.0 (20240811.2233)
 -->
<!-- Pages: 1 -->
<svg width="274pt" height="457pt"
 viewBox="0.00 0.00 273.81 457.46" xmlns="http://www.w3.org/2000/svg" xmlns:xlink="http://www.w3.org/1999/xlink">
<g id="graph0" class="graph" transform="scale(1 1) rotate(0) translate(4 453.46)">
<polygon fill="white" stroke="none" points="-4,4 -4,-453.46 269.81,-453.46 269.81,4 -4,4"/>
<!-- 2ab982e69e256f5c992cdd1b38ddac935b2ad81f -->
<g id="node1" class="node">
<title>2ab982e69e256f5c992cdd1b38ddac935b2ad81f</title>
<g id="a_node1"><a xlink:title="author: First Last &lt;first.last@mail.com&gt;&#10;Wed Jan 01 09:00:00 2025 +0100&#10;committer: Nom Prenom &lt;nom.prenom@mail.com&gt;&#10;Wed Jan 01 09:00:00 2025 +0100&#10;&#10;C6">
<polygon fill="#cdad00" stroke="#cdad00" points="213.19,-179.76 154,-179.76 154,-161.82 213.19,-161.82 213.19,-179.76"/>
<text text-anchor="middle" x="183.59" y="-165.74" font-family="Courier,monospace" font-size="14.00">2ab982e</text>
</a>
</g>
</g>
<!-- e3fd60effb75deaa4ddd41b68e2ad7275ed4123e -->
<g id="node11" class="node">
<title>e3fd60effb75deaa4ddd41b68e2ad7275ed4123e</title>
<g id="a_node11"><a xlink:title="author: First Last &lt;first.last@mail.com&gt;&#10;Wed Jan 01 09:00:00 2025 +0100&#10;committer: Nom Prenom &lt;nom.prenom@mail.com&gt;&#10;Wed Jan 01 09:00:00 2025 +0100&#10;&#10;C5">
<polygon fill="#cdad00" stroke="#cdad00" points="213.19,-125.82 154,-125.82 154,-107.88 213.19,-107.88 213.19,-125.82"/>
<text text-anchor="middle" x="183.59" y="-111.8" font-family="Courier,monospace" font-size="14.00">e3fd60e</text>
</a>
</g>
</g>
<!-- 2ab982e69e256f5c992cdd1b38ddac935b2ad81f&#45;&gt;e3fd60effb75deaa4ddd41b68e2ad7275ed4123e -->
<g id="edge1" class="edge">
<title>2ab982e69e256f5c992cdd1b38ddac935b2ad81f&#45;&gt;e3fd60effb75deaa4ddd41b68e2ad7275ed4123e</title>
<path fill="none" stroke="#1a1a1a" d="M183.59,-161.67C183.59,-153.87 183.59,-141.89 183.59,-132.43"/>
<polygon fill="#1a1a1a" stroke="#1a1a1a" points="185.35,-132.59 183.6,-127.59 181.85,-132.59 185.35,-132.59"/>
</g>
<!-- 47854f701655db1efb8339f9d6ad0fd4feaeef75 -->
<g id="node2" class="node">
<title>47854f701655db1efb8339f9d6ad0fd4feaeef75</title>
<g id="a_node2"><a xlink:title="author: First Last &lt;first.last@mail.com&gt;&#10;Wed Jan 01 09:00:00 2025 +0100&#10;committer: Nom Prenom &lt;nom.prenom@mail.com&gt;&#10;Wed Jan 01 09:00:00 2025 +0100&#10;&#10;C4">
<polygon fill="darkorange" stroke="darkorange" points="59.19,-179.76 0,-179.76 0,-161.82 59.19,-161.82 59.19,-179.76"/>
<text text-anchor="middle" x="29.59" y="-165.74" font-family="Courier,monospace" font-size="14.00">47854f7</text>
</a>
</g>
</g>
<!-- 998d091eb3592a5cd4f7489595375afabc5ad460 -->
<g id="node3" class="node">
<title>998d091eb3592a5cd4f7489595375afabc5ad460</title>
<g id="a_node3"><a xlink:title="author: First Last &lt;first.last@mail.com&gt;&#10;Wed Jan 01 09:00:00 2025 +0100&#10;committer: Nom Prenom &lt;nom.prenom@mail.com&gt;&#10;Wed Jan 01 09:00:00 2025 +0100&#10;&#10;C3">
<polygon fill="#cdad00" stroke="#cdad00" points="136.19,-125.82 77,-125.82 77,-107.88 136.19,-107.88 136.19,-125.82"/>
<text text-anchor="middle" x="106.59" y="-111.8" font-family="Courier,monospace" font-size="14.00">998d091</text>
</a>
</g>
</g>
<!-- 47854f701655db1efb8339f9d6ad0fd4feaeef75&#45;&gt;998d091eb3592a5cd4f7489595375afabc5ad460 -->
<g id="edge2" class="edge">
<title>47854f701655db1efb8339f9d6ad0fd4feaeef75&#45;&gt;998d091eb3592a5cd4f7489595375afabc5ad460</title>
<path fill="none" stroke="#1a1a1a" d="M41.97,-161.44C54.65,-152.89 74.5,-139.5 88.86,-129.81"/>
<polygon fill="#1a1a1a" stroke="#1a1a1a" points="89.83,-131.27 93,-127.02 87.88,-128.37 89.83,-131.27"/>
</g>
<!-- cb7886e8f20193d5ec1ef9110058ec413de21ac4 -->
<g id="node8" class="node">
<title>cb7886e8f20193d5ec1ef9110058ec413de21ac4</title>
<g id="a_node8"><a xlink:title="author: First Last &lt;first.last@mail.com&gt;&#10;Wed Jan 01 09:00:00 2025 +0100&#10;committer: Nom Prenom &lt;nom.prenom@mail.com&gt;&#10;Wed Jan 01 09:00:00 2025 +0100&#10;&#10;C2">
<polygon fill="#cdad00" stroke="#cdad00" points="174.19,-71.88 115,-71.88 115,-53.94 174.19,-53.94 174.19,-71.88"/>
<text text-anchor="middle" x="144.59" y="-57.86" font-family="Courier,monospace" font-size="14.00">cb7886e</text>
</a>
</g>
</g>
<!-- 998d091eb3592a5cd4f7489595375afabc5ad460&#45;&gt;cb7886e8f20193d5ec1ef9110058ec413de21ac4 -->
<g id="edge3" class="edge">
<title>998d091eb3592a5cd4f7489595375afabc5ad460&#45;&gt;cb7886e8f20193d5ec1ef9110058ec413de21ac4</title>
<path fill="none" stroke="#1a1a1a" d="M112.53,-107.73C118.52,-99.55 127.86,-86.78 134.92,-77.13"/>
<polygon fill="#1a1a1a" stroke="#1a1a1a" points="136.14,-78.43 137.68,-73.36 133.32,-76.36 136.14,-78.43"/>
</g>
<!-- HEAD -->
<g id="node4" class="node">
<title>HEAD</title>
<g id="a_node4"><a xlink:title="server">
<polygon fill="cornflowerblue" stroke="cornflowerblue" points="200.81,-449.46 166.38,-449.46 166.38,-431.52 200.81,-431.52 200.81,-449.46"/>
<text text-anchor="middle" x="183.59" y="-435.44" font-family="Courier,monospace" font-size="14.00">HEAD</text>
</a>
</g>
</g>
<!-- local&#45;branch&#45;server -->
<g id="node16" class="node">
<title>local&#45;branch&#45;server</title>
<g id="a_node16"><a xlink:title="&#45;&gt; None">
<polygon fill="forestgreen" stroke="forestgreen" points="209.06,-395.52 158.12,-395.52 158.12,-377.58 209.06,-377.58 209.06,-395.52"/>
<text text-anchor="middle" x="183.59" y="-381.5" font-family="Courier,monospace" font-size="14.00">server</text>
</a>
</g>
</g>
<!-- HEAD&#45;&gt;local&#45;branch&#45;server -->
<g id="edge4" class="edge">
<title>HEAD&#45;&gt;local&#45;branch&#45;server</title>
<path fill="none" stroke="#1a1a1a" d="M183.59,-431.37C183.59,-423.57 183.59,-411.59 183.59,-402.13"/>
<polygon fill="#1a1a1a" stroke="#1a1a1a" points="185.35,-402.29 183.6,-397.29 181.85,-402.29 185.35,-402.29"/>
</g>
<!-- a260fb7d9772e1a537524c794fa344b4f6b7d150 -->
<g id="node5" class="node">
<title>a260fb7d9772e1a537524c794fa344b4f6b7d150</title>
<g id="a_node5"><a xlink:title="author: First Last &lt;first.last@mail.com&gt;&#10;Wed Jan 01 09:00:00 2025 +0100&#10;committer: Nom Prenom &lt;nom.prenom@mail.com&gt;&#10;Wed Jan 01 09:00:00 2025 +0100&#10;&#10;C8">
<polygon fill="#cdad00" stroke="#cdad00" points="136.19,-179.76 77,-179.76 77,-161.82 136.19,-161.82 136.19,-179.76"/>
<text text-anchor="middle" x="106.59" y="-165.74" font-family="Courier,monospace" font-size="14.00">a260fb7</text>
</a>
</g>
</g>
<!-- a260fb7d9772e1a537524c794fa344b4f6b7d150&#45;&gt;998d091eb3592a5cd4f7489595375afabc5ad460 -->
<g id="edge5" class="edge">
<title>a260fb7d9772e1a537524c794fa344b4f6b7d150&#45;&gt;998d091eb3592a5cd4f7489595375afabc5ad460</title>
<path fill="none" stroke="#1a1a1a" d="M106.59,-161.67C106.59,-153.87 106.59,-141.89 106.59,-132.43"/>
<polygon fill="#1a1a1a" stroke="#1a1a1a" points="108.35,-132.59 106.6,-127.59 104.85,-132.59 108.35,-132.59"/>
</g>
<!-- a641fc5250497777fe4d48e50c8902ed74c30a3e -->
<g id="node6" class="node">
<title>a641fc5250497777fe4d48e50c8902ed74c30a3e</title>
<g id="a_node6"><a xlink:title="author: First Last &lt;first.last@mail.com&gt;&#10;Wed Jan 01 09:00:00 2025 +0100&#10;committer: Nom Prenom &lt;nom.prenom@mail.com&gt;&#10;Wed Jan 01 09:00:00 2025 +0100&#10;&#10;C9">
<polygon fill="#cdad00" stroke="#cdad00" points="136.19,-233.7 77,-233.7 77,-215.76 136.19,-215.76 136.19,-233.7"/>
<text text-anchor="middle" x="106.59" y="-219.68" font-family="Courier,monospace" font-size="14.00">a641fc5</text>
</a>
</g>
</g>
<!-- a641fc5250497777fe4d48e50c8902ed74c30a3e&#45;&gt;a260fb7d9772e1a537524c794fa344b4f6b7d150 -->
<g id="edge6" class="edge">
<title>a641fc5250497777fe4d48e50c8902ed74c30a3e&#45;&gt;a260fb7d9772e1a537524c794fa344b4f6b7d150</title>
<path fill="none" stroke="#1a1a1a" d="M106.59,-215.61C106.59,-207.81 106.59,-195.83 106.59,-186.37"/>
<polygon fill="#1a1a1a" stroke="#1a1a1a" points="108.35,-186.53 106.6,-181.53 104.85,-186.53 108.35,-186.53"/>
</g>
<!-- cb4c55fd37ccea057861cd423278984d00697a9b -->
<g id="node7" class="node">
<title>cb4c55fd37ccea057861cd423278984d00697a9b</title>
<g id="a_node7"><a xlink:title="author: First Last &lt;first.last@mail.com&gt;&#10;Wed Jan 01 09:00:00 2025 +0100&#10;committer: Nom Prenom &lt;nom.prenom@mail.com&gt;&#10;Wed Jan 01 09:00:00 2025 +0100&#10;&#10;C10">
<polygon fill="darkorange" stroke="darkorange" points="59.19,-233.7 0,-233.7 0,-215.76 59.19,-215.76 59.19,-233.7"/>
<text text-anchor="middle" x="29.59" y="-219.68" font-family="Courier,monospace" font-size="14.00">cb4c55f</text>
</a>
</g>
</g>
<!-- cb4c55fd37ccea057861cd423278984d00697a9b&#45;&gt;47854f701655db1efb8339f9d6ad0fd4feaeef75 -->
<g id="edge7" class="edge">
<title>cb4c55fd37ccea057861cd423278984d00697a9b&#45;&gt;47854f701655db1efb8339f9d6ad0fd4feaeef75</title>
<path fill="none" stroke="#1a1a1a" d="M29.59,-215.61C29.59,-207.81 29.59,-195.83 29.59,-186.37"/>
<polygon fill="#1a1a1a" stroke="#1a1a1a" points="31.35,-186.53 29.6,-181.53 27.85,-186.53 31.35,-186.53"/>
</g>
<!-- dfaa4786078702fd10ee5f3f50038227dcf9e31b -->
<g id="node10" class="node">
<title>dfaa4786078702fd10ee5f3f50038227dcf9e31b</title>
<g id="a_node10"><a xlink:title="author: First Last &lt;first.last@mail.com&gt;&#10;Wed Jan 01 09:00:00 2025 +0100&#10;committer: Nom Prenom &lt;nom.prenom@mail.com&gt;&#10;Wed Jan 01 09:00:00 2025 +0100&#10;&#10;C1">
<polygon fill="#cdad00" stroke="#cdad00" points="174.19,-17.94 115,-17.94 115,0 174.19,0 174.19,-17.94"/>
<text text-anchor="middle" x="144.59" y="-3.92" font-family="Courier,monospace" font-size="14.00">dfaa478</text>
</a>
</g>
</g>
<!-- cb7886e8f20193d5ec1ef9110058ec413de21ac4&#45;&gt;dfaa4786078702fd10ee5f3f50038227dcf9e31b -->
<g id="edge8" class="edge">
<title>cb7886e8f20193d5ec1ef9110058ec413de21ac4&#45;&gt;dfaa4786078702fd10ee5f3f50038227dcf9e31b</title>
<path fill="none" stroke="#1a1a1a" d="M144.59,-53.79C144.59,-45.99 144.59,-34.01 144.59,-24.55"/>
<polygon fill="#1a1a1a" stroke="#1a1a1a" points="146.35,-24.71 144.6,-19.71 142.85,-24.71 146.35,-24.71"/>
</g>
<!-- local&#45;branch&#45;client -->
<g id="node9" class="node">
<title>local&#45;branch&#45;client</title>
<g id="a_node9"><a xlink:title="&#45;&gt; None">
<polygon fill="forestgreen" stroke="forestgreen" points="132.06,-287.64 81.12,-287.64 81.12,-269.7 132.06,-269.7 132.06,-287.64"/>
<text text-anchor="middle" x="106.59" y="-273.62" font-family="Courier,monospace" font-size="14.00">client</text>
</a>
</g>
</g>
<!-- local&#45;branch&#45;client&#45;&gt;a641fc5250497777fe4d48e50c8902ed74c30a3e -->
<g id="edge13" class="edge">
<title>local&#45;branch&#45;client&#45;&gt;a641fc5250497777fe4d48e50c8902ed74c30a3e</title>
<path fill="none" stroke="#1a1a1a" d="M106.59,-269.55C106.59,-261.75 106.59,-249.77 106.59,-240.31"/>
<polygon fill="#1a1a1a" stroke="#1a1a1a" points="108.35,-240.47 106.6,-235.47 104.85,-240.47 108.35,-240.47"/>
</g>
<!-- e3fd60effb75deaa4ddd41b68e2ad7275ed4123e&#45;&gt;cb7886e8f20193d5ec1ef9110058ec413de21ac4 -->
<g id="edge9" class="edge">
<title>e3fd60effb75deaa4ddd41b68e2ad7275ed4123e&#45;&gt;cb7886e8f20193d5ec1ef9110058ec413de21ac4</title>
<path fill="none" stroke="#1a1a1a" d="M177.5,-107.73C171.36,-99.55 161.77,-86.78 154.52,-77.13"/>
<polygon fill="#1a1a1a" stroke="#1a1a1a" points="156.09,-76.3 151.68,-73.35 153.29,-78.4 156.09,-76.3"/>
</g>
<!-- ec2bc09c8d4395df595348dc595e3e0bf439daa8 -->
<g id="node12" class="node">
<title>ec2bc09c8d4395df595348dc595e3e0bf439daa8</title>
<g id="a_node12"><a xlink:title="author: First Last &lt;first.last@mail.com&gt;&#10;Wed Jan 01 09:00:00 2025 +0100&#10;committer: Nom Prenom &lt;nom.prenom@mail.com&gt;&#10;Wed Jan 01 09:00:00 2025 +0100&#10;&#10;C3">
<polygon fill="#cdad00" stroke="#cdad00" points="213.19,-233.7 154,-233.7 154,-215.76 213.19,-215.76 213.19,-233.7"/>
<text text-anchor="middle" x="183.59" y="-219.68" font-family="Courier,monospace" font-size="14.00">ec2bc09</text>
</a>
</g>
</g>
<!-- ec2bc09c8d4395df595348dc595e3e0bf439daa8&#45;&gt;2ab982e69e256f5c992cdd1b38ddac935b2ad81f -->
<g id="edge10" class="edge">
<title>ec2bc09c8d4395df595348dc595e3e0bf439daa8&#45;&gt;2ab982e69e256f5c992cdd1b38ddac935b2ad81f</title>
<path fill="none" stroke="#1a1a1a" d="M183.59,-215.61C183.59,-207.81 183.59,-195.83 183.59,-186.37"/>
<polygon fill="#1a1a1a" stroke="#1a1a1a" points="185.35,-186.53 183.6,-181.53 181.85,-186.53 185.35,-186.53"/>
</g>
<!-- ef765ee30fd553c4f3a0f1a348499b7e2d9b4b6b -->
<g id="node13" class="node">
<title>ef765ee30fd553c4f3a0f1a348499b7e2d9b4b6b</title>
<g id="a_node13"><a xlink:title="author: First Last &lt;first.last@mail.com&gt;&#10;Wed Jan 01 09:00:00 2025 +0100&#10;committer: Nom Prenom &lt;nom.prenom@mail.com&gt;&#10;Wed Jan 01 09:00:00 2025 +0100&#10;&#10;C10">
<polygon fill="#cdad00" stroke="#cdad00" points="213.19,-341.58 154,-341.58 154,-323.64 213.19,-323.64 213.19,-341.58"/>
<text text-anchor="middle" x="183.59" y="-327.56" font-family="Courier,monospace" font-size="14.00">ef765ee</text>
</a>
</g>
</g>
<!-- f3c699f275a3b2b7a7a19f8a119c690cad7bd73a -->
<g id="node14" class="node">
<title>f3c699f275a3b2b7a7a19f8a119c690cad7bd73a</title>
<g id="a_node14"><a xlink:title="author: First Last &lt;first.last@mail.com&gt;&#10;Wed Jan 01 09:00:00 2025 +0100&#10;committer: Nom Prenom &lt;nom.prenom@mail.com&gt;&#10;Wed Jan 01 09:00:00 2025 +0100&#10;&#10;C4">
<polygon fill="#cdad00" stroke="#cdad00" points="213.19,-287.64 154,-287.64 154,-269.7 213.19,-269.7 213.19,-287.64"/>
<text text-anchor="middle" x="183.59" y="-273.62" font-family="Courier,monospace" font-size="14.00">f3c699f</text>
</a>
</g>
</g>
<!-- ef765ee30fd553c4f3a0f1a348499b7e2d9b4b6b&#45;&gt;f3c699f275a3b2b7a7a19f8a119c690cad7bd73a -->
<g id="edge11" class="edge">
<title>ef765ee30fd553c4f3a0f1a348499b7e2d9b4b6b&#45;&gt;f3c699f275a3b2b7a7a19f8a119c690cad7bd73a</title>
<path fill="none" stroke="#1a1a1a" d="M183.59,-323.49C183.59,-315.69 183.59,-303.71 183.59,-294.25"/>
<polygon fill="#1a1a1a" stroke="#1a1a1a" points="185.35,-294.41 183.6,-289.41 181.85,-294.41 185.35,-294.41"/>
</g>
<!-- f3c699f275a3b2b7a7a19f8a119c690cad7bd73a&#45;&gt;ec2bc09c8d4395df595348dc595e3e0bf439daa8 -->
<g id="edge12" class="edge">
<title>f3c699f275a3b2b7a7a19f8a119c690cad7bd73a&#45;&gt;ec2bc09c8d4395df595348dc595e3e0bf439daa8</title>
<path fill="none" stroke="#1a1a1a" d="M183.59,-269.55C183.59,-261.75 183.59,-249.77 183.59,-240.31"/>
<polygon fill="#1a1a1a" stroke="#1a1a1a" points="185.35,-240.47 183.6,-235.47 181.85,-240.47 185.35,-240.47"/>
</g>
<!-- local&#45;branch&#45;main -->
<g id="node15" class="node">
<title>local&#45;branch&#45;main</title>
<g id="a_node15"><a xlink:title="&#45;&gt; None">
<polygon fill="forestgreen" stroke="forestgreen" points="265.81,-233.7 231.38,-233.7 231.38,-215.76 265.81,-215.76 265.81,-233.7"/>
<text text-anchor="middle" x="248.59" y="-219.68" font-family="Courier,monospace" font-size="14.00">main</text>
</a>
</g>
</g>
<!-- local&#45;branch&#45;main&#45;&gt;2ab982e69e256f5c992cdd1b38ddac935b2ad81f -->
<g id="edge14" class="edge">
<title>local&#45;branch&#45;main&#45;&gt;2ab982e69e256f5c992cdd1b38ddac935b2ad81f</title>
<path fill="none" stroke="#1a1a1a" d="M238.15,-215.38C227.48,-206.85 210.79,-193.52 198.68,-183.84"/>
<polygon fill="#1a1a1a" stroke="#1a1a1a" points="199.98,-182.64 194.98,-180.89 197.79,-185.38 199.98,-182.64"/>
</g>
<!-- local&#45;branch&#45;server&#45;&gt;ef765ee30fd553c4f3a0f1a348499b7e2d9b4b6b -->
<g id="edge15" class="edge">
<title>local&#45;branch&#45;server&#45;&gt;ef765ee30fd553c4f3a0f1a348499b7e2d9b4b6b</title>
<path fill="none" stroke="#1a1a1a" d="M183.59,-377.43C183.59,-369.63 183.59,-357.65 183.59,-348.19"/>
<polygon fill="#1a1a1a" stroke="#1a1a1a" points="185.35,-348.35 183.6,-343.35 181.85,-348.35 185.35,-348.35"/>
</g>
</g>
</svg>
