<?xml version="1.0" encoding="UTF-8" standalone="no"?>
<!DOCTYPE svg PUBLIC "-//W3C//DTD SVG 1.1//EN"
 "http://www.w3.org/Graphics/SVG/1.1/DTD/svg11.dtd">
<!-- Generated by graphviz version 12.1.0 (20240811.2233)
 -->
<!-- Pages: 1 -->
<svg width="179pt" height="457pt"
 viewBox="0.00 0.00 179.19 457.46" xmlns="http://www.w3.org/2000/svg" xmlns:xlink="http://www.w3.org/1999/xlink">
<g id="graph0" class="graph" transform="scale(1 1) rotate(0) translate(4 453.46)">
<polygon fill="white" stroke="none" points="-4,4 -4,-453.46 175.19,-453.46 175.19,4 -4,4"/>
<!-- 09fb3c2be6d936a03d55af5c9551935cfa5f9514 -->
<g id="node1" class="node">
<title>09fb3c2be6d936a03d55af5c9551935cfa5f9514</title>
<g id="a_node1"><a xlink:title="author: First Last &lt;first.last@mail.com&gt;&#10;Wed Jan 01 09:00:00 2025 +0100&#10;committer: Nom Prenom &lt;nom.prenom@mail.com&gt;&#10;Wed Jan 01 09:00:00 2025 +0100&#10;&#10;E">
<polygon fill="darkorange" stroke="darkorange" points="52.81,-233.7 0.38,-233.7 0.38,-215.76 52.81,-215.76 52.81,-233.7"/>
<text text-anchor="middle" x="26.59" y="-219.68" font-family="Times,serif" font-size="14.00">09fb3c2b</text>
</a>
</g>
</g>
<!-- 63e7edbc0e52512afc2ff9cd9d2732bee2c8a123 -->
<g id="node6" class="node">
<title>63e7edbc0e52512afc2ff9cd9d2732bee2c8a123</title>
<g id="a_node6"><a xlink:title="author: First Last &lt;first.last@mail.com&gt;&#10;Wed Jan 01 09:00:00 2025 +0100&#10;committer: Nom Prenom &lt;nom.prenom@mail.com&gt;&#10;Wed Jan 01 09:00:00 2025 +0100&#10;&#10;D">
<polygon fill="darkorange" stroke="darkorange" points="53.19,-179.76 0,-179.76 0,-161.82 53.19,-161.82 53.19,-179.76"/>
<text text-anchor="middle" x="26.59" y="-165.74" font-family="Times,serif" font-size="14.00">63e7edbc</text>
</a>
</g>
</g>
<!-- 09fb3c2be6d936a03d55af5c9551935cfa5f9514&#45;&gt;63e7edbc0e52512afc2ff9cd9d2732bee2c8a123 -->
<g id="edge1" class="edge">
<title>09fb3c2be6d936a03d55af5c9551935cfa5f9514&#45;&gt;63e7edbc0e52512afc2ff9cd9d2732bee2c8a123</title>
<path fill="none" stroke="#1a1a1a" d="M26.59,-215.61C26.59,-207.81 26.59,-195.83 26.59,-186.37"/>
<polygon fill="#1a1a1a" stroke="#1a1a1a" points="28.35,-186.53 26.6,-181.53 24.85,-186.53 28.35,-186.53"/>
</g>
<!-- 428dc1e7c34f61e59f99225dee0233605e4d328d -->
<g id="node2" class="node">
<title>428dc1e7c34f61e59f99225dee0233605e4d328d</title>
<g id="a_node2"><a xlink:title="author: First Last &lt;first.last@mail.com&gt;&#10;Wed Jan 01 09:00:00 2025 +0100&#10;committer: Nom Prenom &lt;nom.prenom@mail.com&gt;&#10;Wed Jan 01 09:00:00 2025 +0100&#10;&#10;G">
<polygon fill="#cdad00" stroke="#cdad00" points="125.56,-179.76 71.62,-179.76 71.62,-161.82 125.56,-161.82 125.56,-179.76"/>
<text text-anchor="middle" x="98.59" y="-165.74" font-family="Times,serif" font-size="14.00">428dc1e7</text>
</a>
</g>
</g>
<!-- c95114ce51d4572690bdb32ee0ed0bab5312c91e -->
<g id="node10" class="node">
<title>c95114ce51d4572690bdb32ee0ed0bab5312c91e</title>
<g id="a_node10"><a xlink:title="author: First Last &lt;first.last@mail.com&gt;&#10;Wed Jan 01 09:00:00 2025 +0100&#10;committer: Nom Prenom &lt;nom.prenom@mail.com&gt;&#10;Wed Jan 01 09:00:00 2025 +0100&#10;&#10;F">
<polygon fill="#cdad00" stroke="#cdad00" points="124.19,-125.82 71,-125.82 71,-107.88 124.19,-107.88 124.19,-125.82"/>
<text text-anchor="middle" x="97.59" y="-111.8" font-family="Times,serif" font-size="14.00">c95114ce</text>
</a>
</g>
</g>
<!-- 428dc1e7c34f61e59f99225dee0233605e4d328d&#45;&gt;c95114ce51d4572690bdb32ee0ed0bab5312c91e -->
<g id="edge2" class="edge">
<title>428dc1e7c34f61e59f99225dee0233605e4d328d&#45;&gt;c95114ce51d4572690bdb32ee0ed0bab5312c91e</title>
<path fill="none" stroke="#1a1a1a" d="M98.44,-161.67C98.29,-153.87 98.06,-141.89 97.88,-132.43"/>
<polygon fill="#1a1a1a" stroke="#1a1a1a" points="99.63,-132.56 97.78,-127.59 96.13,-132.63 99.63,-132.56"/>
</g>
<!-- 4878ceed1e061309ab4aee50b9655c8a9968641a -->
<g id="node3" class="node">
<title>4878ceed1e061309ab4aee50b9655c8a9968641a</title>
<g id="a_node3"><a xlink:title="author: First Last &lt;first.last@mail.com&gt;&#10;Wed Jan 01 09:00:00 2025 +0100&#10;committer: Nom Prenom &lt;nom.prenom@mail.com&gt;&#10;Wed Jan 01 09:00:00 2025 +0100&#10;&#10;C">
<polygon fill="darkorange" stroke="darkorange" points="53.19,-125.82 0,-125.82 0,-107.88 53.19,-107.88 53.19,-125.82"/>
<text text-anchor="middle" x="26.59" y="-111.8" font-family="Times,serif" font-size="14.00">4878ceed</text>
</a>
</g>
</g>
<!-- bc9b888fe913619e565b163ffaa9e3eb995b9b4b -->
<g id="node9" class="node">
<title>bc9b888fe913619e565b163ffaa9e3eb995b9b4b</title>
<g id="a_node9"><a xlink:title="author: First Last &lt;first.last@mail.com&gt;&#10;Wed Jan 01 09:00:00 2025 +0100&#10;committer: Nom Prenom &lt;nom.prenom@mail.com&gt;&#10;Wed Jan 01 09:00:00 2025 +0100&#10;&#10;B">
<polygon fill="#cdad00" stroke="#cdad00" points="87.81,-71.88 35.38,-71.88 35.38,-53.94 87.81,-53.94 87.81,-71.88"/>
<text text-anchor="middle" x="61.59" y="-57.86" font-family="Times,serif" font-size="14.00">bc9b888f</text>
</a>
</g>
</g>
<!-- 4878ceed1e061309ab4aee50b9655c8a9968641a&#45;&gt;bc9b888fe913619e565b163ffaa9e3eb995b9b4b -->
<g id="edge3" class="edge">
<title>4878ceed1e061309ab4aee50b9655c8a9968641a&#45;&gt;bc9b888fe913619e565b163ffaa9e3eb995b9b4b</title>
<path fill="none" stroke="#1a1a1a" d="M32.06,-107.73C37.53,-99.63 46.03,-87.01 52.51,-77.4"/>
<polygon fill="#1a1a1a" stroke="#1a1a1a" points="53.86,-78.52 55.2,-73.4 50.96,-76.56 53.86,-78.52"/>
</g>
<!-- 5deeea5803b46fdebcb95565393f955e036372f9 -->
<g id="node4" class="node">
<title>5deeea5803b46fdebcb95565393f955e036372f9</title>
<g id="a_node4"><a xlink:title="author: First Last &lt;first.last@mail.com&gt;&#10;Wed Jan 01 09:00:00 2025 +0100&#10;committer: Nom Prenom &lt;nom.prenom@mail.com&gt;&#10;Wed Jan 01 09:00:00 2025 +0100&#10;&#10;D">
<polygon fill="#cdad00" stroke="#cdad00" points="123.81,-287.64 71.38,-287.64 71.38,-269.7 123.81,-269.7 123.81,-287.64"/>
<text text-anchor="middle" x="97.59" y="-273.62" font-family="Times,serif" font-size="14.00">5deeea58</text>
</a>
</g>
</g>
<!-- 9d41ef92e00eded8ed62782c638d73cd4e4eda50 -->
<g id="node7" class="node">
<title>9d41ef92e00eded8ed62782c638d73cd4e4eda50</title>
<g id="a_node7"><a xlink:title="author: First Last &lt;first.last@mail.com&gt;&#10;Wed Jan 01 09:00:00 2025 +0100&#10;committer: Nom Prenom &lt;nom.prenom@mail.com&gt;&#10;Wed Jan 01 09:00:00 2025 +0100&#10;&#10;C">
<polygon fill="#cdad00" stroke="#cdad00" points="123.81,-233.7 71.38,-233.7 71.38,-215.76 123.81,-215.76 123.81,-233.7"/>
<text text-anchor="middle" x="97.59" y="-219.68" font-family="Times,serif" font-size="14.00">9d41ef92</text>
</a>
</g>
</g>
<!-- 5deeea5803b46fdebcb95565393f955e036372f9&#45;&gt;9d41ef92e00eded8ed62782c638d73cd4e4eda50 -->
<g id="edge4" class="edge">
<title>5deeea5803b46fdebcb95565393f955e036372f9&#45;&gt;9d41ef92e00eded8ed62782c638d73cd4e4eda50</title>
<path fill="none" stroke="#1a1a1a" d="M97.59,-269.55C97.59,-261.75 97.59,-249.77 97.59,-240.31"/>
<polygon fill="#1a1a1a" stroke="#1a1a1a" points="99.35,-240.47 97.6,-235.47 95.85,-240.47 99.35,-240.47"/>
</g>
<!-- 5ede5cd2f8b790f49df88831e9ab3dfebea9d532 -->
<g id="node5" class="node">
<title>5ede5cd2f8b790f49df88831e9ab3dfebea9d532</title>
<g id="a_node5"><a xlink:title="author: First Last &lt;first.last@mail.com&gt;&#10;Wed Jan 01 09:00:00 2025 +0100&#10;committer: Nom Prenom &lt;nom.prenom@mail.com&gt;&#10;Wed Jan 01 09:00:00 2025 +0100&#10;&#10;E">
<polygon fill="#cdad00" stroke="#cdad00" points="124.19,-341.58 71,-341.58 71,-323.64 124.19,-323.64 124.19,-341.58"/>
<text text-anchor="middle" x="97.59" y="-327.56" font-family="Times,serif" font-size="14.00">5ede5cd2</text>
</a>
</g>
</g>
<!-- 5ede5cd2f8b790f49df88831e9ab3dfebea9d532&#45;&gt;5deeea5803b46fdebcb95565393f955e036372f9 -->
<g id="edge5" class="edge">
<title>5ede5cd2f8b790f49df88831e9ab3dfebea9d532&#45;&gt;5deeea5803b46fdebcb95565393f955e036372f9</title>
<path fill="none" stroke="#1a1a1a" d="M97.59,-323.49C97.59,-315.69 97.59,-303.71 97.59,-294.25"/>
<polygon fill="#1a1a1a" stroke="#1a1a1a" points="99.35,-294.41 97.6,-289.41 95.85,-294.41 99.35,-294.41"/>
</g>
<!-- 63e7edbc0e52512afc2ff9cd9d2732bee2c8a123&#45;&gt;4878ceed1e061309ab4aee50b9655c8a9968641a -->
<g id="edge6" class="edge">
<title>63e7edbc0e52512afc2ff9cd9d2732bee2c8a123&#45;&gt;4878ceed1e061309ab4aee50b9655c8a9968641a</title>
<path fill="none" stroke="#1a1a1a" d="M26.59,-161.67C26.59,-153.87 26.59,-141.89 26.59,-132.43"/>
<polygon fill="#1a1a1a" stroke="#1a1a1a" points="28.35,-132.59 26.6,-127.59 24.85,-132.59 28.35,-132.59"/>
</g>
<!-- 9d41ef92e00eded8ed62782c638d73cd4e4eda50&#45;&gt;428dc1e7c34f61e59f99225dee0233605e4d328d -->
<g id="edge7" class="edge">
<title>9d41ef92e00eded8ed62782c638d73cd4e4eda50&#45;&gt;428dc1e7c34f61e59f99225dee0233605e4d328d</title>
<path fill="none" stroke="#1a1a1a" d="M97.75,-215.61C97.9,-207.81 98.13,-195.83 98.31,-186.37"/>
<polygon fill="#1a1a1a" stroke="#1a1a1a" points="100.06,-186.57 98.41,-181.53 96.56,-186.5 100.06,-186.57"/>
</g>
<!-- HEAD -->
<g id="node8" class="node">
<title>HEAD</title>
<g id="a_node8"><a xlink:title="feature">
<polygon fill="cornflowerblue" stroke="cornflowerblue" points="117.06,-449.46 78.12,-449.46 78.12,-431.52 117.06,-431.52 117.06,-449.46"/>
<text text-anchor="middle" x="97.59" y="-435.44" font-family="Times,serif" font-size="14.00">HEAD</text>
</a>
</g>
</g>
<!-- local&#45;branch&#45;feature -->
<g id="node12" class="node">
<title>local&#45;branch&#45;feature</title>
<g id="a_node12"><a xlink:title="&#45;&gt; None">
<polygon fill="forestgreen" stroke="forestgreen" points="117.06,-395.52 78.12,-395.52 78.12,-377.58 117.06,-377.58 117.06,-395.52"/>
<text text-anchor="middle" x="97.59" y="-381.5" font-family="Times,serif" font-size="14.00">feature</text>
</a>
</g>
</g>
<!-- HEAD&#45;&gt;local&#45;branch&#45;feature -->
<g id="edge8" class="edge">
<title>HEAD&#45;&gt;local&#45;branch&#45;feature</title>
<path fill="none" stroke="#1a1a1a" d="M97.59,-431.37C97.59,-423.57 97.59,-411.59 97.59,-402.13"/>
<polygon fill="#1a1a1a" stroke="#1a1a1a" points="99.35,-402.29 97.6,-397.29 95.85,-402.29 99.35,-402.29"/>
</g>
<!-- ea0bd76be523844f6b6f7745efc26b63d8ece1b5 -->
<g id="node11" class="node">
<title>ea0bd76be523844f6b6f7745efc26b63d8ece1b5</title>
<g id="a_node11"><a xlink:title="author: First Last &lt;first.last@mail.com&gt;&#10;Wed Jan 01 09:00:00 2025 +0100&#10;committer: Nom Prenom &lt;nom.prenom@mail.com&gt;&#10;Wed Jan 01 09:00:00 2025 +0100&#10;&#10;A">
<polygon fill="#cdad00" stroke="#cdad00" points="88.56,-17.94 34.62,-17.94 34.62,0 88.56,0 88.56,-17.94"/>
<text text-anchor="middle" x="61.59" y="-3.92" font-family="Times,serif" font-size="14.00">ea0bd76b</text>
</a>
</g>
</g>
<!-- bc9b888fe913619e565b163ffaa9e3eb995b9b4b&#45;&gt;ea0bd76be523844f6b6f7745efc26b63d8ece1b5 -->
<g id="edge9" class="edge">
<title>bc9b888fe913619e565b163ffaa9e3eb995b9b4b&#45;&gt;ea0bd76be523844f6b6f7745efc26b63d8ece1b5</title>
<path fill="none" stroke="#1a1a1a" d="M61.59,-53.79C61.59,-45.99 61.59,-34.01 61.59,-24.55"/>
<polygon fill="#1a1a1a" stroke="#1a1a1a" points="63.35,-24.71 61.6,-19.71 59.85,-24.71 63.35,-24.71"/>
</g>
<!-- c95114ce51d4572690bdb32ee0ed0bab5312c91e&#45;&gt;bc9b888fe913619e565b163ffaa9e3eb995b9b4b -->
<g id="edge10" class="edge">
<title>c95114ce51d4572690bdb32ee0ed0bab5312c91e&#45;&gt;bc9b888fe913619e565b163ffaa9e3eb995b9b4b</title>
<path fill="none" stroke="#1a1a1a" d="M91.97,-107.73C86.35,-99.63 77.61,-87.01 70.94,-77.4"/>
<polygon fill="#1a1a1a" stroke="#1a1a1a" points="72.45,-76.5 68.16,-73.38 69.57,-78.49 72.45,-76.5"/>
</g>
<!-- local&#45;branch&#45;feature&#45;&gt;5ede5cd2f8b790f49df88831e9ab3dfebea9d532 -->
<g id="edge11" class="edge">
<title>local&#45;branch&#45;feature&#45;&gt;5ede5cd2f8b790f49df88831e9ab3dfebea9d532</title>
<path fill="none" stroke="#1a1a1a" d="M97.59,-377.43C97.59,-369.63 97.59,-357.65 97.59,-348.19"/>
<polygon fill="#1a1a1a" stroke="#1a1a1a" points="99.35,-348.35 97.6,-343.35 95.85,-348.35 99.35,-348.35"/>
</g>
<!-- local&#45;branch&#45;main -->
<g id="node13" class="node">
<title>local&#45;branch&#45;main</title>
<g id="a_node13"><a xlink:title="&#45;&gt; None">
<polygon fill="forestgreen" stroke="forestgreen" points="171.19,-233.7 142,-233.7 142,-215.76 171.19,-215.76 171.19,-233.7"/>
<text text-anchor="middle" x="156.59" y="-219.68" font-family="Times,serif" font-size="14.00">main</text>
</a>
</g>
</g>
<!-- local&#45;branch&#45;main&#45;&gt;428dc1e7c34f61e59f99225dee0233605e4d328d -->
<g id="edge12" class="edge">
<title>local&#45;branch&#45;main&#45;&gt;428dc1e7c34f61e59f99225dee0233605e4d328d</title>
<path fill="none" stroke="#1a1a1a" d="M147.28,-215.38C137.83,-206.93 123.12,-193.76 112.34,-184.1"/>
<polygon fill="#1a1a1a" stroke="#1a1a1a" points="113.72,-182.98 108.83,-180.95 111.38,-185.59 113.72,-182.98"/>
</g>
</g>
</svg>
