<?xml version="1.0" encoding="UTF-8" standalone="no"?>
<!DOCTYPE svg PUBLIC "-//W3C//DTD SVG 1.1//EN"
 "http://www.w3.org/Graphics/SVG/1.1/DTD/svg11.dtd">
<!-- Generated by graphviz version 12.1.0 (20240811.2233)
 -->
<!-- Pages: 1 -->
<svg width="206pt" height="350pt"
 viewBox="0.00 0.00 205.56 349.58" xmlns="http://www.w3.org/2000/svg" xmlns:xlink="http://www.w3.org/1999/xlink">
<g id="graph0" class="graph" transform="scale(1 1) rotate(0) translate(4 345.58)">
<polygon fill="white" stroke="none" points="-4,4 -4,-345.58 201.56,-345.58 201.56,4 -4,4"/>
<!-- 0497c2a004c61f8a0f5aee23f36743418e8873a5 -->
<g id="node1" class="node">
<title>0497c2a004c61f8a0f5aee23f36743418e8873a5</title>
<g id="a_node1"><a xlink:title="author: First Last &lt;first.last@mail.com&gt;&#10;Wed Jan 01 09:00:00 2025 +0100&#10;committer: Nom Prenom &lt;nom.prenom@mail.com&gt;&#10;Wed Jan 01 09:00:00 2025 +0100&#10;&#10;D">
<polygon fill="#cdad00" stroke="#cdad00" points="197.56,-179.76 143.62,-179.76 143.62,-161.82 197.56,-161.82 197.56,-179.76"/>
<text text-anchor="middle" x="170.59" y="-165.74" font-family="Times,serif" font-size="14.00">0497c2a0</text>
</a>
</g>
</g>
<!-- c95114ce51d4572690bdb32ee0ed0bab5312c91e -->
<g id="node9" class="node">
<title>c95114ce51d4572690bdb32ee0ed0bab5312c91e</title>
<g id="a_node9"><a xlink:title="author: First Last &lt;first.last@mail.com&gt;&#10;Wed Jan 01 09:00:00 2025 +0100&#10;committer: Nom Prenom &lt;nom.prenom@mail.com&gt;&#10;Wed Jan 01 09:00:00 2025 +0100&#10;&#10;F">
<polygon fill="#cdad00" stroke="#cdad00" points="125.19,-125.82 72,-125.82 72,-107.88 125.19,-107.88 125.19,-125.82"/>
<text text-anchor="middle" x="98.59" y="-111.8" font-family="Times,serif" font-size="14.00">c95114ce</text>
</a>
</g>
</g>
<!-- 0497c2a004c61f8a0f5aee23f36743418e8873a5&#45;&gt;c95114ce51d4572690bdb32ee0ed0bab5312c91e -->
<g id="edge1" class="edge">
<title>0497c2a004c61f8a0f5aee23f36743418e8873a5&#45;&gt;c95114ce51d4572690bdb32ee0ed0bab5312c91e</title>
<path fill="none" stroke="#1a1a1a" d="M159.03,-161.44C147.1,-152.84 128.38,-139.34 114.94,-129.64"/>
<polygon fill="#1a1a1a" stroke="#1a1a1a" points="116.2,-128.39 111.12,-126.89 114.16,-131.23 116.2,-128.39"/>
</g>
<!-- 09fb3c2be6d936a03d55af5c9551935cfa5f9514 -->
<g id="node2" class="node">
<title>09fb3c2be6d936a03d55af5c9551935cfa5f9514</title>
<g id="a_node2"><a xlink:title="author: First Last &lt;first.last@mail.com&gt;&#10;Wed Jan 01 09:00:00 2025 +0100&#10;committer: Nom Prenom &lt;nom.prenom@mail.com&gt;&#10;Wed Jan 01 09:00:00 2025 +0100&#10;&#10;E">
<polygon fill="darkorange" stroke="darkorange" points="52.81,-233.7 0.38,-233.7 0.38,-215.76 52.81,-215.76 52.81,-233.7"/>
<text text-anchor="middle" x="26.59" y="-219.68" font-family="Times,serif" font-size="14.00">09fb3c2b</text>
</a>
</g>
</g>
<!-- 63e7edbc0e52512afc2ff9cd9d2732bee2c8a123 -->
<g id="node6" class="node">
<title>63e7edbc0e52512afc2ff9cd9d2732bee2c8a123</title>
<g id="a_node6"><a xlink:title="author: First Last &lt;first.last@mail.com&gt;&#10;Wed Jan 01 09:00:00 2025 +0100&#10;committer: Nom Prenom &lt;nom.prenom@mail.com&gt;&#10;Wed Jan 01 09:00:00 2025 +0100&#10;&#10;D">
<polygon fill="darkorange" stroke="darkorange" points="53.19,-179.76 0,-179.76 0,-161.82 53.19,-161.82 53.19,-179.76"/>
<text text-anchor="middle" x="26.59" y="-165.74" font-family="Times,serif" font-size="14.00">63e7edbc</text>
</a>
</g>
</g>
<!-- 09fb3c2be6d936a03d55af5c9551935cfa5f9514&#45;&gt;63e7edbc0e52512afc2ff9cd9d2732bee2c8a123 -->
<g id="edge2" class="edge">
<title>09fb3c2be6d936a03d55af5c9551935cfa5f9514&#45;&gt;63e7edbc0e52512afc2ff9cd9d2732bee2c8a123</title>
<path fill="none" stroke="#1a1a1a" d="M26.59,-215.61C26.59,-207.81 26.59,-195.83 26.59,-186.37"/>
<polygon fill="#1a1a1a" stroke="#1a1a1a" points="28.35,-186.53 26.6,-181.53 24.85,-186.53 28.35,-186.53"/>
</g>
<!-- 283df083a94d26f908a41712541d833677a5f214 -->
<g id="node3" class="node">
<title>283df083a94d26f908a41712541d833677a5f214</title>
<g id="a_node3"><a xlink:title="author: First Last &lt;first.last@mail.com&gt;&#10;Wed Jan 01 09:00:00 2025 +0100&#10;committer: Nom Prenom &lt;nom.prenom@mail.com&gt;&#10;Wed Jan 01 09:00:00 2025 +0100&#10;&#10;E">
<polygon fill="#cdad00" stroke="#cdad00" points="197.19,-233.7 144,-233.7 144,-215.76 197.19,-215.76 197.19,-233.7"/>
<text text-anchor="middle" x="170.59" y="-219.68" font-family="Times,serif" font-size="14.00">283df083</text>
</a>
</g>
</g>
<!-- 283df083a94d26f908a41712541d833677a5f214&#45;&gt;0497c2a004c61f8a0f5aee23f36743418e8873a5 -->
<g id="edge3" class="edge">
<title>283df083a94d26f908a41712541d833677a5f214&#45;&gt;0497c2a004c61f8a0f5aee23f36743418e8873a5</title>
<path fill="none" stroke="#1a1a1a" d="M170.59,-215.61C170.59,-207.81 170.59,-195.83 170.59,-186.37"/>
<polygon fill="#1a1a1a" stroke="#1a1a1a" points="172.35,-186.53 170.6,-181.53 168.85,-186.53 172.35,-186.53"/>
</g>
<!-- 428dc1e7c34f61e59f99225dee0233605e4d328d -->
<g id="node4" class="node">
<title>428dc1e7c34f61e59f99225dee0233605e4d328d</title>
<g id="a_node4"><a xlink:title="author: First Last &lt;first.last@mail.com&gt;&#10;Wed Jan 01 09:00:00 2025 +0100&#10;committer: Nom Prenom &lt;nom.prenom@mail.com&gt;&#10;Wed Jan 01 09:00:00 2025 +0100&#10;&#10;G">
<polygon fill="#cdad00" stroke="#cdad00" points="125.56,-179.76 71.62,-179.76 71.62,-161.82 125.56,-161.82 125.56,-179.76"/>
<text text-anchor="middle" x="98.59" y="-165.74" font-family="Times,serif" font-size="14.00">428dc1e7</text>
</a>
</g>
</g>
<!-- 428dc1e7c34f61e59f99225dee0233605e4d328d&#45;&gt;c95114ce51d4572690bdb32ee0ed0bab5312c91e -->
<g id="edge4" class="edge">
<title>428dc1e7c34f61e59f99225dee0233605e4d328d&#45;&gt;c95114ce51d4572690bdb32ee0ed0bab5312c91e</title>
<path fill="none" stroke="#1a1a1a" d="M98.59,-161.67C98.59,-153.87 98.59,-141.89 98.59,-132.43"/>
<polygon fill="#1a1a1a" stroke="#1a1a1a" points="100.35,-132.59 98.6,-127.59 96.85,-132.59 100.35,-132.59"/>
</g>
<!-- 4878ceed1e061309ab4aee50b9655c8a9968641a -->
<g id="node5" class="node">
<title>4878ceed1e061309ab4aee50b9655c8a9968641a</title>
<g id="a_node5"><a xlink:title="author: First Last &lt;first.last@mail.com&gt;&#10;Wed Jan 01 09:00:00 2025 +0100&#10;committer: Nom Prenom &lt;nom.prenom@mail.com&gt;&#10;Wed Jan 01 09:00:00 2025 +0100&#10;&#10;C">
<polygon fill="darkorange" stroke="darkorange" points="54.19,-125.82 1,-125.82 1,-107.88 54.19,-107.88 54.19,-125.82"/>
<text text-anchor="middle" x="27.59" y="-111.8" font-family="Times,serif" font-size="14.00">4878ceed</text>
</a>
</g>
</g>
<!-- bc9b888fe913619e565b163ffaa9e3eb995b9b4b -->
<g id="node8" class="node">
<title>bc9b888fe913619e565b163ffaa9e3eb995b9b4b</title>
<g id="a_node8"><a xlink:title="author: First Last &lt;first.last@mail.com&gt;&#10;Wed Jan 01 09:00:00 2025 +0100&#10;committer: Nom Prenom &lt;nom.prenom@mail.com&gt;&#10;Wed Jan 01 09:00:00 2025 +0100&#10;&#10;B">
<polygon fill="#cdad00" stroke="#cdad00" points="88.81,-71.88 36.38,-71.88 36.38,-53.94 88.81,-53.94 88.81,-71.88"/>
<text text-anchor="middle" x="62.59" y="-57.86" font-family="Times,serif" font-size="14.00">bc9b888f</text>
</a>
</g>
</g>
<!-- 4878ceed1e061309ab4aee50b9655c8a9968641a&#45;&gt;bc9b888fe913619e565b163ffaa9e3eb995b9b4b -->
<g id="edge5" class="edge">
<title>4878ceed1e061309ab4aee50b9655c8a9968641a&#45;&gt;bc9b888fe913619e565b163ffaa9e3eb995b9b4b</title>
<path fill="none" stroke="#1a1a1a" d="M33.06,-107.73C38.53,-99.63 47.03,-87.01 53.51,-77.4"/>
<polygon fill="#1a1a1a" stroke="#1a1a1a" points="54.86,-78.52 56.2,-73.4 51.96,-76.56 54.86,-78.52"/>
</g>
<!-- 63e7edbc0e52512afc2ff9cd9d2732bee2c8a123&#45;&gt;4878ceed1e061309ab4aee50b9655c8a9968641a -->
<g id="edge6" class="edge">
<title>63e7edbc0e52512afc2ff9cd9d2732bee2c8a123&#45;&gt;4878ceed1e061309ab4aee50b9655c8a9968641a</title>
<path fill="none" stroke="#1a1a1a" d="M26.75,-161.67C26.9,-153.87 27.13,-141.89 27.31,-132.43"/>
<polygon fill="#1a1a1a" stroke="#1a1a1a" points="29.06,-132.63 27.41,-127.59 25.56,-132.56 29.06,-132.63"/>
</g>
<!-- HEAD -->
<g id="node7" class="node">
<title>HEAD</title>
<g id="a_node7"><a xlink:title="feature">
<polygon fill="cornflowerblue" stroke="cornflowerblue" points="190.06,-341.58 151.12,-341.58 151.12,-323.64 190.06,-323.64 190.06,-341.58"/>
<text text-anchor="middle" x="170.59" y="-327.56" font-family="Times,serif" font-size="14.00">HEAD</text>
</a>
</g>
</g>
<!-- local&#45;branch&#45;feature -->
<g id="node11" class="node">
<title>local&#45;branch&#45;feature</title>
<g id="a_node11"><a xlink:title="&#45;&gt; None">
<polygon fill="forestgreen" stroke="forestgreen" points="190.06,-287.64 151.12,-287.64 151.12,-269.7 190.06,-269.7 190.06,-287.64"/>
<text text-anchor="middle" x="170.59" y="-273.62" font-family="Times,serif" font-size="14.00">feature</text>
</a>
</g>
</g>
<!-- HEAD&#45;&gt;local&#45;branch&#45;feature -->
<g id="edge7" class="edge">
<title>HEAD&#45;&gt;local&#45;branch&#45;feature</title>
<path fill="none" stroke="#1a1a1a" d="M170.59,-323.49C170.59,-315.69 170.59,-303.71 170.59,-294.25"/>
<polygon fill="#1a1a1a" stroke="#1a1a1a" points="172.35,-294.41 170.6,-289.41 168.85,-294.41 172.35,-294.41"/>
</g>
<!-- ea0bd76be523844f6b6f7745efc26b63d8ece1b5 -->
<g id="node10" class="node">
<title>ea0bd76be523844f6b6f7745efc26b63d8ece1b5</title>
<g id="a_node10"><a xlink:title="author: First Last &lt;first.last@mail.com&gt;&#10;Wed Jan 01 09:00:00 2025 +0100&#10;committer: Nom Prenom &lt;nom.prenom@mail.com&gt;&#10;Wed Jan 01 09:00:00 2025 +0100&#10;&#10;A">
<polygon fill="#cdad00" stroke="#cdad00" points="89.56,-17.94 35.62,-17.94 35.62,0 89.56,0 89.56,-17.94"/>
<text text-anchor="middle" x="62.59" y="-3.92" font-family="Times,serif" font-size="14.00">ea0bd76b</text>
</a>
</g>
</g>
<!-- bc9b888fe913619e565b163ffaa9e3eb995b9b4b&#45;&gt;ea0bd76be523844f6b6f7745efc26b63d8ece1b5 -->
<g id="edge8" class="edge">
<title>bc9b888fe913619e565b163ffaa9e3eb995b9b4b&#45;&gt;ea0bd76be523844f6b6f7745efc26b63d8ece1b5</title>
<path fill="none" stroke="#1a1a1a" d="M62.59,-53.79C62.59,-45.99 62.59,-34.01 62.59,-24.55"/>
<polygon fill="#1a1a1a" stroke="#1a1a1a" points="64.35,-24.71 62.6,-19.71 60.85,-24.71 64.35,-24.71"/>
</g>
<!-- c95114ce51d4572690bdb32ee0ed0bab5312c91e&#45;&gt;bc9b888fe913619e565b163ffaa9e3eb995b9b4b -->
<g id="edge9" class="edge">
<title>c95114ce51d4572690bdb32ee0ed0bab5312c91e&#45;&gt;bc9b888fe913619e565b163ffaa9e3eb995b9b4b</title>
<path fill="none" stroke="#1a1a1a" d="M92.97,-107.73C87.35,-99.63 78.61,-87.01 71.94,-77.4"/>
<polygon fill="#1a1a1a" stroke="#1a1a1a" points="73.45,-76.5 69.16,-73.38 70.57,-78.49 73.45,-76.5"/>
</g>
<!-- local&#45;branch&#45;feature&#45;&gt;283df083a94d26f908a41712541d833677a5f214 -->
<g id="edge10" class="edge">
<title>local&#45;branch&#45;feature&#45;&gt;283df083a94d26f908a41712541d833677a5f214</title>
<path fill="none" stroke="#1a1a1a" d="M170.59,-269.55C170.59,-261.75 170.59,-249.77 170.59,-240.31"/>
<polygon fill="#1a1a1a" stroke="#1a1a1a" points="172.35,-240.47 170.6,-235.47 168.85,-240.47 172.35,-240.47"/>
</g>
<!-- local&#45;branch&#45;main -->
<g id="node12" class="node">
<title>local&#45;branch&#45;main</title>
<g id="a_node12"><a xlink:title="&#45;&gt; None">
<polygon fill="forestgreen" stroke="forestgreen" points="113.19,-233.7 84,-233.7 84,-215.76 113.19,-215.76 113.19,-233.7"/>
<text text-anchor="middle" x="98.59" y="-219.68" font-family="Times,serif" font-size="14.00">main</text>
</a>
</g>
</g>
<!-- local&#45;branch&#45;main&#45;&gt;428dc1e7c34f61e59f99225dee0233605e4d328d -->
<g id="edge11" class="edge">
<title>local&#45;branch&#45;main&#45;&gt;428dc1e7c34f61e59f99225dee0233605e4d328d</title>
<path fill="none" stroke="#1a1a1a" d="M98.59,-215.61C98.59,-207.81 98.59,-195.83 98.59,-186.37"/>
<polygon fill="#1a1a1a" stroke="#1a1a1a" points="100.35,-186.53 98.6,-181.53 96.85,-186.53 100.35,-186.53"/>
</g>
</g>
</svg>
