<?xml version="1.0" encoding="UTF-8" standalone="no"?>
<!DOCTYPE svg PUBLIC "-//W3C//DTD SVG 1.1//EN"
 "http://www.w3.org/Graphics/SVG/1.1/DTD/svg11.dtd">
<!-- Generated by graphviz version 12.1.0 (20240811.2233)
 -->
<!-- Pages: 1 -->
<svg width="134pt" height="350pt"
 viewBox="0.00 0.00 133.56 349.58" xmlns="http://www.w3.org/2000/svg" xmlns:xlink="http://www.w3.org/1999/xlink">
<g id="graph0" class="graph" transform="scale(1 1) rotate(0) translate(4 345.58)">
<polygon fill="white" stroke="none" points="-4,4 -4,-345.58 129.56,-345.58 129.56,4 -4,4"/>
<!-- 09fb3c2be6d936a03d55af5c9551935cfa5f9514 -->
<g id="node1" class="node">
<title>09fb3c2be6d936a03d55af5c9551935cfa5f9514</title>
<g id="a_node1"><a xlink:title="author: First Last &lt;first.last@mail.com&gt;&#10;Wed Jan 01 09:00:00 2025 +0100&#10;committer: Nom Prenom &lt;nom.prenom@mail.com&gt;&#10;Wed Jan 01 09:00:00 2025 +0100&#10;&#10;E">
<polygon fill="#cdad00" stroke="red" points="125.19,-233.7 72.75,-233.7 72.75,-215.76 125.19,-215.76 125.19,-233.7"/>
<text text-anchor="middle" x="98.97" y="-219.68" font-family="Times,serif" font-size="14.00">09fb3c2b</text>
</a>
</g>
</g>
<!-- 63e7edbc0e52512afc2ff9cd9d2732bee2c8a123 -->
<g id="node4" class="node">
<title>63e7edbc0e52512afc2ff9cd9d2732bee2c8a123</title>
<g id="a_node4"><a xlink:title="author: First Last &lt;first.last@mail.com&gt;&#10;Wed Jan 01 09:00:00 2025 +0100&#10;committer: Nom Prenom &lt;nom.prenom@mail.com&gt;&#10;Wed Jan 01 09:00:00 2025 +0100&#10;&#10;D">
<polygon fill="#cdad00" stroke="red" points="125.56,-179.76 72.38,-179.76 72.38,-161.82 125.56,-161.82 125.56,-179.76"/>
<text text-anchor="middle" x="98.97" y="-165.74" font-family="Times,serif" font-size="14.00">63e7edbc</text>
</a>
</g>
</g>
<!-- 09fb3c2be6d936a03d55af5c9551935cfa5f9514&#45;&gt;63e7edbc0e52512afc2ff9cd9d2732bee2c8a123 -->
<g id="edge1" class="edge">
<title>09fb3c2be6d936a03d55af5c9551935cfa5f9514&#45;&gt;63e7edbc0e52512afc2ff9cd9d2732bee2c8a123</title>
<path fill="none" stroke="#1a1a1a" d="M98.97,-215.61C98.97,-207.81 98.97,-195.83 98.97,-186.37"/>
<polygon fill="#1a1a1a" stroke="#1a1a1a" points="100.72,-186.53 98.97,-181.53 97.22,-186.53 100.72,-186.53"/>
</g>
<!-- 428dc1e7c34f61e59f99225dee0233605e4d328d -->
<g id="node2" class="node">
<title>428dc1e7c34f61e59f99225dee0233605e4d328d</title>
<g id="a_node2"><a xlink:title="author: First Last &lt;first.last@mail.com&gt;&#10;Wed Jan 01 09:00:00 2025 +0100&#10;committer: Nom Prenom &lt;nom.prenom@mail.com&gt;&#10;Wed Jan 01 09:00:00 2025 +0100&#10;&#10;G">
<polygon fill="#cdad00" stroke="#cdad00" points="53.94,-179.76 0,-179.76 0,-161.82 53.94,-161.82 53.94,-179.76"/>
<text text-anchor="middle" x="26.97" y="-165.74" font-family="Times,serif" font-size="14.00">428dc1e7</text>
</a>
</g>
</g>
<!-- c95114ce51d4572690bdb32ee0ed0bab5312c91e -->
<g id="node7" class="node">
<title>c95114ce51d4572690bdb32ee0ed0bab5312c91e</title>
<g id="a_node7"><a xlink:title="author: First Last &lt;first.last@mail.com&gt;&#10;Wed Jan 01 09:00:00 2025 +0100&#10;committer: Nom Prenom &lt;nom.prenom@mail.com&gt;&#10;Wed Jan 01 09:00:00 2025 +0100&#10;&#10;F">
<polygon fill="#cdad00" stroke="#cdad00" points="53.56,-125.82 0.38,-125.82 0.38,-107.88 53.56,-107.88 53.56,-125.82"/>
<text text-anchor="middle" x="26.97" y="-111.8" font-family="Times,serif" font-size="14.00">c95114ce</text>
</a>
</g>
</g>
<!-- 428dc1e7c34f61e59f99225dee0233605e4d328d&#45;&gt;c95114ce51d4572690bdb32ee0ed0bab5312c91e -->
<g id="edge2" class="edge">
<title>428dc1e7c34f61e59f99225dee0233605e4d328d&#45;&gt;c95114ce51d4572690bdb32ee0ed0bab5312c91e</title>
<path fill="none" stroke="#1a1a1a" d="M26.97,-161.67C26.97,-153.87 26.97,-141.89 26.97,-132.43"/>
<polygon fill="#1a1a1a" stroke="#1a1a1a" points="28.72,-132.59 26.97,-127.59 25.22,-132.59 28.72,-132.59"/>
</g>
<!-- 4878ceed1e061309ab4aee50b9655c8a9968641a -->
<g id="node3" class="node">
<title>4878ceed1e061309ab4aee50b9655c8a9968641a</title>
<g id="a_node3"><a xlink:title="author: First Last &lt;first.last@mail.com&gt;&#10;Wed Jan 01 09:00:00 2025 +0100&#10;committer: Nom Prenom &lt;nom.prenom@mail.com&gt;&#10;Wed Jan 01 09:00:00 2025 +0100&#10;&#10;C">
<polygon fill="#cdad00" stroke="#cdad00" points="124.56,-125.82 71.38,-125.82 71.38,-107.88 124.56,-107.88 124.56,-125.82"/>
<text text-anchor="middle" x="97.97" y="-111.8" font-family="Times,serif" font-size="14.00">4878ceed</text>
</a>
</g>
</g>
<!-- bc9b888fe913619e565b163ffaa9e3eb995b9b4b -->
<g id="node6" class="node">
<title>bc9b888fe913619e565b163ffaa9e3eb995b9b4b</title>
<g id="a_node6"><a xlink:title="author: First Last &lt;first.last@mail.com&gt;&#10;Wed Jan 01 09:00:00 2025 +0100&#10;committer: Nom Prenom &lt;nom.prenom@mail.com&gt;&#10;Wed Jan 01 09:00:00 2025 +0100&#10;&#10;B">
<polygon fill="#cdad00" stroke="#cdad00" points="88.19,-71.88 35.75,-71.88 35.75,-53.94 88.19,-53.94 88.19,-71.88"/>
<text text-anchor="middle" x="61.97" y="-57.86" font-family="Times,serif" font-size="14.00">bc9b888f</text>
</a>
</g>
</g>
<!-- 4878ceed1e061309ab4aee50b9655c8a9968641a&#45;&gt;bc9b888fe913619e565b163ffaa9e3eb995b9b4b -->
<g id="edge3" class="edge">
<title>4878ceed1e061309ab4aee50b9655c8a9968641a&#45;&gt;bc9b888fe913619e565b163ffaa9e3eb995b9b4b</title>
<path fill="none" stroke="#1a1a1a" d="M92.34,-107.73C86.72,-99.63 77.98,-87.01 71.32,-77.4"/>
<polygon fill="#1a1a1a" stroke="#1a1a1a" points="72.82,-76.5 68.54,-73.38 69.95,-78.49 72.82,-76.5"/>
</g>
<!-- 63e7edbc0e52512afc2ff9cd9d2732bee2c8a123&#45;&gt;4878ceed1e061309ab4aee50b9655c8a9968641a -->
<g id="edge4" class="edge">
<title>63e7edbc0e52512afc2ff9cd9d2732bee2c8a123&#45;&gt;4878ceed1e061309ab4aee50b9655c8a9968641a</title>
<path fill="none" stroke="#1a1a1a" d="M98.81,-161.67C98.66,-153.87 98.43,-141.89 98.25,-132.43"/>
<polygon fill="#1a1a1a" stroke="#1a1a1a" points="100,-132.56 98.16,-127.59 96.5,-132.63 100,-132.56"/>
</g>
<!-- HEAD -->
<g id="node5" class="node">
<title>HEAD</title>
<g id="a_node5"><a xlink:title="feature">
<polygon fill="cornflowerblue" stroke="cornflowerblue" points="118.44,-341.58 79.5,-341.58 79.5,-323.64 118.44,-323.64 118.44,-341.58"/>
<text text-anchor="middle" x="98.97" y="-327.56" font-family="Times,serif" font-size="14.00">HEAD</text>
</a>
</g>
</g>
<!-- local&#45;branch&#45;feature -->
<g id="node9" class="node">
<title>local&#45;branch&#45;feature</title>
<g id="a_node9"><a xlink:title="&#45;&gt; None">
<polygon fill="forestgreen" stroke="forestgreen" points="118.44,-287.64 79.5,-287.64 79.5,-269.7 118.44,-269.7 118.44,-287.64"/>
<text text-anchor="middle" x="98.97" y="-273.62" font-family="Times,serif" font-size="14.00">feature</text>
</a>
</g>
</g>
<!-- HEAD&#45;&gt;local&#45;branch&#45;feature -->
<g id="edge5" class="edge">
<title>HEAD&#45;&gt;local&#45;branch&#45;feature</title>
<path fill="none" stroke="#1a1a1a" d="M98.97,-323.49C98.97,-315.69 98.97,-303.71 98.97,-294.25"/>
<polygon fill="#1a1a1a" stroke="#1a1a1a" points="100.72,-294.41 98.97,-289.41 97.22,-294.41 100.72,-294.41"/>
</g>
<!-- ea0bd76be523844f6b6f7745efc26b63d8ece1b5 -->
<g id="node8" class="node">
<title>ea0bd76be523844f6b6f7745efc26b63d8ece1b5</title>
<g id="a_node8"><a xlink:title="author: First Last &lt;first.last@mail.com&gt;&#10;Wed Jan 01 09:00:00 2025 +0100&#10;committer: Nom Prenom &lt;nom.prenom@mail.com&gt;&#10;Wed Jan 01 09:00:00 2025 +0100&#10;&#10;A">
<polygon fill="#cdad00" stroke="#cdad00" points="88.94,-17.94 35,-17.94 35,0 88.94,0 88.94,-17.94"/>
<text text-anchor="middle" x="61.97" y="-3.92" font-family="Times,serif" font-size="14.00">ea0bd76b</text>
</a>
</g>
</g>
<!-- bc9b888fe913619e565b163ffaa9e3eb995b9b4b&#45;&gt;ea0bd76be523844f6b6f7745efc26b63d8ece1b5 -->
<g id="edge6" class="edge">
<title>bc9b888fe913619e565b163ffaa9e3eb995b9b4b&#45;&gt;ea0bd76be523844f6b6f7745efc26b63d8ece1b5</title>
<path fill="none" stroke="#1a1a1a" d="M61.97,-53.79C61.97,-45.99 61.97,-34.01 61.97,-24.55"/>
<polygon fill="#1a1a1a" stroke="#1a1a1a" points="63.72,-24.71 61.97,-19.71 60.22,-24.71 63.72,-24.71"/>
</g>
<!-- c95114ce51d4572690bdb32ee0ed0bab5312c91e&#45;&gt;bc9b888fe913619e565b163ffaa9e3eb995b9b4b -->
<g id="edge7" class="edge">
<title>c95114ce51d4572690bdb32ee0ed0bab5312c91e&#45;&gt;bc9b888fe913619e565b163ffaa9e3eb995b9b4b</title>
<path fill="none" stroke="#1a1a1a" d="M32.44,-107.73C37.9,-99.63 46.4,-87.01 52.88,-77.4"/>
<polygon fill="#1a1a1a" stroke="#1a1a1a" points="54.24,-78.52 55.58,-73.4 51.33,-76.56 54.24,-78.52"/>
</g>
<!-- local&#45;branch&#45;feature&#45;&gt;09fb3c2be6d936a03d55af5c9551935cfa5f9514 -->
<g id="edge8" class="edge">
<title>local&#45;branch&#45;feature&#45;&gt;09fb3c2be6d936a03d55af5c9551935cfa5f9514</title>
<path fill="none" stroke="#1a1a1a" d="M98.97,-269.55C98.97,-261.75 98.97,-249.77 98.97,-240.31"/>
<polygon fill="#1a1a1a" stroke="#1a1a1a" points="100.72,-240.47 98.97,-235.47 97.22,-240.47 100.72,-240.47"/>
</g>
<!-- local&#45;branch&#45;main -->
<g id="node10" class="node">
<title>local&#45;branch&#45;main</title>
<g id="a_node10"><a xlink:title="&#45;&gt; None">
<polygon fill="forestgreen" stroke="forestgreen" points="41.56,-233.7 12.37,-233.7 12.37,-215.76 41.56,-215.76 41.56,-233.7"/>
<text text-anchor="middle" x="26.97" y="-219.68" font-family="Times,serif" font-size="14.00">main</text>
</a>
</g>
</g>
<!-- local&#45;branch&#45;main&#45;&gt;428dc1e7c34f61e59f99225dee0233605e4d328d -->
<g id="edge9" class="edge">
<title>local&#45;branch&#45;main&#45;&gt;428dc1e7c34f61e59f99225dee0233605e4d328d</title>
<path fill="none" stroke="#1a1a1a" d="M26.97,-215.61C26.97,-207.81 26.97,-195.83 26.97,-186.37"/>
<polygon fill="#1a1a1a" stroke="#1a1a1a" points="28.72,-186.53 26.97,-181.53 25.22,-186.53 28.72,-186.53"/>
</g>
</g>
</svg>
