<?xml version="1.0" encoding="UTF-8" standalone="no"?>
<!DOCTYPE svg PUBLIC "-//W3C//DTD SVG 1.1//EN"
 "http://www.w3.org/Graphics/SVG/1.1/DTD/svg11.dtd">
<!-- Generated by graphviz version 12.1.0 (20240811.2233)
 -->
<!-- Pages: 1 -->
<svg width="249pt" height="457pt"
 viewBox="0.00 0.00 249.19 457.46" xmlns="http://www.w3.org/2000/svg" xmlns:xlink="http://www.w3.org/1999/xlink">
<g id="graph0" class="graph" transform="scale(1 1) rotate(0) translate(4 453.46)">
<polygon fill="white" stroke="none" points="-4,4 -4,-453.46 245.19,-453.46 245.19,4 -4,4"/>
<!-- 2ab982e69e256f5c992cdd1b38ddac935b2ad81f -->
<g id="node1" class="node">
<title>2ab982e69e256f5c992cdd1b38ddac935b2ad81f</title>
<g id="a_node1"><a xlink:title="author: First Last &lt;first.last@mail.com&gt;&#10;Wed Jan 01 09:00:00 2025 +0100&#10;committer: Nom Prenom &lt;nom.prenom@mail.com&gt;&#10;Wed Jan 01 09:00:00 2025 +0100&#10;&#10;C6">
<polygon fill="#cdad00" stroke="#cdad00" points="195.56,-179.76 141.62,-179.76 141.62,-161.82 195.56,-161.82 195.56,-179.76"/>
<text text-anchor="middle" x="168.59" y="-165.74" font-family="Times,serif" font-size="14.00">2ab982e6</text>
</a>
</g>
</g>
<!-- e3fd60effb75deaa4ddd41b68e2ad7275ed4123e -->
<g id="node11" class="node">
<title>e3fd60effb75deaa4ddd41b68e2ad7275ed4123e</title>
<g id="a_node11"><a xlink:title="author: First Last &lt;first.last@mail.com&gt;&#10;Wed Jan 01 09:00:00 2025 +0100&#10;committer: Nom Prenom &lt;nom.prenom@mail.com&gt;&#10;Wed Jan 01 09:00:00 2025 +0100&#10;&#10;C5">
<polygon fill="#cdad00" stroke="#cdad00" points="192.31,-125.82 142.88,-125.82 142.88,-107.88 192.31,-107.88 192.31,-125.82"/>
<text text-anchor="middle" x="167.59" y="-111.8" font-family="Times,serif" font-size="14.00">e3fd60ef</text>
</a>
</g>
</g>
<!-- 2ab982e69e256f5c992cdd1b38ddac935b2ad81f&#45;&gt;e3fd60effb75deaa4ddd41b68e2ad7275ed4123e -->
<g id="edge1" class="edge">
<title>2ab982e69e256f5c992cdd1b38ddac935b2ad81f&#45;&gt;e3fd60effb75deaa4ddd41b68e2ad7275ed4123e</title>
<path fill="none" stroke="#1a1a1a" d="M168.44,-161.67C168.29,-153.87 168.06,-141.89 167.88,-132.43"/>
<polygon fill="#1a1a1a" stroke="#1a1a1a" points="169.63,-132.56 167.78,-127.59 166.13,-132.63 169.63,-132.56"/>
</g>
<!-- 47854f701655db1efb8339f9d6ad0fd4feaeef75 -->
<g id="node2" class="node">
<title>47854f701655db1efb8339f9d6ad0fd4feaeef75</title>
<g id="a_node2"><a xlink:title="author: First Last &lt;first.last@mail.com&gt;&#10;Wed Jan 01 09:00:00 2025 +0100&#10;committer: Nom Prenom &lt;nom.prenom@mail.com&gt;&#10;Wed Jan 01 09:00:00 2025 +0100&#10;&#10;C4">
<polygon fill="darkorange" stroke="darkorange" points="53.19,-179.76 0,-179.76 0,-161.82 53.19,-161.82 53.19,-179.76"/>
<text text-anchor="middle" x="26.59" y="-165.74" font-family="Times,serif" font-size="14.00">47854f70</text>
</a>
</g>
</g>
<!-- 998d091eb3592a5cd4f7489595375afabc5ad460 -->
<g id="node3" class="node">
<title>998d091eb3592a5cd4f7489595375afabc5ad460</title>
<g id="a_node3"><a xlink:title="author: First Last &lt;first.last@mail.com&gt;&#10;Wed Jan 01 09:00:00 2025 +0100&#10;committer: Nom Prenom &lt;nom.prenom@mail.com&gt;&#10;Wed Jan 01 09:00:00 2025 +0100&#10;&#10;C3">
<polygon fill="#cdad00" stroke="red" points="124.94,-125.82 70.25,-125.82 70.25,-107.88 124.94,-107.88 124.94,-125.82"/>
<text text-anchor="middle" x="97.59" y="-111.8" font-family="Times,serif" font-size="14.00">998d091e</text>
</a>
</g>
</g>
<!-- 47854f701655db1efb8339f9d6ad0fd4feaeef75&#45;&gt;998d091eb3592a5cd4f7489595375afabc5ad460 -->
<g id="edge2" class="edge">
<title>47854f701655db1efb8339f9d6ad0fd4feaeef75&#45;&gt;998d091eb3592a5cd4f7489595375afabc5ad460</title>
<path fill="none" stroke="#1a1a1a" d="M38,-161.44C49.77,-152.84 68.22,-139.34 81.47,-129.64"/>
<polygon fill="#1a1a1a" stroke="#1a1a1a" points="82.23,-131.26 85.23,-126.9 80.16,-128.44 82.23,-131.26"/>
</g>
<!-- cb7886e8f20193d5ec1ef9110058ec413de21ac4 -->
<g id="node8" class="node">
<title>cb7886e8f20193d5ec1ef9110058ec413de21ac4</title>
<g id="a_node8"><a xlink:title="author: First Last &lt;first.last@mail.com&gt;&#10;Wed Jan 01 09:00:00 2025 +0100&#10;committer: Nom Prenom &lt;nom.prenom@mail.com&gt;&#10;Wed Jan 01 09:00:00 2025 +0100&#10;&#10;C2">
<polygon fill="#cdad00" stroke="#cdad00" points="159.56,-71.88 105.62,-71.88 105.62,-53.94 159.56,-53.94 159.56,-71.88"/>
<text text-anchor="middle" x="132.59" y="-57.86" font-family="Times,serif" font-size="14.00">cb7886e8</text>
</a>
</g>
</g>
<!-- 998d091eb3592a5cd4f7489595375afabc5ad460&#45;&gt;cb7886e8f20193d5ec1ef9110058ec413de21ac4 -->
<g id="edge3" class="edge">
<title>998d091eb3592a5cd4f7489595375afabc5ad460&#45;&gt;cb7886e8f20193d5ec1ef9110058ec413de21ac4</title>
<path fill="none" stroke="#1a1a1a" d="M103.06,-107.73C108.53,-99.63 117.03,-87.01 123.51,-77.4"/>
<polygon fill="#1a1a1a" stroke="#1a1a1a" points="124.86,-78.52 126.2,-73.4 121.96,-76.56 124.86,-78.52"/>
</g>
<!-- HEAD -->
<g id="node4" class="node">
<title>HEAD</title>
<g id="a_node4"><a xlink:title="server">
<polygon fill="cornflowerblue" stroke="cornflowerblue" points="187.06,-449.46 148.12,-449.46 148.12,-431.52 187.06,-431.52 187.06,-449.46"/>
<text text-anchor="middle" x="167.59" y="-435.44" font-family="Times,serif" font-size="14.00">HEAD</text>
</a>
</g>
</g>
<!-- local&#45;branch&#45;server -->
<g id="node16" class="node">
<title>local&#45;branch&#45;server</title>
<g id="a_node16"><a xlink:title="&#45;&gt; None">
<polygon fill="forestgreen" stroke="forestgreen" points="184.81,-395.52 150.38,-395.52 150.38,-377.58 184.81,-377.58 184.81,-395.52"/>
<text text-anchor="middle" x="167.59" y="-381.5" font-family="Times,serif" font-size="14.00">server</text>
</a>
</g>
</g>
<!-- HEAD&#45;&gt;local&#45;branch&#45;server -->
<g id="edge4" class="edge">
<title>HEAD&#45;&gt;local&#45;branch&#45;server</title>
<path fill="none" stroke="#1a1a1a" d="M167.59,-431.37C167.59,-423.57 167.59,-411.59 167.59,-402.13"/>
<polygon fill="#1a1a1a" stroke="#1a1a1a" points="169.35,-402.29 167.6,-397.29 165.85,-402.29 169.35,-402.29"/>
</g>
<!-- a260fb7d9772e1a537524c794fa344b4f6b7d150 -->
<g id="node5" class="node">
<title>a260fb7d9772e1a537524c794fa344b4f6b7d150</title>
<g id="a_node5"><a xlink:title="author: First Last &lt;first.last@mail.com&gt;&#10;Wed Jan 01 09:00:00 2025 +0100&#10;committer: Nom Prenom &lt;nom.prenom@mail.com&gt;&#10;Wed Jan 01 09:00:00 2025 +0100&#10;&#10;C8">
<polygon fill="#cdad00" stroke="#cdad00" points="123.81,-179.76 71.38,-179.76 71.38,-161.82 123.81,-161.82 123.81,-179.76"/>
<text text-anchor="middle" x="97.59" y="-165.74" font-family="Times,serif" font-size="14.00">a260fb7d</text>
</a>
</g>
</g>
<!-- a260fb7d9772e1a537524c794fa344b4f6b7d150&#45;&gt;998d091eb3592a5cd4f7489595375afabc5ad460 -->
<g id="edge5" class="edge">
<title>a260fb7d9772e1a537524c794fa344b4f6b7d150&#45;&gt;998d091eb3592a5cd4f7489595375afabc5ad460</title>
<path fill="none" stroke="#1a1a1a" d="M97.59,-161.67C97.59,-153.87 97.59,-141.89 97.59,-132.43"/>
<polygon fill="#1a1a1a" stroke="#1a1a1a" points="99.35,-132.59 97.6,-127.59 95.85,-132.59 99.35,-132.59"/>
</g>
<!-- a641fc5250497777fe4d48e50c8902ed74c30a3e -->
<g id="node6" class="node">
<title>a641fc5250497777fe4d48e50c8902ed74c30a3e</title>
<g id="a_node6"><a xlink:title="author: First Last &lt;first.last@mail.com&gt;&#10;Wed Jan 01 09:00:00 2025 +0100&#10;committer: Nom Prenom &lt;nom.prenom@mail.com&gt;&#10;Wed Jan 01 09:00:00 2025 +0100&#10;&#10;C9">
<polygon fill="#cdad00" stroke="#cdad00" points="123.44,-233.7 71.75,-233.7 71.75,-215.76 123.44,-215.76 123.44,-233.7"/>
<text text-anchor="middle" x="97.59" y="-219.68" font-family="Times,serif" font-size="14.00">a641fc52</text>
</a>
</g>
</g>
<!-- a641fc5250497777fe4d48e50c8902ed74c30a3e&#45;&gt;a260fb7d9772e1a537524c794fa344b4f6b7d150 -->
<g id="edge6" class="edge">
<title>a641fc5250497777fe4d48e50c8902ed74c30a3e&#45;&gt;a260fb7d9772e1a537524c794fa344b4f6b7d150</title>
<path fill="none" stroke="#1a1a1a" d="M97.59,-215.61C97.59,-207.81 97.59,-195.83 97.59,-186.37"/>
<polygon fill="#1a1a1a" stroke="#1a1a1a" points="99.35,-186.53 97.6,-181.53 95.85,-186.53 99.35,-186.53"/>
</g>
<!-- cb4c55fd37ccea057861cd423278984d00697a9b -->
<g id="node7" class="node">
<title>cb4c55fd37ccea057861cd423278984d00697a9b</title>
<g id="a_node7"><a xlink:title="author: First Last &lt;first.last@mail.com&gt;&#10;Wed Jan 01 09:00:00 2025 +0100&#10;committer: Nom Prenom &lt;nom.prenom@mail.com&gt;&#10;Wed Jan 01 09:00:00 2025 +0100&#10;&#10;C10">
<polygon fill="darkorange" stroke="darkorange" points="52.44,-233.7 0.75,-233.7 0.75,-215.76 52.44,-215.76 52.44,-233.7"/>
<text text-anchor="middle" x="26.59" y="-219.68" font-family="Times,serif" font-size="14.00">cb4c55fd</text>
</a>
</g>
</g>
<!-- cb4c55fd37ccea057861cd423278984d00697a9b&#45;&gt;47854f701655db1efb8339f9d6ad0fd4feaeef75 -->
<g id="edge7" class="edge">
<title>cb4c55fd37ccea057861cd423278984d00697a9b&#45;&gt;47854f701655db1efb8339f9d6ad0fd4feaeef75</title>
<path fill="none" stroke="#1a1a1a" d="M26.59,-215.61C26.59,-207.81 26.59,-195.83 26.59,-186.37"/>
<polygon fill="#1a1a1a" stroke="#1a1a1a" points="28.35,-186.53 26.6,-181.53 24.85,-186.53 28.35,-186.53"/>
</g>
<!-- dfaa4786078702fd10ee5f3f50038227dcf9e31b -->
<g id="node10" class="node">
<title>dfaa4786078702fd10ee5f3f50038227dcf9e31b</title>
<g id="a_node10"><a xlink:title="author: First Last &lt;first.last@mail.com&gt;&#10;Wed Jan 01 09:00:00 2025 +0100&#10;committer: Nom Prenom &lt;nom.prenom@mail.com&gt;&#10;Wed Jan 01 09:00:00 2025 +0100&#10;&#10;C1">
<polygon fill="#cdad00" stroke="#cdad00" points="158.44,-17.94 106.75,-17.94 106.75,0 158.44,0 158.44,-17.94"/>
<text text-anchor="middle" x="132.59" y="-3.92" font-family="Times,serif" font-size="14.00">dfaa4786</text>
</a>
</g>
</g>
<!-- cb7886e8f20193d5ec1ef9110058ec413de21ac4&#45;&gt;dfaa4786078702fd10ee5f3f50038227dcf9e31b -->
<g id="edge8" class="edge">
<title>cb7886e8f20193d5ec1ef9110058ec413de21ac4&#45;&gt;dfaa4786078702fd10ee5f3f50038227dcf9e31b</title>
<path fill="none" stroke="#1a1a1a" d="M132.59,-53.79C132.59,-45.99 132.59,-34.01 132.59,-24.55"/>
<polygon fill="#1a1a1a" stroke="#1a1a1a" points="134.35,-24.71 132.6,-19.71 130.85,-24.71 134.35,-24.71"/>
</g>
<!-- local&#45;branch&#45;client -->
<g id="node9" class="node">
<title>local&#45;branch&#45;client</title>
<g id="a_node9"><a xlink:title="&#45;&gt; None">
<polygon fill="forestgreen" stroke="forestgreen" points="113.31,-287.64 81.88,-287.64 81.88,-269.7 113.31,-269.7 113.31,-287.64"/>
<text text-anchor="middle" x="97.59" y="-273.62" font-family="Times,serif" font-size="14.00">client</text>
</a>
</g>
</g>
<!-- local&#45;branch&#45;client&#45;&gt;a641fc5250497777fe4d48e50c8902ed74c30a3e -->
<g id="edge13" class="edge">
<title>local&#45;branch&#45;client&#45;&gt;a641fc5250497777fe4d48e50c8902ed74c30a3e</title>
<path fill="none" stroke="#1a1a1a" d="M97.59,-269.55C97.59,-261.75 97.59,-249.77 97.59,-240.31"/>
<polygon fill="#1a1a1a" stroke="#1a1a1a" points="99.35,-240.47 97.6,-235.47 95.85,-240.47 99.35,-240.47"/>
</g>
<!-- e3fd60effb75deaa4ddd41b68e2ad7275ed4123e&#45;&gt;cb7886e8f20193d5ec1ef9110058ec413de21ac4 -->
<g id="edge9" class="edge">
<title>e3fd60effb75deaa4ddd41b68e2ad7275ed4123e&#45;&gt;cb7886e8f20193d5ec1ef9110058ec413de21ac4</title>
<path fill="none" stroke="#1a1a1a" d="M162.13,-107.73C156.66,-99.63 148.16,-87.01 141.68,-77.4"/>
<polygon fill="#1a1a1a" stroke="#1a1a1a" points="143.23,-76.56 138.99,-73.4 140.33,-78.52 143.23,-76.56"/>
</g>
<!-- ec2bc09c8d4395df595348dc595e3e0bf439daa8 -->
<g id="node12" class="node">
<title>ec2bc09c8d4395df595348dc595e3e0bf439daa8</title>
<g id="a_node12"><a xlink:title="author: First Last &lt;first.last@mail.com&gt;&#10;Wed Jan 01 09:00:00 2025 +0100&#10;committer: Nom Prenom &lt;nom.prenom@mail.com&gt;&#10;Wed Jan 01 09:00:00 2025 +0100&#10;&#10;C3">
<polygon fill="#cdad00" stroke="red" points="193.81,-233.7 141.38,-233.7 141.38,-215.76 193.81,-215.76 193.81,-233.7"/>
<text text-anchor="middle" x="167.59" y="-219.68" font-family="Times,serif" font-size="14.00">ec2bc09c</text>
</a>
</g>
</g>
<!-- ec2bc09c8d4395df595348dc595e3e0bf439daa8&#45;&gt;2ab982e69e256f5c992cdd1b38ddac935b2ad81f -->
<g id="edge10" class="edge">
<title>ec2bc09c8d4395df595348dc595e3e0bf439daa8&#45;&gt;2ab982e69e256f5c992cdd1b38ddac935b2ad81f</title>
<path fill="none" stroke="#1a1a1a" d="M167.75,-215.61C167.9,-207.81 168.13,-195.83 168.31,-186.37"/>
<polygon fill="#1a1a1a" stroke="#1a1a1a" points="170.06,-186.57 168.41,-181.53 166.56,-186.5 170.06,-186.57"/>
</g>
<!-- ef765ee30fd553c4f3a0f1a348499b7e2d9b4b6b -->
<g id="node13" class="node">
<title>ef765ee30fd553c4f3a0f1a348499b7e2d9b4b6b</title>
<g id="a_node13"><a xlink:title="author: First Last &lt;first.last@mail.com&gt;&#10;Wed Jan 01 09:00:00 2025 +0100&#10;committer: Nom Prenom &lt;nom.prenom@mail.com&gt;&#10;Wed Jan 01 09:00:00 2025 +0100&#10;&#10;C10">
<polygon fill="#cdad00" stroke="#cdad00" points="193.06,-341.58 142.12,-341.58 142.12,-323.64 193.06,-323.64 193.06,-341.58"/>
<text text-anchor="middle" x="167.59" y="-327.56" font-family="Times,serif" font-size="14.00">ef765ee3</text>
</a>
</g>
</g>
<!-- f3c699f275a3b2b7a7a19f8a119c690cad7bd73a -->
<g id="node14" class="node">
<title>f3c699f275a3b2b7a7a19f8a119c690cad7bd73a</title>
<g id="a_node14"><a xlink:title="author: First Last &lt;first.last@mail.com&gt;&#10;Wed Jan 01 09:00:00 2025 +0100&#10;committer: Nom Prenom &lt;nom.prenom@mail.com&gt;&#10;Wed Jan 01 09:00:00 2025 +0100&#10;&#10;C4">
<polygon fill="#cdad00" stroke="#cdad00" points="192.69,-287.64 142.5,-287.64 142.5,-269.7 192.69,-269.7 192.69,-287.64"/>
<text text-anchor="middle" x="167.59" y="-273.62" font-family="Times,serif" font-size="14.00">f3c699f2</text>
</a>
</g>
</g>
<!-- ef765ee30fd553c4f3a0f1a348499b7e2d9b4b6b&#45;&gt;f3c699f275a3b2b7a7a19f8a119c690cad7bd73a -->
<g id="edge11" class="edge">
<title>ef765ee30fd553c4f3a0f1a348499b7e2d9b4b6b&#45;&gt;f3c699f275a3b2b7a7a19f8a119c690cad7bd73a</title>
<path fill="none" stroke="#1a1a1a" d="M167.59,-323.49C167.59,-315.69 167.59,-303.71 167.59,-294.25"/>
<polygon fill="#1a1a1a" stroke="#1a1a1a" points="169.35,-294.41 167.6,-289.41 165.85,-294.41 169.35,-294.41"/>
</g>
<!-- f3c699f275a3b2b7a7a19f8a119c690cad7bd73a&#45;&gt;ec2bc09c8d4395df595348dc595e3e0bf439daa8 -->
<g id="edge12" class="edge">
<title>f3c699f275a3b2b7a7a19f8a119c690cad7bd73a&#45;&gt;ec2bc09c8d4395df595348dc595e3e0bf439daa8</title>
<path fill="none" stroke="#1a1a1a" d="M167.59,-269.55C167.59,-261.75 167.59,-249.77 167.59,-240.31"/>
<polygon fill="#1a1a1a" stroke="#1a1a1a" points="169.35,-240.47 167.6,-235.47 165.85,-240.47 169.35,-240.47"/>
</g>
<!-- local&#45;branch&#45;main -->
<g id="node15" class="node">
<title>local&#45;branch&#45;main</title>
<g id="a_node15"><a xlink:title="&#45;&gt; None">
<polygon fill="forestgreen" stroke="forestgreen" points="241.19,-233.7 212,-233.7 212,-215.76 241.19,-215.76 241.19,-233.7"/>
<text text-anchor="middle" x="226.59" y="-219.68" font-family="Times,serif" font-size="14.00">main</text>
</a>
</g>
</g>
<!-- local&#45;branch&#45;main&#45;&gt;2ab982e69e256f5c992cdd1b38ddac935b2ad81f -->
<g id="edge14" class="edge">
<title>local&#45;branch&#45;main&#45;&gt;2ab982e69e256f5c992cdd1b38ddac935b2ad81f</title>
<path fill="none" stroke="#1a1a1a" d="M217.28,-215.38C207.83,-206.93 193.12,-193.76 182.34,-184.1"/>
<polygon fill="#1a1a1a" stroke="#1a1a1a" points="183.72,-182.98 178.83,-180.95 181.38,-185.59 183.72,-182.98"/>
</g>
<!-- local&#45;branch&#45;server&#45;&gt;ef765ee30fd553c4f3a0f1a348499b7e2d9b4b6b -->
<g id="edge15" class="edge">
<title>local&#45;branch&#45;server&#45;&gt;ef765ee30fd553c4f3a0f1a348499b7e2d9b4b6b</title>
<path fill="none" stroke="#1a1a1a" d="M167.59,-377.43C167.59,-369.63 167.59,-357.65 167.59,-348.19"/>
<polygon fill="#1a1a1a" stroke="#1a1a1a" points="169.35,-348.35 167.6,-343.35 165.85,-348.35 169.35,-348.35"/>
</g>
</g>
</svg>
